<?plantuml 1.2026.2?><svg xmlns="http://www.w3.org/2000/svg" xmlns:xlink="http://www.w3.org/1999/xlink" contentStyleType="text/css" data-diagram-type="DESCRIPTION" height="546px" preserveAspectRatio="none" style="width:1948px;height:546px;background:#FFFFFF;" version="1.1" viewBox="0 0 1948 546" width="1948px" zoomAndPan="magnify"><defs/><g><!--cluster Data Sources--><g class="cluster" data-qualified-name="Data Sources" data-source-line="3" id="ent0002"><path d="M8.5,47.01 L114.2813,47.01 A3.75,3.75 0 0 1 116.7813,49.51 L123.7813,69.3069 L839.5,69.3069 A2.5,2.5 0 0 1 842,71.8069 L842,141.81 A2.5,2.5 0 0 1 839.5,144.31 L8.5,144.31 A2.5,2.5 0 0 1 6,141.81 L6,49.51 A2.5,2.5 0 0 1 8.5,47.01" fill="none" style="stroke:#000000;stroke-width:1.5;"/><line style="stroke:#000000;stroke-width:1.5;" x1="6" x2="123.7813" y1="69.3069" y2="69.3069"/><text fill="#000000" font-family="sans-serif" font-size="14" font-weight="bold" lengthAdjust="spacing" textLength="104.7813" x="10" y="62.0051">Data Sources</text></g><!--cluster Core Monitoring--><g class="cluster" data-qualified-name="Core Monitoring" data-source-line="10" id="ent0007"><path d="M868.5,47.01 L996.9834,47.01 A3.75,3.75 0 0 1 999.4834,49.51 L1006.4834,69.3069 L1220.5,69.3069 A2.5,2.5 0 0 1 1223,71.8069 L1223,267.11 A2.5,2.5 0 0 1 1220.5,269.61 L868.5,269.61 A2.5,2.5 0 0 1 866,267.11 L866,49.51 A2.5,2.5 0 0 1 868.5,47.01" fill="none" style="stroke:#000000;stroke-width:1.5;"/><line style="stroke:#000000;stroke-width:1.5;" x1="866" x2="1006.4834" y1="69.3069" y2="69.3069"/><text fill="#000000" font-family="sans-serif" font-size="14" font-weight="bold" lengthAdjust="spacing" textLength="127.4834" x="870" y="62.0051">Core Monitoring</text></g><!--cluster Visualization--><g class="cluster" data-qualified-name="Visualization" data-source-line="16" id="ent0011"><path d="M906.5,318.61 L1009.1504,318.61 A3.75,3.75 0 0 1 1011.6504,321.11 L1018.6504,340.9069 L1340.5,340.9069 A2.5,2.5 0 0 1 1343,343.4069 L1343,536.7 A2.5,2.5 0 0 1 1340.5,539.2 L906.5,539.2 A2.5,2.5 0 0 1 904,536.7 L904,321.11 A2.5,2.5 0 0 1 906.5,318.61" fill="none" style="stroke:#000000;stroke-width:1.5;"/><line style="stroke:#000000;stroke-width:1.5;" x1="904" x2="1018.6504" y1="340.9069" y2="340.9069"/><text fill="#000000" font-family="sans-serif" font-size="14" font-weight="bold" lengthAdjust="spacing" textLength="101.6504" x="908" y="333.6051">Visualization</text></g><!--cluster Alerting--><g class="cluster" data-qualified-name="Alerting" data-source-line="22" id="ent0015"><path d="M660.5,318.61 L725.0127,318.61 A3.75,3.75 0 0 1 727.5127,321.11 L734.5127,340.9069 L877.5,340.9069 A2.5,2.5 0 0 1 880,343.4069 L880,536.7 A2.5,2.5 0 0 1 877.5,539.2 L660.5,539.2 A2.5,2.5 0 0 1 658,536.7 L658,321.11 A2.5,2.5 0 0 1 660.5,318.61" fill="none" style="stroke:#000000;stroke-width:1.5;"/><line style="stroke:#000000;stroke-width:1.5;" x1="658" x2="734.5127" y1="340.9069" y2="340.9069"/><text fill="#000000" font-family="sans-serif" font-size="14" font-weight="bold" lengthAdjust="spacing" textLength="63.5127" x="662" y="333.6051">Alerting</text></g><!--entity NE--><g class="entity" data-qualified-name="Data Sources.NE" data-source-line="4" id="ent0003"><rect fill="#F1F1F1" height="46.2969" rx="2.5" ry="2.5" style="stroke:#181818;stroke-width:0.5;" width="141.1855" x="22.41" y="82.01"/><rect fill="#F1F1F1" height="10" style="stroke:#181818;stroke-width:0.5;" width="15" x="143.5955" y="87.01"/><rect fill="#F1F1F1" height="2" style="stroke:#181818;stroke-width:0.5;" width="4" x="141.5955" y="89.01"/><rect fill="#F1F1F1" height="2" style="stroke:#181818;stroke-width:0.5;" width="4" x="141.5955" y="93.01"/><text fill="#000000" font-family="sans-serif" font-size="14" lengthAdjust="spacing" textLength="101.1855" x="37.41" y="115.0051">Node Exporter</text></g><!--entity NVE--><g class="entity" data-qualified-name="Data Sources.NVE" data-source-line="5" id="ent0004"><rect fill="#F1F1F1" height="46.2969" rx="2.5" ry="2.5" style="stroke:#181818;stroke-width:0.5;" width="201.5127" x="198.24" y="82.01"/><rect fill="#F1F1F1" height="10" style="stroke:#181818;stroke-width:0.5;" width="15" x="379.7527" y="87.01"/><rect fill="#F1F1F1" height="2" style="stroke:#181818;stroke-width:0.5;" width="4" x="377.7527" y="89.01"/><rect fill="#F1F1F1" height="2" style="stroke:#181818;stroke-width:0.5;" width="4" x="377.7527" y="93.01"/><text fill="#000000" font-family="sans-serif" font-size="14" lengthAdjust="spacing" textLength="161.5127" x="213.24" y="115.0051">NVIDIA/DCGM Exporter</text></g><!--entity KSM--><g class="entity" data-qualified-name="Data Sources.KSM" data-source-line="6" id="ent0005"><rect fill="#F1F1F1" height="46.2969" rx="2.5" ry="2.5" style="stroke:#181818;stroke-width:0.5;" width="172.4258" x="434.79" y="82.01"/><rect fill="#F1F1F1" height="10" style="stroke:#181818;stroke-width:0.5;" width="15" x="587.2158" y="87.01"/><rect fill="#F1F1F1" height="2" style="stroke:#181818;stroke-width:0.5;" width="4" x="585.2158" y="89.01"/><rect fill="#F1F1F1" height="2" style="stroke:#181818;stroke-width:0.5;" width="4" x="585.2158" y="93.01"/><text fill="#000000" font-family="sans-serif" font-size="14" lengthAdjust="spacing" textLength="132.4258" x="449.79" y="115.0051">kube-state-metrics</text></g><!--entity APP--><g class="entity" data-qualified-name="Data Sources.APP" data-source-line="7" id="ent0006"><rect fill="#F1F1F1" height="46.2969" rx="2.5" ry="2.5" style="stroke:#181818;stroke-width:0.5;" width="183.6025" x="642.2" y="82.01"/><rect fill="#F1F1F1" height="10" style="stroke:#181818;stroke-width:0.5;" width="15" x="805.8025" y="87.01"/><rect fill="#F1F1F1" height="2" style="stroke:#181818;stroke-width:0.5;" width="4" x="803.8025" y="89.01"/><rect fill="#F1F1F1" height="2" style="stroke:#181818;stroke-width:0.5;" width="4" x="803.8025" y="93.01"/><text fill="#000000" font-family="sans-serif" font-size="14" lengthAdjust="spacing" textLength="143.6025" x="657.2" y="115.0051">Custom Applications</text></g><!--entity PROM--><g class="entity" data-qualified-name="Core Monitoring.PROM" data-source-line="11" id="ent0008"><rect fill="#F1F1F1" height="46.2969" rx="2.5" ry="2.5" style="stroke:#181818;stroke-width:0.5;" width="174.5176" x="881.74" y="207.31"/><rect fill="#F1F1F1" height="10" style="stroke:#181818;stroke-width:0.5;" width="15" x="1036.2576" y="212.31"/><rect fill="#F1F1F1" height="2" style="stroke:#181818;stroke-width:0.5;" width="4" x="1034.2576" y="214.31"/><rect fill="#F1F1F1" height="2" style="stroke:#181818;stroke-width:0.5;" width="4" x="1034.2576" y="218.31"/><text fill="#000000" font-family="sans-serif" font-size="14" lengthAdjust="spacing" textLength="134.5176" x="896.74" y="240.3051">Prometheus Server</text></g><!--entity PROM_CFG--><g class="entity" data-qualified-name="Core Monitoring.PROM_CFG" data-source-line="12" id="ent0009"><rect fill="#F1F1F1" height="46.2969" rx="2.5" ry="2.5" style="stroke:#181818;stroke-width:0.5;" width="173.5264" x="882.24" y="82.01"/><rect fill="#F1F1F1" height="10" style="stroke:#181818;stroke-width:0.5;" width="15" x="1035.7664" y="87.01"/><rect fill="#F1F1F1" height="2" style="stroke:#181818;stroke-width:0.5;" width="4" x="1033.7664" y="89.01"/><rect fill="#F1F1F1" height="2" style="stroke:#181818;stroke-width:0.5;" width="4" x="1033.7664" y="93.01"/><text fill="#000000" font-family="sans-serif" font-size="14" lengthAdjust="spacing" textLength="133.5264" x="897.24" y="115.0051">Prometheus Config</text></g><!--entity RULES--><g class="entity" data-qualified-name="Core Monitoring.RULES" data-source-line="13" id="ent0010"><rect fill="#F1F1F1" height="46.2969" rx="2.5" ry="2.5" style="stroke:#181818;stroke-width:0.5;" width="116.1729" x="1090.91" y="82.01"/><rect fill="#F1F1F1" height="10" style="stroke:#181818;stroke-width:0.5;" width="15" x="1187.0829" y="87.01"/><rect fill="#F1F1F1" height="2" style="stroke:#181818;stroke-width:0.5;" width="4" x="1185.0829" y="89.01"/><rect fill="#F1F1F1" height="2" style="stroke:#181818;stroke-width:0.5;" width="4" x="1185.0829" y="93.01"/><text fill="#000000" font-family="sans-serif" font-size="14" lengthAdjust="spacing" textLength="76.1729" x="1105.91" y="115.0051">Alert Rules</text></g><!--entity GRAFANA--><g class="entity" data-qualified-name="Visualization.GRAFANA" data-source-line="17" id="ent0012"><rect fill="#F1F1F1" height="46.2969" rx="2.5" ry="2.5" style="stroke:#181818;stroke-width:0.5;" width="146.5039" x="1159.75" y="476.9"/><rect fill="#F1F1F1" height="10" style="stroke:#181818;stroke-width:0.5;" width="15" x="1286.2539" y="481.9"/><rect fill="#F1F1F1" height="2" style="stroke:#181818;stroke-width:0.5;" width="4" x="1284.2539" y="483.9"/><rect fill="#F1F1F1" height="2" style="stroke:#181818;stroke-width:0.5;" width="4" x="1284.2539" y="487.9"/><text fill="#000000" font-family="sans-serif" font-size="14" lengthAdjust="spacing" textLength="106.5039" x="1174.75" y="509.8951">Grafana Server</text></g><!--entity DASH--><g class="entity" data-qualified-name="Visualization.DASH" data-source-line="18" id="ent0013"><rect fill="#F1F1F1" height="46.2969" rx="2.5" ry="2.5" style="stroke:#181818;stroke-width:0.5;" width="184.0879" x="919.96" y="353.61"/><rect fill="#F1F1F1" height="10" style="stroke:#181818;stroke-width:0.5;" width="15" x="1084.0479" y="358.61"/><rect fill="#F1F1F1" height="2" style="stroke:#181818;stroke-width:0.5;" width="4" x="1082.0479" y="360.61"/><rect fill="#F1F1F1" height="2" style="stroke:#181818;stroke-width:0.5;" width="4" x="1082.0479" y="364.61"/><text fill="#000000" font-family="sans-serif" font-size="14" lengthAdjust="spacing" textLength="144.0879" x="934.96" y="386.6051">Grafana Dashboards</text></g><!--entity DS--><g class="entity" data-qualified-name="Visualization.DS" data-source-line="19" id="ent0014"><rect fill="#F1F1F1" height="46.2969" rx="2.5" ry="2.5" style="stroke:#181818;stroke-width:0.5;" width="188.1143" x="1138.94" y="353.61"/><rect fill="#F1F1F1" height="10" style="stroke:#181818;stroke-width:0.5;" width="15" x="1307.0543" y="358.61"/><rect fill="#F1F1F1" height="2" style="stroke:#181818;stroke-width:0.5;" width="4" x="1305.0543" y="360.61"/><rect fill="#F1F1F1" height="2" style="stroke:#181818;stroke-width:0.5;" width="4" x="1305.0543" y="364.61"/><text fill="#000000" font-family="sans-serif" font-size="14" lengthAdjust="spacing" textLength="148.1143" x="1153.94" y="386.6051">Grafana Datasources</text></g><!--entity ALERT--><g class="entity" data-qualified-name="Alerting.ALERT" data-source-line="23" id="ent0016"><rect fill="#F1F1F1" height="46.2969" rx="2.5" ry="2.5" style="stroke:#181818;stroke-width:0.5;" width="136.25" x="727.88" y="353.61"/><rect fill="#F1F1F1" height="10" style="stroke:#181818;stroke-width:0.5;" width="15" x="844.13" y="358.61"/><rect fill="#F1F1F1" height="2" style="stroke:#181818;stroke-width:0.5;" width="4" x="842.13" y="360.61"/><rect fill="#F1F1F1" height="2" style="stroke:#181818;stroke-width:0.5;" width="4" x="842.13" y="364.61"/><text fill="#000000" font-family="sans-serif" font-size="14" lengthAdjust="spacing" textLength="96.25" x="742.88" y="386.6051">Alertmanager</text></g><!--entity NOTIF--><g class="entity" data-qualified-name="Alerting.NOTIF" data-source-line="24" id="ent0017"><rect fill="#F1F1F1" height="46.2969" rx="2.5" ry="2.5" style="stroke:#181818;stroke-width:0.5;" width="189.5498" x="674.23" y="476.9"/><rect fill="#F1F1F1" height="10" style="stroke:#181818;stroke-width:0.5;" width="15" x="843.7798" y="481.9"/><rect fill="#F1F1F1" height="2" style="stroke:#181818;stroke-width:0.5;" width="4" x="841.7798" y="483.9"/><rect fill="#F1F1F1" height="2" style="stroke:#181818;stroke-width:0.5;" width="4" x="841.7798" y="487.9"/><text fill="#000000" font-family="sans-serif" font-size="14" lengthAdjust="spacing" textLength="149.5498" x="689.23" y="509.8951">Notification Channels</text></g><g class="entity" data-qualified-name="GMN29" data-source-line="43" id="ent0030"><path d="M1242.36,85.03 L1242.36,125.2956 L1455.6369,125.2956 L1455.6369,95.03 L1445.6369,85.03 L1242.36,85.03" fill="#FEFFDD" style="stroke:#181818;stroke-width:0.5;"/><path d="M1445.6369,85.03 L1445.6369,95.03 L1455.6369,95.03 L1445.6369,85.03" fill="#FEFFDD" style="stroke:#181818;stroke-width:1;"/><text fill="#000000" font-family="sans-serif" font-size="13" lengthAdjust="spacing" textLength="107.2246" x="1248.36" y="102.0969">"System metrics</text><text fill="#000000" font-family="sans-serif" font-size="13" lengthAdjust="spacing" textLength="192.2769" x="1248.36" y="117.2297">CPU, Memory, Disk, Network"</text></g><g class="entity" data-qualified-name="GMN32" data-source-line="44" id="ent0033"><path d="M1490.82,85.03 L1490.82,125.2956 L1737.1808,125.2956 L1737.1808,95.03 L1727.1808,85.03 L1490.82,85.03" fill="#FEFFDD" style="stroke:#181818;stroke-width:0.5;"/><path d="M1727.1808,85.03 L1727.1808,95.03 L1737.1808,95.03 L1727.1808,85.03" fill="#FEFFDD" style="stroke:#181818;stroke-width:1;"/><text fill="#000000" font-family="sans-serif" font-size="13" lengthAdjust="spacing" textLength="86.1758" x="1496.82" y="102.0969">"GPU metrics</text><text fill="#000000" font-family="sans-serif" font-size="13" lengthAdjust="spacing" textLength="225.3608" x="1496.82" y="117.2297">Utilization, Memory, Temperature"</text></g><g class="entity" data-qualified-name="GMN35" data-source-line="45" id="ent0036"><path d="M1772.08,85.03 L1772.08,125.2956 L1941.9262,125.2956 L1941.9262,95.03 L1931.9262,85.03 L1772.08,85.03" fill="#FEFFDD" style="stroke:#181818;stroke-width:0.5;"/><path d="M1931.9262,85.03 L1931.9262,95.03 L1941.9262,95.03 L1931.9262,85.03" fill="#FEFFDD" style="stroke:#181818;stroke-width:1;"/><text fill="#000000" font-family="sans-serif" font-size="13" lengthAdjust="spacing" textLength="133.2119" x="1778.08" y="102.0969">"Kubernetes metrics</text><text fill="#000000" font-family="sans-serif" font-size="13" lengthAdjust="spacing" textLength="148.8462" x="1778.08" y="117.2297">Pods, Services, Nodes"</text></g><g class="entity" data-qualified-name="GMN38" data-source-line="46" id="ent0039"><path d="M1238.84,210.33 L1238.84,226.46 L1056.57,230.46 L1238.84,234.46 L1238.84,250.5956 A0,0 0 0 0 1238.84,250.5956 L1431.1505,250.5956 A0,0 0 0 0 1431.1505,250.5956 L1431.1505,220.33 L1421.1505,210.33 L1238.84,210.33 A0,0 0 0 0 1238.84,210.33" fill="#FEFFDD" style="stroke:#181818;stroke-width:0.5;"/><path d="M1421.1505,210.33 L1421.1505,220.33 L1431.1505,220.33 L1421.1505,210.33" fill="#FEFFDD" style="stroke:#181818;stroke-width:0.5;"/><text fill="#000000" font-family="sans-serif" font-size="13" lengthAdjust="spacing" textLength="145.7866" x="1244.84" y="227.3969">"Time-series database</text><text fill="#000000" font-family="sans-serif" font-size="13" lengthAdjust="spacing" textLength="171.3105" x="1244.84" y="242.5297">Data collection &amp; storage"</text></g><g class="entity" data-qualified-name="GMN41" data-source-line="47" id="ent0042"><path d="M1358.51,479.92 L1358.51,496.05 L1306.42,500.05 L1358.51,504.05 L1358.51,520.1856 A0,0 0 0 0 1358.51,520.1856 L1527.4866,520.1856 A0,0 0 0 0 1527.4866,520.1856 L1527.4866,489.92 L1517.4866,479.92 L1358.51,479.92 A0,0 0 0 0 1358.51,479.92" fill="#FEFFDD" style="stroke:#181818;stroke-width:0.5;"/><path d="M1517.4866,479.92 L1517.4866,489.92 L1527.4866,489.92 L1517.4866,479.92" fill="#FEFFDD" style="stroke:#181818;stroke-width:0.5;"/><text fill="#000000" font-family="sans-serif" font-size="13" lengthAdjust="spacing" textLength="147.9766" x="1364.51" y="496.9869">"Visualization platform</text><text fill="#000000" font-family="sans-serif" font-size="13" lengthAdjust="spacing" textLength="146.7388" x="1364.51" y="512.1197">Dashboards &amp; graphs"</text></g><g class="entity" data-qualified-name="GMN44" data-source-line="48" id="ent0045"><path d="M1361.78,356.62 L1361.78,396.8856 L1514.2209,396.8856 L1514.2209,366.62 L1504.2209,356.62 L1361.78,356.62" fill="#FEFFDD" style="stroke:#181818;stroke-width:0.5;"/><path d="M1504.2209,356.62 L1504.2209,366.62 L1514.2209,366.62 L1504.2209,356.62" fill="#FEFFDD" style="stroke:#181818;stroke-width:1;"/><text fill="#000000" font-family="sans-serif" font-size="13" lengthAdjust="spacing" textLength="128.1401" x="1367.78" y="373.6869">"Alert management</text><text fill="#000000" font-family="sans-serif" font-size="13" lengthAdjust="spacing" textLength="131.4409" x="1367.78" y="388.8197">Notification routing"</text></g><!--link NE to PROM--><g class="link" data-entity-1="ent0003" data-entity-2="ent0008" data-link-type="dependency" data-source-line="28" id="lnk18"><path d="M129.03,128.59 C144.51,137.27 163.12,146.5 181,152.31 C254.05,176.04 275.7,168.52 352,177.31 C540.22,199 755.744,215.1301 875.484,223.3301" fill="none" id="NE-to-PROM" style="stroke:#181818;stroke-width:1;"/><polygon fill="#181818" points="881.47,223.74,872.7643,219.1345,876.4817,223.3984,872.2177,227.1158,881.47,223.74" style="stroke:#181818;stroke-width:1;"/><text fill="#000000" font-family="sans-serif" font-size="13" lengthAdjust="spacing" textLength="99.7661" x="353" y="173.3769">system metrics</text></g><!--link NVE to PROM--><g class="link" data-entity-1="ent0004" data-entity-2="ent0008" data-link-type="dependency" data-source-line="29" id="lnk19"><path d="M350.22,128.8 C370.67,137.15 394.64,146.08 417,152.31 C577.33,196.99 765.4157,216.0168 875.5057,223.9868" fill="none" id="NVE-to-PROM" style="stroke:#181818;stroke-width:1;"/><polygon fill="#181818" points="881.49,224.42,872.8023,219.7806,876.5031,224.059,872.2247,227.7597,881.49,224.42" style="stroke:#181818;stroke-width:1;"/><text fill="#000000" font-family="sans-serif" font-size="13" lengthAdjust="spacing" textLength="80.1963" x="521.55" y="173.3769">GPU metrics</text></g><!--link KSM to PROM--><g class="link" data-entity-1="ent0005" data-entity-2="ent0008" data-link-type="dependency" data-source-line="30" id="lnk20"><path d="M566.57,128.71 C584.47,136.95 605.4,145.83 625,152.31 C710.43,180.54 805.2697,200.6907 875.5797,213.6707" fill="none" id="KSM-to-PROM" style="stroke:#181818;stroke-width:1;"/><polygon fill="#181818" points="881.48,214.76,873.3557,209.1926,876.5631,213.8523,871.9034,217.0596,881.48,214.76" style="stroke:#181818;stroke-width:1;"/><text fill="#000000" font-family="sans-serif" font-size="13" lengthAdjust="spacing" textLength="75.3403" x="709.44" y="173.3769">k8s metrics</text></g><!--link APP to PROM--><g class="link" data-entity-1="ent0006" data-entity-2="ent0008" data-link-type="dependency" data-source-line="31" id="lnk21"><path d="M777.1,128.78 C819.5,151.02 878.547,182.0023 920.857,204.2023" fill="none" id="APP-to-PROM" style="stroke:#181818;stroke-width:1;"/><polygon fill="#181818" points="926.17,206.99,920.0589,199.2663,921.7425,204.6669,916.3419,206.3504,926.17,206.99" style="stroke:#181818;stroke-width:1;"/><text fill="#000000" font-family="sans-serif" font-size="13" lengthAdjust="spacing" textLength="77.2383" x="866.57" y="173.3769">app metrics</text></g><!--link PROM_CFG to PROM--><g class="link" data-entity-1="ent0009" data-entity-2="ent0008" data-link-type="dependency" data-source-line="33" id="lnk22"><path d="M969,128.78 C969,151.02 969,178.79 969,200.99" fill="none" id="PROM_CFG-to-PROM" style="stroke:#181818;stroke-width:1;"/><polygon fill="#181818" points="969,206.99,973,197.99,969,201.99,965,197.99,969,206.99" style="stroke:#181818;stroke-width:1;"/><text fill="#000000" font-family="sans-serif" font-size="13" lengthAdjust="spacing" textLength="86.2329" x="970" y="173.3769">configuration</text></g><!--link RULES to PROM--><g class="link" data-entity-1="ent0010" data-entity-2="ent0008" data-link-type="dependency" data-source-line="34" id="lnk23"><path d="M1125.07,128.73 C1108.82,143.47 1086.45,162.63 1065,177.31 C1049.35,188.02 1036.5837,195.5145 1020.3637,204.0945" fill="none" id="RULES-to-PROM" style="stroke:#181818;stroke-width:1;"/><polygon fill="#181818" points="1015.06,206.9,1024.8859,206.2275,1019.4797,204.5621,1021.1452,199.1559,1015.06,206.9" style="stroke:#181818;stroke-width:1;"/><text fill="#000000" font-family="sans-serif" font-size="13" lengthAdjust="spacing" textLength="86.2202" x="1087.84" y="173.3769">alerting rules</text></g><!--link PROM to DS--><g class="link" data-entity-1="ent0008" data-entity-2="ent0014" data-link-type="dependency" data-source-line="36" id="lnk24"><path d="M1014.19,254.04 C1044.83,269.54 1086.12,290.82 1122,310.61 C1146.85,324.31 1169.2085,337.374 1190.6285,350.164" fill="none" id="PROM-to-DS" style="stroke:#181818;stroke-width:1;"/><polygon fill="#181818" points="1195.78,353.24,1190.1034,345.1916,1191.4871,350.6767,1186.002,352.0603,1195.78,353.24" style="stroke:#181818;stroke-width:1;"/><text fill="#000000" font-family="sans-serif" font-size="13" lengthAdjust="spacing" textLength="82.0498" x="1106.6" y="298.6769">metrics data</text></g><!--link DS to GRAFANA--><g class="link" data-entity-1="ent0014" data-entity-2="ent0012" data-link-type="dependency" data-source-line="37" id="lnk25"><path d="M1233,400.29 C1233,422.07 1233,448.9 1233,470.64" fill="none" id="DS-to-GRAFANA" style="stroke:#181818;stroke-width:1;"/><polygon fill="#181818" points="1233,476.64,1237,467.64,1233,471.64,1229,467.64,1233,476.64" style="stroke:#181818;stroke-width:1;"/><text fill="#000000" font-family="sans-serif" font-size="13" lengthAdjust="spacing" textLength="76.8701" x="1234" y="442.9669">data source</text></g><!--link DASH to GRAFANA--><g class="link" data-entity-1="ent0013" data-entity-2="ent0012" data-link-type="dependency" data-source-line="38" id="lnk26"><path d="M1053.05,400.29 C1092.62,422 1146.9104,451.8027 1186.5304,473.5527" fill="none" id="DASH-to-GRAFANA" style="stroke:#181818;stroke-width:1;"/><polygon fill="#181818" points="1191.79,476.44,1185.8255,468.6026,1187.407,474.0339,1181.9757,475.6154,1191.79,476.44" style="stroke:#181818;stroke-width:1;"/><text fill="#000000" font-family="sans-serif" font-size="13" lengthAdjust="spacing" textLength="81.1992" x="1136.73" y="442.9669">visualization</text></g><!--link PROM to ALERT--><g class="link" data-entity-1="ent0008" data-entity-2="ent0016" data-link-type="dependency" data-source-line="40" id="lnk27"><path d="M941.97,254 C909.56,281.03 860.1768,322.2158 827.7368,349.2858" fill="none" id="PROM-to-ALERT" style="stroke:#181818;stroke-width:1;"/><polygon fill="#181818" points="823.13,353.13,832.6029,350.4349,826.969,349.9265,827.4774,344.2926,823.13,353.13" style="stroke:#181818;stroke-width:1;"/><text fill="#000000" font-family="sans-serif" font-size="13" lengthAdjust="spacing" textLength="36.791" x="904.08" y="298.6769">alerts</text></g><!--link ALERT to NOTIF--><g class="link" data-entity-1="ent0016" data-entity-2="ent0017" data-link-type="dependency" data-source-line="41" id="lnk28"><path d="M790.98,400.29 C786.14,422.07 780.1339,449.0434 775.2939,470.7834" fill="none" id="ALERT-to-NOTIF" style="stroke:#181818;stroke-width:1;"/><polygon fill="#181818" points="773.99,476.64,779.8502,468.7243,775.0766,471.7595,772.0414,466.9858,773.99,476.64" style="stroke:#181818;stroke-width:1;"/><text fill="#000000" font-family="sans-serif" font-size="13" lengthAdjust="spacing" textLength="79.8789" x="785.12" y="442.9669">notifications</text></g><!--link NE to GMN29--><g class="link" data-entity-1="ent0003" data-entity-2="ent0030" data-link-type="association" data-source-line="43" id="lnk31"><path d="M114.24,81.85 C133.88,62.16 165.03,35.4 198.5,24.01 C251.46,6 1151.4,9.77 1205.5,24.01 C1249.92,35.7 1295.05,64.63 1322.54,84.59" fill="none" id="NE-GMN29" style="stroke:#181818;stroke-width:1;stroke-dasharray:7,7;"/></g><!--link NVE to GMN32--><g class="link" data-entity-1="ent0004" data-entity-2="ent0033" data-link-type="association" data-source-line="44" id="lnk34"><path d="M327.77,81.56 C353.83,61.82 394.2,35.16 434.5,24.01 C489.17,8.89 1400.36,10.72 1455.5,24.01 C1503.73,35.64 1553.79,64.59 1584.42,84.56" fill="none" id="NVE-GMN32" style="stroke:#181818;stroke-width:1;stroke-dasharray:7,7;"/></g><!--link KSM to GMN35--><g class="link" data-entity-1="ent0005" data-entity-2="ent0036" data-link-type="association" data-source-line="45" id="lnk37"><path d="M546.14,81.79 C569.22,62.06 605.36,35.27 642.5,24.01 C700.72,6.36 1679.35,6.14 1737.5,24.01 C1776.09,35.88 1813.41,64.91 1835.79,84.83" fill="none" id="KSM-GMN35" style="stroke:#181818;stroke-width:1;stroke-dasharray:7,7;"/></g><!--link ALERT to GMN44--><g class="link" data-entity-1="ent0016" data-entity-2="ent0045" data-link-type="association" data-source-line="48" id="lnk46"><path d="M821.57,353.34 C845.42,333.21 883.01,305.64 921.5,294.11 C964.5,281.22 1282.84,280.12 1325.5,294.11 C1362.81,306.34 1397.95,336.19 1418.73,356.46" fill="none" id="ALERT-GMN44" style="stroke:#181818;stroke-width:1;stroke-dasharray:7,7;"/></g><?plantuml-src PPHBZvim58Nt_8fR5kqcKRTL5vKG41hDX46GPDDKbKCkn0hOo3RJJgl-z_f1mgDB_DddNf_ZoxiBLfGXv76u3zBaEOQo8L9wNaVA6waH_8We0WNlHOdIXpyUmBUKNn3YNnqN2iLt81BIsAuVjz4s-1Y5oMw1ZvRV-ZEkfI8AroqgGKjfwLEnCpJifU8j15tNq98eofd3GPPvVoSDXLmWx3YZYWlAwg6dJ72jUSLUGe7YTIYSvI-x1GqvgsZze3_2JM9s10qA1NdVeAkQ7vxZObRtI6LF6lhRjZPKJGIf22FJaaaUR88qcDA8oEkP4t5nqb5GV9rZHQGpsF5vNTlPU57xsUfpzL0mU8xplOj5qMgm3i8hOGmRfvY-xBSR8_h1N9zXQTtrqXZMwo_M1lWCldoJ2biOel4zdTgC9zbXX3gq6RnzaYFKaSqWwReHUdVRPrjA6qildBkUjN-kCTW0mcGqoDWTKM7ue0yNxQRlHUxm48RXPXsSpHhh29ORNcVvJlIjmOyMpFNiWa7MM8FOn7lJdFv64BI-Ak2L7W-pfvZvUs9XTbZ13biktbOGKNbRGOhg9nStVtd-62y2EB63elTcHvKzjXrg3tk1ImqJcDPuqZCe62gKerJ6Bt9btp3LRr1teUTRBi_VSzZJLWyn2ehEwpEHU6BsBr7ofd5l2zw37cQXt-XIPcBuRA2WQuYgk6YDrdrSj4mjI7Vzhvb796vitJYqoDI9pQP0yDwEpZy0?></g></svg>