<?plantuml 1.2026.2?><svg xmlns="http://www.w3.org/2000/svg" xmlns:xlink="http://www.w3.org/1999/xlink" contentStyleType="text/css" data-diagram-type="DESCRIPTION" height="758px" preserveAspectRatio="none" style="width:1591px;height:758px;background:#FFFFFF;" version="1.1" viewBox="0 0 1591 758" width="1591px" zoomAndPan="magnify"><defs/><g><!--cluster Kubernetes Cluster--><g class="cluster" data-qualified-name="Kubernetes Cluster" data-source-line="3" id="ent0002"><path d="M8.5,47.99 L162.0576,47.99 A3.75,3.75 0 0 1 164.5576,50.49 L171.5576,70.2869 L1227.5,70.2869 A2.5,2.5 0 0 1 1230,72.7869 L1230,209.78 A2.5,2.5 0 0 1 1227.5,212.28 L8.5,212.28 A2.5,2.5 0 0 1 6,209.78 L6,50.49 A2.5,2.5 0 0 1 8.5,47.99" fill="none" style="stroke:#000000;stroke-width:1.5;"/><line style="stroke:#000000;stroke-width:1.5;" x1="6" x2="171.5576" y1="70.2869" y2="70.2869"/><text fill="#000000" font-family="sans-serif" font-size="14" font-weight="bold" lengthAdjust="spacing" textLength="152.5576" x="10" y="62.9851">Kubernetes Cluster</text></g><!--cluster Worker Node 1--><g class="cluster" data-qualified-name="Kubernetes Cluster.Worker Node 1" data-source-line="4" id="ent0003"><path d="M32.5,90.99 L151.5156,90.99 A3.75,3.75 0 0 1 154.0156,93.49 L161.0156,113.2869 L504.5,113.2869 A2.5,2.5 0 0 1 507,115.7869 L507,185.78 A2.5,2.5 0 0 1 504.5,188.28 L32.5,188.28 A2.5,2.5 0 0 1 30,185.78 L30,93.49 A2.5,2.5 0 0 1 32.5,90.99" fill="none" style="stroke:#000000;stroke-width:1.5;"/><line style="stroke:#000000;stroke-width:1.5;" x1="30" x2="161.0156" y1="113.2869" y2="113.2869"/><text fill="#000000" font-family="sans-serif" font-size="14" font-weight="bold" lengthAdjust="spacing" textLength="118.0156" x="34" y="105.9851">Worker Node 1</text></g><!--cluster Worker Node 2--><g class="cluster" data-qualified-name="Kubernetes Cluster.Worker Node 2" data-source-line="10" id="ent0007"><path d="M533.5,90.99 L652.5156,90.99 A3.75,3.75 0 0 1 655.0156,93.49 L662.0156,113.2869 L1005.5,113.2869 A2.5,2.5 0 0 1 1008,115.7869 L1008,185.78 A2.5,2.5 0 0 1 1005.5,188.28 L533.5,188.28 A2.5,2.5 0 0 1 531,185.78 L531,93.49 A2.5,2.5 0 0 1 533.5,90.99" fill="none" style="stroke:#000000;stroke-width:1.5;"/><line style="stroke:#000000;stroke-width:1.5;" x1="531" x2="662.0156" y1="113.2869" y2="113.2869"/><text fill="#000000" font-family="sans-serif" font-size="14" font-weight="bold" lengthAdjust="spacing" textLength="118.0156" x="535" y="105.9851">Worker Node 2</text></g><!--cluster Master Node--><g class="cluster" data-qualified-name="Kubernetes Cluster.Master Node" data-source-line="16" id="ent0011"><path d="M1034.5,90.99 L1136.0293,90.99 A3.75,3.75 0 0 1 1138.5293,93.49 L1145.5293,113.2869 L1203.5,113.2869 A2.5,2.5 0 0 1 1206,115.7869 L1206,185.78 A2.5,2.5 0 0 1 1203.5,188.28 L1034.5,188.28 A2.5,2.5 0 0 1 1032,185.78 L1032,93.49 A2.5,2.5 0 0 1 1034.5,90.99" fill="none" style="stroke:#000000;stroke-width:1.5;"/><line style="stroke:#000000;stroke-width:1.5;" x1="1032" x2="1145.5293" y1="113.2869" y2="113.2869"/><text fill="#000000" font-family="sans-serif" font-size="14" font-weight="bold" lengthAdjust="spacing" textLength="100.5293" x="1036" y="105.9851">Master Node</text></g><!--cluster Monitoring Stack--><g class="cluster" data-qualified-name="Monitoring Stack" data-source-line="21" id="ent0013"><path d="M421.5,261.28 L557.5234,261.28 A3.75,3.75 0 0 1 560.0234,263.78 L567.0234,283.5769 L715.5,283.5769 A2.5,2.5 0 0 1 718,286.0769 L718,479.38 A2.5,2.5 0 0 1 715.5,481.88 L421.5,481.88 A2.5,2.5 0 0 1 419,479.38 L419,263.78 A2.5,2.5 0 0 1 421.5,261.28" fill="none" style="stroke:#000000;stroke-width:1.5;"/><line style="stroke:#000000;stroke-width:1.5;" x1="419" x2="567.0234" y1="283.5769" y2="283.5769"/><text fill="#000000" font-family="sans-serif" font-size="14" font-weight="bold" lengthAdjust="spacing" textLength="135.0234" x="423" y="276.2751">Monitoring Stack</text></g><!--cluster External Access--><g class="cluster" data-qualified-name="External Access" data-source-line="27" id="ent0017"><path d="M433.5,530.88 L558.8662,530.88 A3.75,3.75 0 0 1 561.3662,533.38 L568.3662,553.1769 L592.5,553.1769 A2.5,2.5 0 0 1 595,555.6769 L595,748.97 A2.5,2.5 0 0 1 592.5,751.47 L433.5,751.47 A2.5,2.5 0 0 1 431,748.97 L431,533.38 A2.5,2.5 0 0 1 433.5,530.88" fill="none" style="stroke:#000000;stroke-width:1.5;"/><line style="stroke:#000000;stroke-width:1.5;" x1="431" x2="568.3662" y1="553.1769" y2="553.1769"/><text fill="#000000" font-family="sans-serif" font-size="14" font-weight="bold" lengthAdjust="spacing" textLength="124.3662" x="435" y="545.8751">External Access</text></g><!--entity NE1--><g class="entity" data-qualified-name="Kubernetes Cluster.Worker Node 1.NE1" data-source-line="5" id="ent0004"><rect fill="#F1F1F1" height="46.2969" rx="2.5" ry="2.5" style="stroke:#181818;stroke-width:0.5;" width="141.1855" x="46.41" y="125.99"/><rect fill="#F1F1F1" height="10" style="stroke:#181818;stroke-width:0.5;" width="15" x="167.5955" y="130.99"/><rect fill="#F1F1F1" height="2" style="stroke:#181818;stroke-width:0.5;" width="4" x="165.5955" y="132.99"/><rect fill="#F1F1F1" height="2" style="stroke:#181818;stroke-width:0.5;" width="4" x="165.5955" y="136.99"/><text fill="#000000" font-family="sans-serif" font-size="14" lengthAdjust="spacing" textLength="101.1855" x="61.41" y="158.9851">Node Exporter</text></g><!--entity NVE1--><g class="entity" data-qualified-name="Kubernetes Cluster.Worker Node 1.NVE1" data-source-line="6" id="ent0005"><rect fill="#F1F1F1" height="46.2969" rx="2.5" ry="2.5" style="stroke:#181818;stroke-width:0.5;" width="153.3125" x="222.34" y="125.99"/><rect fill="#F1F1F1" height="10" style="stroke:#181818;stroke-width:0.5;" width="15" x="355.6525" y="130.99"/><rect fill="#F1F1F1" height="2" style="stroke:#181818;stroke-width:0.5;" width="4" x="353.6525" y="132.99"/><rect fill="#F1F1F1" height="2" style="stroke:#181818;stroke-width:0.5;" width="4" x="353.6525" y="136.99"/><text fill="#000000" font-family="sans-serif" font-size="14" lengthAdjust="spacing" textLength="113.3125" x="237.34" y="158.9851">NVIDIA Exporter</text></g><!--entity PODA--><g class="entity" data-qualified-name="Kubernetes Cluster.Worker Node 1.PODA" data-source-line="7" id="ent0006"><rect fill="#F1F1F1" height="46.2969" rx="2.5" ry="2.5" style="stroke:#181818;stroke-width:0.5;" width="79.9219" x="411.04" y="125.99"/><rect fill="#F1F1F1" height="10" style="stroke:#181818;stroke-width:0.5;" width="15" x="470.9619" y="130.99"/><rect fill="#F1F1F1" height="2" style="stroke:#181818;stroke-width:0.5;" width="4" x="468.9619" y="132.99"/><rect fill="#F1F1F1" height="2" style="stroke:#181818;stroke-width:0.5;" width="4" x="468.9619" y="136.99"/><text fill="#000000" font-family="sans-serif" font-size="14" lengthAdjust="spacing" textLength="39.9219" x="426.04" y="158.9851">Pod A</text></g><!--entity NE2--><g class="entity" data-qualified-name="Kubernetes Cluster.Worker Node 2.NE2" data-source-line="11" id="ent0008"><rect fill="#F1F1F1" height="46.2969" rx="2.5" ry="2.5" style="stroke:#181818;stroke-width:0.5;" width="141.1855" x="547.41" y="125.99"/><rect fill="#F1F1F1" height="10" style="stroke:#181818;stroke-width:0.5;" width="15" x="668.5955" y="130.99"/><rect fill="#F1F1F1" height="2" style="stroke:#181818;stroke-width:0.5;" width="4" x="666.5955" y="132.99"/><rect fill="#F1F1F1" height="2" style="stroke:#181818;stroke-width:0.5;" width="4" x="666.5955" y="136.99"/><text fill="#000000" font-family="sans-serif" font-size="14" lengthAdjust="spacing" textLength="101.1855" x="562.41" y="158.9851">Node Exporter</text></g><!--entity NVE2--><g class="entity" data-qualified-name="Kubernetes Cluster.Worker Node 2.NVE2" data-source-line="12" id="ent0009"><rect fill="#F1F1F1" height="46.2969" rx="2.5" ry="2.5" style="stroke:#181818;stroke-width:0.5;" width="153.3125" x="723.34" y="125.99"/><rect fill="#F1F1F1" height="10" style="stroke:#181818;stroke-width:0.5;" width="15" x="856.6525" y="130.99"/><rect fill="#F1F1F1" height="2" style="stroke:#181818;stroke-width:0.5;" width="4" x="854.6525" y="132.99"/><rect fill="#F1F1F1" height="2" style="stroke:#181818;stroke-width:0.5;" width="4" x="854.6525" y="136.99"/><text fill="#000000" font-family="sans-serif" font-size="14" lengthAdjust="spacing" textLength="113.3125" x="738.34" y="158.9851">NVIDIA Exporter</text></g><!--entity PODB--><g class="entity" data-qualified-name="Kubernetes Cluster.Worker Node 2.PODB" data-source-line="13" id="ent0010"><rect fill="#F1F1F1" height="46.2969" rx="2.5" ry="2.5" style="stroke:#181818;stroke-width:0.5;" width="79.9492" x="912.03" y="125.99"/><rect fill="#F1F1F1" height="10" style="stroke:#181818;stroke-width:0.5;" width="15" x="971.9792" y="130.99"/><rect fill="#F1F1F1" height="2" style="stroke:#181818;stroke-width:0.5;" width="4" x="969.9792" y="132.99"/><rect fill="#F1F1F1" height="2" style="stroke:#181818;stroke-width:0.5;" width="4" x="969.9792" y="136.99"/><text fill="#000000" font-family="sans-serif" font-size="14" lengthAdjust="spacing" textLength="39.9492" x="927.03" y="158.9851">Pod B</text></g><!--entity NE3--><g class="entity" data-qualified-name="Kubernetes Cluster.Master Node.NE3" data-source-line="17" id="ent0012"><rect fill="#F1F1F1" height="46.2969" rx="2.5" ry="2.5" style="stroke:#181818;stroke-width:0.5;" width="141.1855" x="1048.41" y="125.99"/><rect fill="#F1F1F1" height="10" style="stroke:#181818;stroke-width:0.5;" width="15" x="1169.5955" y="130.99"/><rect fill="#F1F1F1" height="2" style="stroke:#181818;stroke-width:0.5;" width="4" x="1167.5955" y="132.99"/><rect fill="#F1F1F1" height="2" style="stroke:#181818;stroke-width:0.5;" width="4" x="1167.5955" y="136.99"/><text fill="#000000" font-family="sans-serif" font-size="14" lengthAdjust="spacing" textLength="101.1855" x="1063.41" y="158.9851">Node Exporter</text></g><!--entity PROM--><g class="entity" data-qualified-name="Monitoring Stack.PROM" data-source-line="22" id="ent0014"><rect fill="#F1F1F1" height="46.2969" rx="2.5" ry="2.5" style="stroke:#181818;stroke-width:0.5;" width="124.1572" x="555.92" y="296.28"/><rect fill="#F1F1F1" height="10" style="stroke:#181818;stroke-width:0.5;" width="15" x="660.0772" y="301.28"/><rect fill="#F1F1F1" height="2" style="stroke:#181818;stroke-width:0.5;" width="4" x="658.0772" y="303.28"/><rect fill="#F1F1F1" height="2" style="stroke:#181818;stroke-width:0.5;" width="4" x="658.0772" y="307.28"/><text fill="#000000" font-family="sans-serif" font-size="14" lengthAdjust="spacing" textLength="84.1572" x="570.92" y="329.2751">Prometheus</text></g><!--entity GRAFANA--><g class="entity" data-qualified-name="Monitoring Stack.GRAFANA" data-source-line="23" id="ent0015"><rect fill="#F1F1F1" height="46.2969" rx="2.5" ry="2.5" style="stroke:#181818;stroke-width:0.5;" width="96.1436" x="605.93" y="419.58"/><rect fill="#F1F1F1" height="10" style="stroke:#181818;stroke-width:0.5;" width="15" x="682.0736" y="424.58"/><rect fill="#F1F1F1" height="2" style="stroke:#181818;stroke-width:0.5;" width="4" x="680.0736" y="426.58"/><rect fill="#F1F1F1" height="2" style="stroke:#181818;stroke-width:0.5;" width="4" x="680.0736" y="430.58"/><text fill="#000000" font-family="sans-serif" font-size="14" lengthAdjust="spacing" textLength="56.1436" x="620.93" y="452.5751">Grafana</text></g><!--entity ALERT--><g class="entity" data-qualified-name="Monitoring Stack.ALERT" data-source-line="24" id="ent0016"><rect fill="#F1F1F1" height="46.2969" rx="2.5" ry="2.5" style="stroke:#181818;stroke-width:0.5;" width="136.25" x="434.88" y="419.58"/><rect fill="#F1F1F1" height="10" style="stroke:#181818;stroke-width:0.5;" width="15" x="551.13" y="424.58"/><rect fill="#F1F1F1" height="2" style="stroke:#181818;stroke-width:0.5;" width="4" x="549.13" y="426.58"/><rect fill="#F1F1F1" height="2" style="stroke:#181818;stroke-width:0.5;" width="4" x="549.13" y="430.58"/><text fill="#000000" font-family="sans-serif" font-size="14" lengthAdjust="spacing" textLength="96.25" x="449.88" y="452.5751">Alertmanager</text></g><!--entity ADMIN--><g class="entity" data-qualified-name="External Access.ADMIN" data-source-line="28" id="ent0018"><rect fill="#F1F1F1" height="46.2969" rx="2.5" ry="2.5" style="stroke:#181818;stroke-width:0.5;" width="121.2246" x="449.39" y="565.88"/><rect fill="#F1F1F1" height="10" style="stroke:#181818;stroke-width:0.5;" width="15" x="550.6146" y="570.88"/><rect fill="#F1F1F1" height="2" style="stroke:#181818;stroke-width:0.5;" width="4" x="548.6146" y="572.88"/><rect fill="#F1F1F1" height="2" style="stroke:#181818;stroke-width:0.5;" width="4" x="548.6146" y="576.88"/><text fill="#000000" font-family="sans-serif" font-size="14" lengthAdjust="spacing" textLength="81.2246" x="464.39" y="598.8751">Admin User</text></g><!--entity BROWSER--><g class="entity" data-qualified-name="External Access.BROWSER" data-source-line="29" id="ent0019"><rect fill="#F1F1F1" height="46.2969" rx="2.5" ry="2.5" style="stroke:#181818;stroke-width:0.5;" width="132.832" x="446.58" y="689.17"/><rect fill="#F1F1F1" height="10" style="stroke:#181818;stroke-width:0.5;" width="15" x="559.412" y="694.17"/><rect fill="#F1F1F1" height="2" style="stroke:#181818;stroke-width:0.5;" width="4" x="557.412" y="696.17"/><rect fill="#F1F1F1" height="2" style="stroke:#181818;stroke-width:0.5;" width="4" x="557.412" y="700.17"/><text fill="#000000" font-family="sans-serif" font-size="14" lengthAdjust="spacing" textLength="92.832" x="461.58" y="722.1651">Web Browser</text></g><g class="entity" data-qualified-name="GMN32" data-source-line="50" id="ent0033"><path d="M733.61,299.3 L733.61,315.43 L680.58,319.43 L733.61,323.43 L733.61,339.5656 A0,0 0 0 0 733.61,339.5656 L900.3966,339.5656 A0,0 0 0 0 900.3966,339.5656 L900.3966,309.3 L890.3966,299.3 L733.61,299.3 A0,0 0 0 0 733.61,299.3" fill="#FEFFDD" style="stroke:#181818;stroke-width:0.5;"/><path d="M890.3966,299.3 L890.3966,309.3 L900.3966,309.3 L890.3966,299.3" fill="#FEFFDD" style="stroke:#181818;stroke-width:0.5;"/><text fill="#000000" font-family="sans-serif" font-size="13" lengthAdjust="spacing" textLength="145.7866" x="739.61" y="316.3669">"Time-series database</text><text fill="#000000" font-family="sans-serif" font-size="13" lengthAdjust="spacing" textLength="119.6724" x="739.61" y="331.4997">Metrics collection"</text></g><g class="entity" data-qualified-name="GMN35" data-source-line="51" id="ent0036"><path d="M737.51,422.6 L737.51,438.73 L702.56,442.73 L737.51,446.73 L737.51,462.8656 A0,0 0 0 0 737.51,462.8656 L906.4866,462.8656 A0,0 0 0 0 906.4866,462.8656 L906.4866,432.6 L896.4866,422.6 L737.51,422.6 A0,0 0 0 0 737.51,422.6" fill="#FEFFDD" style="stroke:#181818;stroke-width:0.5;"/><path d="M896.4866,422.6 L896.4866,432.6 L906.4866,432.6 L896.4866,422.6" fill="#FEFFDD" style="stroke:#181818;stroke-width:0.5;"/><text fill="#000000" font-family="sans-serif" font-size="13" lengthAdjust="spacing" textLength="147.9766" x="743.51" y="439.6669">"Visualization platform</text><text fill="#000000" font-family="sans-serif" font-size="13" lengthAdjust="spacing" textLength="83.5098" x="743.51" y="454.7997">Dashboards"</text></g><g class="entity" data-qualified-name="GMN38" data-source-line="52" id="ent0039"><path d="M941.43,422.6 L941.43,462.8656 L1090.5701,462.8656 L1090.5701,432.6 L1080.5701,422.6 L941.43,422.6" fill="#FEFFDD" style="stroke:#181818;stroke-width:0.5;"/><path d="M1080.5701,422.6 L1080.5701,432.6 L1090.5701,432.6 L1080.5701,422.6" fill="#FEFFDD" style="stroke:#181818;stroke-width:1;"/><text fill="#000000" font-family="sans-serif" font-size="13" lengthAdjust="spacing" textLength="128.1401" x="947.43" y="439.6669">"Alert management</text><text fill="#000000" font-family="sans-serif" font-size="13" lengthAdjust="spacing" textLength="87.3438" x="947.43" y="454.7997">Notifications"</text></g><g class="entity" data-qualified-name="GMN41" data-source-line="53" id="ent0042"><path d="M1245.63,129 L1245.63,169.2656 L1396.3634,169.2656 L1396.3634,139 L1386.3634,129 L1245.63,129" fill="#FEFFDD" style="stroke:#181818;stroke-width:0.5;"/><path d="M1386.3634,129 L1386.3634,139 L1396.3634,139 L1386.3634,129" fill="#FEFFDD" style="stroke:#181818;stroke-width:1;"/><text fill="#000000" font-family="sans-serif" font-size="13" lengthAdjust="spacing" textLength="107.2246" x="1251.63" y="146.0669">"System metrics</text><text fill="#000000" font-family="sans-serif" font-size="13" lengthAdjust="spacing" textLength="129.7334" x="1251.63" y="161.1997">CPU, Memory, Disk"</text></g><g class="entity" data-qualified-name="GMN44" data-source-line="54" id="ent0045"><path d="M1431.37,129 L1431.37,169.2656 L1584.6234,169.2656 L1584.6234,139 L1574.6234,129 L1431.37,129" fill="#FEFFDD" style="stroke:#181818;stroke-width:0.5;"/><path d="M1574.6234,129 L1574.6234,139 L1584.6234,139 L1574.6234,129" fill="#FEFFDD" style="stroke:#181818;stroke-width:1;"/><text fill="#000000" font-family="sans-serif" font-size="13" lengthAdjust="spacing" textLength="86.1758" x="1437.37" y="146.0669">"GPU metrics</text><text fill="#000000" font-family="sans-serif" font-size="13" lengthAdjust="spacing" textLength="132.2534" x="1437.37" y="161.1997">Utilization, Memory"</text></g><!--link NE1 to PROM--><g class="link" data-entity-1="ent0004" data-entity-2="ent0014" data-link-type="dependency" data-source-line="33" id="lnk20"><path d="M141.4,172.73 C158.34,187.59 181.92,206.73 205,220.28 C317.17,286.15 465.0011,307.3475 549.7211,314.4675" fill="none" id="NE1-to-PROM" style="stroke:#181818;stroke-width:1;"/><polygon fill="#181818" points="555.7,314.97,547.0666,310.2303,550.7176,314.5513,546.3966,318.2022,555.7,314.97" style="stroke:#181818;stroke-width:1;"/><text fill="#000000" font-family="sans-serif" font-size="13" lengthAdjust="spacing" textLength="85.2109" x="246.56" y="241.3469">node metrics</text></g><!--link NE2 to PROM--><g class="link" data-entity-1="ent0008" data-entity-2="ent0014" data-link-type="dependency" data-source-line="34" id="lnk21"><path d="M618,172.48 C618,204.67 618,257.75 618,289.99" fill="none" id="NE2-to-PROM" style="stroke:#181818;stroke-width:1;"/><polygon fill="#181818" points="618,295.99,622,286.99,618,290.99,614,286.99,618,295.99" style="stroke:#181818;stroke-width:1;"/><text fill="#000000" font-family="sans-serif" font-size="13" lengthAdjust="spacing" textLength="85.2109" x="619" y="241.3469">node metrics</text></g><!--link NE3 to PROM--><g class="link" data-entity-1="ent0012" data-entity-2="ent0014" data-link-type="dependency" data-source-line="35" id="lnk22"><path d="M1102.44,172.77 C1084.04,195.85 1051.99,230.34 1015,245.28 C984.18,257.73 747.68,243.25 716,253.28 C688.54,261.98 666.2507,277.0691 647.5907,292.2791" fill="none" id="NE3-to-PROM" style="stroke:#181818;stroke-width:1;"/><polygon fill="#181818" points="642.94,296.07,652.4433,293.4842,646.8156,292.9109,647.3889,287.2832,642.94,296.07" style="stroke:#181818;stroke-width:1;"/><text fill="#000000" font-family="sans-serif" font-size="13" lengthAdjust="spacing" textLength="85.2109" x="1045.99" y="241.3469">node metrics</text></g><!--link NVE1 to PROM--><g class="link" data-entity-1="ent0005" data-entity-2="ent0014" data-link-type="dependency" data-source-line="36" id="lnk23"><path d="M313.37,172.56 C328.31,194.15 353.59,226.24 383,245.28 C435.9,279.54 499.9777,297.4174 549.7677,307.4274" fill="none" id="NVE1-to-PROM" style="stroke:#181818;stroke-width:1;"/><polygon fill="#181818" points="555.65,308.61,547.615,302.9146,550.7481,307.6245,546.0381,310.7576,555.65,308.61" style="stroke:#181818;stroke-width:1;"/><text fill="#000000" font-family="sans-serif" font-size="13" lengthAdjust="spacing" textLength="80.1963" x="384" y="241.3469">GPU metrics</text></g><!--link NVE2 to PROM--><g class="link" data-entity-1="ent0009" data-entity-2="ent0014" data-link-type="dependency" data-source-line="37" id="lnk24"><path d="M781.33,172.69 C764.37,192.65 738.22,222.11 713,245.28 C693.07,263.59 673.7368,278.6332 654.7568,292.4832" fill="none" id="NVE2-to-PROM" style="stroke:#181818;stroke-width:1;"/><polygon fill="#181818" points="649.91,296.02,659.538,293.946,653.949,293.0727,654.8223,287.4837,649.91,296.02" style="stroke:#181818;stroke-width:1;"/><text fill="#000000" font-family="sans-serif" font-size="13" lengthAdjust="spacing" textLength="80.1963" x="729.22" y="241.3469">GPU metrics</text></g><!--link PODA to PROM--><g class="link" data-entity-1="ent0006" data-entity-2="ent0014" data-link-type="dependency" data-source-line="38" id="lnk25"><path d="M454.03,172.42 C457.87,193.29 466.26,224.33 484,245.28 C502.92,267.64 525.0421,281.7845 550.2421,293.5345" fill="none" id="PODA-to-PROM" style="stroke:#181818;stroke-width:1;"/><polygon fill="#181818" points="555.68,296.07,549.2135,288.6414,551.1484,293.957,545.8328,295.892,555.68,296.07" style="stroke:#181818;stroke-width:1;"/><text fill="#000000" font-family="sans-serif" font-size="13" lengthAdjust="spacing" textLength="124.4775" x="485" y="241.3469">application metrics</text></g><!--link PODB to PROM--><g class="link" data-entity-1="ent0010" data-entity-2="ent0014" data-link-type="dependency" data-source-line="39" id="lnk26"><path d="M938.32,172.61 C927.91,188 912.27,207.81 894,220.28 C864.63,240.33 852.86,238.29 818,245.28 C773.42,254.23 758.98,238.44 716,253.28 C689.16,262.55 667.2628,277.2213 648.5728,292.1113" fill="none" id="PODB-to-PROM" style="stroke:#181818;stroke-width:1;"/><polygon fill="#181818" points="643.88,295.85,653.4116,293.3705,647.7907,292.7344,648.4267,287.1135,643.88,295.85" style="stroke:#181818;stroke-width:1;"/><text fill="#000000" font-family="sans-serif" font-size="13" lengthAdjust="spacing" textLength="124.4775" x="882.09" y="241.3469">application metrics</text></g><!--link PROM to GRAFANA--><g class="link" data-entity-1="ent0014" data-entity-2="ent0015" data-link-type="dependency" data-source-line="42" id="lnk27"><path d="M624.69,342.96 C631.15,364.75 639.1817,391.8183 645.6417,413.5683" fill="none" id="PROM-to-GRAFANA" style="stroke:#181818;stroke-width:1;"/><polygon fill="#181818" points="647.35,419.32,648.622,409.5536,645.9264,414.5269,640.9531,411.8314,647.35,419.32" style="stroke:#181818;stroke-width:1;"/><text fill="#000000" font-family="sans-serif" font-size="13" lengthAdjust="spacing" textLength="82.0498" x="639.16" y="385.6469">metrics data</text></g><!--link GRAFANA to BROWSER--><g class="link" data-entity-1="ent0015" data-entity-2="ent0019" data-link-type="dependency" data-source-line="43" id="lnk28"><path d="M650.66,466.13 C643.59,507.56 624.01,597.54 580,659.17 C571.86,670.57 565.351,677.1047 554.321,685.3247" fill="none" id="GRAFANA-to-BROWSER" style="stroke:#181818;stroke-width:1;"/><polygon fill="#181818" points="549.51,688.91,559.1167,686.7393,553.5191,685.9222,554.3362,680.3247,549.51,688.91" style="stroke:#181818;stroke-width:1;"/><text fill="#000000" font-family="sans-serif" font-size="13" lengthAdjust="spacing" textLength="75.772" x="639.31" y="593.5869">dashboards</text></g><!--link ADMIN to BROWSER--><g class="link" data-entity-1="ent0018" data-entity-2="ent0019" data-link-type="dependency" data-source-line="44" id="lnk29"><path d="M510.56,612.56 C511.1,634.34 511.761,661.1719 512.301,682.9119" fill="none" id="ADMIN-to-BROWSER" style="stroke:#181818;stroke-width:1;"/><polygon fill="#181818" points="512.45,688.91,516.2253,679.8134,512.3258,683.9115,508.2278,680.0121,512.45,688.91" style="stroke:#181818;stroke-width:1;"/><text fill="#000000" font-family="sans-serif" font-size="13" lengthAdjust="spacing" textLength="58.5762" x="512.68" y="655.2369">accesses</text></g><!--link PROM to ALERT--><g class="link" data-entity-1="ent0014" data-entity-2="ent0016" data-link-type="dependency" data-source-line="47" id="lnk30"><path d="M589.86,343.04 C579.46,351.86 567.83,362.31 558,372.58 C543.89,387.32 533.1989,400.5992 522.7189,414.5792" fill="none" id="PROM-to-ALERT" style="stroke:#181818;stroke-width:1;"/><polygon fill="#181818" points="519.12,419.38,527.7189,414.578,522.1191,415.3793,521.3178,409.7795,519.12,419.38" style="stroke:#181818;stroke-width:1;"/><text fill="#000000" font-family="sans-serif" font-size="13" lengthAdjust="spacing" textLength="66.1172" x="559" y="385.6469">alert rules</text></g><!--link ALERT to ADMIN--><g class="link" data-entity-1="ent0016" data-entity-2="ent0018" data-link-type="dependency" data-source-line="48" id="lnk31"><path d="M504.09,466.27 C505.41,493.38 507.3097,532.607 508.6197,559.647" fill="none" id="ALERT-to-ADMIN" style="stroke:#181818;stroke-width:1;"/><polygon fill="#181818" points="508.91,565.64,512.4698,556.457,508.6681,560.6459,504.4792,556.8441,508.91,565.64" style="stroke:#181818;stroke-width:1;"/><text fill="#000000" font-family="sans-serif" font-size="13" lengthAdjust="spacing" textLength="79.8789" x="507.29" y="510.9469">notifications</text></g><!--link ALERT to GMN38--><g class="link" data-entity-1="ent0016" data-entity-2="ent0039" data-link-type="association" data-source-line="52" id="lnk40"><path d="M532.38,419.14 C551.86,405.06 578.69,388.52 605.5,381.08 C734.4,345.3 777.09,347.16 906.5,381.08 C936.89,389.05 967.74,407.56 988.91,422.23" fill="none" id="ALERT-GMN38" style="stroke:#181818;stroke-width:1;stroke-dasharray:7,7;"/></g><!--link NE1 to GMN41--><g class="link" data-entity-1="ent0004" data-entity-2="ent0042" data-link-type="association" data-source-line="53" id="lnk43"><path d="M127.66,125.66 C143.27,94.76 175.68,42.31 222.5,24.99 C272.83,6.37 1138.17,6.37 1188.5,24.99 C1242.01,44.78 1286.09,98.65 1307.33,128.51" fill="none" id="NE1-GMN41" style="stroke:#181818;stroke-width:1;stroke-dasharray:7,7;"/></g><!--link NVE1 to GMN44--><g class="link" data-entity-1="ent0005" data-entity-2="ent0045" data-link-type="association" data-source-line="54" id="lnk46"><path d="M311.03,125.54 C328.32,94.77 363.49,42.75 411.5,24.99 C462.82,6 1345.18,6 1396.5,24.99 C1445.95,43.28 1481.44,98.31 1497.83,128.6" fill="none" id="NVE1-GMN44" style="stroke:#181818;stroke-width:1;stroke-dasharray:7,7;"/></g><?plantuml-src XLCzavim4Etv5HkQDEVYk2v5Pi0GZoS7zk2lmgIGOR4r1ecHvCbTClVV8mdm6IT72XViUs_VlbtvKu4bPGXfD5txoUmvWhmYKZfEG_8pEIAutoy750mLIfXM5wbGkF3R0RWITboSKK322uJ75WFOsy_efU52Atu0aP14ZnsqdOTp_mxSzkYI5-3Rsd8H-hhsfdyV-NcZVjwed_Vk5_H-mJ_yOc92MxzHjoUhVRjPNSmPLLnGTeILqiLMlbyANgCwuKMsjkaYDkMP82LXnDPcgV_DJqpwlL-XKBK6ZfsJ_nobwu5FzAAdOAG2FyzHoix6BshAO2DxMHZF4rFVuG42mN_sG90kTgieDHq_GqWKWIclAimLvSpHHuF9vAiT4hw0oqnmFRsWkNGrwesYJsFezgxrRBaPeDx7g7aP0vGqJKLpOaOUi8B_itJeBPKNKj5V5d4isyYw8nXbnuP2hyTrUi2GkkqPKa7awS29A7HNk-rx0h7dmTRKtbM-kzcpMfO1G5mgGsoh5hSTxHeLBRiOffN-HX3qU5B0oslMDQrneazCiPtwG2HcBEvovDSBktVwcz23jK1J4LLoKMSilCav55yps73GljeQcSfOCfnwg3ElJAjMh_gVLlUdoTXqkNc066ikNXyWfFBybsxR2cyUHyOsYlP3zsht3m00?></g></svg>