<?plantuml 1.2026.2?><svg xmlns="http://www.w3.org/2000/svg" xmlns:xlink="http://www.w3.org/1999/xlink" contentStyleType="text/css" data-diagram-type="DESCRIPTION" height="299px" preserveAspectRatio="none" style="width:4416px;height:299px;background:#FFFFFF;" version="1.1" viewBox="0 0 4416 299" width="4416px" zoomAndPan="magnify"><defs/><g><!--cluster Kubernetes Certifications--><g class="cluster" data-qualified-name="Kubernetes Certifications" data-source-line="3" id="ent0002"><path d="M1702.5,49.28 L1905.8027,49.28 A3.75,3.75 0 0 1 1908.3027,51.78 L1915.3027,71.5769 L2015.5,71.5769 A2.5,2.5 0 0 1 2018,74.0769 L2018,144.07 A2.5,2.5 0 0 1 2015.5,146.57 L1702.5,146.57 A2.5,2.5 0 0 1 1700,144.07 L1700,51.78 A2.5,2.5 0 0 1 1702.5,49.28" fill="none" style="stroke:#000000;stroke-width:1.5;"/><line style="stroke:#000000;stroke-width:1.5;" x1="1700" x2="1915.3027" y1="71.5769" y2="71.5769"/><text fill="#000000" font-family="sans-serif" font-size="14" font-weight="bold" lengthAdjust="spacing" textLength="202.3027" x="1704" y="64.2751">Kubernetes Certifications</text></g><!--cluster CKA - Administrator--><g class="cluster" data-qualified-name="CKA - Administrator" data-source-line="9" id="ent0006"><path d="M8.5,195.57 L166.6172,195.57 A3.75,3.75 0 0 1 169.1172,198.07 L176.1172,217.8669 L1280.5,217.8669 A2.5,2.5 0 0 1 1283,220.3669 L1283,290.37 A2.5,2.5 0 0 1 1280.5,292.87 L8.5,292.87 A2.5,2.5 0 0 1 6,290.37 L6,198.07 A2.5,2.5 0 0 1 8.5,195.57" fill="none" style="stroke:#000000;stroke-width:1.5;"/><line style="stroke:#000000;stroke-width:1.5;" x1="6" x2="176.1172" y1="217.8669" y2="217.8669"/><text fill="#000000" font-family="sans-serif" font-size="14" font-weight="bold" lengthAdjust="spacing" textLength="157.1172" x="10" y="210.5651">CKA - Administrator</text></g><!--cluster CKAD - Application Developer--><g class="cluster" data-qualified-name="CKAD - Application Developer" data-source-line="18" id="ent0013"><path d="M1309.5,195.57 L1544.3848,195.57 A3.75,3.75 0 0 1 1546.8848,198.07 L1553.8848,217.8669 L2468.5,217.8669 A2.5,2.5 0 0 1 2471,220.3669 L2471,290.37 A2.5,2.5 0 0 1 2468.5,292.87 L1309.5,292.87 A2.5,2.5 0 0 1 1307,290.37 L1307,198.07 A2.5,2.5 0 0 1 1309.5,195.57" fill="none" style="stroke:#000000;stroke-width:1.5;"/><line style="stroke:#000000;stroke-width:1.5;" x1="1307" x2="1553.8848" y1="217.8669" y2="217.8669"/><text fill="#000000" font-family="sans-serif" font-size="14" font-weight="bold" lengthAdjust="spacing" textLength="233.8848" x="1311" y="210.5651">CKAD - Application Developer</text></g><!--cluster CKS - Security Specialist--><g class="cluster" data-qualified-name="CKS - Security Specialist" data-source-line="27" id="ent0020"><path d="M2497.5,195.57 L2692.2715,195.57 A3.75,3.75 0 0 1 2694.7715,198.07 L2701.7715,217.8669 L3983.5,217.8669 A2.5,2.5 0 0 1 3986,220.3669 L3986,290.37 A2.5,2.5 0 0 1 3983.5,292.87 L2497.5,292.87 A2.5,2.5 0 0 1 2495,290.37 L2495,198.07 A2.5,2.5 0 0 1 2497.5,195.57" fill="none" style="stroke:#000000;stroke-width:1.5;"/><line style="stroke:#000000;stroke-width:1.5;" x1="2495" x2="2701.7715" y1="217.8669" y2="217.8669"/><text fill="#000000" font-family="sans-serif" font-size="14" font-weight="bold" lengthAdjust="spacing" textLength="193.7715" x="2499" y="210.5651">CKS - Security Specialist</text></g><!--entity CKA--><g class="entity" data-qualified-name="Kubernetes Certifications.CKA" data-source-line="4" id="ent0003"><rect fill="#F1F1F1" height="46.2969" rx="2.5" ry="2.5" style="stroke:#181818;stroke-width:0.5;" width="68.5332" x="1715.73" y="84.28"/><rect fill="#F1F1F1" height="10" style="stroke:#181818;stroke-width:0.5;" width="15" x="1764.2632" y="89.28"/><rect fill="#F1F1F1" height="2" style="stroke:#181818;stroke-width:0.5;" width="4" x="1762.2632" y="91.28"/><rect fill="#F1F1F1" height="2" style="stroke:#181818;stroke-width:0.5;" width="4" x="1762.2632" y="95.28"/><text fill="#000000" font-family="sans-serif" font-size="14" lengthAdjust="spacing" textLength="28.5332" x="1730.73" y="117.2751">CKA</text></g><!--entity CKAD--><g class="entity" data-qualified-name="Kubernetes Certifications.CKAD" data-source-line="5" id="ent0004"><rect fill="#F1F1F1" height="46.2969" rx="2.5" ry="2.5" style="stroke:#181818;stroke-width:0.5;" width="79.3135" x="1819.34" y="84.28"/><rect fill="#F1F1F1" height="10" style="stroke:#181818;stroke-width:0.5;" width="15" x="1878.6535" y="89.28"/><rect fill="#F1F1F1" height="2" style="stroke:#181818;stroke-width:0.5;" width="4" x="1876.6535" y="91.28"/><rect fill="#F1F1F1" height="2" style="stroke:#181818;stroke-width:0.5;" width="4" x="1876.6535" y="95.28"/><text fill="#000000" font-family="sans-serif" font-size="14" lengthAdjust="spacing" textLength="39.3135" x="1834.34" y="117.2751">CKAD</text></g><!--entity CKS--><g class="entity" data-qualified-name="Kubernetes Certifications.CKS" data-source-line="6" id="ent0005"><rect fill="#F1F1F1" height="46.2969" rx="2.5" ry="2.5" style="stroke:#181818;stroke-width:0.5;" width="67.8428" x="1934.08" y="84.28"/><rect fill="#F1F1F1" height="10" style="stroke:#181818;stroke-width:0.5;" width="15" x="1981.9228" y="89.28"/><rect fill="#F1F1F1" height="2" style="stroke:#181818;stroke-width:0.5;" width="4" x="1979.9228" y="91.28"/><rect fill="#F1F1F1" height="2" style="stroke:#181818;stroke-width:0.5;" width="4" x="1979.9228" y="95.28"/><text fill="#000000" font-family="sans-serif" font-size="14" lengthAdjust="spacing" textLength="27.8428" x="1949.08" y="117.2751">CKS</text></g><!--entity CA--><g class="entity" data-qualified-name="CKA - Administrator.CA" data-source-line="10" id="ent0007"><rect fill="#F1F1F1" height="46.2969" rx="2.5" ry="2.5" style="stroke:#181818;stroke-width:0.5;" width="180.4648" x="21.77" y="230.57"/><rect fill="#F1F1F1" height="10" style="stroke:#181818;stroke-width:0.5;" width="15" x="182.2348" y="235.57"/><rect fill="#F1F1F1" height="2" style="stroke:#181818;stroke-width:0.5;" width="4" x="180.2348" y="237.57"/><rect fill="#F1F1F1" height="2" style="stroke:#181818;stroke-width:0.5;" width="4" x="180.2348" y="241.57"/><text fill="#000000" font-family="sans-serif" font-size="14" lengthAdjust="spacing" textLength="140.4648" x="36.77" y="263.5651">Cluster Architecture</text></g><!--entity IC--><g class="entity" data-qualified-name="CKA - Administrator.IC" data-source-line="11" id="ent0008"><rect fill="#F1F1F1" height="46.2969" rx="2.5" ry="2.5" style="stroke:#181818;stroke-width:0.5;" width="232.3018" x="236.85" y="230.57"/><rect fill="#F1F1F1" height="10" style="stroke:#181818;stroke-width:0.5;" width="15" x="449.1518" y="235.57"/><rect fill="#F1F1F1" height="2" style="stroke:#181818;stroke-width:0.5;" width="4" x="447.1518" y="237.57"/><rect fill="#F1F1F1" height="2" style="stroke:#181818;stroke-width:0.5;" width="4" x="447.1518" y="241.57"/><text fill="#000000" font-family="sans-serif" font-size="14" lengthAdjust="spacing" textLength="192.3018" x="251.85" y="263.5651">Installation &amp; Configuration</text></g><!--entity WS--><g class="entity" data-qualified-name="CKA - Administrator.WS" data-source-line="12" id="ent0009"><rect fill="#F1F1F1" height="46.2969" rx="2.5" ry="2.5" style="stroke:#181818;stroke-width:0.5;" width="210.6729" x="692.66" y="230.57"/><rect fill="#F1F1F1" height="10" style="stroke:#181818;stroke-width:0.5;" width="15" x="883.3329" y="235.57"/><rect fill="#F1F1F1" height="2" style="stroke:#181818;stroke-width:0.5;" width="4" x="881.3329" y="237.57"/><rect fill="#F1F1F1" height="2" style="stroke:#181818;stroke-width:0.5;" width="4" x="881.3329" y="241.57"/><text fill="#000000" font-family="sans-serif" font-size="14" lengthAdjust="spacing" textLength="170.6729" x="707.66" y="263.5651">Workloads &amp; Scheduling</text></g><!--entity SN--><g class="entity" data-qualified-name="CKA - Administrator.SN" data-source-line="13" id="ent0010"><rect fill="#F1F1F1" height="46.2969" rx="2.5" ry="2.5" style="stroke:#181818;stroke-width:0.5;" width="198.9561" x="938.52" y="230.57"/><rect fill="#F1F1F1" height="10" style="stroke:#181818;stroke-width:0.5;" width="15" x="1117.4761" y="235.57"/><rect fill="#F1F1F1" height="2" style="stroke:#181818;stroke-width:0.5;" width="4" x="1115.4761" y="237.57"/><rect fill="#F1F1F1" height="2" style="stroke:#181818;stroke-width:0.5;" width="4" x="1115.4761" y="241.57"/><text fill="#000000" font-family="sans-serif" font-size="14" lengthAdjust="spacing" textLength="158.9561" x="953.52" y="263.5651">Services &amp; Networking</text></g><!--entity ST--><g class="entity" data-qualified-name="CKA - Administrator.ST" data-source-line="14" id="ent0011"><rect fill="#F1F1F1" height="46.2969" rx="2.5" ry="2.5" style="stroke:#181818;stroke-width:0.5;" width="94.7764" x="1172.61" y="230.57"/><rect fill="#F1F1F1" height="10" style="stroke:#181818;stroke-width:0.5;" width="15" x="1247.3864" y="235.57"/><rect fill="#F1F1F1" height="2" style="stroke:#181818;stroke-width:0.5;" width="4" x="1245.3864" y="237.57"/><rect fill="#F1F1F1" height="2" style="stroke:#181818;stroke-width:0.5;" width="4" x="1245.3864" y="241.57"/><text fill="#000000" font-family="sans-serif" font-size="14" lengthAdjust="spacing" textLength="54.7764" x="1187.61" y="263.5651">Storage</text></g><!--entity TR--><g class="entity" data-qualified-name="CKA - Administrator.TR" data-source-line="15" id="ent0012"><rect fill="#F1F1F1" height="46.2969" rx="2.5" ry="2.5" style="stroke:#181818;stroke-width:0.5;" width="153.5723" x="504.21" y="230.57"/><rect fill="#F1F1F1" height="10" style="stroke:#181818;stroke-width:0.5;" width="15" x="637.7823" y="235.57"/><rect fill="#F1F1F1" height="2" style="stroke:#181818;stroke-width:0.5;" width="4" x="635.7823" y="237.57"/><rect fill="#F1F1F1" height="2" style="stroke:#181818;stroke-width:0.5;" width="4" x="635.7823" y="241.57"/><text fill="#000000" font-family="sans-serif" font-size="14" lengthAdjust="spacing" textLength="113.5723" x="519.21" y="263.5651">Troubleshooting</text></g><!--entity CC--><g class="entity" data-qualified-name="CKAD - Application Developer.CC" data-source-line="19" id="ent0014"><rect fill="#F1F1F1" height="46.2969" rx="2.5" ry="2.5" style="stroke:#181818;stroke-width:0.5;" width="142.3545" x="1322.82" y="230.57"/><rect fill="#F1F1F1" height="10" style="stroke:#181818;stroke-width:0.5;" width="15" x="1445.1745" y="235.57"/><rect fill="#F1F1F1" height="2" style="stroke:#181818;stroke-width:0.5;" width="4" x="1443.1745" y="237.57"/><rect fill="#F1F1F1" height="2" style="stroke:#181818;stroke-width:0.5;" width="4" x="1443.1745" y="241.57"/><text fill="#000000" font-family="sans-serif" font-size="14" lengthAdjust="spacing" textLength="102.3545" x="1337.82" y="263.5651">Core Concepts</text></g><!--entity CF--><g class="entity" data-qualified-name="CKAD - Application Developer.CF" data-source-line="20" id="ent0015"><rect fill="#F1F1F1" height="46.2969" rx="2.5" ry="2.5" style="stroke:#181818;stroke-width:0.5;" width="134.9443" x="1500.53" y="230.57"/><rect fill="#F1F1F1" height="10" style="stroke:#181818;stroke-width:0.5;" width="15" x="1615.4743" y="235.57"/><rect fill="#F1F1F1" height="2" style="stroke:#181818;stroke-width:0.5;" width="4" x="1613.4743" y="237.57"/><rect fill="#F1F1F1" height="2" style="stroke:#181818;stroke-width:0.5;" width="4" x="1613.4743" y="241.57"/><text fill="#000000" font-family="sans-serif" font-size="14" lengthAdjust="spacing" textLength="94.9443" x="1515.53" y="263.5651">Configuration</text></g><!--entity MCP--><g class="entity" data-qualified-name="CKAD - Application Developer.MCP" data-source-line="21" id="ent0016"><rect fill="#F1F1F1" height="46.2969" rx="2.5" ry="2.5" style="stroke:#181818;stroke-width:0.5;" width="185.3252" x="1670.34" y="230.57"/><rect fill="#F1F1F1" height="10" style="stroke:#181818;stroke-width:0.5;" width="15" x="1835.6652" y="235.57"/><rect fill="#F1F1F1" height="2" style="stroke:#181818;stroke-width:0.5;" width="4" x="1833.6652" y="237.57"/><rect fill="#F1F1F1" height="2" style="stroke:#181818;stroke-width:0.5;" width="4" x="1833.6652" y="241.57"/><text fill="#000000" font-family="sans-serif" font-size="14" lengthAdjust="spacing" textLength="145.3252" x="1685.34" y="263.5651">Multi-Container Pods</text></g><!--entity OB--><g class="entity" data-qualified-name="CKAD - Application Developer.OB" data-source-line="22" id="ent0017"><rect fill="#F1F1F1" height="46.2969" rx="2.5" ry="2.5" style="stroke:#181818;stroke-width:0.5;" width="132.7637" x="1890.62" y="230.57"/><rect fill="#F1F1F1" height="10" style="stroke:#181818;stroke-width:0.5;" width="15" x="2003.3837" y="235.57"/><rect fill="#F1F1F1" height="2" style="stroke:#181818;stroke-width:0.5;" width="4" x="2001.3837" y="237.57"/><rect fill="#F1F1F1" height="2" style="stroke:#181818;stroke-width:0.5;" width="4" x="2001.3837" y="241.57"/><text fill="#000000" font-family="sans-serif" font-size="14" lengthAdjust="spacing" textLength="92.7637" x="1905.62" y="263.5651">Observability</text></g><!--entity SN2--><g class="entity" data-qualified-name="CKAD - Application Developer.SN2" data-source-line="23" id="ent0018"><rect fill="#F1F1F1" height="46.2969" rx="2.5" ry="2.5" style="stroke:#181818;stroke-width:0.5;" width="198.9561" x="2058.52" y="230.57"/><rect fill="#F1F1F1" height="10" style="stroke:#181818;stroke-width:0.5;" width="15" x="2237.4761" y="235.57"/><rect fill="#F1F1F1" height="2" style="stroke:#181818;stroke-width:0.5;" width="4" x="2235.4761" y="237.57"/><rect fill="#F1F1F1" height="2" style="stroke:#181818;stroke-width:0.5;" width="4" x="2235.4761" y="241.57"/><text fill="#000000" font-family="sans-serif" font-size="14" lengthAdjust="spacing" textLength="158.9561" x="2073.52" y="263.5651">Services &amp; Networking</text></g><!--entity SP--><g class="entity" data-qualified-name="CKAD - Application Developer.SP" data-source-line="24" id="ent0019"><rect fill="#F1F1F1" height="46.2969" rx="2.5" ry="2.5" style="stroke:#181818;stroke-width:0.5;" width="162.083" x="2292.96" y="230.57"/><rect fill="#F1F1F1" height="10" style="stroke:#181818;stroke-width:0.5;" width="15" x="2435.043" y="235.57"/><rect fill="#F1F1F1" height="2" style="stroke:#181818;stroke-width:0.5;" width="4" x="2433.043" y="237.57"/><rect fill="#F1F1F1" height="2" style="stroke:#181818;stroke-width:0.5;" width="4" x="2433.043" y="241.57"/><text fill="#000000" font-family="sans-serif" font-size="14" lengthAdjust="spacing" textLength="122.083" x="2307.96" y="263.5651">State Persistence</text></g><!--entity CS--><g class="entity" data-qualified-name="CKS - Security Specialist.CS" data-source-line="28" id="ent0021"><rect fill="#F1F1F1" height="46.2969" rx="2.5" ry="2.5" style="stroke:#181818;stroke-width:0.5;" width="134.8896" x="2510.56" y="230.57"/><rect fill="#F1F1F1" height="10" style="stroke:#181818;stroke-width:0.5;" width="15" x="2625.4496" y="235.57"/><rect fill="#F1F1F1" height="2" style="stroke:#181818;stroke-width:0.5;" width="4" x="2623.4496" y="237.57"/><rect fill="#F1F1F1" height="2" style="stroke:#181818;stroke-width:0.5;" width="4" x="2623.4496" y="241.57"/><text fill="#000000" font-family="sans-serif" font-size="14" lengthAdjust="spacing" textLength="94.8896" x="2525.56" y="263.5651">Cluster Setup</text></g><!--entity CH--><g class="entity" data-qualified-name="CKS - Security Specialist.CH" data-source-line="29" id="ent0022"><rect fill="#F1F1F1" height="46.2969" rx="2.5" ry="2.5" style="stroke:#181818;stroke-width:0.5;" width="167.0254" x="2680.49" y="230.57"/><rect fill="#F1F1F1" height="10" style="stroke:#181818;stroke-width:0.5;" width="15" x="2827.5154" y="235.57"/><rect fill="#F1F1F1" height="2" style="stroke:#181818;stroke-width:0.5;" width="4" x="2825.5154" y="237.57"/><rect fill="#F1F1F1" height="2" style="stroke:#181818;stroke-width:0.5;" width="4" x="2825.5154" y="241.57"/><text fill="#000000" font-family="sans-serif" font-size="14" lengthAdjust="spacing" textLength="127.0254" x="2695.49" y="263.5651">Cluster Hardening</text></g><!--entity SH--><g class="entity" data-qualified-name="CKS - Security Specialist.SH" data-source-line="30" id="ent0023"><rect fill="#F1F1F1" height="46.2969" rx="2.5" ry="2.5" style="stroke:#181818;stroke-width:0.5;" width="169.541" x="2882.23" y="230.57"/><rect fill="#F1F1F1" height="10" style="stroke:#181818;stroke-width:0.5;" width="15" x="3031.771" y="235.57"/><rect fill="#F1F1F1" height="2" style="stroke:#181818;stroke-width:0.5;" width="4" x="3029.771" y="237.57"/><rect fill="#F1F1F1" height="2" style="stroke:#181818;stroke-width:0.5;" width="4" x="3029.771" y="241.57"/><text fill="#000000" font-family="sans-serif" font-size="14" lengthAdjust="spacing" textLength="129.541" x="2897.23" y="263.5651">System Hardening</text></g><!--entity MMV--><g class="entity" data-qualified-name="CKS - Security Specialist.MMV" data-source-line="31" id="ent0024"><rect fill="#F1F1F1" height="46.2969" rx="2.5" ry="2.5" style="stroke:#181818;stroke-width:0.5;" width="299.2598" x="3086.37" y="230.57"/><rect fill="#F1F1F1" height="10" style="stroke:#181818;stroke-width:0.5;" width="15" x="3365.6298" y="235.57"/><rect fill="#F1F1F1" height="2" style="stroke:#181818;stroke-width:0.5;" width="4" x="3363.6298" y="237.57"/><rect fill="#F1F1F1" height="2" style="stroke:#181818;stroke-width:0.5;" width="4" x="3363.6298" y="241.57"/><text fill="#000000" font-family="sans-serif" font-size="14" lengthAdjust="spacing" textLength="259.2598" x="3101.37" y="263.5651">Minimize Microservice Vulnerabilities</text></g><!--entity SCS--><g class="entity" data-qualified-name="CKS - Security Specialist.SCS" data-source-line="32" id="ent0025"><rect fill="#F1F1F1" height="46.2969" rx="2.5" ry="2.5" style="stroke:#181818;stroke-width:0.5;" width="194.0889" x="3420.96" y="230.57"/><rect fill="#F1F1F1" height="10" style="stroke:#181818;stroke-width:0.5;" width="15" x="3595.0489" y="235.57"/><rect fill="#F1F1F1" height="2" style="stroke:#181818;stroke-width:0.5;" width="4" x="3593.0489" y="237.57"/><rect fill="#F1F1F1" height="2" style="stroke:#181818;stroke-width:0.5;" width="4" x="3593.0489" y="241.57"/><text fill="#000000" font-family="sans-serif" font-size="14" lengthAdjust="spacing" textLength="154.0889" x="3435.96" y="263.5651">Supply Chain Security</text></g><!--entity MLR--><g class="entity" data-qualified-name="CKS - Security Specialist.MLR" data-source-line="33" id="ent0026"><rect fill="#F1F1F1" height="46.2969" rx="2.5" ry="2.5" style="stroke:#181818;stroke-width:0.5;" width="320.417" x="3649.79" y="230.57"/><rect fill="#F1F1F1" height="10" style="stroke:#181818;stroke-width:0.5;" width="15" x="3950.207" y="235.57"/><rect fill="#F1F1F1" height="2" style="stroke:#181818;stroke-width:0.5;" width="4" x="3948.207" y="237.57"/><rect fill="#F1F1F1" height="2" style="stroke:#181818;stroke-width:0.5;" width="4" x="3948.207" y="241.57"/><text fill="#000000" font-family="sans-serif" font-size="14" lengthAdjust="spacing" textLength="280.417" x="3664.79" y="263.5651">Monitoring, Logging &amp; Runtime Security</text></g><g class="entity" data-qualified-name="GMN45" data-source-line="60" id="ent0046"><path d="M2036.43,87.29 L2036.43,127.5556 L2197.5736,127.5556 L2197.5736,97.29 L2187.5736,87.29 L2036.43,87.29" fill="#FEFFDD" style="stroke:#181818;stroke-width:0.5;"/><path d="M2187.5736,87.29 L2187.5736,97.29 L2197.5736,97.29 L2187.5736,87.29" fill="#FEFFDD" style="stroke:#181818;stroke-width:1;"/><text fill="#000000" font-family="sans-serif" font-size="13" lengthAdjust="spacing" textLength="140.1436" x="2042.43" y="104.3569">"Certified Kubernetes</text><text fill="#000000" font-family="sans-serif" font-size="13" lengthAdjust="spacing" textLength="94.8276" x="2042.43" y="119.4897">Administrator"</text></g><g class="entity" data-qualified-name="GMN48" data-source-line="61" id="ent0049"><path d="M2232.7,87.29 L2232.7,127.5556 L2403.3079,127.5556 L2403.3079,97.29 L2393.3079,87.29 L2232.7,87.29" fill="#FEFFDD" style="stroke:#181818;stroke-width:0.5;"/><path d="M2393.3079,87.29 L2393.3079,97.29 L2403.3079,97.29 L2393.3079,87.29" fill="#FEFFDD" style="stroke:#181818;stroke-width:1;"/><text fill="#000000" font-family="sans-serif" font-size="13" lengthAdjust="spacing" textLength="140.1436" x="2238.7" y="104.3569">"Certified Kubernetes</text><text fill="#000000" font-family="sans-serif" font-size="13" lengthAdjust="spacing" textLength="149.6079" x="2238.7" y="119.4897">Application Developer"</text></g><g class="entity" data-qualified-name="GMN51" data-source-line="62" id="ent0052"><path d="M2438.43,87.29 L2438.43,127.5556 L2599.5736,127.5556 L2599.5736,97.29 L2589.5736,87.29 L2438.43,87.29" fill="#FEFFDD" style="stroke:#181818;stroke-width:0.5;"/><path d="M2589.5736,87.29 L2589.5736,97.29 L2599.5736,97.29 L2589.5736,87.29" fill="#FEFFDD" style="stroke:#181818;stroke-width:1;"/><text fill="#000000" font-family="sans-serif" font-size="13" lengthAdjust="spacing" textLength="140.1436" x="2444.43" y="104.3569">"Certified Kubernetes</text><text fill="#000000" font-family="sans-serif" font-size="13" lengthAdjust="spacing" textLength="125.8169" x="2444.43" y="119.4897">Security Specialist"</text></g><g class="entity" data-qualified-name="GMN54" data-source-line="63" id="ent0055"><path d="M4004.77,226.02 L4004.77,281.4184 L4119.2265,281.4184 L4119.2265,236.02 L4109.2265,226.02 L4004.77,226.02" fill="#FEFFDD" style="stroke:#181818;stroke-width:0.5;"/><path d="M4109.2265,226.02 L4109.2265,236.02 L4119.2265,236.02 L4109.2265,226.02" fill="#FEFFDD" style="stroke:#181818;stroke-width:1;"/><text fill="#000000" font-family="sans-serif" font-size="13" lengthAdjust="spacing" textLength="93.4565" x="4010.77" y="243.0869">"Control plane</text><text fill="#000000" font-family="sans-serif" font-size="13" lengthAdjust="spacing" textLength="71.2397" x="4010.77" y="258.2197">Data plane</text><text fill="#000000" font-family="sans-serif" font-size="13" lengthAdjust="spacing" textLength="41.2217" x="4010.77" y="273.3525">ETCD"</text></g><g class="entity" data-qualified-name="GMN57" data-source-line="64" id="ent0058"><path d="M4154.06,226.02 L4154.06,281.4184 L4241.9389,281.4184 L4241.9389,236.02 L4231.9389,226.02 L4154.06,226.02" fill="#FEFFDD" style="stroke:#181818;stroke-width:0.5;"/><path d="M4231.9389,226.02 L4231.9389,236.02 L4241.9389,236.02 L4231.9389,226.02" fill="#FEFFDD" style="stroke:#181818;stroke-width:1;"/><text fill="#000000" font-family="sans-serif" font-size="13" lengthAdjust="spacing" textLength="66.8789" x="4160.06" y="243.0869">"kubeadm</text><text fill="#000000" font-family="sans-serif" font-size="13" lengthAdjust="spacing" textLength="48.7246" x="4160.06" y="258.2197">kubelet</text><text fill="#000000" font-family="sans-serif" font-size="13" lengthAdjust="spacing" textLength="53.8535" x="4160.06" y="273.3525">kubectl"</text></g><g class="entity" data-qualified-name="GMN60" data-source-line="65" id="ent0061"><path d="M4276.78,226.02 L4276.78,281.4184 L4409.2195,281.4184 L4409.2195,236.02 L4399.2195,226.02 L4276.78,226.02" fill="#FEFFDD" style="stroke:#181818;stroke-width:0.5;"/><path d="M4399.2195,226.02 L4399.2195,236.02 L4409.2195,236.02 L4399.2195,226.02" fill="#FEFFDD" style="stroke:#181818;stroke-width:1;"/><text fill="#000000" font-family="sans-serif" font-size="13" lengthAdjust="spacing" textLength="111.4395" x="4282.78" y="243.0869">"Troubleshooting</text><text fill="#000000" font-family="sans-serif" font-size="13" lengthAdjust="spacing" textLength="30.2212" x="4282.78" y="258.2197">Logs</text><text fill="#000000" font-family="sans-serif" font-size="13" lengthAdjust="spacing" textLength="49.9941" x="4282.78" y="273.3525">Events"</text></g><!--link CKA to CA--><g class="link" data-entity-1="ent0003" data-entity-2="ent0007" data-link-type="dependency" data-source-line="37" id="lnk27"><path d="M1715.45,109.13 C1566.07,112.34 960.82,126.96 465,162.57 C355.39,170.45 323.18,152.58 219,187.57 C190.34,197.2 166.1339,212.0807 145.5339,226.8707" fill="none" id="CKA-to-CA" style="stroke:#181818;stroke-width:1;"/><polygon fill="#181818" points="140.66,230.37,150.3037,228.3704,144.7216,227.4539,145.638,221.8718,140.66,230.37" style="stroke:#181818;stroke-width:1;"/><text fill="#000000" font-family="sans-serif" font-size="13" lengthAdjust="spacing" textLength="42.9102" x="466" y="175.6369">covers</text></g><!--link CKA to IC--><g class="link" data-entity-1="ent0003" data-entity-2="ent0008" data-link-type="dependency" data-source-line="38" id="lnk28"><path d="M1715.69,108.83 C1580.09,110.69 1068.52,120.29 650,162.57 C577.08,169.94 556.97,165.75 487,187.57 C453.42,198.05 422.9607,212.8948 396.8507,227.2148" fill="none" id="CKA-to-IC" style="stroke:#181818;stroke-width:1;"/><polygon fill="#181818" points="391.59,230.1,401.4046,229.2793,395.9739,227.6956,397.5576,222.265,391.59,230.1" style="stroke:#181818;stroke-width:1;"/><text fill="#000000" font-family="sans-serif" font-size="13" lengthAdjust="spacing" textLength="42.9102" x="651" y="175.6369">covers</text></g><!--link CKA to WS--><g class="link" data-entity-1="ent0003" data-entity-2="ent0009" data-link-type="dependency" data-source-line="39" id="lnk29"><path d="M1715.38,109.83 C1578.23,115.7 1073.17,140.13 921,187.57 C889.28,197.46 861.2685,212.3893 837.3985,226.9893" fill="none" id="CKA-to-WS" style="stroke:#181818;stroke-width:1;"/><polygon fill="#181818" points="832.28,230.12,842.0448,228.8363,836.5454,227.5111,837.8706,222.0116,832.28,230.12" style="stroke:#181818;stroke-width:1;"/><text fill="#000000" font-family="sans-serif" font-size="13" lengthAdjust="spacing" textLength="42.9102" x="1038.71" y="175.6369">covers</text></g><!--link CKA to SN--><g class="link" data-entity-1="ent0003" data-entity-2="ent0010" data-link-type="dependency" data-source-line="40" id="lnk30"><path d="M1715.52,107.77 C1622.09,107.1 1357.5,112.48 1155,187.57 C1125.57,198.49 1099.7323,212.8369 1077.0723,226.9569" fill="none" id="CKA-to-SN" style="stroke:#181818;stroke-width:1;"/><polygon fill="#181818" points="1071.98,230.13,1081.7338,228.7652,1076.2236,227.4857,1077.503,221.9755,1071.98,230.13" style="stroke:#181818;stroke-width:1;"/><text fill="#000000" font-family="sans-serif" font-size="13" lengthAdjust="spacing" textLength="42.9102" x="1233.44" y="175.6369">covers</text></g><!--link CKA to ST--><g class="link" data-entity-1="ent0003" data-entity-2="ent0011" data-link-type="dependency" data-source-line="41" id="lnk31"><path d="M1715.39,109.23 C1638.67,112.13 1449.78,125.55 1307,187.57 C1283.29,197.87 1264.5539,211.8572 1248.0639,226.2972" fill="none" id="CKA-to-ST" style="stroke:#181818;stroke-width:1;"/><polygon fill="#181818" points="1243.55,230.25,1252.9561,227.3301,1247.3116,226.956,1247.6857,221.3116,1243.55,230.25" style="stroke:#181818;stroke-width:1;"/><text fill="#000000" font-family="sans-serif" font-size="13" lengthAdjust="spacing" textLength="42.9102" x="1364.98" y="175.6369">covers</text></g><!--link CKA to TR--><g class="link" data-entity-1="ent0003" data-entity-2="ent0012" data-link-type="dependency" data-source-line="42" id="lnk32"><path d="M1715.39,110.1 C1600.27,115.79 1219.79,135.54 906,162.57 C803.11,171.44 771.76,151.49 675,187.57 C649.14,197.22 628.2754,211.7682 610.3754,226.5582" fill="none" id="CKA-to-TR" style="stroke:#181818;stroke-width:1;"/><polygon fill="#181818" points="605.75,230.38,615.2359,227.731,609.6045,227.1952,610.1402,221.5638,605.75,230.38" style="stroke:#181818;stroke-width:1;"/><text fill="#000000" font-family="sans-serif" font-size="13" lengthAdjust="spacing" textLength="42.9102" x="907" y="175.6369">covers</text></g><!--link CKAD to CC--><g class="link" data-entity-1="ent0004" data-entity-2="ent0014" data-link-type="dependency" data-source-line="45" id="lnk33"><path d="M1837.84,131 C1827.91,140.05 1815.33,149.52 1802,154.57 C1764.35,168.85 1661.01,158.09 1621,162.57 C1559.06,169.52 1540.28,162.98 1483,187.57 C1458.89,197.92 1439.6628,211.9537 1422.7528,226.3937" fill="none" id="CKAD-to-CC" style="stroke:#181818;stroke-width:1;"/><polygon fill="#181818" points="1418.19,230.29,1427.6317,227.4874,1421.9923,227.0431,1422.4366,221.4037,1418.19,230.29" style="stroke:#181818;stroke-width:1;"/><text fill="#000000" font-family="sans-serif" font-size="13" lengthAdjust="spacing" textLength="42.9102" x="1622" y="175.6369">covers</text></g><!--link CKAD to CF--><g class="link" data-entity-1="ent0004" data-entity-2="ent0015" data-link-type="dependency" data-source-line="46" id="lnk34"><path d="M1836.36,131 C1826.54,139.6 1814.45,148.73 1802,154.57 C1785.59,162.28 1779.73,158.77 1762,162.57 C1713.4,173 1697.97,166.42 1653,187.57 C1630.12,198.34 1612.0567,212.0777 1595.9367,226.3177" fill="none" id="CKAD-to-CF" style="stroke:#181818;stroke-width:1;"/><polygon fill="#181818" points="1591.44,230.29,1600.8333,227.3294,1595.1873,226.9797,1595.5369,221.3337,1591.44,230.29" style="stroke:#181818;stroke-width:1;"/><text fill="#000000" font-family="sans-serif" font-size="13" lengthAdjust="spacing" textLength="42.9102" x="1763" y="175.6369">covers</text></g><!--link CKAD to MCP--><g class="link" data-entity-1="ent0004" data-entity-2="ent0016" data-link-type="dependency" data-source-line="47" id="lnk35"><path d="M1844,130.97 C1825.96,158.08 1799.2044,198.3051 1781.2144,225.3351" fill="none" id="CKAD-to-MCP" style="stroke:#181818;stroke-width:1;"/><polygon fill="#181818" points="1777.89,230.33,1786.2064,225.054,1780.6603,226.1676,1779.5466,220.6215,1777.89,230.33" style="stroke:#181818;stroke-width:1;"/><text fill="#000000" font-family="sans-serif" font-size="13" lengthAdjust="spacing" textLength="42.9102" x="1823.42" y="175.6369">covers</text></g><!--link CKAD to OB--><g class="link" data-entity-1="ent0004" data-entity-2="ent0017" data-link-type="dependency" data-source-line="48" id="lnk36"><path d="M1874.31,130.97 C1892.72,158.08 1920.0574,198.3376 1938.4274,225.3676" fill="none" id="CKAD-to-OB" style="stroke:#181818;stroke-width:1;"/><polygon fill="#181818" points="1941.8,230.33,1940.0495,220.638,1938.9895,226.1946,1933.4329,225.1347,1941.8,230.33" style="stroke:#181818;stroke-width:1;"/><text fill="#000000" font-family="sans-serif" font-size="13" lengthAdjust="spacing" textLength="42.9102" x="1906.06" y="175.6369">covers</text></g><!--link CKAD to SN2--><g class="link" data-entity-1="ent0004" data-entity-2="ent0018" data-link-type="dependency" data-source-line="49" id="lnk37"><path d="M1882.1,130.99 C1892.1,139.59 1904.4,148.72 1917,154.57 C1933.44,162.21 1939.4,158.2 1957,162.57 C1994.8,171.96 2005.1,172.45 2041,187.57 C2069.39,199.53 2094.5899,213.465 2117.2599,227.115" fill="none" id="CKAD-to-SN2" style="stroke:#181818;stroke-width:1;"/><polygon fill="#181818" points="2122.4,230.21,2116.7531,222.1408,2118.1165,227.6309,2112.6265,228.9943,2122.4,230.21" style="stroke:#181818;stroke-width:1;"/><text fill="#000000" font-family="sans-serif" font-size="13" lengthAdjust="spacing" textLength="42.9102" x="2021.46" y="175.6369">covers</text></g><!--link CKAD to SP--><g class="link" data-entity-1="ent0004" data-entity-2="ent0019" data-link-type="dependency" data-source-line="50" id="lnk38"><path d="M1880.61,130.96 C1890.73,140 1903.52,149.47 1917,154.57 C1949.26,166.78 2037.64,159.57 2072,162.57 C2162.56,170.48 2189.68,156.21 2275,187.57 C2301.65,197.37 2323.5953,211.8675 2342.5353,226.5275" fill="none" id="CKAD-to-SP" style="stroke:#181818;stroke-width:1;"/><polygon fill="#181818" points="2347.28,230.2,2342.6113,221.528,2343.3261,227.1396,2337.7145,227.8544,2347.28,230.2" style="stroke:#181818;stroke-width:1;"/><text fill="#000000" font-family="sans-serif" font-size="13" lengthAdjust="spacing" textLength="42.9102" x="2252.03" y="175.6369">covers</text></g><!--link CKS to CS--><g class="link" data-entity-1="ent0005" data-entity-2="ent0021" data-link-type="dependency" data-source-line="53" id="lnk39"><path d="M1986.48,131.07 C1995.28,140.13 2006.59,149.59 2019,154.57 C2048.29,166.34 2271.55,159.8 2303,162.57 C2378.2,169.2 2400.02,161.88 2471,187.57 C2499.02,197.71 2522.7825,212.208 2543.3825,226.698" fill="none" id="CKS-to-CS" style="stroke:#181818;stroke-width:1;"/><polygon fill="#181818" points="2548.29,230.15,2543.23,221.7004,2544.2004,227.2734,2538.6274,228.2438,2548.29,230.15" style="stroke:#181818;stroke-width:1;"/><text fill="#000000" font-family="sans-serif" font-size="13" lengthAdjust="spacing" textLength="42.9102" x="2444.8" y="175.6369">covers</text></g><!--link CKS to CH--><g class="link" data-entity-1="ent0005" data-entity-2="ent0022" data-link-type="dependency" data-source-line="54" id="lnk40"><path d="M1985.98,130.65 C1994.84,139.87 2006.34,149.57 2019,154.57 C2043.65,164.31 2469.59,160.38 2496,162.57 C2570.79,168.77 2592.78,161.08 2663,187.57 C2689.75,197.66 2711.9879,212.0128 2731.3579,226.5228" fill="none" id="CKS-to-CH" style="stroke:#181818;stroke-width:1;"/><polygon fill="#181818" points="2736.16,230.12,2731.355,221.5228,2732.1583,227.1223,2726.5587,227.9256,2736.16,230.12" style="stroke:#181818;stroke-width:1;"/><text fill="#000000" font-family="sans-serif" font-size="13" lengthAdjust="spacing" textLength="42.9102" x="2640.63" y="175.6369">covers</text></g><!--link CKS to SH--><g class="link" data-entity-1="ent0005" data-entity-2="ent0023" data-link-type="dependency" data-source-line="55" id="lnk41"><path d="M1985.97,130.68 C1994.83,139.91 2006.33,149.6 2019,154.57 C2036.41,161.4 2673.36,161.12 2692,162.57 C2769.45,168.6 2792.18,160.5 2865,187.57 C2891.98,197.6 2914.4823,211.9837 2934.0423,226.5037" fill="none" id="CKS-to-SH" style="stroke:#181818;stroke-width:1;"/><polygon fill="#181818" points="2938.86,230.08,2934.0177,221.5037,2934.8453,227.0997,2929.2493,227.9273,2938.86,230.08" style="stroke:#181818;stroke-width:1;"/><text fill="#000000" font-family="sans-serif" font-size="13" lengthAdjust="spacing" textLength="42.9102" x="2841.77" y="175.6369">covers</text></g><!--link CKS to MMV--><g class="link" data-entity-1="ent0005" data-entity-2="ent0024" data-link-type="dependency" data-source-line="56" id="lnk42"><path d="M1985.96,130.7 C1994.82,139.93 2006.32,149.62 2019,154.57 C2041.62,163.41 2868.79,160.75 2893,162.57 C2971.78,168.5 2992.58,167.53 3069,187.57 C3109.79,198.27 3148.6864,213.5103 3181.4364,227.7303" fill="none" id="CKS-to-MMV" style="stroke:#181818;stroke-width:1;"/><polygon fill="#181818" points="3186.94,230.12,3180.2777,222.8665,3182.3537,228.1286,3177.0915,230.2046,3186.94,230.12" style="stroke:#181818;stroke-width:1;"/><text fill="#000000" font-family="sans-serif" font-size="13" lengthAdjust="spacing" textLength="42.9102" x="3037.12" y="175.6369">covers</text></g><!--link CKS to SCS--><g class="link" data-entity-1="ent0005" data-entity-2="ent0025" data-link-type="dependency" data-source-line="57" id="lnk43"><path d="M1985.96,130.71 C1994.82,139.94 2006.32,149.63 2019,154.57 C2046.67,165.35 3058.33,161.29 3088,162.57 C3228.31,168.66 3268.72,146.43 3403,187.57 C3433.5,196.92 3459.7936,211.983 3482.0136,226.853" fill="none" id="CKS-to-SCS" style="stroke:#181818;stroke-width:1;"/><polygon fill="#181818" points="3487,230.19,3481.745,221.8602,3482.8446,227.4092,3477.2957,228.5088,3487,230.19" style="stroke:#181818;stroke-width:1;"/><text fill="#000000" font-family="sans-serif" font-size="13" lengthAdjust="spacing" textLength="42.9102" x="3373.48" y="175.6369">covers</text></g><!--link CKS to MLR--><g class="link" data-entity-1="ent0005" data-entity-2="ent0026" data-link-type="dependency" data-source-line="58" id="lnk44"><path d="M1985.95,130.72 C1994.81,139.95 2006.31,149.64 2019,154.57 C2037.19,161.64 3404.52,161.36 3424,162.57 C3517.37,168.4 3542.04,165.71 3633,187.57 C3676.46,198.02 3718.3437,213.5611 3753.1637,227.9311" fill="none" id="CKS-to-MLR" style="stroke:#181818;stroke-width:1;"/><polygon fill="#181818" points="3758.71,230.22,3751.9166,223.0891,3754.0881,228.3126,3748.8647,230.4841,3758.71,230.22" style="stroke:#181818;stroke-width:1;"/><text fill="#000000" font-family="sans-serif" font-size="13" lengthAdjust="spacing" textLength="42.9102" x="3594.88" y="175.6369">covers</text></g><!--link CKA to GMN45--><g class="link" data-entity-1="ent0003" data-entity-2="ent0046" data-link-type="association" data-source-line="60" id="lnk47"><path d="M1761.33,84.16 C1772.74,63.9 1792.53,36.25 1819.5,26.28 C1857.22,12.32 1962.12,14.23 2000.5,26.28 C2038.36,38.16 2074.68,67.19 2096.42,87.1" fill="none" id="CKA-GMN45" style="stroke:#181818;stroke-width:1;stroke-dasharray:7,7;"/></g><!--link CKAD to GMN48--><g class="link" data-entity-1="ent0004" data-entity-2="ent0049" data-link-type="association" data-source-line="61" id="lnk50"><path d="M1872.17,83.94 C1885.03,63.84 1906.71,36.56 1934.5,26.28 C1989.31,6 2141.6,9.21 2197.5,26.28 C2236.34,38.13 2273.98,67.17 2296.58,87.09" fill="none" id="CKAD-GMN48" style="stroke:#181818;stroke-width:1;stroke-dasharray:7,7;"/></g><!--link CKS to GMN51--><g class="link" data-entity-1="ent0005" data-entity-2="ent0052" data-link-type="association" data-source-line="62" id="lnk53"><path d="M1979.06,84.13 C1990.24,63.85 2009.7,36.19 2036.5,26.28 C2074.74,12.13 2364.62,13.98 2403.5,26.28 C2441.12,38.17 2477.1,67.2 2498.63,87.11" fill="none" id="CKS-GMN51" style="stroke:#181818;stroke-width:1;stroke-dasharray:7,7;"/></g><!--link CA to GMN54--><g class="link" data-entity-1="ent0007" data-entity-2="ent0055" data-link-type="association" data-source-line="63" id="lnk56"><path d="M137.33,230.31 C160.97,210.18 198.25,182.61 236.5,171.07 C286.12,156.1 3920.02,152.72 3968.5,171.07 C3997.27,181.97 4022.89,206.2 4040.01,225.63" fill="none" id="CA-GMN54" style="stroke:#181818;stroke-width:1;stroke-dasharray:7,7;"/></g><!--link IC to GMN57--><g class="link" data-entity-1="ent0008" data-entity-2="ent0058" data-link-type="association" data-source-line="64" id="lnk59"><path d="M384.69,230.25 C414.05,210.07 459.79,182.48 504.5,171.07 C553.15,158.67 4072.84,152.54 4119.5,171.07 C4145.8,181.52 4167.21,206.08 4180.99,225.73" fill="none" id="IC-GMN57" style="stroke:#181818;stroke-width:1;stroke-dasharray:7,7;"/></g><!--link TR to GMN60--><g class="link" data-entity-1="ent0012" data-entity-2="ent0061" data-link-type="association" data-source-line="65" id="lnk62"><path d="M603.22,230.36 C624.07,210.25 657.26,182.71 692.5,171.07 C739.31,155.62 4195.06,154.56 4241.5,171.07 C4271.9,181.89 4299.81,206.13 4318.63,225.58" fill="none" id="TR-GMN60" style="stroke:#181818;stroke-width:1;stroke-dasharray:7,7;"/></g><?plantuml-src XLInSXiX4Etr5HiLIHCtALDaHhwJOuzriaRSs8ML0d4hYH626-2KSJBvz-p1IP4nIJfuRtTvZrrur-16QeJbjAWdyw-pAGZ5dHkDMYxsV8imlk_MQ3LwT52WzN8Z1VVIQ3U6doE0v-9-yWquaVUJOLkUzcK4sB1deryNTOc7AvWq1wcbyvPxOqyLLUSyMfXOiPCUXUyinXBXX3ljF5SgY83tK1YzaTlEXdq8kolwi2TZzyhmnb4C4pjiEYNrDWGyiJw0eJrAWJq_H_-TmayycmUU597IYDGzKblJhHMwdJ7-55ilKrTbRwjjrN1FKE8HbMdnRCzOx5KBRBsBleg8fqQAcnwlEkNb5R6UKwSiB4mJqwfYqVCFQqTE-5egwLy2yN3zFt-Vea7k4HPe7JK0IKya5uaXHduOYivIUM0j2iaL9IJDOkYxDgfcb_Wjjmtgqyd5RJZuXQX3Gh50LJGD1_a3ePB26XSjm6Edo7cqA75mNps6MXrTzGiKExgSiynOC0gfZ9RKIJhc8ypCTaiBkf5bfxqyuEkCQXQQ-Q6VNH16QvgzVj97OLQllj00mcSO2tEaEnkVqRiYXpwn7ChcMRJEeVNo4esoobHN6OMb4WRu9WlJu6JnX-iiJEEInnTlzB547eioagiOqDiSoh8eDJiRdAzCVNobJ1kQSoktEmzc4vfBxF2POGD_VhYLVlqVlSqi_v6QVVDlIh2_LyYziZG_QgVFm1e5hU8QLxhadf_MqxeeqwGue7iwYJU7bUuN2drS2A_Iy3XtoMUtqlHuIEFqYDgxyMy0?></g></svg>