<?plantuml 1.2026.2?><svg xmlns="http://www.w3.org/2000/svg" xmlns:xlink="http://www.w3.org/1999/xlink" contentStyleType="text/css" data-diagram-type="DESCRIPTION" height="784px" preserveAspectRatio="none" style="width:1771px;height:784px;background:#FFFFFF;" version="1.1" viewBox="0 0 1771 784" width="1771px" zoomAndPan="magnify"><defs/><g><!--cluster External Network--><g class="cluster" data-qualified-name="External Network" data-source-line="3" id="ent0002"><path d="M1321.5,238.17 L1459.9434,238.17 A3.75,3.75 0 0 1 1462.4434,240.67 L1469.4434,260.4669 L1469.5,260.4669 A2.5,2.5 0 0 1 1472,262.9669 L1472,479.27 A2.5,2.5 0 0 1 1469.5,481.77 L1321.5,481.77 A2.5,2.5 0 0 1 1319,479.27 L1319,240.67 A2.5,2.5 0 0 1 1321.5,238.17" fill="none" style="stroke:#000000;stroke-width:1.5;"/><line style="stroke:#000000;stroke-width:1.5;" x1="1319" x2="1469.4434" y1="260.4669" y2="260.4669"/><text fill="#000000" font-family="sans-serif" font-size="14" font-weight="bold" lengthAdjust="spacing" textLength="137.4434" x="1323" y="253.1651">External Network</text></g><!--cluster Kubernetes Cluster--><g class="cluster" data-qualified-name="Kubernetes Cluster" data-source-line="8" id="ent0005"><path d="M8.5,195.17 L162.0576,195.17 A3.75,3.75 0 0 1 164.5576,197.67 L171.5576,217.4669 L1292.5,217.4669 A2.5,2.5 0 0 1 1295,219.9669 L1295,774.86 A2.5,2.5 0 0 1 1292.5,777.36 L8.5,777.36 A2.5,2.5 0 0 1 6,774.86 L6,197.67 A2.5,2.5 0 0 1 8.5,195.17" fill="none" style="stroke:#000000;stroke-width:1.5;"/><line style="stroke:#000000;stroke-width:1.5;" x1="6" x2="171.5576" y1="217.4669" y2="217.4669"/><text fill="#000000" font-family="sans-serif" font-size="14" font-weight="bold" lengthAdjust="spacing" textLength="152.5576" x="10" y="210.1651">Kubernetes Cluster</text></g><!--cluster Master Node--><g class="cluster" data-qualified-name="Kubernetes Cluster.Master Node" data-source-line="9" id="ent0006"><path d="M165.5,656.06 L267.0293,656.06 A3.75,3.75 0 0 1 269.5293,658.56 L276.5293,678.3569 L463.5,678.3569 A2.5,2.5 0 0 1 466,680.8569 L466,750.86 A2.5,2.5 0 0 1 463.5,753.36 L165.5,753.36 A2.5,2.5 0 0 1 163,750.86 L163,658.56 A2.5,2.5 0 0 1 165.5,656.06" fill="none" style="stroke:#000000;stroke-width:1.5;"/><line style="stroke:#000000;stroke-width:1.5;" x1="163" x2="276.5293" y1="678.3569" y2="678.3569"/><text fill="#000000" font-family="sans-serif" font-size="14" font-weight="bold" lengthAdjust="spacing" textLength="100.5293" x="167" y="671.0551">Master Node</text></g><!--cluster Worker Node 1--><g class="cluster" data-qualified-name="Kubernetes Cluster.Worker Node 1" data-source-line="14" id="ent0009"><path d="M436.5,238.17 L555.5156,238.17 A3.75,3.75 0 0 1 558.0156,240.67 L565.0156,260.4669 L811.5,260.4669 A2.5,2.5 0 0 1 814,262.9669 L814,479.27 A2.5,2.5 0 0 1 811.5,481.77 L436.5,481.77 A2.5,2.5 0 0 1 434,479.27 L434,240.67 A2.5,2.5 0 0 1 436.5,238.17" fill="none" style="stroke:#000000;stroke-width:1.5;"/><line style="stroke:#000000;stroke-width:1.5;" x1="434" x2="565.0156" y1="260.4669" y2="260.4669"/><text fill="#000000" font-family="sans-serif" font-size="14" font-weight="bold" lengthAdjust="spacing" textLength="118.0156" x="438" y="253.1651">Worker Node 1</text></g><!--cluster Worker Node 2--><g class="cluster" data-qualified-name="Kubernetes Cluster.Worker Node 2" data-source-line="21" id="ent0014"><path d="M32.5,384.47 L151.5156,384.47 A3.75,3.75 0 0 1 154.0156,386.97 L161.0156,406.7669 L407.5,406.7669 A2.5,2.5 0 0 1 410,409.2669 L410,604.56 A2.5,2.5 0 0 1 407.5,607.06 L32.5,607.06 A2.5,2.5 0 0 1 30,604.56 L30,386.97 A2.5,2.5 0 0 1 32.5,384.47" fill="none" style="stroke:#000000;stroke-width:1.5;"/><line style="stroke:#000000;stroke-width:1.5;" x1="30" x2="161.0156" y1="406.7669" y2="406.7669"/><text fill="#000000" font-family="sans-serif" font-size="14" font-weight="bold" lengthAdjust="spacing" textLength="118.0156" x="34" y="399.4651">Worker Node 2</text></g><!--cluster MetalLB--><g class="cluster" data-qualified-name="Kubernetes Cluster.MetalLB" data-source-line="28" id="ent0019"><path d="M840.5,238.17 L905.457,238.17 A3.75,3.75 0 0 1 907.957,240.67 L914.957,260.4669 L1268.5,260.4669 A2.5,2.5 0 0 1 1271,262.9669 L1271,332.97 A2.5,2.5 0 0 1 1268.5,335.47 L840.5,335.47 A2.5,2.5 0 0 1 838,332.97 L838,240.67 A2.5,2.5 0 0 1 840.5,238.17" fill="none" style="stroke:#000000;stroke-width:1.5;"/><line style="stroke:#000000;stroke-width:1.5;" x1="838" x2="914.957" y1="260.4669" y2="260.4669"/><text fill="#000000" font-family="sans-serif" font-size="14" font-weight="bold" lengthAdjust="spacing" textLength="63.957" x="842" y="253.1651">MetalLB</text></g><!--cluster Service Layer--><g class="cluster" data-qualified-name="Service Layer" data-source-line="35" id="ent0023"><path d="M502.5,48.88 L610.4688,48.88 A3.75,3.75 0 0 1 612.9688,51.38 L619.9688,71.1769 L914.5,71.1769 A2.5,2.5 0 0 1 917,73.6769 L917,143.67 A2.5,2.5 0 0 1 914.5,146.17 L502.5,146.17 A2.5,2.5 0 0 1 500,143.67 L500,51.38 A2.5,2.5 0 0 1 502.5,48.88" fill="none" style="stroke:#000000;stroke-width:1.5;"/><line style="stroke:#000000;stroke-width:1.5;" x1="500" x2="619.9688" y1="71.1769" y2="71.1769"/><text fill="#000000" font-family="sans-serif" font-size="14" font-weight="bold" lengthAdjust="spacing" textLength="106.9688" x="504" y="63.8751">Service Layer</text></g><!--entity CLIENT--><g class="entity" data-qualified-name="External Network.CLIENT" data-source-line="4" id="ent0003"><rect fill="#F1F1F1" height="46.2969" rx="2.5" ry="2.5" style="stroke:#181818;stroke-width:0.5;" width="80.5303" x="1334.73" y="273.17"/><rect fill="#F1F1F1" height="10" style="stroke:#181818;stroke-width:0.5;" width="15" x="1395.2603" y="278.17"/><rect fill="#F1F1F1" height="2" style="stroke:#181818;stroke-width:0.5;" width="4" x="1393.2603" y="280.17"/><rect fill="#F1F1F1" height="2" style="stroke:#181818;stroke-width:0.5;" width="4" x="1393.2603" y="284.17"/><text fill="#000000" font-family="sans-serif" font-size="14" lengthAdjust="spacing" textLength="40.5303" x="1349.73" y="306.1651">Client</text></g><!--entity ROUTER--><g class="entity" data-qualified-name="External Network.ROUTER" data-source-line="5" id="ent0004"><rect fill="#F1F1F1" height="46.2969" rx="2.5" ry="2.5" style="stroke:#181818;stroke-width:0.5;" width="87.0244" x="1335.49" y="419.47"/><rect fill="#F1F1F1" height="10" style="stroke:#181818;stroke-width:0.5;" width="15" x="1402.5144" y="424.47"/><rect fill="#F1F1F1" height="2" style="stroke:#181818;stroke-width:0.5;" width="4" x="1400.5144" y="426.47"/><rect fill="#F1F1F1" height="2" style="stroke:#181818;stroke-width:0.5;" width="4" x="1400.5144" y="430.47"/><text fill="#000000" font-family="sans-serif" font-size="14" lengthAdjust="spacing" textLength="47.0244" x="1350.49" y="452.4651">Router</text></g><!--entity API--><g class="entity" data-qualified-name="Kubernetes Cluster.Master Node.API" data-source-line="10" id="ent0007"><rect fill="#F1F1F1" height="46.2969" rx="2.5" ry="2.5" style="stroke:#181818;stroke-width:0.5;" width="145.2051" x="179.4" y="691.06"/><rect fill="#F1F1F1" height="10" style="stroke:#181818;stroke-width:0.5;" width="15" x="304.6051" y="696.06"/><rect fill="#F1F1F1" height="2" style="stroke:#181818;stroke-width:0.5;" width="4" x="302.6051" y="698.06"/><rect fill="#F1F1F1" height="2" style="stroke:#181818;stroke-width:0.5;" width="4" x="302.6051" y="702.06"/><text fill="#000000" font-family="sans-serif" font-size="14" lengthAdjust="spacing" textLength="105.2051" x="194.4" y="724.0551">kube-apiserver</text></g><!--entity FLANNEL_MASTER--><g class="entity" data-qualified-name="Kubernetes Cluster.Master Node.FLANNEL_MASTER" data-source-line="11" id="ent0008"><rect fill="#F1F1F1" height="46.2969" rx="2.5" ry="2.5" style="stroke:#181818;stroke-width:0.5;" width="90.7705" x="359.61" y="691.06"/><rect fill="#F1F1F1" height="10" style="stroke:#181818;stroke-width:0.5;" width="15" x="430.3805" y="696.06"/><rect fill="#F1F1F1" height="2" style="stroke:#181818;stroke-width:0.5;" width="4" x="428.3805" y="698.06"/><rect fill="#F1F1F1" height="2" style="stroke:#181818;stroke-width:0.5;" width="4" x="428.3805" y="702.06"/><text fill="#000000" font-family="sans-serif" font-size="14" lengthAdjust="spacing" textLength="50.7705" x="374.61" y="724.0551">Flannel</text></g><!--entity POD1--><g class="entity" data-qualified-name="Kubernetes Cluster.Worker Node 1.POD1" data-source-line="15" id="ent0010"><rect fill="#F1F1F1" height="46.2969" rx="2.5" ry="2.5" style="stroke:#181818;stroke-width:0.5;" width="79.252" x="450.37" y="273.17"/><rect fill="#F1F1F1" height="10" style="stroke:#181818;stroke-width:0.5;" width="15" x="509.622" y="278.17"/><rect fill="#F1F1F1" height="2" style="stroke:#181818;stroke-width:0.5;" width="4" x="507.622" y="280.17"/><rect fill="#F1F1F1" height="2" style="stroke:#181818;stroke-width:0.5;" width="4" x="507.622" y="284.17"/><text fill="#000000" font-family="sans-serif" font-size="14" lengthAdjust="spacing" textLength="39.252" x="465.37" y="306.1651">Pod 1</text></g><!--entity POD2--><g class="entity" data-qualified-name="Kubernetes Cluster.Worker Node 1.POD2" data-source-line="16" id="ent0011"><rect fill="#F1F1F1" height="46.2969" rx="2.5" ry="2.5" style="stroke:#181818;stroke-width:0.5;" width="79.252" x="564.37" y="273.17"/><rect fill="#F1F1F1" height="10" style="stroke:#181818;stroke-width:0.5;" width="15" x="623.622" y="278.17"/><rect fill="#F1F1F1" height="2" style="stroke:#181818;stroke-width:0.5;" width="4" x="621.622" y="280.17"/><rect fill="#F1F1F1" height="2" style="stroke:#181818;stroke-width:0.5;" width="4" x="621.622" y="284.17"/><text fill="#000000" font-family="sans-serif" font-size="14" lengthAdjust="spacing" textLength="39.252" x="579.37" y="306.1651">Pod 2</text></g><!--entity KPROXY1--><g class="entity" data-qualified-name="Kubernetes Cluster.Worker Node 1.KPROXY1" data-source-line="17" id="ent0012"><rect fill="#F1F1F1" height="46.2969" rx="2.5" ry="2.5" style="stroke:#181818;stroke-width:0.5;" width="119.3105" x="678.34" y="273.17"/><rect fill="#F1F1F1" height="10" style="stroke:#181818;stroke-width:0.5;" width="15" x="777.6505" y="278.17"/><rect fill="#F1F1F1" height="2" style="stroke:#181818;stroke-width:0.5;" width="4" x="775.6505" y="280.17"/><rect fill="#F1F1F1" height="2" style="stroke:#181818;stroke-width:0.5;" width="4" x="775.6505" y="284.17"/><text fill="#000000" font-family="sans-serif" font-size="14" lengthAdjust="spacing" textLength="79.3105" x="693.34" y="306.1651">kube-proxy</text></g><!--entity FLANNEL_W1--><g class="entity" data-qualified-name="Kubernetes Cluster.Worker Node 1.FLANNEL_W1" data-source-line="18" id="ent0013"><rect fill="#F1F1F1" height="46.2969" rx="2.5" ry="2.5" style="stroke:#181818;stroke-width:0.5;" width="90.7705" x="449.61" y="419.47"/><rect fill="#F1F1F1" height="10" style="stroke:#181818;stroke-width:0.5;" width="15" x="520.3805" y="424.47"/><rect fill="#F1F1F1" height="2" style="stroke:#181818;stroke-width:0.5;" width="4" x="518.3805" y="426.47"/><rect fill="#F1F1F1" height="2" style="stroke:#181818;stroke-width:0.5;" width="4" x="518.3805" y="430.47"/><text fill="#000000" font-family="sans-serif" font-size="14" lengthAdjust="spacing" textLength="50.7705" x="464.61" y="452.4651">Flannel</text></g><!--entity POD3--><g class="entity" data-qualified-name="Kubernetes Cluster.Worker Node 2.POD3" data-source-line="22" id="ent0015"><rect fill="#F1F1F1" height="46.2969" rx="2.5" ry="2.5" style="stroke:#181818;stroke-width:0.5;" width="79.252" x="160.37" y="419.47"/><rect fill="#F1F1F1" height="10" style="stroke:#181818;stroke-width:0.5;" width="15" x="219.622" y="424.47"/><rect fill="#F1F1F1" height="2" style="stroke:#181818;stroke-width:0.5;" width="4" x="217.622" y="426.47"/><rect fill="#F1F1F1" height="2" style="stroke:#181818;stroke-width:0.5;" width="4" x="217.622" y="430.47"/><text fill="#000000" font-family="sans-serif" font-size="14" lengthAdjust="spacing" textLength="39.252" x="175.37" y="452.4651">Pod 3</text></g><!--entity POD4--><g class="entity" data-qualified-name="Kubernetes Cluster.Worker Node 2.POD4" data-source-line="23" id="ent0016"><rect fill="#F1F1F1" height="46.2969" rx="2.5" ry="2.5" style="stroke:#181818;stroke-width:0.5;" width="79.252" x="46.37" y="419.47"/><rect fill="#F1F1F1" height="10" style="stroke:#181818;stroke-width:0.5;" width="15" x="105.622" y="424.47"/><rect fill="#F1F1F1" height="2" style="stroke:#181818;stroke-width:0.5;" width="4" x="103.622" y="426.47"/><rect fill="#F1F1F1" height="2" style="stroke:#181818;stroke-width:0.5;" width="4" x="103.622" y="430.47"/><text fill="#000000" font-family="sans-serif" font-size="14" lengthAdjust="spacing" textLength="39.252" x="61.37" y="452.4651">Pod 4</text></g><!--entity KPROXY2--><g class="entity" data-qualified-name="Kubernetes Cluster.Worker Node 2.KPROXY2" data-source-line="24" id="ent0017"><rect fill="#F1F1F1" height="46.2969" rx="2.5" ry="2.5" style="stroke:#181818;stroke-width:0.5;" width="119.3105" x="274.34" y="419.47"/><rect fill="#F1F1F1" height="10" style="stroke:#181818;stroke-width:0.5;" width="15" x="373.6505" y="424.47"/><rect fill="#F1F1F1" height="2" style="stroke:#181818;stroke-width:0.5;" width="4" x="371.6505" y="426.47"/><rect fill="#F1F1F1" height="2" style="stroke:#181818;stroke-width:0.5;" width="4" x="371.6505" y="430.47"/><text fill="#000000" font-family="sans-serif" font-size="14" lengthAdjust="spacing" textLength="79.3105" x="289.34" y="452.4651">kube-proxy</text></g><!--entity FLANNEL_W2--><g class="entity" data-qualified-name="Kubernetes Cluster.Worker Node 2.FLANNEL_W2" data-source-line="25" id="ent0018"><rect fill="#F1F1F1" height="46.2969" rx="2.5" ry="2.5" style="stroke:#181818;stroke-width:0.5;" width="90.7705" x="218.61" y="544.77"/><rect fill="#F1F1F1" height="10" style="stroke:#181818;stroke-width:0.5;" width="15" x="289.3805" y="549.77"/><rect fill="#F1F1F1" height="2" style="stroke:#181818;stroke-width:0.5;" width="4" x="287.3805" y="551.77"/><rect fill="#F1F1F1" height="2" style="stroke:#181818;stroke-width:0.5;" width="4" x="287.3805" y="555.77"/><text fill="#000000" font-family="sans-serif" font-size="14" lengthAdjust="spacing" textLength="50.7705" x="233.61" y="577.7651">Flannel</text></g><!--entity METALLB_CTRL--><g class="entity" data-qualified-name="Kubernetes Cluster.MetalLB.METALLB_CTRL" data-source-line="29" id="ent0020"><rect fill="#F1F1F1" height="46.2969" rx="2.5" ry="2.5" style="stroke:#181818;stroke-width:0.5;" width="109.1729" x="854.41" y="273.17"/><rect fill="#F1F1F1" height="10" style="stroke:#181818;stroke-width:0.5;" width="15" x="943.5829" y="278.17"/><rect fill="#F1F1F1" height="2" style="stroke:#181818;stroke-width:0.5;" width="4" x="941.5829" y="280.17"/><rect fill="#F1F1F1" height="2" style="stroke:#181818;stroke-width:0.5;" width="4" x="941.5829" y="284.17"/><text fill="#000000" font-family="sans-serif" font-size="14" lengthAdjust="spacing" textLength="69.1729" x="869.41" y="306.1651">Controller</text></g><!--entity SPEAKER1--><g class="entity" data-qualified-name="Kubernetes Cluster.MetalLB.SPEAKER1" data-source-line="30" id="ent0021"><rect fill="#F1F1F1" height="46.2969" rx="2.5" ry="2.5" style="stroke:#181818;stroke-width:0.5;" width="110.7998" x="998.6" y="273.17"/><rect fill="#F1F1F1" height="10" style="stroke:#181818;stroke-width:0.5;" width="15" x="1089.3998" y="278.17"/><rect fill="#F1F1F1" height="2" style="stroke:#181818;stroke-width:0.5;" width="4" x="1087.3998" y="280.17"/><rect fill="#F1F1F1" height="2" style="stroke:#181818;stroke-width:0.5;" width="4" x="1087.3998" y="284.17"/><text fill="#000000" font-family="sans-serif" font-size="14" lengthAdjust="spacing" textLength="70.7998" x="1013.6" y="306.1651">Speaker 1</text></g><!--entity SPEAKER2--><g class="entity" data-qualified-name="Kubernetes Cluster.MetalLB.SPEAKER2" data-source-line="31" id="ent0022"><rect fill="#F1F1F1" height="46.2969" rx="2.5" ry="2.5" style="stroke:#181818;stroke-width:0.5;" width="110.7998" x="1144.6" y="273.17"/><rect fill="#F1F1F1" height="10" style="stroke:#181818;stroke-width:0.5;" width="15" x="1235.3998" y="278.17"/><rect fill="#F1F1F1" height="2" style="stroke:#181818;stroke-width:0.5;" width="4" x="1233.3998" y="280.17"/><rect fill="#F1F1F1" height="2" style="stroke:#181818;stroke-width:0.5;" width="4" x="1233.3998" y="284.17"/><text fill="#000000" font-family="sans-serif" font-size="14" lengthAdjust="spacing" textLength="70.7998" x="1159.6" y="306.1651">Speaker 2</text></g><!--entity SVC_LB--><g class="entity" data-qualified-name="Service Layer.SVC_LB" data-source-line="36" id="ent0024"><rect fill="#F1F1F1" height="46.2969" rx="2.5" ry="2.5" style="stroke:#181818;stroke-width:0.5;" width="191.6143" x="516.19" y="83.88"/><rect fill="#F1F1F1" height="10" style="stroke:#181818;stroke-width:0.5;" width="15" x="687.8043" y="88.88"/><rect fill="#F1F1F1" height="2" style="stroke:#181818;stroke-width:0.5;" width="4" x="685.8043" y="90.88"/><rect fill="#F1F1F1" height="2" style="stroke:#181818;stroke-width:0.5;" width="4" x="685.8043" y="94.88"/><text fill="#000000" font-family="sans-serif" font-size="14" lengthAdjust="spacing" textLength="151.6143" x="531.19" y="116.8751">Service LoadBalancer</text></g><!--entity SVC_CLUSTER--><g class="entity" data-qualified-name="Service Layer.SVC_CLUSTER" data-source-line="37" id="ent0025"><rect fill="#F1F1F1" height="46.2969" rx="2.5" ry="2.5" style="stroke:#181818;stroke-width:0.5;" width="158.4531" x="742.77" y="83.88"/><rect fill="#F1F1F1" height="10" style="stroke:#181818;stroke-width:0.5;" width="15" x="881.2231" y="88.88"/><rect fill="#F1F1F1" height="2" style="stroke:#181818;stroke-width:0.5;" width="4" x="879.2231" y="90.88"/><rect fill="#F1F1F1" height="2" style="stroke:#181818;stroke-width:0.5;" width="4" x="879.2231" y="94.88"/><text fill="#000000" font-family="sans-serif" font-size="14" lengthAdjust="spacing" textLength="118.4531" x="757.77" y="116.8751">Service ClusterIP</text></g><g class="entity" data-qualified-name="GMN44" data-source-line="64" id="ent0045"><path d="M936.12,86.89 L936.12,127.1556 L1111.8759,127.1556 L1111.8759,96.89 L1101.8759,86.89 L936.12,86.89" fill="#FEFFDD" style="stroke:#181818;stroke-width:0.5;"/><path d="M1101.8759,86.89 L1101.8759,96.89 L1111.8759,96.89 L1101.8759,86.89" fill="#FEFFDD" style="stroke:#181818;stroke-width:1;"/><text fill="#000000" font-family="sans-serif" font-size="13" lengthAdjust="spacing" textLength="146.7642" x="942.12" y="103.9569">"LoadBalancer Service</text><text fill="#000000" font-family="sans-serif" font-size="13" lengthAdjust="spacing" textLength="154.7559" x="942.12" y="119.0897">External IP: 10.0.2.240"</text></g><g class="entity" data-qualified-name="GMN47" data-source-line="65" id="ent0048"><path d="M1146.75,86.89 L1146.75,127.1556 L1309.2456,127.1556 L1309.2456,96.89 L1299.2456,86.89 L1146.75,86.89" fill="#FEFFDD" style="stroke:#181818;stroke-width:0.5;"/><path d="M1299.2456,86.89 L1299.2456,96.89 L1309.2456,96.89 L1299.2456,86.89" fill="#FEFFDD" style="stroke:#181818;stroke-width:1;"/><text fill="#000000" font-family="sans-serif" font-size="13" lengthAdjust="spacing" textLength="115.9717" x="1152.75" y="103.9569">"ClusterIP Service</text><text fill="#000000" font-family="sans-serif" font-size="13" lengthAdjust="spacing" textLength="141.4956" x="1152.75" y="119.0897">Internal IP: 10.96.x.x"</text></g><g class="entity" data-qualified-name="GMN50" data-source-line="66" id="ent0051"><path d="M1488.28,422.49 L1488.28,462.7556 L1597.7155,462.7556 L1597.7155,432.49 L1587.7155,422.49 L1488.28,422.49" fill="#FEFFDD" style="stroke:#181818;stroke-width:0.5;"/><path d="M1587.7155,422.49 L1587.7155,432.49 L1597.7155,432.49 L1587.7155,422.49" fill="#FEFFDD" style="stroke:#181818;stroke-width:1;"/><text fill="#000000" font-family="sans-serif" font-size="13" lengthAdjust="spacing" textLength="88.4355" x="1494.28" y="439.5569">"Pod Network</text><text fill="#000000" font-family="sans-serif" font-size="13" lengthAdjust="spacing" textLength="75.1182" x="1494.28" y="454.6897">10.244.x.x"</text></g><g class="entity" data-qualified-name="GMN53" data-source-line="67" id="ent0054"><path d="M1591.87,276.19 L1591.87,316.4556 L1764.1283,316.4556 L1764.1283,286.19 L1754.1283,276.19 L1591.87,276.19" fill="#FEFFDD" style="stroke:#181818;stroke-width:0.5;"/><path d="M1754.1283,276.19 L1754.1283,286.19 L1764.1283,286.19 L1754.1283,276.19" fill="#FEFFDD" style="stroke:#181818;stroke-width:1;"/><text fill="#000000" font-family="sans-serif" font-size="13" lengthAdjust="spacing" textLength="110.2588" x="1597.87" y="293.2569">"IP Pool Manager</text><text fill="#000000" font-family="sans-serif" font-size="13" lengthAdjust="spacing" textLength="151.2583" x="1597.87" y="308.3897">10.0.2.240-10.0.2.250"</text></g><!--link CLIENT to ROUTER--><g class="link" data-entity-1="ent0003" data-entity-2="ent0004" data-link-type="dependency" data-source-line="41" id="lnk26"><path d="M1375.62,319.87 C1376.38,346.98 1377.4636,386.1923 1378.2136,413.2323" fill="none" id="CLIENT-to-ROUTER" style="stroke:#181818;stroke-width:1;"/><polygon fill="#181818" points="1378.38,419.23,1382.1289,410.1226,1378.2414,414.2319,1374.132,410.3444,1378.38,419.23" style="stroke:#181818;stroke-width:1;"/></g><!--link ROUTER to SVC_LB--><g class="link" data-entity-1="ent0004" data-entity-2="ent0024" data-link-type="dependency" data-source-line="42" id="lnk27"><path d="M1394.98,419.27 C1428.15,369.99 1496.3,251.27 1433,187.17 C1420.55,174.56 812.4,182.53 795,179.17 C774.42,175.2 770.81,169.04 751,162.17 C739.58,158.21 736.39,158.24 725,154.17 C705.04,147.04 688.9844,140.7333 670.0544,132.9033" fill="none" id="ROUTER-to-SVC_LB" style="stroke:#181818;stroke-width:1;"/><polygon fill="#181818" points="664.51,130.61,671.2977,137.7463,669.1304,132.5211,674.3555,130.3537,664.51,130.61" style="stroke:#181818;stroke-width:1;"/><text fill="#000000" font-family="sans-serif" font-size="13" lengthAdjust="spacing" textLength="69.9702" x="1460.1319" y="293.3869">External IP</text><text fill="#000000" font-family="sans-serif" font-size="13" lengthAdjust="spacing" textLength="70.2939" x="1459.97" y="308.5197">10.0.2.240</text></g><!--link SVC_LB to POD1--><g class="link" data-entity-1="ent0024" data-entity-2="ent0010" data-link-type="dependency" data-source-line="43" id="lnk28"><path d="M582.52,130.47 C571.98,139.51 560.59,150.55 552,162.17 C525.94,197.45 508.89,239.7661 499.21,267.4561" fill="none" id="SVC_LB-to-POD1" style="stroke:#181818;stroke-width:1;"/><polygon fill="#181818" points="497.23,273.12,503.9759,265.9442,498.88,268.4001,496.4241,263.3042,497.23,273.12" style="stroke:#181818;stroke-width:1;"/><text fill="#000000" font-family="sans-serif" font-size="13" lengthAdjust="spacing" textLength="38.3208" x="553" y="175.2369">traffic</text></g><!--link SVC_LB to POD2--><g class="link" data-entity-1="ent0024" data-entity-2="ent0011" data-link-type="dependency" data-source-line="44" id="lnk29"><path d="M606.38,130.53 C604.24,140.2 602.06,151.67 601,162.17 C597.09,201.05 599.1555,240.6504 601.3455,267.1304" fill="none" id="SVC_LB-to-POD2" style="stroke:#181818;stroke-width:1;"/><polygon fill="#181818" points="601.84,273.11,605.0846,263.8109,601.4279,268.127,597.1118,264.4703,601.84,273.11" style="stroke:#181818;stroke-width:1;"/><text fill="#000000" font-family="sans-serif" font-size="13" lengthAdjust="spacing" textLength="38.3208" x="602" y="175.2369">traffic</text></g><!--link SVC_LB to POD3--><g class="link" data-entity-1="ent0024" data-entity-2="ent0015" data-link-type="dependency" data-source-line="45" id="lnk30"><path d="M515.8,130.04 C475.57,142.39 429.93,160.76 394,187.17 C304.93,252.64 239.9023,364.7693 214.1123,413.8193" fill="none" id="SVC_LB-to-POD3" style="stroke:#181818;stroke-width:1;"/><polygon fill="#181818" points="211.32,419.13,219.0489,413.0255,213.6469,414.7045,211.968,409.3025,211.32,419.13" style="stroke:#181818;stroke-width:1;"/><text fill="#000000" font-family="sans-serif" font-size="13" lengthAdjust="spacing" textLength="38.3208" x="395" y="300.8869">traffic</text></g><!--link SVC_LB to POD4--><g class="link" data-entity-1="ent0024" data-entity-2="ent0016" data-link-type="dependency" data-source-line="46" id="lnk31"><path d="M516.11,116.88 C412.27,128.16 255.13,150.7 208,187.17 C130.51,247.14 100.787,362.8206 90.987,413.1406" fill="none" id="SVC_LB-to-POD4" style="stroke:#181818;stroke-width:1;"/><polygon fill="#181818" points="89.84,419.03,95.4867,410.9606,90.7958,414.1222,87.6342,409.4313,89.84,419.03" style="stroke:#181818;stroke-width:1;"/><text fill="#000000" font-family="sans-serif" font-size="13" lengthAdjust="spacing" textLength="38.3208" x="209" y="300.8869">traffic</text></g><!--link SVC_CLUSTER to POD1--><g class="link" data-entity-1="ent0025" data-entity-2="ent0010" data-link-type="dependency" data-source-line="48" id="lnk32"><path d="M808.01,130.46 C796.17,147.22 777.55,168.92 755,179.17 C733.95,188.75 566.57,174.85 547,187.17 C516.65,206.29 503.0606,241.4985 496.2906,267.1585" fill="none" id="SVC_CLUSTER-to-POD1" style="stroke:#181818;stroke-width:1;"/><polygon fill="#181818" points="494.76,272.96,500.9236,265.2782,496.0355,268.1254,493.1883,263.2374,494.76,272.96" style="stroke:#181818;stroke-width:1;"/><text fill="#000000" font-family="sans-serif" font-size="13" lengthAdjust="spacing" textLength="50.1084" x="780.18" y="175.2369">internal</text></g><!--link SVC_CLUSTER to POD2--><g class="link" data-entity-1="ent0025" data-entity-2="ent0011" data-link-type="dependency" data-source-line="49" id="lnk33"><path d="M861.66,130.65 C881.8,144.9 899.13,163.49 884,179.17 C866.79,197.02 682,173.99 661,187.17 C630.63,206.25 617.0374,241.4677 610.2774,267.1477" fill="none" id="SVC_CLUSTER-to-POD2" style="stroke:#181818;stroke-width:1;"/><polygon fill="#181818" points="608.75,272.95,614.9093,265.2648,610.0228,268.1147,607.1729,263.2282,608.75,272.95" style="stroke:#181818;stroke-width:1;"/><text fill="#000000" font-family="sans-serif" font-size="13" lengthAdjust="spacing" textLength="50.1084" x="890.74" y="175.2369">internal</text></g><!--link POD1 to FLANNEL_W1--><g class="link" data-entity-1="ent0010" data-entity-2="ent0013" data-link-type="dependency" data-source-line="51" id="lnk34"><path d="M486.2108,325.8867 C485.0408,335.5767 484.57,341.08 484,351.47 C482.72,374.61 485.4126,395.0069 488.8926,413.1969" fill="none" id="POD1-FLANNEL_W1" style="stroke:#181818;stroke-width:1;"/><polygon fill="#181818" points="486.93,319.93,481.88,328.3856,486.3306,324.8939,489.8223,329.3446,486.93,319.93" style="stroke:#181818;stroke-width:1;"/><polygon fill="#181818" points="490.02,419.09,492.2576,409.4987,489.0805,414.1791,484.4001,411.0019,490.02,419.09" style="stroke:#181818;stroke-width:1;"/><text fill="#000000" font-family="sans-serif" font-size="13" lengthAdjust="spacing" textLength="81.3833" x="485" y="364.5369">pod network</text></g><!--link POD2 to FLANNEL_W1--><g class="link" data-entity-1="ent0011" data-entity-2="ent0013" data-link-type="dependency" data-source-line="52" id="lnk35"><path d="M593.8034,325.5334 C588.0634,340.1234 581.67,353.5 571,368.47 C557.5,387.41 543.2211,401.627 527.6911,415.107" fill="none" id="POD2-FLANNEL_W1" style="stroke:#181818;stroke-width:1;"/><polygon fill="#181818" points="596,319.95,588.9828,326.8607,594.1695,324.6029,596.4273,329.7896,596,319.95" style="stroke:#181818;stroke-width:1;"/><polygon fill="#181818" points="523.16,419.04,532.5787,416.1612,526.936,415.7625,527.3347,410.1197,523.16,419.04" style="stroke:#181818;stroke-width:1;"/><text fill="#000000" font-family="sans-serif" font-size="13" lengthAdjust="spacing" textLength="81.3833" x="582.17" y="364.5369">pod network</text></g><!--link POD3 to FLANNEL_W2--><g class="link" data-entity-1="ent0015" data-entity-2="ent0018" data-link-type="dependency" data-source-line="53" id="lnk36"><path d="M213.3546,471.5952 C220.1346,485.6652 226.57,498.67 235,514.77 C240.14,524.59 243.1114,530.0789 248.2514,539.2289" fill="none" id="POD3-FLANNEL_W2" style="stroke:#181818;stroke-width:1;"/><polygon fill="#181818" points="210.75,466.19,211.0535,476.0342,212.9205,470.6943,218.2604,472.5613,210.75,466.19" style="stroke:#181818;stroke-width:1;"/><polygon fill="#181818" points="251.19,544.46,250.2695,534.6542,248.7412,540.1007,243.2947,538.5724,251.19,544.46" style="stroke:#181818;stroke-width:1;"/><text fill="#000000" font-family="sans-serif" font-size="13" lengthAdjust="spacing" textLength="81.3833" x="236" y="510.8369">pod network</text></g><!--link POD4 to FLANNEL_W2--><g class="link" data-entity-1="ent0016" data-entity-2="ent0018" data-link-type="dependency" data-source-line="54" id="lnk37"><path d="M100.2653,471.3117 C109.0153,486.7717 119.47,501.6 136,514.77 C160.12,533.98 186.5602,545.2279 212.6002,553.4779" fill="none" id="POD4-FLANNEL_W2" style="stroke:#181818;stroke-width:1;"/><polygon fill="#181818" points="97.31,466.09,98.2619,475.8927,99.7728,470.4414,105.2241,471.9523,97.31,466.09" style="stroke:#181818;stroke-width:1;"/><polygon fill="#181818" points="218.32,555.29,210.9484,548.7586,213.5535,553.7799,208.5322,556.385,218.32,555.29" style="stroke:#181818;stroke-width:1;"/><text fill="#000000" font-family="sans-serif" font-size="13" lengthAdjust="spacing" textLength="81.3833" x="137" y="510.8369">pod network</text></g><!--link FLANNEL_W1 to FLANNEL_W2--><g class="link" data-entity-1="ent0013" data-entity-2="ent0018" data-link-type="dependency" data-source-line="56" id="lnk38"><path d="M454.6254,469.1428 C439.7654,477.7328 427.15,483.87 410,489.77 C389.55,496.8 382.01,489.55 362,497.77 C334.84,508.92 312.486,524.9369 293.736,540.5069" fill="none" id="FLANNEL_W1-FLANNEL_W2" style="stroke:#181818;stroke-width:1;"/><polygon fill="#181818" points="459.82,466.14,450.0263,467.1811,455.4912,468.6423,454.03,474.1072,459.82,466.14" style="stroke:#181818;stroke-width:1;"/><polygon fill="#181818" points="289.12,544.34,298.5994,541.6677,292.9666,541.1457,293.4886,535.513,289.12,544.34" style="stroke:#181818;stroke-width:1;"/><text fill="#000000" font-family="sans-serif" font-size="13" lengthAdjust="spacing" textLength="105.187" x="363" y="510.8369">overlay network</text></g><!--link FLANNEL_W1 to FLANNEL_MASTER--><g class="link" data-entity-1="ent0013" data-entity-2="ent0008" data-link-type="dependency" data-source-line="57" id="lnk39"><path d="M491.2037,472.0486 C485.8337,509.2886 473.52,579.7 449,640.06 C441.69,658.05 433.6682,671.7877 424.3282,685.7977" fill="none" id="FLANNEL_W1-FLANNEL_MASTER" style="stroke:#181818;stroke-width:1;"/><polygon fill="#181818" points="492.06,466.11,486.8164,474.447,491.3464,471.0588,494.7345,475.5888,492.06,466.11" style="stroke:#181818;stroke-width:1;"/><polygon fill="#181818" points="421,690.79,429.3205,685.5203,423.7735,686.6297,422.6641,681.0827,421,690.79" style="stroke:#181818;stroke-width:1;"/><text fill="#000000" font-family="sans-serif" font-size="13" lengthAdjust="spacing" textLength="105.187" x="478.26" y="572.4769">overlay network</text></g><!--link FLANNEL_W2 to FLANNEL_MASTER--><g class="link" data-entity-1="ent0018" data-entity-2="ent0008" data-link-type="dependency" data-source-line="58" id="lnk40"><path d="M290.4683,595.6469 C306.0983,611.4569 323.27,628.87 342,648.06 C355.85,662.25 367.1652,673.9309 379.3152,686.5309" fill="none" id="FLANNEL_W2-FLANNEL_MASTER" style="stroke:#181818;stroke-width:1;"/><polygon fill="#181818" points="286.25,591.38,289.7328,600.5925,289.7652,594.9357,295.422,594.9681,286.25,591.38" style="stroke:#181818;stroke-width:1;"/><polygon fill="#181818" points="383.48,690.85,380.1122,681.5949,380.0093,687.2508,374.3534,687.1479,383.48,690.85" style="stroke:#181818;stroke-width:1;"/><text fill="#000000" font-family="sans-serif" font-size="13" lengthAdjust="spacing" textLength="105.187" x="334.57" y="636.1269">overlay network</text></g><!--link METALLB_CTRL to SVC_LB--><g class="link" data-entity-1="ent0020" data-entity-2="ent0024" data-link-type="dependency" data-source-line="60" id="lnk41"><path d="M896.69,272.77 C881.19,246.92 851.94,205.74 814,187.17 C787.4,174.16 707.91,191.53 681,179.17 C658.17,168.69 642.5047,151.8463 630.1847,135.1663" fill="none" id="METALLB_CTRL-to-SVC_LB" style="stroke:#181818;stroke-width:1;"/><polygon fill="#181818" points="626.62,130.34,628.7496,139.9559,629.5906,134.3619,635.1846,135.2029,626.62,130.34" style="stroke:#181818;stroke-width:1;"/><text fill="#000000" font-family="sans-serif" font-size="13" lengthAdjust="spacing" textLength="64.1938" x="682" y="175.2369">assigns IP</text></g><!--link SPEAKER1 to ROUTER--><g class="link" data-entity-1="ent0021" data-entity-2="ent0004" data-link-type="dependency" data-source-line="61" id="lnk42"><path d="M1086.65,319.85 C1098.99,327.85 1113.35,336.58 1127,343.47 C1197.41,379.02 1278.2535,408.266 1329.4135,425.486" fill="none" id="SPEAKER1-to-ROUTER" style="stroke:#181818;stroke-width:1;"/><polygon fill="#181818" points="1335.1,427.4,1327.8462,420.7379,1330.3612,425.805,1325.2942,428.32,1335.1,427.4" style="stroke:#181818;stroke-width:1;"/><text fill="#000000" font-family="sans-serif" font-size="13" lengthAdjust="spacing" textLength="57.7192" x="1174.76" y="364.5369">ARP/NDP</text></g><!--link SPEAKER2 to ROUTER--><g class="link" data-entity-1="ent0022" data-entity-2="ent0004" data-link-type="dependency" data-source-line="62" id="lnk43"><path d="M1227.97,319.87 C1261.5,346.9 1312.6887,388.1645 1346.2587,415.2245" fill="none" id="SPEAKER2-to-ROUTER" style="stroke:#181818;stroke-width:1;"/><polygon fill="#181818" points="1350.93,418.99,1346.4333,410.2276,1347.0372,415.8521,1341.4127,416.456,1350.93,418.99" style="stroke:#181818;stroke-width:1;"/><text fill="#000000" font-family="sans-serif" font-size="13" lengthAdjust="spacing" textLength="57.7192" x="1285.13" y="364.5369">ARP/NDP</text></g><!--link SVC_LB to GMN44--><g class="link" data-entity-1="ent0024" data-entity-2="ent0045" data-link-type="association" data-source-line="64" id="lnk46"><path d="M639.32,83.63 C664.3,63.88 703.25,37.08 742.5,25.88 C809.6,6.72 832.61,6 899.5,25.88 C939.32,37.71 978.3,66.75 1001.74,86.68" fill="none" id="SVC_LB-GMN44" style="stroke:#181818;stroke-width:1;stroke-dasharray:7,7;"/></g><!--link SVC_CLUSTER to GMN47--><g class="link" data-entity-1="ent0025" data-entity-2="ent0048" data-link-type="association" data-source-line="65" id="lnk49"><path d="M845.44,83.68 C867.02,63.96 900.98,37.19 936.5,25.88 C973.56,14.08 1074.4,14.23 1111.5,25.88 C1149.36,37.76 1185.68,66.79 1207.42,86.7" fill="none" id="SVC_CLUSTER-GMN47" style="stroke:#181818;stroke-width:1;stroke-dasharray:7,7;"/></g><!--link FLANNEL_W1 to GMN50--><g class="link" data-entity-1="ent0013" data-entity-2="ent0051" data-link-type="association" data-source-line="66" id="lnk52"><path d="M540.49,436.57 C666.61,420.13 1031.53,374.91 1336.5,359.97 C1374.23,358.12 1385.39,348.85 1421.5,359.97 C1461,372.13 1499.16,402 1521.86,422.29" fill="none" id="FLANNEL_W1-GMN50" style="stroke:#181818;stroke-width:1;stroke-dasharray:7,7;"/></g><!--link METALLB_CTRL to GMN53--><g class="link" data-entity-1="ent0020" data-entity-2="ent0054" data-link-type="association" data-source-line="67" id="lnk55"><path d="M916.72,272.81 C928.52,241.54 954.44,188.17 998.5,170.67 C1026.85,159.42 1519.15,159.42 1547.5,170.67 C1600.41,191.68 1643.74,245.79 1664.58,275.7" fill="none" id="METALLB_CTRL-GMN53" style="stroke:#181818;stroke-width:1;stroke-dasharray:7,7;"/></g><?plantuml-src ZLHTZzem47pthzZoqYSeCMcbdgfA8PUh42P42TThTLSXDnWQOTae2IseklzU9yw7Gu6x1nIqCpixSMRzPiNMYM0GUkx2yRyG3s9EimoX7OstTCEWvnrobWhAmMVv7vbkU_0N0JowF64Y_m4q0vTCF7zH54EvL-Io6Cxl5rw8dWsbwVwdKc8vKorydoccrce8CreKmPShfX4bkLLDVRfBCfR-hgITOAAnEqw5OBmitX77zpsod3bHCHVWMVrCyGVblH87gv4Fv0giKY2Otrfj3TSrRDZOfV9mB85f4Cw_VRSkstYmNh20EnP6zRXHMxFhcdt50hvY0P-nC6CvvMJS37Ubo5F9UNMqCs_X439UkekGQ4AqOxGmhGyf2ZndweLM5yCcfgUQtprIdow96H1wh3_vOrEJT3McodrSEOY-kaioDYbLLYP1WxlaFgh2zHRK6mWMvuaK6T99X7x_Svq__IWhMXbkZ4XFWYTX3GV30HvWUzX35QLW5t4ek7bAr-iaFiNm5Mnq1RCx63BUfZCr4TfXxnm3TnceRFfKW6tw2ifEXKXKIulAlbUGHYSaV8valqX2nfGpNAbscTDZoxz4r-jylGM_kWMP-Ju9XRhraet8L2RKeLSnDv9KK9mmUEVVjZY-X2CXSmPfilcLWrmRGyouGnNm9s7ayGRCFFulKqT1QJLxqGfDH5VeuuV1ON0urUa6eBXgggkzN0Pis-UQEYUdsjJOG4eECohKagVc7lNhl--7lNy0?></g></svg>