<?plantuml 1.2026.2?><svg xmlns="http://www.w3.org/2000/svg" xmlns:xlink="http://www.w3.org/1999/xlink" contentStyleType="text/css" data-diagram-type="ACTIVITY" height="514px" preserveAspectRatio="none" style="width:479px;height:514px;background:#FFFFFF;" version="1.1" viewBox="0 0 479 514" width="479px" zoomAndPan="magnify"><defs/><g><ellipse cx="123.0176" cy="20" fill="#222222" rx="10" ry="10" style="stroke:#222222;stroke-width:1;"/><path d="M224.5752,54.418 L224.5752,62.9844 L204.5752,66.9844 L224.5752,70.9844 L224.5752,79.5508 A0,0 0 0 0 224.5752,79.5508 L439.8579,79.5508 A0,0 0 0 0 439.8579,79.5508 L439.8579,64.418 L429.8579,54.418 L224.5752,54.418 A0,0 0 0 0 224.5752,54.418" fill="#FEFFDD" style="stroke:#181818;stroke-width:0.5;"/><path d="M429.8579,54.418 L429.8579,64.418 L439.8579,64.418 L429.8579,54.418" fill="#FEFFDD" style="stroke:#181818;stroke-width:0.5;"/><text fill="#000000" font-family="sans-serif" font-size="13" lengthAdjust="spacing" textLength="194.2827" x="230.5752" y="71.4849">&#1054;&#1087;&#1088;&#1077;&#1076;&#1077;&#1083;&#1103;&#1077;&#1090; &#1090;&#1080;&#1087; &#1093;&#1088;&#1072;&#1085;&#1080;&#1083;&#1080;&#1097;&#1072;</text><rect fill="#F1F1F1" height="33.9688" rx="12.5" ry="12.5" style="stroke:#181818;stroke-width:0.5;" width="163.1152" x="41.46" y="50"/><text fill="#000000" font-family="sans-serif" font-size="12" lengthAdjust="spacing" textLength="143.1152" x="51.46" y="71.1387">&#1057;&#1086;&#1079;&#1076;&#1072;&#1085;&#1080;&#1077; StorageClass</text><path d="M237.9902,108.3867 L237.9902,116.9531 L217.9902,120.9531 L237.9902,124.9531 L237.9902,133.5195 A0,0 0 0 0 237.9902,133.5195 L467.8916,133.5195 A0,0 0 0 0 467.8916,133.5195 L467.8916,118.3867 L457.8916,108.3867 L237.9902,108.3867 A0,0 0 0 0 237.9902,108.3867" fill="#FEFFDD" style="stroke:#181818;stroke-width:0.5;"/><path d="M457.8916,108.3867 L457.8916,118.3867 L467.8916,118.3867 L457.8916,108.3867" fill="#FEFFDD" style="stroke:#181818;stroke-width:0.5;"/><text fill="#000000" font-family="sans-serif" font-size="13" lengthAdjust="spacing" textLength="208.9014" x="243.9902" y="125.4536">&#1042;&#1088;&#1091;&#1095;&#1085;&#1091;&#1102; &#1080;&#1083;&#1080; &#1095;&#1077;&#1088;&#1077;&#1079; provisioner</text><rect fill="#F1F1F1" height="33.9688" rx="12.5" ry="12.5" style="stroke:#181818;stroke-width:0.5;" width="189.9453" x="28.0449" y="103.9688"/><text fill="#000000" font-family="sans-serif" font-size="12" lengthAdjust="spacing" textLength="169.9453" x="38.0449" y="125.1074">&#1057;&#1086;&#1079;&#1076;&#1072;&#1085;&#1080;&#1077; PersistentVolume</text><path d="M255.0352,162.3555 L255.0352,170.9219 L235.0352,174.9219 L255.0352,178.9219 L255.0352,187.4883 A0,0 0 0 0 255.0352,187.4883 L426.7793,187.4883 A0,0 0 0 0 426.7793,187.4883 L426.7793,172.3555 L416.7793,162.3555 L255.0352,162.3555 A0,0 0 0 0 255.0352,162.3555" fill="#FEFFDD" style="stroke:#181818;stroke-width:0.5;"/><path d="M416.7793,162.3555 L416.7793,172.3555 L426.7793,172.3555 L416.7793,162.3555" fill="#FEFFDD" style="stroke:#181818;stroke-width:0.5;"/><text fill="#000000" font-family="sans-serif" font-size="13" lengthAdjust="spacing" textLength="150.7441" x="261.0352" y="179.4224">&#1047;&#1072;&#1087;&#1088;&#1086;&#1089; &#1085;&#1072; &#1093;&#1088;&#1072;&#1085;&#1080;&#1083;&#1080;&#1097;&#1077;</text><rect fill="#F1F1F1" height="33.9688" rx="12.5" ry="12.5" style="stroke:#181818;stroke-width:0.5;" width="224.0352" x="11" y="157.9375"/><text fill="#000000" font-family="sans-serif" font-size="12" lengthAdjust="spacing" textLength="204.0352" x="21" y="179.0762">&#1057;&#1086;&#1079;&#1076;&#1072;&#1085;&#1080;&#1077; PersistentVolumeClaim</text><path d="M204.6709,216.3242 L204.6709,224.8906 L184.6709,228.8906 L204.6709,232.8906 L204.6709,241.457 A0,0 0 0 0 204.6709,241.457 L422.6895,241.457 A0,0 0 0 0 422.6895,241.457 L422.6895,226.3242 L412.6895,216.3242 L204.6709,216.3242 A0,0 0 0 0 204.6709,216.3242" fill="#FEFFDD" style="stroke:#181818;stroke-width:0.5;"/><path d="M412.6895,216.3242 L412.6895,226.3242 L422.6895,226.3242 L412.6895,216.3242" fill="#FEFFDD" style="stroke:#181818;stroke-width:0.5;"/><text fill="#000000" font-family="sans-serif" font-size="13" lengthAdjust="spacing" textLength="197.0186" x="210.6709" y="233.3911">&#1040;&#1074;&#1090;&#1086;&#1084;&#1072;&#1090;&#1080;&#1095;&#1077;&#1089;&#1082;&#1086;&#1077; &#1089;&#1074;&#1103;&#1079;&#1099;&#1074;&#1072;&#1085;&#1080;&#1077;</text><rect fill="#F1F1F1" height="33.9688" rx="12.5" ry="12.5" style="stroke:#181818;stroke-width:0.5;" width="123.3066" x="61.3643" y="211.9063"/><text fill="#000000" font-family="sans-serif" font-size="12" lengthAdjust="spacing" textLength="103.3066" x="71.3643" y="233.0449">Binding PVC &#1082; PV</text><path d="M217.8369,270.293 L217.8369,278.8594 L197.8369,282.8594 L217.8369,286.8594 L217.8369,295.4258 A0,0 0 0 0 217.8369,295.4258 L425.5342,295.4258 A0,0 0 0 0 425.5342,295.4258 L425.5342,280.293 L415.5342,270.293 L217.8369,270.293 A0,0 0 0 0 217.8369,270.293" fill="#FEFFDD" style="stroke:#181818;stroke-width:0.5;"/><path d="M415.5342,270.293 L415.5342,280.293 L425.5342,280.293 L415.5342,270.293" fill="#FEFFDD" style="stroke:#181818;stroke-width:0.5;"/><text fill="#000000" font-family="sans-serif" font-size="13" lengthAdjust="spacing" textLength="186.6973" x="223.8369" y="287.3599">&#1048;&#1089;&#1087;&#1086;&#1083;&#1100;&#1079;&#1086;&#1074;&#1072;&#1085;&#1080;&#1077; &#1093;&#1088;&#1072;&#1085;&#1080;&#1083;&#1080;&#1097;&#1072;</text><rect fill="#F1F1F1" height="33.9688" rx="12.5" ry="12.5" style="stroke:#181818;stroke-width:0.5;" width="149.6387" x="48.1982" y="265.875"/><text fill="#000000" font-family="sans-serif" font-size="12" lengthAdjust="spacing" textLength="129.6387" x="58.1982" y="287.0137">&#1052;&#1086;&#1085;&#1090;&#1080;&#1088;&#1086;&#1074;&#1072;&#1085;&#1080;&#1077; &#1074; Pod</text><path d="M196.5439,324.2617 L196.5439,332.8281 L176.5439,336.8281 L196.5439,340.8281 L196.5439,349.3945 A0,0 0 0 0 196.5439,349.3945 L361.9277,349.3945 A0,0 0 0 0 361.9277,349.3945 L361.9277,334.2617 L351.9277,324.2617 L196.5439,324.2617 A0,0 0 0 0 196.5439,324.2617" fill="#FEFFDD" style="stroke:#181818;stroke-width:0.5;"/><path d="M351.9277,324.2617 L351.9277,334.2617 L361.9277,334.2617 L351.9277,324.2617" fill="#FEFFDD" style="stroke:#181818;stroke-width:0.5;"/><text fill="#000000" font-family="sans-serif" font-size="13" lengthAdjust="spacing" textLength="144.3838" x="202.5439" y="341.3286">&#1061;&#1088;&#1072;&#1085;&#1080;&#1083;&#1080;&#1097;&#1077; &#1086;&#1089;&#1090;&#1072;&#1077;&#1090;&#1089;&#1103;</text><rect fill="#F1F1F1" height="33.9688" rx="12.5" ry="12.5" style="stroke:#181818;stroke-width:0.5;" width="107.0527" x="69.4912" y="319.8438"/><text fill="#000000" font-family="sans-serif" font-size="12" lengthAdjust="spacing" textLength="87.0527" x="79.4912" y="340.9824">&#1059;&#1076;&#1072;&#1083;&#1077;&#1085;&#1080;&#1077; Pod</text><path d="M197.3584,378.2305 L197.3584,386.7969 L177.3584,390.7969 L197.3584,394.7969 L197.3584,403.3633 A0,0 0 0 0 197.3584,403.3633 L341.833,403.3633 A0,0 0 0 0 341.833,403.3633 L341.833,388.2305 L331.833,378.2305 L197.3584,378.2305 A0,0 0 0 0 197.3584,378.2305" fill="#FEFFDD" style="stroke:#181818;stroke-width:0.5;"/><path d="M331.833,378.2305 L331.833,388.2305 L341.833,388.2305 L331.833,378.2305" fill="#FEFFDD" style="stroke:#181818;stroke-width:0.5;"/><text fill="#000000" font-family="sans-serif" font-size="13" lengthAdjust="spacing" textLength="123.4746" x="203.3584" y="395.2974">&#1054;&#1089;&#1074;&#1086;&#1073;&#1086;&#1078;&#1076;&#1077;&#1085;&#1080;&#1077; PV</text><rect fill="#F1F1F1" height="33.9688" rx="12.5" ry="12.5" style="stroke:#181818;stroke-width:0.5;" width="108.6816" x="68.6768" y="373.8125"/><text fill="#000000" font-family="sans-serif" font-size="12" lengthAdjust="spacing" textLength="88.6816" x="78.6768" y="394.9512">&#1059;&#1076;&#1072;&#1083;&#1077;&#1085;&#1080;&#1077; PVC</text><path d="M193.1689,432.1992 L193.1689,440.7656 L173.1689,444.7656 L193.1689,448.7656 L193.1689,457.332 A0,0 0 0 0 193.1689,457.332 L337.3071,457.332 A0,0 0 0 0 337.3071,457.332 L337.3071,442.1992 L327.3071,432.1992 L193.1689,432.1992 A0,0 0 0 0 193.1689,432.1992" fill="#FEFFDD" style="stroke:#181818;stroke-width:0.5;"/><path d="M327.3071,432.1992 L327.3071,442.1992 L337.3071,442.1992 L327.3071,432.1992" fill="#FEFFDD" style="stroke:#181818;stroke-width:0.5;"/><text fill="#000000" font-family="sans-serif" font-size="13" lengthAdjust="spacing" textLength="123.1382" x="199.1689" y="449.2661">&#1054;&#1095;&#1080;&#1089;&#1090;&#1082;&#1072; &#1088;&#1077;&#1089;&#1091;&#1088;&#1089;&#1086;&#1074;</text><rect fill="#F1F1F1" height="33.9688" rx="12.5" ry="12.5" style="stroke:#181818;stroke-width:0.5;" width="100.3027" x="72.8662" y="427.7813"/><text fill="#000000" font-family="sans-serif" font-size="12" lengthAdjust="spacing" textLength="80.3027" x="82.8662" y="448.9199">&#1059;&#1076;&#1072;&#1083;&#1077;&#1085;&#1080;&#1077; PV</text><ellipse cx="123.0176" cy="492.75" fill="none" rx="11" ry="11" style="stroke:#222222;stroke-width:1;"/><ellipse cx="123.0176" cy="492.75" fill="#222222" rx="6" ry="6" style="stroke:#222222;stroke-width:1;"/><line style="stroke:#181818;stroke-width:1;" x1="123.0176" x2="123.0176" y1="30" y2="50"/><polygon fill="#181818" points="119.0176,40,123.0176,50,127.0176,40,123.0176,44" style="stroke:#181818;stroke-width:1;"/><line style="stroke:#181818;stroke-width:1;" x1="123.0176" x2="123.0176" y1="83.9688" y2="103.9688"/><polygon fill="#181818" points="119.0176,93.9688,123.0176,103.9688,127.0176,93.9688,123.0176,97.9688" style="stroke:#181818;stroke-width:1;"/><line style="stroke:#181818;stroke-width:1;" x1="123.0176" x2="123.0176" y1="137.9375" y2="157.9375"/><polygon fill="#181818" points="119.0176,147.9375,123.0176,157.9375,127.0176,147.9375,123.0176,151.9375" style="stroke:#181818;stroke-width:1;"/><line style="stroke:#181818;stroke-width:1;" x1="123.0176" x2="123.0176" y1="191.9063" y2="211.9063"/><polygon fill="#181818" points="119.0176,201.9063,123.0176,211.9063,127.0176,201.9063,123.0176,205.9063" style="stroke:#181818;stroke-width:1;"/><line style="stroke:#181818;stroke-width:1;" x1="123.0176" x2="123.0176" y1="245.875" y2="265.875"/><polygon fill="#181818" points="119.0176,255.875,123.0176,265.875,127.0176,255.875,123.0176,259.875" style="stroke:#181818;stroke-width:1;"/><line style="stroke:#181818;stroke-width:1;" x1="123.0176" x2="123.0176" y1="299.8438" y2="319.8438"/><polygon fill="#181818" points="119.0176,309.8438,123.0176,319.8438,127.0176,309.8438,123.0176,313.8438" style="stroke:#181818;stroke-width:1;"/><line style="stroke:#181818;stroke-width:1;" x1="123.0176" x2="123.0176" y1="353.8125" y2="373.8125"/><polygon fill="#181818" points="119.0176,363.8125,123.0176,373.8125,127.0176,363.8125,123.0176,367.8125" style="stroke:#181818;stroke-width:1;"/><line style="stroke:#181818;stroke-width:1;" x1="123.0176" x2="123.0176" y1="407.7813" y2="427.7813"/><polygon fill="#181818" points="119.0176,417.7813,123.0176,427.7813,127.0176,417.7813,123.0176,421.7813" style="stroke:#181818;stroke-width:1;"/><line style="stroke:#181818;stroke-width:1;" x1="123.0176" x2="123.0176" y1="461.75" y2="481.75"/><polygon fill="#181818" points="119.0176,471.75,123.0176,481.75,127.0176,471.75,123.0176,475.75" style="stroke:#181818;stroke-width:1;"/><?plantuml-src ZL9DIyD05BpdLpp_HZrfA5v4YahlnQvreSsMPFMSLgI8OiMB7aGGyHw3QqlIZx_mzXyvcrgKD0SFINQpysRUpBwjjZYLWQ33kd-ySx2tNwUJRYkAF2_IhL1xNerVUS4J_kI4vpnbGqTQXQsEy1rismkK5XJApfck4R_mqiPi03QSsp4REoGxHDMIx1LELXGvJ-qr9rNS3H56Cj8Yq4tLFU-94l-3ZUsb7V4SxpjQKH7sfb2TK3zK5pAIAX3XVzXXGVPA4ez0EnCBEo2K9PkD6r3log0jWmurcZvnXa-9vPvJ-5xmZ1FdlsXnm1d-6C8YHJOJUyFfkZNNxJDEvmKQwhz7n2arLBiay0IM9M2vlON5l_3geD-A67Aaz1F51kDxsIQv3D1FuguHgt4bJzClpu3pXuu-y7mLax16LjTlb8yWxtGp5txiWiDjns25IpUMglyD?></g></svg>