<?plantuml 1.2026.2?><svg xmlns="http://www.w3.org/2000/svg" xmlns:xlink="http://www.w3.org/1999/xlink" contentStyleType="text/css" data-diagram-type="ACTIVITY" height="568px" preserveAspectRatio="none" style="width:442px;height:568px;background:#FFFFFF;" version="1.1" viewBox="0 0 442 568" width="442px" zoomAndPan="magnify"><defs/><g><ellipse cx="113.0332" cy="20" fill="#222222" rx="10" ry="10" style="stroke:#222222;stroke-width:1;"/><path d="M217.2803,54.418 L217.2803,62.9844 L197.2803,66.9844 L217.2803,70.9844 L217.2803,79.5508 A0,0 0 0 0 217.2803,79.5508 L410.1621,79.5508 A0,0 0 0 0 410.1621,79.5508 L410.1621,64.418 L400.1621,54.418 L217.2803,54.418 A0,0 0 0 0 217.2803,54.418" fill="#FEFFDD" style="stroke:#181818;stroke-width:0.5;"/><path d="M400.1621,54.418 L400.1621,64.418 L410.1621,64.418 L400.1621,54.418" fill="#FEFFDD" style="stroke:#181818;stroke-width:0.5;"/><text fill="#000000" font-family="sans-serif" font-size="13" lengthAdjust="spacing" textLength="171.8818" x="223.2803" y="71.4849">SSH &#1082;&#1083;&#1102;&#1095;&#1080;, inventory.yml</text><rect fill="#F1F1F1" height="33.9688" rx="12.5" ry="12.5" style="stroke:#181818;stroke-width:0.5;" width="168.4941" x="28.7861" y="50"/><text fill="#000000" font-family="sans-serif" font-size="12" lengthAdjust="spacing" textLength="148.4941" x="38.7861" y="71.1387">&#1055;&#1086;&#1076;&#1075;&#1086;&#1090;&#1086;&#1074;&#1082;&#1072; &#1086;&#1082;&#1088;&#1091;&#1078;&#1077;&#1085;&#1080;&#1103;</text><path d="M213.9111,108.3867 L213.9111,116.9531 L193.9111,120.9531 L213.9111,124.9531 L213.9111,133.5195 A0,0 0 0 0 213.9111,133.5195 L430.9141,133.5195 A0,0 0 0 0 430.9141,133.5195 L430.9141,118.3867 L420.9141,108.3867 L213.9111,108.3867 A0,0 0 0 0 213.9111,108.3867" fill="#FEFFDD" style="stroke:#181818;stroke-width:0.5;"/><path d="M420.9141,108.3867 L420.9141,118.3867 L430.9141,118.3867 L420.9141,108.3867" fill="#FEFFDD" style="stroke:#181818;stroke-width:0.5;"/><text fill="#000000" font-family="sans-serif" font-size="13" lengthAdjust="spacing" textLength="196.0029" x="219.9111" y="125.4536">containerd, kubeadm, kubelet</text><rect fill="#F1F1F1" height="33.9688" rx="12.5" ry="12.5" style="stroke:#181818;stroke-width:0.5;" width="161.7559" x="32.1553" y="103.9688"/><text fill="#000000" font-family="sans-serif" font-size="12" lengthAdjust="spacing" textLength="141.7559" x="42.1553" y="125.1074">&#1056;&#1072;&#1079;&#1074;&#1077;&#1088;&#1090;&#1099;&#1074;&#1072;&#1085;&#1080;&#1077; Master</text><path d="M224.2119,162.3555 L224.2119,170.9219 L204.2119,174.9219 L224.2119,178.9219 L224.2119,187.4883 A0,0 0 0 0 224.2119,187.4883 L330.8037,187.4883 A0,0 0 0 0 330.8037,187.4883 L330.8037,172.3555 L320.8037,162.3555 L224.2119,162.3555 A0,0 0 0 0 224.2119,162.3555" fill="#FEFFDD" style="stroke:#181818;stroke-width:0.5;"/><path d="M320.8037,162.3555 L320.8037,172.3555 L330.8037,172.3555 L320.8037,162.3555" fill="#FEFFDD" style="stroke:#181818;stroke-width:0.5;"/><text fill="#000000" font-family="sans-serif" font-size="13" lengthAdjust="spacing" textLength="85.5918" x="230.2119" y="179.4224">kubeadm init</text><rect fill="#F1F1F1" height="33.9688" rx="12.5" ry="12.5" style="stroke:#181818;stroke-width:0.5;" width="182.3574" x="21.8545" y="157.9375"/><text fill="#000000" font-family="sans-serif" font-size="12" lengthAdjust="spacing" textLength="162.3574" x="31.8545" y="179.0762">&#1048;&#1085;&#1080;&#1094;&#1080;&#1072;&#1083;&#1080;&#1079;&#1072;&#1094;&#1080;&#1103; &#1082;&#1083;&#1072;&#1089;&#1090;&#1077;&#1088;&#1072;</text><path d="M216.293,216.3242 L216.293,224.8906 L196.293,228.8906 L216.293,232.8906 L216.293,241.457 A0,0 0 0 0 216.293,241.457 L365.8965,241.457 A0,0 0 0 0 365.8965,241.457 L365.8965,226.3242 L355.8965,216.3242 L216.293,216.3242 A0,0 0 0 0 216.293,216.3242" fill="#FEFFDD" style="stroke:#181818;stroke-width:0.5;"/><path d="M355.8965,216.3242 L355.8965,226.3242 L365.8965,226.3242 L355.8965,216.3242" fill="#FEFFDD" style="stroke:#181818;stroke-width:0.5;"/><text fill="#000000" font-family="sans-serif" font-size="13" lengthAdjust="spacing" textLength="128.6035" x="222.293" y="233.3911">&#1057;&#1077;&#1090;&#1077;&#1074;&#1072;&#1103; &#1089;&#1074;&#1103;&#1079;&#1085;&#1086;&#1089;&#1090;&#1100;</text><rect fill="#F1F1F1" height="33.9688" rx="12.5" ry="12.5" style="stroke:#181818;stroke-width:0.5;" width="166.5195" x="29.7734" y="211.9063"/><text fill="#000000" font-family="sans-serif" font-size="12" lengthAdjust="spacing" textLength="146.5195" x="39.7734" y="233.0449">&#1059;&#1089;&#1090;&#1072;&#1085;&#1086;&#1074;&#1082;&#1072; CNI (Flannel)</text><path d="M219.8262,270.293 L219.8262,278.8594 L199.8262,282.8594 L219.8262,286.8594 L219.8262,295.4258 A0,0 0 0 0 219.8262,295.4258 L329.2744,295.4258 A0,0 0 0 0 329.2744,295.4258 L329.2744,280.293 L319.2744,270.293 L219.8262,270.293 A0,0 0 0 0 219.8262,270.293" fill="#FEFFDD" style="stroke:#181818;stroke-width:0.5;"/><path d="M319.2744,270.293 L319.2744,280.293 L329.2744,280.293 L319.2744,270.293" fill="#FEFFDD" style="stroke:#181818;stroke-width:0.5;"/><text fill="#000000" font-family="sans-serif" font-size="13" lengthAdjust="spacing" textLength="88.4482" x="225.8262" y="287.3599">kubeadm join</text><rect fill="#F1F1F1" height="33.9688" rx="12.5" ry="12.5" style="stroke:#181818;stroke-width:0.5;" width="173.5859" x="26.2402" y="265.875"/><text fill="#000000" font-family="sans-serif" font-size="12" lengthAdjust="spacing" textLength="153.5859" x="36.2402" y="287.0137">&#1055;&#1088;&#1080;&#1089;&#1086;&#1077;&#1076;&#1080;&#1085;&#1077;&#1085;&#1080;&#1077; Workers</text><path d="M201.5215,324.2617 L201.5215,332.8281 L181.5215,336.8281 L201.5215,340.8281 L201.5215,349.3945 A0,0 0 0 0 201.5215,349.3945 L398.7769,349.3945 A0,0 0 0 0 398.7769,349.3945 L398.7769,334.2617 L388.7769,324.2617 L201.5215,324.2617 A0,0 0 0 0 201.5215,324.2617" fill="#FEFFDD" style="stroke:#181818;stroke-width:0.5;"/><path d="M388.7769,324.2617 L388.7769,334.2617 L398.7769,334.2617 L388.7769,324.2617" fill="#FEFFDD" style="stroke:#181818;stroke-width:0.5;"/><text fill="#000000" font-family="sans-serif" font-size="13" lengthAdjust="spacing" textLength="176.2554" x="207.5215" y="341.3286">&#1041;&#1072;&#1083;&#1072;&#1085;&#1089;&#1080;&#1088;&#1086;&#1074;&#1097;&#1080;&#1082; &#1085;&#1072;&#1075;&#1088;&#1091;&#1079;&#1082;&#1080;</text><rect fill="#F1F1F1" height="33.9688" rx="12.5" ry="12.5" style="stroke:#181818;stroke-width:0.5;" width="136.9766" x="44.5449" y="319.8438"/><text fill="#000000" font-family="sans-serif" font-size="12" lengthAdjust="spacing" textLength="116.9766" x="54.5449" y="340.9824">&#1059;&#1089;&#1090;&#1072;&#1085;&#1086;&#1074;&#1082;&#1072; MetalLB</text><path d="M214.5234,378.2305 L214.5234,386.7969 L194.5234,390.7969 L214.5234,394.7969 L214.5234,403.3633 A0,0 0 0 0 214.5234,403.3633 L400.937,403.3633 A0,0 0 0 0 400.937,403.3633 L400.937,388.2305 L390.937,378.2305 L214.5234,378.2305 A0,0 0 0 0 214.5234,378.2305" fill="#FEFFDD" style="stroke:#181818;stroke-width:0.5;"/><path d="M390.937,378.2305 L390.937,388.2305 L400.937,388.2305 L390.937,378.2305" fill="#FEFFDD" style="stroke:#181818;stroke-width:0.5;"/><text fill="#000000" font-family="sans-serif" font-size="13" lengthAdjust="spacing" textLength="165.4136" x="220.5234" y="395.2974">Local Storage Provisioner</text><rect fill="#F1F1F1" height="33.9688" rx="12.5" ry="12.5" style="stroke:#181818;stroke-width:0.5;" width="162.9805" x="31.543" y="373.8125"/><text fill="#000000" font-family="sans-serif" font-size="12" lengthAdjust="spacing" textLength="142.9805" x="41.543" y="394.9512">&#1053;&#1072;&#1089;&#1090;&#1088;&#1086;&#1081;&#1082;&#1072; &#1093;&#1088;&#1072;&#1085;&#1080;&#1083;&#1080;&#1097;&#1072;</text><path d="M235.0664,432.1992 L235.0664,440.7656 L215.0664,444.7656 L235.0664,448.7656 L235.0664,457.332 A0,0 0 0 0 235.0664,457.332 L405.5029,457.332 A0,0 0 0 0 405.5029,457.332 L405.5029,442.1992 L395.5029,432.1992 L235.0664,432.1992 A0,0 0 0 0 235.0664,432.1992" fill="#FEFFDD" style="stroke:#181818;stroke-width:0.5;"/><path d="M395.5029,432.1992 L395.5029,442.1992 L405.5029,442.1992 L395.5029,432.1992" fill="#FEFFDD" style="stroke:#181818;stroke-width:0.5;"/><text fill="#000000" font-family="sans-serif" font-size="13" lengthAdjust="spacing" textLength="149.4365" x="241.0664" y="449.2661">Prometheus + Grafana</text><rect fill="#F1F1F1" height="33.9688" rx="12.5" ry="12.5" style="stroke:#181818;stroke-width:0.5;" width="204.0664" x="11" y="427.7813"/><text fill="#000000" font-family="sans-serif" font-size="12" lengthAdjust="spacing" textLength="184.0664" x="21" y="448.9199">&#1056;&#1072;&#1079;&#1074;&#1077;&#1088;&#1090;&#1099;&#1074;&#1072;&#1085;&#1080;&#1077; &#1084;&#1086;&#1085;&#1080;&#1090;&#1086;&#1088;&#1080;&#1085;&#1075;&#1072;</text><path d="M213.4072,486.168 L213.4072,494.7344 L193.4072,498.7344 L213.4072,502.7344 L213.4072,511.3008 A0,0 0 0 0 213.4072,511.3008 L310.4902,511.3008 A0,0 0 0 0 310.4902,511.3008 L310.4902,496.168 L300.4902,486.168 L213.4072,486.168 A0,0 0 0 0 213.4072,486.168" fill="#FEFFDD" style="stroke:#181818;stroke-width:0.5;"/><path d="M300.4902,486.168 L300.4902,496.168 L310.4902,496.168 L300.4902,486.168" fill="#FEFFDD" style="stroke:#181818;stroke-width:0.5;"/><text fill="#000000" font-family="sans-serif" font-size="13" lengthAdjust="spacing" textLength="76.083" x="219.4072" y="503.2349">&#1044;&#1077;&#1084;&#1086; nginx</text><rect fill="#F1F1F1" height="33.9688" rx="12.5" ry="12.5" style="stroke:#181818;stroke-width:0.5;" width="160.748" x="32.6592" y="481.75"/><text fill="#000000" font-family="sans-serif" font-size="12" lengthAdjust="spacing" textLength="140.748" x="42.6592" y="502.8887">&#1058;&#1077;&#1089;&#1090;&#1086;&#1074;&#1086;&#1077; &#1087;&#1088;&#1080;&#1083;&#1086;&#1078;&#1077;&#1085;&#1080;&#1077;</text><ellipse cx="113.0332" cy="546.7188" fill="none" rx="11" ry="11" style="stroke:#222222;stroke-width:1;"/><ellipse cx="113.0332" cy="546.7188" fill="#222222" rx="6" ry="6" style="stroke:#222222;stroke-width:1;"/><line style="stroke:#181818;stroke-width:1;" x1="113.0332" x2="113.0332" y1="30" y2="50"/><polygon fill="#181818" points="109.0332,40,113.0332,50,117.0332,40,113.0332,44" style="stroke:#181818;stroke-width:1;"/><line style="stroke:#181818;stroke-width:1;" x1="113.0332" x2="113.0332" y1="83.9688" y2="103.9688"/><polygon fill="#181818" points="109.0332,93.9688,113.0332,103.9688,117.0332,93.9688,113.0332,97.9688" style="stroke:#181818;stroke-width:1;"/><line style="stroke:#181818;stroke-width:1;" x1="113.0332" x2="113.0332" y1="137.9375" y2="157.9375"/><polygon fill="#181818" points="109.0332,147.9375,113.0332,157.9375,117.0332,147.9375,113.0332,151.9375" style="stroke:#181818;stroke-width:1;"/><line style="stroke:#181818;stroke-width:1;" x1="113.0332" x2="113.0332" y1="191.9063" y2="211.9063"/><polygon fill="#181818" points="109.0332,201.9063,113.0332,211.9063,117.0332,201.9063,113.0332,205.9063" style="stroke:#181818;stroke-width:1;"/><line style="stroke:#181818;stroke-width:1;" x1="113.0332" x2="113.0332" y1="245.875" y2="265.875"/><polygon fill="#181818" points="109.0332,255.875,113.0332,265.875,117.0332,255.875,113.0332,259.875" style="stroke:#181818;stroke-width:1;"/><line style="stroke:#181818;stroke-width:1;" x1="113.0332" x2="113.0332" y1="299.8438" y2="319.8438"/><polygon fill="#181818" points="109.0332,309.8438,113.0332,319.8438,117.0332,309.8438,113.0332,313.8438" style="stroke:#181818;stroke-width:1;"/><line style="stroke:#181818;stroke-width:1;" x1="113.0332" x2="113.0332" y1="353.8125" y2="373.8125"/><polygon fill="#181818" points="109.0332,363.8125,113.0332,373.8125,117.0332,363.8125,113.0332,367.8125" style="stroke:#181818;stroke-width:1;"/><line style="stroke:#181818;stroke-width:1;" x1="113.0332" x2="113.0332" y1="407.7813" y2="427.7813"/><polygon fill="#181818" points="109.0332,417.7813,113.0332,427.7813,117.0332,417.7813,113.0332,421.7813" style="stroke:#181818;stroke-width:1;"/><line style="stroke:#181818;stroke-width:1;" x1="113.0332" x2="113.0332" y1="461.75" y2="481.75"/><polygon fill="#181818" points="109.0332,471.75,113.0332,481.75,117.0332,471.75,113.0332,475.75" style="stroke:#181818;stroke-width:1;"/><line style="stroke:#181818;stroke-width:1;" x1="113.0332" x2="113.0332" y1="515.7188" y2="535.7188"/><polygon fill="#181818" points="109.0332,525.7188,113.0332,535.7188,117.0332,525.7188,113.0332,529.7188" style="stroke:#181818;stroke-width:1;"/><?plantuml-src VPBDIWCn58NtynHnfoW-G5sf-0Tj4IkuZcrQHwU9PABepYegebW45sx4lnSO-cF7rjPNk7aZJr9Tj8YRSZEzzpidvsQY9CgX56nZQN5pFh-INMB5YCTn4CI6QnC46NgY0RMeIGDxYgf1NKeOYguziMVqJctgKshhSu5KHZ0TLdPCXXKAgmoDFNjhBocTOQ4y5D8eVJnxN8qSz9aIwW3M1kNKNgDA78VQBCTZ8_GehgYauN2fIpDixs1Ry59rM4J2Mtpm7Yumdr0FlnrAtCdMlGaSQl0EAKf6kJyis0izvyqtEYU_5rtChx79vOXBAQAfqM5w0H9OvnrAjaODMuSqXXt6tlZm89hYhm7wMd3M7-Q5UsuflITq_BUXNHNAlmtbXE5HTc7Cofs_EFeWbK8ItVOACbs6qOIQVbST0597VHmculi-FDMUkt2yC-I7qR6Wigh88rR01db5i7Mj3iCuL5Z8_xkaJoYurU3bk21GDyVHW5M5sH47CPjcAvgNkUIE-WfUxUV93HphonDwEBp_XZYMmZs-Gv79IYYFt0jM-zy0?></g></svg>