<?plantuml 1.2026.2?><svg xmlns="http://www.w3.org/2000/svg" xmlns:xlink="http://www.w3.org/1999/xlink" contentStyleType="text/css" data-diagram-type="DESCRIPTION" height="694px" preserveAspectRatio="none" style="width:1836px;height:694px;background:#FFFFFF;" version="1.1" viewBox="0 0 1836 694" width="1836px" zoomAndPan="magnify"><defs/><g><!--cluster Workloads--><g class="cluster" data-qualified-name="Workloads" data-source-line="3" id="ent0002"><path d="M8.5,193.34 L92.9941,193.34 A3.75,3.75 0 0 1 95.4941,195.84 L102.4941,215.6369 L568.5,215.6369 A2.5,2.5 0 0 1 571,218.1369 L571,538.73 A2.5,2.5 0 0 1 568.5,541.23 L8.5,541.23 A2.5,2.5 0 0 1 6,538.73 L6,195.84 A2.5,2.5 0 0 1 8.5,193.34" fill="none" style="stroke:#000000;stroke-width:1.5;"/><line style="stroke:#000000;stroke-width:1.5;" x1="6" x2="102.4941" y1="215.6369" y2="215.6369"/><text fill="#000000" font-family="sans-serif" font-size="14" font-weight="bold" lengthAdjust="spacing" textLength="83.4941" x="10" y="208.3351">Workloads</text></g><!--cluster Network--><g class="cluster" data-qualified-name="Network" data-source-line="12" id="ent0009"><path d="M597.5,193.34 L665.1709,193.34 A3.75,3.75 0 0 1 667.6709,195.84 L674.6709,215.6369 L889.5,215.6369 A2.5,2.5 0 0 1 892,218.1369 L892,413.44 A2.5,2.5 0 0 1 889.5,415.94 L597.5,415.94 A2.5,2.5 0 0 1 595,413.44 L595,195.84 A2.5,2.5 0 0 1 597.5,193.34" fill="none" style="stroke:#000000;stroke-width:1.5;"/><line style="stroke:#000000;stroke-width:1.5;" x1="595" x2="674.6709" y1="215.6369" y2="215.6369"/><text fill="#000000" font-family="sans-serif" font-size="14" font-weight="bold" lengthAdjust="spacing" textLength="66.6709" x="599" y="208.3351">Network</text></g><!--cluster Configuration--><g class="cluster" data-qualified-name="Configuration" data-source-line="18" id="ent0013"><path d="M360.5,590.23 L469.665,590.23 A3.75,3.75 0 0 1 472.165,592.73 L479.165,612.5269 L622.5,612.5269 A2.5,2.5 0 0 1 625,615.0269 L625,685.03 A2.5,2.5 0 0 1 622.5,687.53 L360.5,687.53 A2.5,2.5 0 0 1 358,685.03 L358,592.73 A2.5,2.5 0 0 1 360.5,590.23" fill="none" style="stroke:#000000;stroke-width:1.5;"/><line style="stroke:#000000;stroke-width:1.5;" x1="358" x2="479.165" y1="612.5269" y2="612.5269"/><text fill="#000000" font-family="sans-serif" font-size="14" font-weight="bold" lengthAdjust="spacing" textLength="108.165" x="362" y="605.2251">Configuration</text></g><!--cluster Storage--><g class="cluster" data-qualified-name="Storage" data-source-line="23" id="ent0016"><path d="M1307.5,49.05 L1370.7617,49.05 A3.75,3.75 0 0 1 1373.2617,51.55 L1380.2617,71.3469 L1703.5,71.3469 A2.5,2.5 0 0 1 1706,73.8469 L1706,288.14 A2.5,2.5 0 0 1 1703.5,290.64 L1307.5,290.64 A2.5,2.5 0 0 1 1305,288.14 L1305,51.55 A2.5,2.5 0 0 1 1307.5,49.05" fill="none" style="stroke:#000000;stroke-width:1.5;"/><line style="stroke:#000000;stroke-width:1.5;" x1="1305" x2="1380.2617" y1="71.3469" y2="71.3469"/><text fill="#000000" font-family="sans-serif" font-size="14" font-weight="bold" lengthAdjust="spacing" textLength="62.2617" x="1309" y="64.0451">Storage</text></g><!--cluster RBAC--><g class="cluster" data-qualified-name="RBAC" data-source-line="29" id="ent0020"><path d="M918.5,49.05 L962.0605,49.05 A3.75,3.75 0 0 1 964.5605,51.55 L971.5605,71.3469 L1278.5,71.3469 A2.5,2.5 0 0 1 1281,73.8469 L1281,413.44 A2.5,2.5 0 0 1 1278.5,415.94 L918.5,415.94 A2.5,2.5 0 0 1 916,413.44 L916,51.55 A2.5,2.5 0 0 1 918.5,49.05" fill="none" style="stroke:#000000;stroke-width:1.5;"/><line style="stroke:#000000;stroke-width:1.5;" x1="916" x2="971.5605" y1="71.3469" y2="71.3469"/><text fill="#000000" font-family="sans-serif" font-size="14" font-weight="bold" lengthAdjust="spacing" textLength="42.5605" x="920" y="64.0451">RBAC</text></g><!--entity POD--><g class="entity" data-qualified-name="Workloads.POD" data-source-line="4" id="ent0003"><rect fill="#F1F1F1" height="46.2969" rx="2.5" ry="2.5" style="stroke:#181818;stroke-width:0.5;" width="65.8945" x="467.05" y="478.94"/><rect fill="#F1F1F1" height="10" style="stroke:#181818;stroke-width:0.5;" width="15" x="512.9445" y="483.94"/><rect fill="#F1F1F1" height="2" style="stroke:#181818;stroke-width:0.5;" width="4" x="510.9445" y="485.94"/><rect fill="#F1F1F1" height="2" style="stroke:#181818;stroke-width:0.5;" width="4" x="510.9445" y="489.94"/><text fill="#000000" font-family="sans-serif" font-size="14" lengthAdjust="spacing" textLength="25.8945" x="482.05" y="511.9351">Pod</text></g><!--entity DEPLOY--><g class="entity" data-qualified-name="Workloads.DEPLOY" data-source-line="5" id="ent0004"><rect fill="#F1F1F1" height="46.2969" rx="2.5" ry="2.5" style="stroke:#181818;stroke-width:0.5;" width="125.6338" x="22.18" y="353.64"/><rect fill="#F1F1F1" height="10" style="stroke:#181818;stroke-width:0.5;" width="15" x="127.8138" y="358.64"/><rect fill="#F1F1F1" height="2" style="stroke:#181818;stroke-width:0.5;" width="4" x="125.8138" y="360.64"/><rect fill="#F1F1F1" height="2" style="stroke:#181818;stroke-width:0.5;" width="4" x="125.8138" y="364.64"/><text fill="#000000" font-family="sans-serif" font-size="14" lengthAdjust="spacing" textLength="85.6338" x="37.18" y="386.6351">Deployment</text></g><!--entity STS--><g class="entity" data-qualified-name="Workloads.STS" data-source-line="6" id="ent0005"><rect fill="#F1F1F1" height="46.2969" rx="2.5" ry="2.5" style="stroke:#181818;stroke-width:0.5;" width="117.7383" x="183.13" y="353.64"/><rect fill="#F1F1F1" height="10" style="stroke:#181818;stroke-width:0.5;" width="15" x="280.8683" y="358.64"/><rect fill="#F1F1F1" height="2" style="stroke:#181818;stroke-width:0.5;" width="4" x="278.8683" y="360.64"/><rect fill="#F1F1F1" height="2" style="stroke:#181818;stroke-width:0.5;" width="4" x="278.8683" y="364.64"/><text fill="#000000" font-family="sans-serif" font-size="14" lengthAdjust="spacing" textLength="77.7383" x="198.13" y="386.6351">StatefulSet</text></g><!--entity DS--><g class="entity" data-qualified-name="Workloads.DS" data-source-line="7" id="ent0006"><rect fill="#F1F1F1" height="46.2969" rx="2.5" ry="2.5" style="stroke:#181818;stroke-width:0.5;" width="122.0381" x="335.98" y="353.64"/><rect fill="#F1F1F1" height="10" style="stroke:#181818;stroke-width:0.5;" width="15" x="438.0181" y="358.64"/><rect fill="#F1F1F1" height="2" style="stroke:#181818;stroke-width:0.5;" width="4" x="436.0181" y="360.64"/><rect fill="#F1F1F1" height="2" style="stroke:#181818;stroke-width:0.5;" width="4" x="436.0181" y="364.64"/><text fill="#000000" font-family="sans-serif" font-size="14" lengthAdjust="spacing" textLength="82.0381" x="350.98" y="386.6351">DaemonSet</text></g><!--entity JOB--><g class="entity" data-qualified-name="Workloads.JOB" data-source-line="8" id="ent0007"><rect fill="#F1F1F1" height="46.2969" rx="2.5" ry="2.5" style="stroke:#181818;stroke-width:0.5;" width="61.5811" x="493.21" y="353.64"/><rect fill="#F1F1F1" height="10" style="stroke:#181818;stroke-width:0.5;" width="15" x="534.7911" y="358.64"/><rect fill="#F1F1F1" height="2" style="stroke:#181818;stroke-width:0.5;" width="4" x="532.7911" y="360.64"/><rect fill="#F1F1F1" height="2" style="stroke:#181818;stroke-width:0.5;" width="4" x="532.7911" y="364.64"/><text fill="#000000" font-family="sans-serif" font-size="14" lengthAdjust="spacing" textLength="21.5811" x="508.21" y="386.6351">Job</text></g><!--entity CJOB--><g class="entity" data-qualified-name="Workloads.CJOB" data-source-line="9" id="ent0008"><rect fill="#F1F1F1" height="46.2969" rx="2.5" ry="2.5" style="stroke:#181818;stroke-width:0.5;" width="94.5508" x="434.72" y="228.34"/><rect fill="#F1F1F1" height="10" style="stroke:#181818;stroke-width:0.5;" width="15" x="509.2708" y="233.34"/><rect fill="#F1F1F1" height="2" style="stroke:#181818;stroke-width:0.5;" width="4" x="507.2708" y="235.34"/><rect fill="#F1F1F1" height="2" style="stroke:#181818;stroke-width:0.5;" width="4" x="507.2708" y="239.34"/><text fill="#000000" font-family="sans-serif" font-size="14" lengthAdjust="spacing" textLength="54.5508" x="449.72" y="261.3351">CronJob</text></g><!--entity SVC--><g class="entity" data-qualified-name="Network.SVC" data-source-line="13" id="ent0010"><rect fill="#F1F1F1" height="46.2969" rx="2.5" ry="2.5" style="stroke:#181818;stroke-width:0.5;" width="91.7412" x="611.13" y="353.64"/><rect fill="#F1F1F1" height="10" style="stroke:#181818;stroke-width:0.5;" width="15" x="682.8712" y="358.64"/><rect fill="#F1F1F1" height="2" style="stroke:#181818;stroke-width:0.5;" width="4" x="680.8712" y="360.64"/><rect fill="#F1F1F1" height="2" style="stroke:#181818;stroke-width:0.5;" width="4" x="680.8712" y="364.64"/><text fill="#000000" font-family="sans-serif" font-size="14" lengthAdjust="spacing" textLength="51.7412" x="626.13" y="386.6351">Service</text></g><!--entity ING--><g class="entity" data-qualified-name="Network.ING" data-source-line="14" id="ent0011"><rect fill="#F1F1F1" height="46.2969" rx="2.5" ry="2.5" style="stroke:#181818;stroke-width:0.5;" width="90.8457" x="610.58" y="228.34"/><rect fill="#F1F1F1" height="10" style="stroke:#181818;stroke-width:0.5;" width="15" x="681.4257" y="233.34"/><rect fill="#F1F1F1" height="2" style="stroke:#181818;stroke-width:0.5;" width="4" x="679.4257" y="235.34"/><rect fill="#F1F1F1" height="2" style="stroke:#181818;stroke-width:0.5;" width="4" x="679.4257" y="239.34"/><text fill="#000000" font-family="sans-serif" font-size="14" lengthAdjust="spacing" textLength="50.8457" x="625.58" y="261.3351">Ingress</text></g><!--entity NP--><g class="entity" data-qualified-name="Network.NP" data-source-line="15" id="ent0012"><rect fill="#F1F1F1" height="46.2969" rx="2.5" ry="2.5" style="stroke:#181818;stroke-width:0.5;" width="139.2236" x="736.39" y="228.34"/><rect fill="#F1F1F1" height="10" style="stroke:#181818;stroke-width:0.5;" width="15" x="855.6136" y="233.34"/><rect fill="#F1F1F1" height="2" style="stroke:#181818;stroke-width:0.5;" width="4" x="853.6136" y="235.34"/><rect fill="#F1F1F1" height="2" style="stroke:#181818;stroke-width:0.5;" width="4" x="853.6136" y="239.34"/><text fill="#000000" font-family="sans-serif" font-size="14" lengthAdjust="spacing" textLength="99.2236" x="751.39" y="261.3351">NetworkPolicy</text></g><!--entity CM--><g class="entity" data-qualified-name="Configuration.CM" data-source-line="19" id="ent0014"><rect fill="#F1F1F1" height="46.2969" rx="2.5" ry="2.5" style="stroke:#181818;stroke-width:0.5;" width="114.4639" x="373.77" y="625.23"/><rect fill="#F1F1F1" height="10" style="stroke:#181818;stroke-width:0.5;" width="15" x="468.2339" y="630.23"/><rect fill="#F1F1F1" height="2" style="stroke:#181818;stroke-width:0.5;" width="4" x="466.2339" y="632.23"/><rect fill="#F1F1F1" height="2" style="stroke:#181818;stroke-width:0.5;" width="4" x="466.2339" y="636.23"/><text fill="#000000" font-family="sans-serif" font-size="14" lengthAdjust="spacing" textLength="74.4639" x="388.77" y="658.2251">ConfigMap</text></g><!--entity SEC--><g class="entity" data-qualified-name="Configuration.SEC" data-source-line="20" id="ent0015"><rect fill="#F1F1F1" height="46.2969" rx="2.5" ry="2.5" style="stroke:#181818;stroke-width:0.5;" width="85.0557" x="523.47" y="625.23"/><rect fill="#F1F1F1" height="10" style="stroke:#181818;stroke-width:0.5;" width="15" x="588.5257" y="630.23"/><rect fill="#F1F1F1" height="2" style="stroke:#181818;stroke-width:0.5;" width="4" x="586.5257" y="632.23"/><rect fill="#F1F1F1" height="2" style="stroke:#181818;stroke-width:0.5;" width="4" x="586.5257" y="636.23"/><text fill="#000000" font-family="sans-serif" font-size="14" lengthAdjust="spacing" textLength="45.0557" x="538.47" y="658.2251">Secret</text></g><!--entity PV--><g class="entity" data-qualified-name="Storage.PV" data-source-line="24" id="ent0017"><rect fill="#F1F1F1" height="46.2969" rx="2.5" ry="2.5" style="stroke:#181818;stroke-width:0.5;" width="162.9102" x="1423.54" y="228.34"/><rect fill="#F1F1F1" height="10" style="stroke:#181818;stroke-width:0.5;" width="15" x="1566.4502" y="233.34"/><rect fill="#F1F1F1" height="2" style="stroke:#181818;stroke-width:0.5;" width="4" x="1564.4502" y="235.34"/><rect fill="#F1F1F1" height="2" style="stroke:#181818;stroke-width:0.5;" width="4" x="1564.4502" y="239.34"/><text fill="#000000" font-family="sans-serif" font-size="14" lengthAdjust="spacing" textLength="122.9102" x="1438.54" y="261.3351">PersistentVolume</text></g><!--entity PVC--><g class="entity" data-qualified-name="Storage.PVC" data-source-line="25" id="ent0018"><rect fill="#F1F1F1" height="46.2969" rx="2.5" ry="2.5" style="stroke:#181818;stroke-width:0.5;" width="202.6816" x="1320.66" y="84.05"/><rect fill="#F1F1F1" height="10" style="stroke:#181818;stroke-width:0.5;" width="15" x="1503.3416" y="89.05"/><rect fill="#F1F1F1" height="2" style="stroke:#181818;stroke-width:0.5;" width="4" x="1501.3416" y="91.05"/><rect fill="#F1F1F1" height="2" style="stroke:#181818;stroke-width:0.5;" width="4" x="1501.3416" y="95.05"/><text fill="#000000" font-family="sans-serif" font-size="14" lengthAdjust="spacing" textLength="162.6816" x="1335.66" y="117.0451">PersistentVolumeClaim</text></g><!--entity SC--><g class="entity" data-qualified-name="Storage.SC" data-source-line="26" id="ent0019"><rect fill="#F1F1F1" height="46.2969" rx="2.5" ry="2.5" style="stroke:#181818;stroke-width:0.5;" width="131.6084" x="1558.2" y="84.05"/><rect fill="#F1F1F1" height="10" style="stroke:#181818;stroke-width:0.5;" width="15" x="1669.8084" y="89.05"/><rect fill="#F1F1F1" height="2" style="stroke:#181818;stroke-width:0.5;" width="4" x="1667.8084" y="91.05"/><rect fill="#F1F1F1" height="2" style="stroke:#181818;stroke-width:0.5;" width="4" x="1667.8084" y="95.05"/><text fill="#000000" font-family="sans-serif" font-size="14" lengthAdjust="spacing" textLength="91.6084" x="1573.2" y="117.0451">StorageClass</text></g><!--entity SA--><g class="entity" data-qualified-name="RBAC.SA" data-source-line="30" id="ent0021"><rect fill="#F1F1F1" height="46.2969" rx="2.5" ry="2.5" style="stroke:#181818;stroke-width:0.5;" width="148.5137" x="1002.74" y="353.64"/><rect fill="#F1F1F1" height="10" style="stroke:#181818;stroke-width:0.5;" width="15" x="1131.2537" y="358.64"/><rect fill="#F1F1F1" height="2" style="stroke:#181818;stroke-width:0.5;" width="4" x="1129.2537" y="360.64"/><rect fill="#F1F1F1" height="2" style="stroke:#181818;stroke-width:0.5;" width="4" x="1129.2537" y="364.64"/><text fill="#000000" font-family="sans-serif" font-size="14" lengthAdjust="spacing" textLength="108.5137" x="1017.74" y="386.6351">ServiceAccount</text></g><!--entity ROLE--><g class="entity" data-qualified-name="RBAC.ROLE" data-source-line="31" id="ent0022"><rect fill="#F1F1F1" height="46.2969" rx="2.5" ry="2.5" style="stroke:#181818;stroke-width:0.5;" width="70.7959" x="935.6" y="84.05"/><rect fill="#F1F1F1" height="10" style="stroke:#181818;stroke-width:0.5;" width="15" x="986.3959" y="89.05"/><rect fill="#F1F1F1" height="2" style="stroke:#181818;stroke-width:0.5;" width="4" x="984.3959" y="91.05"/><rect fill="#F1F1F1" height="2" style="stroke:#181818;stroke-width:0.5;" width="4" x="984.3959" y="95.05"/><text fill="#000000" font-family="sans-serif" font-size="14" lengthAdjust="spacing" textLength="30.7959" x="950.6" y="117.0451">Role</text></g><!--entity CROLE--><g class="entity" data-qualified-name="RBAC.CROLE" data-source-line="32" id="ent0023"><rect fill="#F1F1F1" height="46.2969" rx="2.5" ry="2.5" style="stroke:#181818;stroke-width:0.5;" width="120.4863" x="1077.76" y="84.05"/><rect fill="#F1F1F1" height="10" style="stroke:#181818;stroke-width:0.5;" width="15" x="1178.2463" y="89.05"/><rect fill="#F1F1F1" height="2" style="stroke:#181818;stroke-width:0.5;" width="4" x="1176.2463" y="91.05"/><rect fill="#F1F1F1" height="2" style="stroke:#181818;stroke-width:0.5;" width="4" x="1176.2463" y="95.05"/><text fill="#000000" font-family="sans-serif" font-size="14" lengthAdjust="spacing" textLength="80.4863" x="1092.76" y="117.0451">ClusterRole</text></g><!--entity RB--><g class="entity" data-qualified-name="RBAC.RB" data-source-line="33" id="ent0024"><rect fill="#F1F1F1" height="46.2969" rx="2.5" ry="2.5" style="stroke:#181818;stroke-width:0.5;" width="123.6992" x="932.15" y="228.34"/><rect fill="#F1F1F1" height="10" style="stroke:#181818;stroke-width:0.5;" width="15" x="1035.8492" y="233.34"/><rect fill="#F1F1F1" height="2" style="stroke:#181818;stroke-width:0.5;" width="4" x="1033.8492" y="235.34"/><rect fill="#F1F1F1" height="2" style="stroke:#181818;stroke-width:0.5;" width="4" x="1033.8492" y="239.34"/><text fill="#000000" font-family="sans-serif" font-size="14" lengthAdjust="spacing" textLength="83.6992" x="947.15" y="261.3351">RoleBinding</text></g><!--entity CRB--><g class="entity" data-qualified-name="RBAC.CRB" data-source-line="34" id="ent0025"><rect fill="#F1F1F1" height="46.2969" rx="2.5" ry="2.5" style="stroke:#181818;stroke-width:0.5;" width="173.3896" x="1091.31" y="228.34"/><rect fill="#F1F1F1" height="10" style="stroke:#181818;stroke-width:0.5;" width="15" x="1244.6996" y="233.34"/><rect fill="#F1F1F1" height="2" style="stroke:#181818;stroke-width:0.5;" width="4" x="1242.6996" y="235.34"/><rect fill="#F1F1F1" height="2" style="stroke:#181818;stroke-width:0.5;" width="4" x="1242.6996" y="239.34"/><text fill="#000000" font-family="sans-serif" font-size="14" lengthAdjust="spacing" textLength="133.3896" x="1106.31" y="261.3351">ClusterRoleBinding</text></g><g class="entity" data-qualified-name="GMN43" data-source-line="60" id="ent0044"><path d="M587.25,481.95 L587.25,498.08 L533.44,502.08 L587.25,506.08 L587.25,522.2156 A0,0 0 0 0 587.25,522.2156 L732.7593,522.2156 A0,0 0 0 0 732.7593,522.2156 L732.7593,491.95 L722.7593,481.95 L587.25,481.95 A0,0 0 0 0 587.25,481.95" fill="#FEFFDD" style="stroke:#181818;stroke-width:0.5;"/><path d="M722.7593,481.95 L722.7593,491.95 L732.7593,491.95 L722.7593,481.95" fill="#FEFFDD" style="stroke:#181818;stroke-width:0.5;"/><text fill="#000000" font-family="sans-serif" font-size="13" lengthAdjust="spacing" textLength="124.5093" x="593.25" y="499.0169">"&#1041;&#1072;&#1079;&#1086;&#1074;&#1072;&#1103; &#1077;&#1076;&#1080;&#1085;&#1080;&#1094;&#1072;</text><text fill="#000000" font-family="sans-serif" font-size="13" lengthAdjust="spacing" textLength="111.2554" x="593.25" y="514.1497">&#1088;&#1072;&#1079;&#1074;&#1077;&#1088;&#1090;&#1099;&#1074;&#1072;&#1085;&#1080;&#1103;"</text></g><g class="entity" data-qualified-name="GMN46" data-source-line="61" id="ent0047"><path d="M1297.16,356.66 L1297.16,396.9256 L1432.8368,396.9256 L1432.8368,366.66 L1422.8368,356.66 L1297.16,356.66" fill="#FEFFDD" style="stroke:#181818;stroke-width:0.5;"/><path d="M1422.8368,356.66 L1422.8368,366.66 L1432.8368,366.66 L1422.8368,356.66" fill="#FEFFDD" style="stroke:#181818;stroke-width:1;"/><text fill="#000000" font-family="sans-serif" font-size="13" lengthAdjust="spacing" textLength="114.6768" x="1303.16" y="373.7269">"&#1057;&#1077;&#1090;&#1077;&#1074;&#1086;&#1081; &#1076;&#1086;&#1089;&#1090;&#1091;&#1087;</text><text fill="#000000" font-family="sans-serif" font-size="13" lengthAdjust="spacing" textLength="61.1787" x="1303.16" y="388.8597">&#1082; &#1087;&#1086;&#1076;&#1072;&#1084;"</text></g><g class="entity" data-qualified-name="GMN49" data-source-line="62" id="ent0050"><path d="M1724.58,87.06 L1724.58,127.3256 L1829.4198,127.3256 L1829.4198,97.06 L1819.4198,87.06 L1724.58,87.06" fill="#FEFFDD" style="stroke:#181818;stroke-width:0.5;"/><path d="M1819.4198,87.06 L1819.4198,97.06 L1829.4198,97.06 L1819.4198,87.06" fill="#FEFFDD" style="stroke:#181818;stroke-width:1;"/><text fill="#000000" font-family="sans-serif" font-size="13" lengthAdjust="spacing" textLength="74.731" x="1730.58" y="104.1269">"&#1047;&#1072;&#1087;&#1088;&#1086;&#1089; &#1085;&#1072;</text><text fill="#000000" font-family="sans-serif" font-size="13" lengthAdjust="spacing" textLength="83.8398" x="1730.58" y="119.2597">&#1093;&#1088;&#1072;&#1085;&#1080;&#1083;&#1080;&#1097;&#1077;"</text></g><g class="entity" data-qualified-name="GMN52" data-source-line="63" id="ent0053"><path d="M1467.4,356.66 L1467.4,396.9256 L1600.6075,396.9256 L1600.6075,366.66 L1590.6075,356.66 L1467.4,356.66" fill="#FEFFDD" style="stroke:#181818;stroke-width:0.5;"/><path d="M1590.6075,356.66 L1590.6075,366.66 L1600.6075,366.66 L1590.6075,356.66" fill="#FEFFDD" style="stroke:#181818;stroke-width:1;"/><text fill="#000000" font-family="sans-serif" font-size="13" lengthAdjust="spacing" textLength="112.2075" x="1473.4" y="373.7269">"&#1059;&#1095;&#1077;&#1090;&#1085;&#1072;&#1103; &#1079;&#1072;&#1087;&#1080;&#1089;&#1100;</text><text fill="#000000" font-family="sans-serif" font-size="13" lengthAdjust="spacing" textLength="76.2861" x="1473.4" y="388.8597">&#1076;&#1083;&#1103; &#1087;&#1086;&#1076;&#1086;&#1074;"</text></g><!--link DEPLOY to POD--><g class="link" data-entity-1="ent0004" data-entity-2="ent0003" data-link-type="dependency" data-source-line="38" id="lnk26"><path d="M122.37,400.41 C135.91,408.25 151.45,416.85 166,423.94 C268.45,473.86 398.5489,491.6722 460.6189,497.7822" fill="none" id="DEPLOY-to-POD" style="stroke:#181818;stroke-width:1;"/><polygon fill="#181818" points="466.59,498.37,458.0251,493.5076,461.6141,497.8802,457.2414,501.4691,466.59,498.37" style="stroke:#181818;stroke-width:1;"/><text fill="#000000" font-family="sans-serif" font-size="13" lengthAdjust="spacing" textLength="71.7729" x="227.35" y="445.0069">&#1091;&#1087;&#1088;&#1072;&#1074;&#1083;&#1103;&#1077;&#1090;</text></g><!--link STS to POD--><g class="link" data-entity-1="ent0005" data-entity-2="ent0003" data-link-type="dependency" data-source-line="39" id="lnk27"><path d="M266.43,400.29 C284.3,415.76 309.75,435.8 335,448.94 C378.05,471.32 426.6047,484.8665 460.8947,492.8065" fill="none" id="STS-to-POD" style="stroke:#181818;stroke-width:1;"/><polygon fill="#181818" points="466.74,494.16,458.8743,488.2328,461.8689,493.0321,457.0696,496.0266,466.74,494.16" style="stroke:#181818;stroke-width:1;"/><text fill="#000000" font-family="sans-serif" font-size="13" lengthAdjust="spacing" textLength="71.7729" x="336" y="445.0069">&#1091;&#1087;&#1088;&#1072;&#1074;&#1083;&#1103;&#1077;&#1090;</text></g><!--link DS to POD--><g class="link" data-entity-1="ent0006" data-entity-2="ent0003" data-link-type="dependency" data-source-line="40" id="lnk28"><path d="M402.6,400.35 C407.12,415.26 414.62,434.64 426,448.94 C437.06,462.84 447.6855,471.4345 461.7955,480.2745" fill="none" id="DS-to-POD" style="stroke:#181818;stroke-width:1;"/><polygon fill="#181818" points="466.88,483.46,461.3768,475.2921,462.6429,480.8054,457.1295,482.0714,466.88,483.46" style="stroke:#181818;stroke-width:1;"/><text fill="#000000" font-family="sans-serif" font-size="13" lengthAdjust="spacing" textLength="71.7729" x="427" y="445.0069">&#1091;&#1087;&#1088;&#1072;&#1074;&#1083;&#1103;&#1077;&#1090;</text></g><!--link JOB to POD--><g class="link" data-entity-1="ent0007" data-entity-2="ent0003" data-link-type="dependency" data-source-line="41" id="lnk29"><path d="M517.59,400.32 C514.99,409.99 512.1,421.46 510,431.94 C506.89,447.4 505.1188,459.0382 503.3888,472.6082" fill="none" id="JOB-to-POD" style="stroke:#181818;stroke-width:1;"/><polygon fill="#181818" points="502.63,478.56,507.7361,470.1381,503.2623,473.6001,499.8003,469.1264,502.63,478.56" style="stroke:#181818;stroke-width:1;"/><text fill="#000000" font-family="sans-serif" font-size="13" lengthAdjust="spacing" textLength="71.7729" x="511" y="445.0069">&#1091;&#1087;&#1088;&#1072;&#1074;&#1083;&#1103;&#1077;&#1090;</text></g><!--link CJOB to JOB--><g class="link" data-entity-1="ent0008" data-entity-2="ent0007" data-link-type="dependency" data-source-line="42" id="lnk30"><path d="M489.7,275.11 C497.28,297.35 506.8435,325.4411 514.4135,347.6411" fill="none" id="CJOB-to-JOB" style="stroke:#181818;stroke-width:1;"/><polygon fill="#181818" points="516.35,353.32,517.2313,343.5106,514.7363,348.5876,509.6594,346.0926,516.35,353.32" style="stroke:#181818;stroke-width:1;"/><text fill="#000000" font-family="sans-serif" font-size="13" lengthAdjust="spacing" textLength="71.7729" x="506.51" y="319.7069">&#1091;&#1087;&#1088;&#1072;&#1074;&#1083;&#1103;&#1077;&#1090;</text></g><!--link SVC to POD--><g class="link" data-entity-1="ent0010" data-entity-2="ent0003" data-link-type="dependency" data-source-line="44" id="lnk31"><path d="M637.48,400.42 C624.12,415.19 605.52,434.36 587,448.94 C570.26,462.11 555.1374,471.5527 538.3374,480.9427" fill="none" id="SVC-to-POD" style="stroke:#181818;stroke-width:1;"/><polygon fill="#181818" points="533.1,483.87,542.9077,482.9706,537.4645,481.4305,539.0046,475.9874,533.1,483.87" style="stroke:#181818;stroke-width:1;"/><text fill="#000000" font-family="sans-serif" font-size="13" lengthAdjust="spacing" textLength="99.7407" x="606.64" y="445.0069">&#1086;&#1073;&#1085;&#1072;&#1088;&#1091;&#1078;&#1080;&#1074;&#1072;&#1077;&#1090;</text></g><!--link ING to SVC--><g class="link" data-entity-1="ent0011" data-entity-2="ent0010" data-link-type="dependency" data-source-line="45" id="lnk32"><path d="M654.72,274.92 C654.08,288.93 653.53,307.33 654,323.64 C654.28,333.34 654.4778,338.0516 655.0478,347.2216" fill="none" id="ING-to-SVC" style="stroke:#181818;stroke-width:1;"/><polygon fill="#181818" points="655.42,353.21,658.8539,343.9792,655.1098,348.2196,650.8693,344.4755,655.42,353.21" style="stroke:#181818;stroke-width:1;"/><text fill="#000000" font-family="sans-serif" font-size="13" lengthAdjust="spacing" textLength="116.7651" x="655" y="319.7069">&#1084;&#1072;&#1088;&#1096;&#1088;&#1091;&#1090;&#1080;&#1079;&#1080;&#1088;&#1091;&#1077;&#1090;</text></g><!--link NP to POD--><g class="link" data-entity-1="ent0012" data-entity-2="ent0003" data-link-type="dependency" data-source-line="46" id="lnk33"><path d="M802.46,274.88 C794.67,316.29 771.97,404.64 715,448.94 C663.05,489.33 633.68,462.32 570,478.94 C557.91,482.09 550.5311,484.2306 538.9811,487.9506" fill="none" id="NP-to-POD" style="stroke:#181818;stroke-width:1;"/><polygon fill="#181818" points="533.27,489.79,543.0629,490.8383,538.0292,488.2572,540.6104,483.2235,533.27,489.79" style="stroke:#181818;stroke-width:1;"/><text fill="#000000" font-family="sans-serif" font-size="13" lengthAdjust="spacing" textLength="96.3574" x="780.85" y="381.3569">&#1082;&#1086;&#1085;&#1090;&#1088;&#1086;&#1083;&#1080;&#1088;&#1091;&#1077;&#1090;</text></g><!--link POD to CM--><g class="link" data-entity-1="ent0003" data-entity-2="ent0014" data-link-type="dependency" data-source-line="48" id="lnk34"><path d="M466.84,523.5 C455.36,532.37 443.71,543.82 437,557.23 C426.41,578.42 425.7082,600.0019 427.3382,619.0419" fill="none" id="POD-to-CM" style="stroke:#181818;stroke-width:1;"/><polygon fill="#181818" points="427.85,625.02,431.0677,615.7116,427.4235,620.0382,423.0969,616.394,427.85,625.02" style="stroke:#181818;stroke-width:1;"/><text fill="#000000" font-family="sans-serif" font-size="13" lengthAdjust="spacing" textLength="78.1968" x="438" y="570.2969">&#1080;&#1089;&#1087;&#1086;&#1083;&#1100;&#1079;&#1091;&#1077;&#1090;</text></g><!--link POD to SEC--><g class="link" data-entity-1="ent0003" data-entity-2="ent0015" data-link-type="dependency" data-source-line="49" id="lnk35"><path d="M510.31,525.63 C522.71,552.74 540.8932,592.5042 553.2632,619.5342" fill="none" id="POD-to-SEC" style="stroke:#181818;stroke-width:1;"/><polygon fill="#181818" points="555.76,624.99,555.652,615.1417,553.6793,620.4435,548.3776,618.4708,555.76,624.99" style="stroke:#181818;stroke-width:1;"/><text fill="#000000" font-family="sans-serif" font-size="13" lengthAdjust="spacing" textLength="78.1968" x="532.02" y="570.2969">&#1080;&#1089;&#1087;&#1086;&#1083;&#1100;&#1079;&#1091;&#1077;&#1090;</text></g><!--link PVC to PV--><g class="link" data-entity-1="ent0018" data-entity-2="ent0017" data-link-type="dependency" data-source-line="51" id="lnk36"><path d="M1435.15,130.74 C1450.69,157.39 1473.3777,196.2668 1488.8877,222.8668" fill="none" id="PVC-to-PV" style="stroke:#181818;stroke-width:1;"/><polygon fill="#181818" points="1491.91,228.05,1490.8321,218.2603,1489.3915,223.7306,1483.9211,222.29,1491.91,228.05" style="stroke:#181818;stroke-width:1;"/><text fill="#000000" font-family="sans-serif" font-size="13" lengthAdjust="spacing" textLength="91.1396" x="1462.01" y="173.4069">&#1079;&#1072;&#1087;&#1088;&#1072;&#1096;&#1080;&#1074;&#1072;&#1077;&#1090;</text></g><!--link SC to PV--><g class="link" data-entity-1="ent0019" data-entity-2="ent0017" data-link-type="dependency" data-source-line="52" id="lnk37"><path d="M1605.14,130.74 C1582.86,157.39 1549.8586,196.8469 1527.6186,223.4469" fill="none" id="SC-to-PV" style="stroke:#181818;stroke-width:1;"/><polygon fill="#181818" points="1523.77,228.05,1532.6116,223.7111,1526.9772,224.2141,1526.4742,218.5797,1523.77,228.05" style="stroke:#181818;stroke-width:1;"/><text fill="#000000" font-family="sans-serif" font-size="13" lengthAdjust="spacing" textLength="54.5391" x="1579.66" y="173.4069">&#1089;&#1086;&#1079;&#1076;&#1072;&#1077;&#1090;</text></g><!--link SA to POD--><g class="link" data-entity-1="ent0021" data-entity-2="ent0003" data-link-type="dependency" data-source-line="54" id="lnk38"><path d="M1007.91,400.38 C957.45,416.1 887.1,436.42 824,448.94 C712.5,471.06 681.13,455.02 570,478.94 C557.79,481.56 550.3753,483.5727 538.8253,487.3327" fill="none" id="SA-to-POD" style="stroke:#181818;stroke-width:1;"/><polygon fill="#181818" points="533.12,489.19,542.9162,490.2076,537.8744,487.6422,540.4397,482.6005,533.12,489.19" style="stroke:#181818;stroke-width:1;"/><text fill="#000000" font-family="sans-serif" font-size="13" lengthAdjust="spacing" textLength="124.1284" x="895.31" y="445.0069">&#1072;&#1091;&#1090;&#1077;&#1085;&#1090;&#1080;&#1092;&#1080;&#1094;&#1080;&#1088;&#1091;&#1077;&#1090;</text></g><!--link ROLE to RB--><g class="link" data-entity-1="ent0022" data-entity-2="ent0024" data-link-type="dependency" data-source-line="55" id="lnk39"><path d="M969.42,130.77 C968.85,139.94 968.28,150.64 968,160.34 C967.78,167.89 966.72,169.9 968,177.34 C971.02,194.87 975.5379,208.2292 981.4379,222.4292" fill="none" id="ROLE-to-RB" style="stroke:#181818;stroke-width:1;"/><polygon fill="#181818" points="983.74,227.97,983.9806,218.1241,981.8215,223.3527,976.5929,221.1936,983.74,227.97" style="stroke:#181818;stroke-width:1;"/><text fill="#000000" font-family="sans-serif" font-size="13" lengthAdjust="spacing" textLength="125.8677" x="969" y="173.4069">&#1086;&#1087;&#1088;&#1077;&#1076;&#1077;&#1083;&#1103;&#1077;&#1090; &#1087;&#1088;&#1072;&#1074;&#1072;</text></g><!--link CROLE to CRB--><g class="link" data-entity-1="ent0023" data-entity-2="ent0025" data-link-type="dependency" data-source-line="56" id="lnk40"><path d="M1144.34,130.74 C1151.83,157.39 1162.5858,195.674 1170.0658,222.274" fill="none" id="CROLE-to-CRB" style="stroke:#181818;stroke-width:1;"/><polygon fill="#181818" points="1171.69,228.05,1173.1043,218.3032,1170.3365,223.2367,1165.403,220.4689,1171.69,228.05" style="stroke:#181818;stroke-width:1;"/><text fill="#000000" font-family="sans-serif" font-size="13" lengthAdjust="spacing" textLength="125.8677" x="1157.8" y="173.4069">&#1086;&#1087;&#1088;&#1077;&#1076;&#1077;&#1083;&#1103;&#1077;&#1090; &#1087;&#1088;&#1072;&#1074;&#1072;</text></g><!--link RB to SA--><g class="link" data-entity-1="ent0024" data-entity-2="ent0021" data-link-type="dependency" data-source-line="57" id="lnk41"><path d="M1002.2,274.98 C1008.02,289.51 1016.63,308.46 1027,323.64 C1034.22,334.2 1039.3822,340.3825 1048.0822,349.1025" fill="none" id="RB-to-SA" style="stroke:#181818;stroke-width:1;"/><polygon fill="#181818" points="1052.32,353.35,1048.795,344.1536,1048.7885,349.8104,1043.1317,349.8039,1052.32,353.35" style="stroke:#181818;stroke-width:1;"/><text fill="#000000" font-family="sans-serif" font-size="13" lengthAdjust="spacing" textLength="89.0576" x="1028" y="319.7069">&#1087;&#1088;&#1080;&#1074;&#1103;&#1079;&#1099;&#1074;&#1072;&#1077;&#1090;</text></g><!--link CRB to SA--><g class="link" data-entity-1="ent0025" data-entity-2="ent0021" data-link-type="dependency" data-source-line="58" id="lnk42"><path d="M1160.6,275.13 C1149.67,289.21 1135.2,307.63 1122,323.64 C1113.86,333.51 1108.5924,339.7083 1100.6524,348.8583" fill="none" id="CRB-to-SA" style="stroke:#181818;stroke-width:1;"/><polygon fill="#181818" points="1096.72,353.39,1105.6397,349.2141,1099.997,349.6136,1099.5975,343.9709,1096.72,353.39" style="stroke:#181818;stroke-width:1;"/><text fill="#000000" font-family="sans-serif" font-size="13" lengthAdjust="spacing" textLength="89.0576" x="1135.51" y="319.7069">&#1087;&#1088;&#1080;&#1074;&#1103;&#1079;&#1099;&#1074;&#1072;&#1077;&#1090;</text></g><!--link SVC to GMN46--><g class="link" data-entity-1="ent0010" data-entity-2="ent0047" data-link-type="association" data-source-line="61" id="lnk48"><path d="M699.19,353.26 C720.47,342.71 747.11,331.46 772.5,326.14 C879.29,303.75 1157.3,301.11 1263.5,326.14 C1288.42,332.01 1314.2,344.98 1333.55,356.32" fill="none" id="SVC-GMN46" style="stroke:#181818;stroke-width:1;stroke-dasharray:7,7;"/></g><!--link PVC to GMN49--><g class="link" data-entity-1="ent0018" data-entity-2="ent0050" data-link-type="association" data-source-line="62" id="lnk51"><path d="M1451.01,83.59 C1477.28,63.85 1517.96,37.19 1558.5,26.05 C1614.21,10.74 1634.31,6 1688.5,26.05 C1719.98,37.69 1746.87,66.78 1762.49,86.77" fill="none" id="PVC-GMN49" style="stroke:#181818;stroke-width:1;stroke-dasharray:7,7;"/></g><!--link SA to GMN52--><g class="link" data-entity-1="ent0021" data-entity-2="ent0053" data-link-type="association" data-source-line="63" id="lnk54"><path d="M1141.87,353.19 C1213.64,330.41 1332.38,302.55 1432.5,326.14 C1457.42,332.01 1483.2,344.98 1502.55,356.32" fill="none" id="SA-GMN52" style="stroke:#181818;stroke-width:1;stroke-dasharray:7,7;"/></g><?plantuml-src ZPBDRjD04CVlVeeb5qvz0Gv8oIQgMhM9PLT1Y78mpYQrwdWZsm5L2AaDNwse577YZ7Y1K3Kaz2DzXTqtOcRM6vn2rHwgr3E__S_yP-PHHtIZH32lmNUgpVMj1WlZ8CiSPn24-q5FiCepcUx7CkXa5VRMOUo5ApilMP0njrN7pxeOnFAWBvASelM6kzLwZWa_3tBH7SQ-C1b_noS-47sPs62TOflo5NrjjchuoLEPs137sBjIEqsHlu6EYcPyaRwEGc4Aj3c6Df9UAhACGXlDTGmLRrmPH-419PhkYYYNIJVg3TCWZsHII9lOTZ0mVMoRSc5gxJJuYeIVonJ-iKCIQHPbEKobBUDXtpJejl-Nud4GzOiyDuCZ9OvxCALMAtcrAb-rNmr3EImMu5SnuSdOrFHQMmro4m-XPhgCSvl0I2rAEb7ICmzgj_1oadkqZCVC4p7DAjkB1fbZbixMrfxYLR0dhABVgnjzg2RgJ5tgiPhgKSM10xWFgTzBm3dSXt3BuEyTZ0F7KjPH2_LJNQk9FWJwbve3Ep4ad121-031AuAE4TGZ06TgJey8RheheXSWUwr7K7oXBikSWmIIV9l0kJvIDmZfKpMpa6NWqkw67DSQQHCqWxx9hJukk_3B4EWi03otISUlhhGz8MjJR1sAVe2_J-NcyNA8zsh5wB3W5FIcTi1iEV49x6FvW3_mXMVs1sqXZGcm0jnCV_bhYJ-8SXAP2vP6lRsSoUxIubV8pw0FuFIOKIjps3ywdUmcrCaCabDmFIhaC3kktDApL_4Tgu7C6MZ-Pg2sq4Vm4YvlDr4NZFQ6yxwwBU0M0j-AlS4xXeS8JNoaDg0itSw9clvJt3Z_eJzJzMlZXIu0ZqMVGkrp7B2j3tuhVm00?></g></svg>