<?plantuml 1.2026.2?><svg xmlns="http://www.w3.org/2000/svg" xmlns:xlink="http://www.w3.org/1999/xlink" contentStyleType="text/css" data-diagram-type="DESCRIPTION" height="482px" preserveAspectRatio="none" style="width:2059px;height:482px;background:#FFFFFF;" version="1.1" viewBox="0 0 2059 482" width="2059px" zoomAndPan="magnify"><defs/><g><!--cluster Security--><g class="cluster" data-qualified-name="Security" data-source-line="3" id="ent0002"><path d="M8.5,6 L74.8652,6 A3.75,3.75 0 0 1 77.3652,8.5 L84.3652,28.2969 L239.5,28.2969 A2.5,2.5 0 0 1 242,30.7969 L242,472.69 A2.5,2.5 0 0 1 239.5,475.19 L8.5,475.19 A2.5,2.5 0 0 1 6,472.69 L6,8.5 A2.5,2.5 0 0 1 8.5,6" fill="none" style="stroke:#000000;stroke-width:1.5;"/><line style="stroke:#000000;stroke-width:1.5;" x1="6" x2="84.3652" y1="28.2969" y2="28.2969"/><text fill="#000000" font-family="sans-serif" font-size="14" font-weight="bold" lengthAdjust="spacing" textLength="65.3652" x="10" y="20.9951">Security</text></g><!--cluster Performance--><g class="cluster" data-qualified-name="Performance" data-source-line="10" id="ent0007"><path d="M475.5,6 L577.5693,6 A3.75,3.75 0 0 1 580.0693,8.5 L587.0693,28.2969 L724.5,28.2969 A2.5,2.5 0 0 1 727,30.7969 L727,472.69 A2.5,2.5 0 0 1 724.5,475.19 L475.5,475.19 A2.5,2.5 0 0 1 473,472.69 L473,8.5 A2.5,2.5 0 0 1 475.5,6" fill="none" style="stroke:#000000;stroke-width:1.5;"/><line style="stroke:#000000;stroke-width:1.5;" x1="473" x2="587.0693" y1="28.2969" y2="28.2969"/><text fill="#000000" font-family="sans-serif" font-size="14" font-weight="bold" lengthAdjust="spacing" textLength="101.0693" x="477" y="20.9951">Performance</text></g><!--cluster Operations--><g class="cluster" data-qualified-name="Operations" data-source-line="17" id="ent0012"><path d="M935.5,6 L1023.6787,6 A3.75,3.75 0 0 1 1026.1787,8.5 L1033.1787,28.2969 L1118.5,28.2969 A2.5,2.5 0 0 1 1121,30.7969 L1121,472.69 A2.5,2.5 0 0 1 1118.5,475.19 L935.5,475.19 A2.5,2.5 0 0 1 933,472.69 L933,8.5 A2.5,2.5 0 0 1 935.5,6" fill="none" style="stroke:#000000;stroke-width:1.5;"/><line style="stroke:#000000;stroke-width:1.5;" x1="933" x2="1033.1787" y1="28.2969" y2="28.2969"/><text fill="#000000" font-family="sans-serif" font-size="14" font-weight="bold" lengthAdjust="spacing" textLength="87.1787" x="937" y="20.9951">Operations</text></g><!--cluster Network--><g class="cluster" data-qualified-name="Network" data-source-line="24" id="ent0017"><path d="M1296.5,6 L1364.1709,6 A3.75,3.75 0 0 1 1366.6709,8.5 L1373.6709,28.2969 L1507.5,28.2969 A2.5,2.5 0 0 1 1510,30.7969 L1510,347.39 A2.5,2.5 0 0 1 1507.5,349.89 L1296.5,349.89 A2.5,2.5 0 0 1 1294,347.39 L1294,8.5 A2.5,2.5 0 0 1 1296.5,6" fill="none" style="stroke:#000000;stroke-width:1.5;"/><line style="stroke:#000000;stroke-width:1.5;" x1="1294" x2="1373.6709" y1="28.2969" y2="28.2969"/><text fill="#000000" font-family="sans-serif" font-size="14" font-weight="bold" lengthAdjust="spacing" textLength="66.6709" x="1298" y="20.9951">Network</text></g><!--cluster Storage--><g class="cluster" data-qualified-name="Storage" data-source-line="30" id="ent0021"><path d="M1681.5,6 L1744.7617,6 A3.75,3.75 0 0 1 1747.2617,8.5 L1754.2617,28.2969 L1864.5,28.2969 A2.5,2.5 0 0 1 1867,30.7969 L1867,347.39 A2.5,2.5 0 0 1 1864.5,349.89 L1681.5,349.89 A2.5,2.5 0 0 1 1679,347.39 L1679,8.5 A2.5,2.5 0 0 1 1681.5,6" fill="none" style="stroke:#000000;stroke-width:1.5;"/><line style="stroke:#000000;stroke-width:1.5;" x1="1679" x2="1754.2617" y1="28.2969" y2="28.2969"/><text fill="#000000" font-family="sans-serif" font-size="14" font-weight="bold" lengthAdjust="spacing" textLength="62.2617" x="1683" y="20.9951">Storage</text></g><!--entity RBAC--><g class="entity" data-qualified-name="Security.RBAC" data-source-line="4" id="ent0003"><rect fill="#F1F1F1" height="46.2969" rx="2.5" ry="2.5" style="stroke:#181818;stroke-width:0.5;" width="195.1279" x="26.44" y="41"/><rect fill="#F1F1F1" height="10" style="stroke:#181818;stroke-width:0.5;" width="15" x="201.5679" y="46"/><rect fill="#F1F1F1" height="2" style="stroke:#181818;stroke-width:0.5;" width="4" x="199.5679" y="48"/><rect fill="#F1F1F1" height="2" style="stroke:#181818;stroke-width:0.5;" width="4" x="199.5679" y="52"/><text fill="#000000" font-family="sans-serif" font-size="14" lengthAdjust="spacing" textLength="155.1279" x="41.44" y="73.9951">RBAC - Least Privilege</text></g><!--entity NP--><g class="entity" data-qualified-name="Security.NP" data-source-line="5" id="ent0004"><rect fill="#F1F1F1" height="46.2969" rx="2.5" ry="2.5" style="stroke:#181818;stroke-width:0.5;" width="155.1855" x="46.41" y="164.3"/><rect fill="#F1F1F1" height="10" style="stroke:#181818;stroke-width:0.5;" width="15" x="181.5955" y="169.3"/><rect fill="#F1F1F1" height="2" style="stroke:#181818;stroke-width:0.5;" width="4" x="179.5955" y="171.3"/><rect fill="#F1F1F1" height="2" style="stroke:#181818;stroke-width:0.5;" width="4" x="179.5955" y="175.3"/><text fill="#000000" font-family="sans-serif" font-size="14" lengthAdjust="spacing" textLength="115.1855" x="61.41" y="197.2951">Network Policies</text></g><!--entity PSS--><g class="entity" data-qualified-name="Security.PSS" data-source-line="6" id="ent0005"><rect fill="#F1F1F1" height="46.2969" rx="2.5" ry="2.5" style="stroke:#181818;stroke-width:0.5;" width="203.5156" x="22.24" y="287.6"/><rect fill="#F1F1F1" height="10" style="stroke:#181818;stroke-width:0.5;" width="15" x="205.7556" y="292.6"/><rect fill="#F1F1F1" height="2" style="stroke:#181818;stroke-width:0.5;" width="4" x="203.7556" y="294.6"/><rect fill="#F1F1F1" height="2" style="stroke:#181818;stroke-width:0.5;" width="4" x="203.7556" y="298.6"/><text fill="#000000" font-family="sans-serif" font-size="14" lengthAdjust="spacing" textLength="163.5156" x="37.24" y="320.5951">Pod Security Standards</text></g><!--entity PC--><g class="entity" data-qualified-name="Security.PC" data-source-line="7" id="ent0006"><rect fill="#F1F1F1" height="46.2969" rx="2.5" ry="2.5" style="stroke:#181818;stroke-width:0.5;" width="189.3105" x="29.34" y="412.89"/><rect fill="#F1F1F1" height="10" style="stroke:#181818;stroke-width:0.5;" width="15" x="198.6505" y="417.89"/><rect fill="#F1F1F1" height="2" style="stroke:#181818;stroke-width:0.5;" width="4" x="196.6505" y="419.89"/><rect fill="#F1F1F1" height="2" style="stroke:#181818;stroke-width:0.5;" width="4" x="196.6505" y="423.89"/><text fill="#000000" font-family="sans-serif" font-size="14" lengthAdjust="spacing" textLength="149.3105" x="44.34" y="445.8851">Privileged Containers</text></g><!--entity RR--><g class="entity" data-qualified-name="Performance.RR" data-source-line="11" id="ent0008"><rect fill="#F1F1F1" height="46.2969" rx="2.5" ry="2.5" style="stroke:#181818;stroke-width:0.5;" width="221.0977" x="489.45" y="41"/><rect fill="#F1F1F1" height="10" style="stroke:#181818;stroke-width:0.5;" width="15" x="690.5477" y="46"/><rect fill="#F1F1F1" height="2" style="stroke:#181818;stroke-width:0.5;" width="4" x="688.5477" y="48"/><rect fill="#F1F1F1" height="2" style="stroke:#181818;stroke-width:0.5;" width="4" x="688.5477" y="52"/><text fill="#000000" font-family="sans-serif" font-size="14" lengthAdjust="spacing" textLength="181.0977" x="504.45" y="73.9951">Resource Requests/Limits</text></g><!--entity HPA--><g class="entity" data-qualified-name="Performance.HPA" data-source-line="12" id="ent0009"><rect fill="#F1F1F1" height="46.2969" rx="2.5" ry="2.5" style="stroke:#181818;stroke-width:0.5;" width="100.8604" x="549.57" y="164.3"/><rect fill="#F1F1F1" height="10" style="stroke:#181818;stroke-width:0.5;" width="15" x="630.4304" y="169.3"/><rect fill="#F1F1F1" height="2" style="stroke:#181818;stroke-width:0.5;" width="4" x="628.4304" y="171.3"/><rect fill="#F1F1F1" height="2" style="stroke:#181818;stroke-width:0.5;" width="4" x="628.4304" y="175.3"/><text fill="#000000" font-family="sans-serif" font-size="14" lengthAdjust="spacing" textLength="60.8604" x="564.57" y="197.2951">HPA/VPA</text></g><!--entity QOS--><g class="entity" data-qualified-name="Performance.QOS" data-source-line="13" id="ent0010"><rect fill="#F1F1F1" height="46.2969" rx="2.5" ry="2.5" style="stroke:#181818;stroke-width:0.5;" width="125.6611" x="537.17" y="287.6"/><rect fill="#F1F1F1" height="10" style="stroke:#181818;stroke-width:0.5;" width="15" x="642.8311" y="292.6"/><rect fill="#F1F1F1" height="2" style="stroke:#181818;stroke-width:0.5;" width="4" x="640.8311" y="294.6"/><rect fill="#F1F1F1" height="2" style="stroke:#181818;stroke-width:0.5;" width="4" x="640.8311" y="298.6"/><text fill="#000000" font-family="sans-serif" font-size="14" lengthAdjust="spacing" textLength="85.6611" x="552.17" y="320.5951">QoS Classes</text></g><!--entity NA--><g class="entity" data-qualified-name="Performance.NA" data-source-line="14" id="ent0011"><rect fill="#F1F1F1" height="46.2969" rx="2.5" ry="2.5" style="stroke:#181818;stroke-width:0.5;" width="130.8496" x="534.58" y="412.89"/><rect fill="#F1F1F1" height="10" style="stroke:#181818;stroke-width:0.5;" width="15" x="645.4296" y="417.89"/><rect fill="#F1F1F1" height="2" style="stroke:#181818;stroke-width:0.5;" width="4" x="643.4296" y="419.89"/><rect fill="#F1F1F1" height="2" style="stroke:#181818;stroke-width:0.5;" width="4" x="643.4296" y="423.89"/><text fill="#000000" font-family="sans-serif" font-size="14" lengthAdjust="spacing" textLength="90.8496" x="549.58" y="445.8851">Node Affinity</text></g><!--entity GITOPS--><g class="entity" data-qualified-name="Operations.GITOPS" data-source-line="18" id="ent0013"><rect fill="#F1F1F1" height="46.2969" rx="2.5" ry="2.5" style="stroke:#181818;stroke-width:0.5;" width="87.4277" x="1006.29" y="41"/><rect fill="#F1F1F1" height="10" style="stroke:#181818;stroke-width:0.5;" width="15" x="1073.7177" y="46"/><rect fill="#F1F1F1" height="2" style="stroke:#181818;stroke-width:0.5;" width="4" x="1071.7177" y="48"/><rect fill="#F1F1F1" height="2" style="stroke:#181818;stroke-width:0.5;" width="4" x="1071.7177" y="52"/><text fill="#000000" font-family="sans-serif" font-size="14" lengthAdjust="spacing" textLength="47.4277" x="1021.29" y="73.9951">GitOps</text></g><!--entity BACKUP--><g class="entity" data-qualified-name="Operations.BACKUP" data-source-line="19" id="ent0014"><rect fill="#F1F1F1" height="46.2969" rx="2.5" ry="2.5" style="stroke:#181818;stroke-width:0.5;" width="156.1836" x="948.91" y="164.3"/><rect fill="#F1F1F1" height="10" style="stroke:#181818;stroke-width:0.5;" width="15" x="1085.0936" y="169.3"/><rect fill="#F1F1F1" height="2" style="stroke:#181818;stroke-width:0.5;" width="4" x="1083.0936" y="171.3"/><rect fill="#F1F1F1" height="2" style="stroke:#181818;stroke-width:0.5;" width="4" x="1083.0936" y="175.3"/><text fill="#000000" font-family="sans-serif" font-size="14" lengthAdjust="spacing" textLength="116.1836" x="963.91" y="197.2951">Backup Strategy</text></g><!--entity MON--><g class="entity" data-qualified-name="Operations.MON" data-source-line="20" id="ent0015"><rect fill="#F1F1F1" height="46.2969" rx="2.5" ry="2.5" style="stroke:#181818;stroke-width:0.5;" width="114.8672" x="969.57" y="287.6"/><rect fill="#F1F1F1" height="10" style="stroke:#181818;stroke-width:0.5;" width="15" x="1064.4372" y="292.6"/><rect fill="#F1F1F1" height="2" style="stroke:#181818;stroke-width:0.5;" width="4" x="1062.4372" y="294.6"/><rect fill="#F1F1F1" height="2" style="stroke:#181818;stroke-width:0.5;" width="4" x="1062.4372" y="298.6"/><text fill="#000000" font-family="sans-serif" font-size="14" lengthAdjust="spacing" textLength="74.8672" x="984.57" y="320.5951">Monitoring</text></g><!--entity UPD--><g class="entity" data-qualified-name="Operations.UPD" data-source-line="21" id="ent0016"><rect fill="#F1F1F1" height="46.2969" rx="2.5" ry="2.5" style="stroke:#181818;stroke-width:0.5;" width="97.9961" x="978" y="412.89"/><rect fill="#F1F1F1" height="10" style="stroke:#181818;stroke-width:0.5;" width="15" x="1055.9961" y="417.89"/><rect fill="#F1F1F1" height="2" style="stroke:#181818;stroke-width:0.5;" width="4" x="1053.9961" y="419.89"/><rect fill="#F1F1F1" height="2" style="stroke:#181818;stroke-width:0.5;" width="4" x="1053.9961" y="423.89"/><text fill="#000000" font-family="sans-serif" font-size="14" lengthAdjust="spacing" textLength="57.9961" x="993" y="445.8851">Updates</text></g><!--entity IP--><g class="entity" data-qualified-name="Network.IP" data-source-line="25" id="ent0018"><rect fill="#F1F1F1" height="46.2969" rx="2.5" ry="2.5" style="stroke:#181818;stroke-width:0.5;" width="183.1582" x="1310.42" y="41"/><rect fill="#F1F1F1" height="10" style="stroke:#181818;stroke-width:0.5;" width="15" x="1473.5782" y="46"/><rect fill="#F1F1F1" height="2" style="stroke:#181818;stroke-width:0.5;" width="4" x="1471.5782" y="48"/><rect fill="#F1F1F1" height="2" style="stroke:#181818;stroke-width:0.5;" width="4" x="1471.5782" y="52"/><text fill="#000000" font-family="sans-serif" font-size="14" lengthAdjust="spacing" textLength="143.1582" x="1325.42" y="73.9951">IP Pool Management</text></g><!--entity L2--><g class="entity" data-qualified-name="Network.L2" data-source-line="26" id="ent0019"><rect fill="#F1F1F1" height="46.2969" rx="2.5" ry="2.5" style="stroke:#181818;stroke-width:0.5;" width="172.3984" x="1315.8" y="164.3"/><rect fill="#F1F1F1" height="10" style="stroke:#181818;stroke-width:0.5;" width="15" x="1468.1984" y="169.3"/><rect fill="#F1F1F1" height="2" style="stroke:#181818;stroke-width:0.5;" width="4" x="1466.1984" y="171.3"/><rect fill="#F1F1F1" height="2" style="stroke:#181818;stroke-width:0.5;" width="4" x="1466.1984" y="175.3"/><text fill="#000000" font-family="sans-serif" font-size="14" lengthAdjust="spacing" textLength="132.3984" x="1330.8" y="197.2951">L2 Network Design</text></g><!--entity SM--><g class="entity" data-qualified-name="Network.SM" data-source-line="27" id="ent0020"><rect fill="#F1F1F1" height="46.2969" rx="2.5" ry="2.5" style="stroke:#181818;stroke-width:0.5;" width="133.0508" x="1335.47" y="287.6"/><rect fill="#F1F1F1" height="10" style="stroke:#181818;stroke-width:0.5;" width="15" x="1448.5208" y="292.6"/><rect fill="#F1F1F1" height="2" style="stroke:#181818;stroke-width:0.5;" width="4" x="1446.5208" y="294.6"/><rect fill="#F1F1F1" height="2" style="stroke:#181818;stroke-width:0.5;" width="4" x="1446.5208" y="298.6"/><text fill="#000000" font-family="sans-serif" font-size="14" lengthAdjust="spacing" textLength="93.0508" x="1350.47" y="320.5951">Service Mesh</text></g><!--entity LS--><g class="entity" data-qualified-name="Storage.LS" data-source-line="31" id="ent0022"><rect fill="#F1F1F1" height="46.2969" rx="2.5" ry="2.5" style="stroke:#181818;stroke-width:0.5;" width="135.7578" x="1704.12" y="41"/><rect fill="#F1F1F1" height="10" style="stroke:#181818;stroke-width:0.5;" width="15" x="1819.8778" y="46"/><rect fill="#F1F1F1" height="2" style="stroke:#181818;stroke-width:0.5;" width="4" x="1817.8778" y="48"/><rect fill="#F1F1F1" height="2" style="stroke:#181818;stroke-width:0.5;" width="4" x="1817.8778" y="52"/><text fill="#000000" font-family="sans-serif" font-size="14" lengthAdjust="spacing" textLength="95.7578" x="1719.12" y="73.9951">Local Storage</text></g><!--entity HAS--><g class="entity" data-qualified-name="Storage.HAS" data-source-line="32" id="ent0023"><rect fill="#F1F1F1" height="46.2969" rx="2.5" ry="2.5" style="stroke:#181818;stroke-width:0.5;" width="119.3311" x="1707.33" y="164.3"/><rect fill="#F1F1F1" height="10" style="stroke:#181818;stroke-width:0.5;" width="15" x="1806.6611" y="169.3"/><rect fill="#F1F1F1" height="2" style="stroke:#181818;stroke-width:0.5;" width="4" x="1804.6611" y="171.3"/><rect fill="#F1F1F1" height="2" style="stroke:#181818;stroke-width:0.5;" width="4" x="1804.6611" y="175.3"/><text fill="#000000" font-family="sans-serif" font-size="14" lengthAdjust="spacing" textLength="79.3311" x="1722.33" y="197.2951">HA Storage</text></g><!--entity STORAGE_BACKUP--><g class="entity" data-qualified-name="Storage.STORAGE_BACKUP" data-source-line="33" id="ent0024"><rect fill="#F1F1F1" height="46.2969" rx="2.5" ry="2.5" style="stroke:#181818;stroke-width:0.5;" width="156.1836" x="1694.91" y="287.6"/><rect fill="#F1F1F1" height="10" style="stroke:#181818;stroke-width:0.5;" width="15" x="1831.0936" y="292.6"/><rect fill="#F1F1F1" height="2" style="stroke:#181818;stroke-width:0.5;" width="4" x="1829.0936" y="294.6"/><rect fill="#F1F1F1" height="2" style="stroke:#181818;stroke-width:0.5;" width="4" x="1829.0936" y="298.6"/><text fill="#000000" font-family="sans-serif" font-size="14" lengthAdjust="spacing" textLength="116.1836" x="1709.91" y="320.5951">Backup Strategy</text></g><g class="entity" data-qualified-name="GMN38" data-source-line="59" id="ent0039"><path d="M257.54,44.02 L257.54,60.15 L221.88,64.15 L257.54,68.15 L257.54,84.2856 A0,0 0 0 0 257.54,84.2856 L454.4653,84.2856 A0,0 0 0 0 454.4653,84.2856 L454.4653,54.02 L444.4653,44.02 L257.54,44.02 A0,0 0 0 0 257.54,44.02" fill="#FEFFDD" style="stroke:#181818;stroke-width:0.5;"/><path d="M444.4653,44.02 L444.4653,54.02 L454.4653,54.02 L444.4653,44.02" fill="#FEFFDD" style="stroke:#181818;stroke-width:0.5;"/><text fill="#000000" font-family="sans-serif" font-size="13" lengthAdjust="spacing" textLength="175.9253" x="263.54" y="61.0869">"Role-based access control</text><text fill="#000000" font-family="sans-serif" font-size="13" lengthAdjust="spacing" textLength="124.1792" x="263.54" y="76.2197">Minimal privileges"</text></g><g class="entity" data-qualified-name="GMN41" data-source-line="60" id="ent0042"><path d="M745.37,44.02 L745.37,60.15 L710.99,64.15 L745.37,68.15 L745.37,84.2856 A0,0 0 0 0 745.37,84.2856 L916.6381,84.2856 A0,0 0 0 0 916.6381,84.2856 L916.6381,54.02 L906.6381,44.02 L745.37,44.02 A0,0 0 0 0 745.37,44.02" fill="#FEFFDD" style="stroke:#181818;stroke-width:0.5;"/><path d="M906.6381,44.02 L906.6381,54.02 L916.6381,54.02 L906.6381,44.02" fill="#FEFFDD" style="stroke:#181818;stroke-width:0.5;"/><text fill="#000000" font-family="sans-serif" font-size="13" lengthAdjust="spacing" textLength="150.2681" x="751.37" y="61.0869">"CPU/Memory requests</text><text fill="#000000" font-family="sans-serif" font-size="13" lengthAdjust="spacing" textLength="69.9385" x="751.37" y="76.2197">and limits"</text></g><g class="entity" data-qualified-name="GMN44" data-source-line="61" id="ent0045"><path d="M1137,44.02 L1137,60.15 L1094.18,64.15 L1137,68.15 L1137,84.2856 A0,0 0 0 0 1137,84.2856 L1275.0063,84.2856 A0,0 0 0 0 1275.0063,84.2856 L1275.0063,54.02 L1265.0063,44.02 L1137,44.02 A0,0 0 0 0 1137,44.02" fill="#FEFFDD" style="stroke:#181818;stroke-width:0.5;"/><path d="M1265.0063,44.02 L1265.0063,54.02 L1275.0063,54.02 L1265.0063,44.02" fill="#FEFFDD" style="stroke:#181818;stroke-width:0.5;"/><text fill="#000000" font-family="sans-serif" font-size="13" lengthAdjust="spacing" textLength="104.2729" x="1143" y="61.0869">"Version control</text><text fill="#000000" font-family="sans-serif" font-size="13" lengthAdjust="spacing" textLength="117.0063" x="1143" y="76.2197">for infrastructure"</text></g><g class="entity" data-qualified-name="GMN47" data-source-line="62" id="ent0048"><path d="M1528.24,44.02 L1528.24,60.15 L1493.98,64.15 L1528.24,68.15 L1528.24,84.2856 A0,0 0 0 0 1528.24,84.2856 L1661.7522,84.2856 A0,0 0 0 0 1661.7522,84.2856 L1661.7522,54.02 L1651.7522,44.02 L1528.24,44.02 A0,0 0 0 0 1528.24,44.02" fill="#FEFFDD" style="stroke:#181818;stroke-width:0.5;"/><path d="M1651.7522,44.02 L1651.7522,54.02 L1661.7522,54.02 L1651.7522,44.02" fill="#FEFFDD" style="stroke:#181818;stroke-width:0.5;"/><text fill="#000000" font-family="sans-serif" font-size="13" lengthAdjust="spacing" textLength="112.5122" x="1534.24" y="61.0869">"MetalLB IP pools</text><text fill="#000000" font-family="sans-serif" font-size="13" lengthAdjust="spacing" textLength="94.7388" x="1534.24" y="76.2197">outside DHCP"</text></g><g class="entity" data-qualified-name="GMN50" data-source-line="63" id="ent0051"><path d="M1883.11,44.02 L1883.11,60.15 L1840.14,64.15 L1883.11,68.15 L1883.11,84.2856 A0,0 0 0 0 1883.11,84.2856 L2052.8991,84.2856 A0,0 0 0 0 2052.8991,84.2856 L2052.8991,54.02 L2042.8991,44.02 L1883.11,44.02 A0,0 0 0 0 1883.11,44.02" fill="#FEFFDD" style="stroke:#181818;stroke-width:0.5;"/><path d="M2042.8991,44.02 L2042.8991,54.02 L2052.8991,54.02 L2042.8991,44.02" fill="#FEFFDD" style="stroke:#181818;stroke-width:0.5;"/><text fill="#000000" font-family="sans-serif" font-size="13" lengthAdjust="spacing" textLength="86.0806" x="1889.11" y="61.0869">"For labs and</text><text fill="#000000" font-family="sans-serif" font-size="13" lengthAdjust="spacing" textLength="148.7891" x="1889.11" y="76.2197">non-critical workloads"</text></g><!--link RBAC to NP--><g class="link" data-entity-1="ent0003" data-entity-2="ent0004" data-link-type="dependency" data-source-line="37" id="lnk25"><path d="M124,87.68 C124,109.47 124,136.29 124,158.04" fill="none" id="RBAC-to-NP" style="stroke:#181818;stroke-width:1;"/><polygon fill="#181818" points="124,164.04,128,155.04,124,159.04,120,155.04,124,164.04" style="stroke:#181818;stroke-width:1;"/><text fill="#000000" font-family="sans-serif" font-size="13" lengthAdjust="spacing" textLength="88.3975" x="125" y="130.3669">complements</text></g><!--link NP to PSS--><g class="link" data-entity-1="ent0004" data-entity-2="ent0005" data-link-type="dependency" data-source-line="38" id="lnk26"><path d="M124,210.98 C124,232.77 124,259.59 124,281.33" fill="none" id="NP-to-PSS" style="stroke:#181818;stroke-width:1;"/><polygon fill="#181818" points="124,287.33,128,278.33,124,282.33,120,278.33,124,287.33" style="stroke:#181818;stroke-width:1;"/><text fill="#000000" font-family="sans-serif" font-size="13" lengthAdjust="spacing" textLength="56.0308" x="125" y="253.6669">enforces</text></g><!--link PSS to PC--><g class="link" data-entity-1="ent0005" data-entity-2="ent0006" data-link-type="dependency" data-source-line="39" id="lnk27"><path d="M124,334.36 C124,356.61 124,384.37 124,406.57" fill="none" id="PSS-to-PC" style="stroke:#181818;stroke-width:1;"/><polygon fill="#181818" points="124,412.57,128,403.57,124,407.57,120,403.57,124,412.57" style="stroke:#181818;stroke-width:1;"/><text fill="#000000" font-family="sans-serif" font-size="13" lengthAdjust="spacing" textLength="53.187" x="125" y="378.9569">restricts</text></g><!--link RR to HPA--><g class="link" data-entity-1="ent0008" data-entity-2="ent0009" data-link-type="dependency" data-source-line="42" id="lnk28"><path d="M600,87.68 C600,109.47 600,136.29 600,158.04" fill="none" id="RR-to-HPA" style="stroke:#181818;stroke-width:1;"/><polygon fill="#181818" points="600,164.04,604,155.04,600,159.04,596,155.04,600,164.04" style="stroke:#181818;stroke-width:1;"/><text fill="#000000" font-family="sans-serif" font-size="13" lengthAdjust="spacing" textLength="50.8384" x="601" y="130.3669">enables</text></g><!--link HPA to QOS--><g class="link" data-entity-1="ent0009" data-entity-2="ent0010" data-link-type="dependency" data-source-line="43" id="lnk29"><path d="M600,210.98 C600,232.77 600,259.59 600,281.33" fill="none" id="HPA-to-QOS" style="stroke:#181818;stroke-width:1;"/><polygon fill="#181818" points="600,287.33,604,278.33,600,282.33,596,278.33,600,287.33" style="stroke:#181818;stroke-width:1;"/><text fill="#000000" font-family="sans-serif" font-size="13" lengthAdjust="spacing" textLength="44.1353" x="601" y="253.6669">affects</text></g><!--link QOS to NA--><g class="link" data-entity-1="ent0010" data-entity-2="ent0011" data-link-type="dependency" data-source-line="44" id="lnk30"><path d="M600,334.36 C600,356.61 600,384.37 600,406.57" fill="none" id="QOS-to-NA" style="stroke:#181818;stroke-width:1;"/><polygon fill="#181818" points="600,412.57,604,403.57,600,407.57,596,403.57,600,412.57" style="stroke:#181818;stroke-width:1;"/><text fill="#000000" font-family="sans-serif" font-size="13" lengthAdjust="spacing" textLength="66.4346" x="601" y="378.9569">influences</text></g><!--link GITOPS to BACKUP--><g class="link" data-entity-1="ent0013" data-entity-2="ent0014" data-link-type="dependency" data-source-line="47" id="lnk31"><path d="M1045.73,87.68 C1041.6,109.47 1036.4867,136.3948 1032.3667,158.1448" fill="none" id="GITOPS-to-BACKUP" style="stroke:#181818;stroke-width:1;"/><polygon fill="#181818" points="1031.25,164.04,1036.8552,155.9417,1032.1806,159.1274,1028.9949,154.4528,1031.25,164.04" style="stroke:#181818;stroke-width:1;"/><text fill="#000000" font-family="sans-serif" font-size="13" lengthAdjust="spacing" textLength="53.8726" x="1040.88" y="130.3669">includes</text></g><!--link BACKUP to MON--><g class="link" data-entity-1="ent0014" data-entity-2="ent0015" data-link-type="dependency" data-source-line="48" id="lnk32"><path d="M1027,210.98 C1027,232.77 1027,259.59 1027,281.33" fill="none" id="BACKUP-to-MON" style="stroke:#181818;stroke-width:1;"/><polygon fill="#181818" points="1027,287.33,1031,278.33,1027,282.33,1023,278.33,1027,287.33" style="stroke:#181818;stroke-width:1;"/><text fill="#000000" font-family="sans-serif" font-size="13" lengthAdjust="spacing" textLength="57.6367" x="1028" y="253.6669">monitors</text></g><!--link MON to UPD--><g class="link" data-entity-1="ent0015" data-entity-2="ent0016" data-link-type="dependency" data-source-line="49" id="lnk33"><path d="M1027,334.36 C1027,356.61 1027,384.37 1027,406.57" fill="none" id="MON-to-UPD" style="stroke:#181818;stroke-width:1;"/><polygon fill="#181818" points="1027,412.57,1031,403.57,1027,407.57,1023,403.57,1027,412.57" style="stroke:#181818;stroke-width:1;"/><text fill="#000000" font-family="sans-serif" font-size="13" lengthAdjust="spacing" textLength="58.9697" x="1028" y="378.9569">validates</text></g><!--link IP to L2--><g class="link" data-entity-1="ent0018" data-entity-2="ent0019" data-link-type="dependency" data-source-line="52" id="lnk34"><path d="M1402,87.68 C1402,109.47 1402,136.29 1402,158.04" fill="none" id="IP-to-L2" style="stroke:#181818;stroke-width:1;"/><polygon fill="#181818" points="1402,164.04,1406,155.04,1402,159.04,1398,155.04,1402,164.04" style="stroke:#181818;stroke-width:1;"/><text fill="#000000" font-family="sans-serif" font-size="13" lengthAdjust="spacing" textLength="53.5615" x="1403" y="130.3669">requires</text></g><!--link L2 to SM--><g class="link" data-entity-1="ent0019" data-entity-2="ent0020" data-link-type="dependency" data-source-line="53" id="lnk35"><path d="M1402,210.98 C1402,232.77 1402,259.59 1402,281.33" fill="none" id="L2-to-SM" style="stroke:#181818;stroke-width:1;"/><polygon fill="#181818" points="1402,287.33,1406,278.33,1402,282.33,1398,278.33,1402,287.33" style="stroke:#181818;stroke-width:1;"/><text fill="#000000" font-family="sans-serif" font-size="13" lengthAdjust="spacing" textLength="56.6846" x="1403" y="253.6669">supports</text></g><!--link LS to HAS--><g class="link" data-entity-1="ent0022" data-entity-2="ent0023" data-link-type="dependency" data-source-line="56" id="lnk36"><path d="M1771.07,87.68 C1770.17,109.47 1769.0681,136.2951 1768.1681,158.0451" fill="none" id="LS-to-HAS" style="stroke:#181818;stroke-width:1;"/><polygon fill="#181818" points="1767.92,164.04,1772.2887,155.2131,1768.1267,159.0443,1764.2955,154.8823,1767.92,164.04" style="stroke:#181818;stroke-width:1;"/><text fill="#000000" font-family="sans-serif" font-size="13" lengthAdjust="spacing" textLength="87.8071" x="1770.8" y="130.3669">alternative to</text></g><!--link HAS to STORAGE_BACKUP--><g class="link" data-entity-1="ent0023" data-entity-2="ent0024" data-link-type="dependency" data-source-line="57" id="lnk37"><path d="M1768.11,210.98 C1769.19,232.77 1770.525,259.5973 1771.595,281.3373" fill="none" id="HAS-to-STORAGE_BACKUP" style="stroke:#181818;stroke-width:1;"/><polygon fill="#181818" points="1771.89,287.33,1775.4427,278.1442,1771.6442,282.336,1767.4524,278.5375,1771.89,287.33" style="stroke:#181818;stroke-width:1;"/><text fill="#000000" font-family="sans-serif" font-size="13" lengthAdjust="spacing" textLength="53.5615" x="1771.36" y="253.6669">requires</text></g><?plantuml-src TLHDRzim3BtdLsYvx1GKw7670QxR9S7inBMRNjPXK6Kw5Qf8hYHdA8Rzzv6KWzG1ThFvoFVugKyjTDg2gE_oXsopBEw4CZA4sQoNwbNkGSmRK8FNyNqk_io4-57VPBbOY09aYABo-gWDxE6da44GH2uRYB-TVnMLCrff20nkAe8grueJeMYYjAtqRNAeceOzJfIjo9sD4fFpeqC--_iXhmfyv_n1MWMdr22umIii1ju6235S5VgWOugkQt9PLTdLOvMn1R_9TEyQaLFDOwBtMyvZureGMOVDmLHJ1Tb4Vzk3br4x6qRvfOxRFd4irm_RYcbkq7teiLJqXNqYmZPztt4xIeVipckxPw3SRiYwwrjqJaoxwdQYElPsb5nNs6HdH2ajeWUmaOFMJ5vSYzCaRY7elMMik2Qi0N_KsAaImWkRct8Yqs1M-37A54v98qPROk7YLjd4kCh-MtBpiAspvTsliNIK-dpU0-Mi1SMjdANrMdp5VH5Vn5ovGs-ui32VeOaGN1I2mEBu5Q2T30paPFSuUQyL1Q38XosPwjGSWZkGkEIp8Ihw9pik0Tbbrm4pqJzdnUxQTcO0o-AeSTw4YKHQ0WvBPQTGPOQM0aSRmJXtmWvf6n0Z0m4uVGAEqcXU2POx3VMZrZeHuSYv0s-3zkID_sHkIZA7eU-T7_iopcr2KgHaSOnSkudWBTPr114TjYPBy7IKKxsPTH64r_kNA5p73m8vrCx0uba6l6cfi6lSf-YTUR8btjS1bwi_dJsoN93KH95NkwiI3iw_2pzUzvF5vqCOFl7BeB7t6FY8pmTMTrR4TH0uG8_lbnzK73nS1g-vgXAYDCKD_VLuOoZdXXWqlWgtgxowZ2bOx1jo6_aS16RsPAsp2uKRhkbwQ6J6oJRC_m40?></g></svg>