<?plantuml 1.2026.2?><svg xmlns="http://www.w3.org/2000/svg" xmlns:xlink="http://www.w3.org/1999/xlink" contentStyleType="text/css" data-diagram-type="CLASS" height="511px" preserveAspectRatio="none" style="width:1250px;height:511px;background:#FFFFFF;" version="1.1" viewBox="0 0 1250 511" width="1250px" zoomAndPan="magnify"><defs/><g><!--cluster Control Plane--><g class="cluster" data-qualified-name="Control Plane" data-source-line="3" id="ent0002"><path d="M8.5,138 L116.2158,138 A3.75,3.75 0 0 1 118.7158,140.5 L125.7158,160.2969 L589.5,160.2969 A2.5,2.5 0 0 1 592,162.7969 L592,502.09 A2.5,2.5 0 0 1 589.5,504.59 L8.5,504.59 A2.5,2.5 0 0 1 6,502.09 L6,140.5 A2.5,2.5 0 0 1 8.5,138" fill="none" style="stroke:#000000;stroke-width:1.5;"/><line style="stroke:#000000;stroke-width:1.5;" x1="6" x2="125.7158" y1="160.2969" y2="160.2969"/><text fill="#000000" font-family="sans-serif" font-size="14" font-weight="bold" lengthAdjust="spacing" textLength="106.7158" x="10" y="152.9951">Control Plane</text></g><!--cluster Data Plane--><g class="cluster" data-qualified-name="Data Plane" data-source-line="11" id="ent0008"><path d="M618.5,284 L705.5508,284 A3.75,3.75 0 0 1 708.0508,286.5 L715.0508,306.2969 L1240.5,306.2969 A2.5,2.5 0 0 1 1243,308.7969 L1243,391.09 A2.5,2.5 0 0 1 1240.5,393.59 L618.5,393.59 A2.5,2.5 0 0 1 616,391.09 L616,286.5 A2.5,2.5 0 0 1 618.5,284" fill="none" style="stroke:#000000;stroke-width:1.5;"/><line style="stroke:#000000;stroke-width:1.5;" x1="616" x2="715.0508" y1="306.2969" y2="306.2969"/><text fill="#000000" font-family="sans-serif" font-size="14" font-weight="bold" lengthAdjust="spacing" textLength="86.0508" x="620" y="298.9951">Data Plane</text></g><!--cluster Networking--><g class="cluster" data-qualified-name="Networking" data-source-line="19" id="ent0013"><path d="M751.5,6 L843.958,6 A3.75,3.75 0 0 1 846.458,8.5 L853.458,28.2969 L1034.5,28.2969 A2.5,2.5 0 0 1 1037,30.7969 L1037,102.5 A2.5,2.5 0 0 1 1034.5,105 L751.5,105 A2.5,2.5 0 0 1 749,102.5 L749,8.5 A2.5,2.5 0 0 1 751.5,6" fill="none" style="stroke:#000000;stroke-width:1.5;"/><line style="stroke:#000000;stroke-width:1.5;" x1="749" x2="853.458" y1="28.2969" y2="28.2969"/><text fill="#000000" font-family="sans-serif" font-size="14" font-weight="bold" lengthAdjust="spacing" textLength="91.458" x="753" y="20.9951">Networking</text></g><!--class APIServer--><g class="entity" data-qualified-name="Control Plane.APIServer" data-source-line="4" id="ent0003"><rect fill="#F1F1F1" height="48" rx="2.5" ry="2.5" style="stroke:#181818;stroke-width:0.5;" width="137.2051" x="22.4" y="173"/><ellipse cx="37.4" cy="189" fill="#ADD1B2" rx="11" ry="11" style="stroke:#181818;stroke-width:1;"/><path d="M40.3688,194.6406 Q39.7906,194.9375 39.15,195.0781 Q38.5094,195.2344 37.8063,195.2344 Q35.3063,195.2344 33.9781,193.5938 Q32.6656,191.9375 32.6656,188.8125 Q32.6656,185.6875 33.9781,184.0313 Q35.3063,182.375 37.8063,182.375 Q38.5094,182.375 39.15,182.5313 Q39.8063,182.6875 40.3688,182.9844 L40.3688,185.7031 Q39.7438,185.125 39.15,184.8594 Q38.5563,184.5781 37.9313,184.5781 Q36.5875,184.5781 35.9,185.6563 Q35.2125,186.7188 35.2125,188.8125 Q35.2125,190.9063 35.9,191.9844 Q36.5875,193.0469 37.9313,193.0469 Q38.5563,193.0469 39.15,192.7813 Q39.7438,192.5 40.3688,191.9219 L40.3688,194.6406 Z " fill="#000000"/><text fill="#000000" font-family="sans-serif" font-size="14" lengthAdjust="spacing" textLength="105.2051" x="51.4" y="193.8467">kube-apiserver</text><line style="stroke:#181818;stroke-width:0.5;" x1="23.4" x2="158.6051" y1="205" y2="205"/><line style="stroke:#181818;stroke-width:0.5;" x1="23.4" x2="158.6051" y1="213" y2="213"/></g><!--class Scheduler--><g class="entity" data-qualified-name="Control Plane.Scheduler" data-source-line="5" id="ent0004"><rect fill="#F1F1F1" height="48" rx="2.5" ry="2.5" style="stroke:#181818;stroke-width:0.5;" width="140.0283" x="194.99" y="173"/><ellipse cx="209.99" cy="189" fill="#ADD1B2" rx="11" ry="11" style="stroke:#181818;stroke-width:1;"/><path d="M212.9588,194.6406 Q212.3806,194.9375 211.74,195.0781 Q211.0994,195.2344 210.3963,195.2344 Q207.8963,195.2344 206.5681,193.5938 Q205.2556,191.9375 205.2556,188.8125 Q205.2556,185.6875 206.5681,184.0313 Q207.8963,182.375 210.3963,182.375 Q211.0994,182.375 211.74,182.5313 Q212.3963,182.6875 212.9588,182.9844 L212.9588,185.7031 Q212.3338,185.125 211.74,184.8594 Q211.1463,184.5781 210.5213,184.5781 Q209.1775,184.5781 208.49,185.6563 Q207.8025,186.7188 207.8025,188.8125 Q207.8025,190.9063 208.49,191.9844 Q209.1775,193.0469 210.5213,193.0469 Q211.1463,193.0469 211.74,192.7813 Q212.3338,192.5 212.9588,191.9219 L212.9588,194.6406 Z " fill="#000000"/><text fill="#000000" font-family="sans-serif" font-size="14" lengthAdjust="spacing" textLength="108.0283" x="223.99" y="193.8467">kube-scheduler</text><line style="stroke:#181818;stroke-width:0.5;" x1="195.99" x2="334.0183" y1="205" y2="205"/><line style="stroke:#181818;stroke-width:0.5;" x1="195.99" x2="334.0183" y1="213" y2="213"/></g><!--class Controllers--><g class="entity" data-qualified-name="Control Plane.Controllers" data-source-line="6" id="ent0005"><rect fill="#F1F1F1" height="48" rx="2.5" ry="2.5" style="stroke:#181818;stroke-width:0.5;" width="206.6035" x="369.7" y="173"/><ellipse cx="384.7" cy="189" fill="#ADD1B2" rx="11" ry="11" style="stroke:#181818;stroke-width:1;"/><path d="M387.6688,194.6406 Q387.0906,194.9375 386.45,195.0781 Q385.8094,195.2344 385.1063,195.2344 Q382.6063,195.2344 381.2781,193.5938 Q379.9656,191.9375 379.9656,188.8125 Q379.9656,185.6875 381.2781,184.0313 Q382.6063,182.375 385.1063,182.375 Q385.8094,182.375 386.45,182.5313 Q387.1063,182.6875 387.6688,182.9844 L387.6688,185.7031 Q387.0438,185.125 386.45,184.8594 Q385.8563,184.5781 385.2313,184.5781 Q383.8875,184.5781 383.2,185.6563 Q382.5125,186.7188 382.5125,188.8125 Q382.5125,190.9063 383.2,191.9844 Q383.8875,193.0469 385.2313,193.0469 Q385.8563,193.0469 386.45,192.7813 Q387.0438,192.5 387.6688,191.9219 L387.6688,194.6406 Z " fill="#000000"/><text fill="#000000" font-family="sans-serif" font-size="14" lengthAdjust="spacing" textLength="174.6035" x="398.7" y="193.8467">kube-controller-manager</text><line style="stroke:#181818;stroke-width:0.5;" x1="370.7" x2="575.3035" y1="205" y2="205"/><line style="stroke:#181818;stroke-width:0.5;" x1="370.7" x2="575.3035" y1="213" y2="213"/></g><!--class Etcd--><g class="entity" data-qualified-name="Control Plane.Etcd" data-source-line="7" id="ent0006"><rect fill="#F1F1F1" height="48" rx="2.5" ry="2.5" style="stroke:#181818;stroke-width:0.5;" width="62.6865" x="59.66" y="440.59"/><ellipse cx="74.66" cy="456.59" fill="#ADD1B2" rx="11" ry="11" style="stroke:#181818;stroke-width:1;"/><path d="M77.6288,462.2306 Q77.0506,462.5275 76.41,462.6681 Q75.7694,462.8244 75.0663,462.8244 Q72.5663,462.8244 71.2381,461.1838 Q69.9256,459.5275 69.9256,456.4025 Q69.9256,453.2775 71.2381,451.6213 Q72.5663,449.965 75.0663,449.965 Q75.7694,449.965 76.41,450.1213 Q77.0663,450.2775 77.6288,450.5744 L77.6288,453.2931 Q77.0038,452.715 76.41,452.4494 Q75.8163,452.1681 75.1913,452.1681 Q73.8475,452.1681 73.16,453.2463 Q72.4725,454.3088 72.4725,456.4025 Q72.4725,458.4963 73.16,459.5744 Q73.8475,460.6369 75.1913,460.6369 Q75.8163,460.6369 76.41,460.3713 Q77.0038,460.09 77.6288,459.5119 L77.6288,462.2306 Z " fill="#000000"/><text fill="#000000" font-family="sans-serif" font-size="14" lengthAdjust="spacing" textLength="30.6865" x="88.66" y="461.4367">etcd</text><line style="stroke:#181818;stroke-width:0.5;" x1="60.66" x2="121.3465" y1="472.59" y2="472.59"/><line style="stroke:#181818;stroke-width:0.5;" x1="60.66" x2="121.3465" y1="480.59" y2="480.59"/></g><!--class Worker1--><g class="entity" data-qualified-name="Data Plane.Worker1" data-source-line="12" id="ent0009"><rect fill="#F1F1F1" height="58.5938" rx="2.5" ry="2.5" style="stroke:#181818;stroke-width:0.5;" width="280.2676" x="631.87" y="319"/><ellipse cx="646.87" cy="340.2969" fill="#ADD1B2" rx="11" ry="11" style="stroke:#181818;stroke-width:1;"/><path d="M649.8388,345.9375 Q649.2606,346.2344 648.62,346.375 Q647.9794,346.5313 647.2763,346.5313 Q644.7763,346.5313 643.4481,344.8906 Q642.1356,343.2344 642.1356,340.1094 Q642.1356,336.9844 643.4481,335.3281 Q644.7763,333.6719 647.2763,333.6719 Q647.9794,333.6719 648.62,333.8281 Q649.2763,333.9844 649.8388,334.2813 L649.8388,337 Q649.2138,336.4219 648.62,336.1563 Q648.0263,335.875 647.4013,335.875 Q646.0575,335.875 645.37,336.9531 Q644.6825,338.0156 644.6825,340.1094 Q644.6825,342.2031 645.37,343.2813 Q646.0575,344.3438 647.4013,344.3438 Q648.0263,344.3438 648.62,344.0781 Q649.2138,343.7969 649.8388,343.2188 L649.8388,345.9375 Z " fill="#000000"/><text fill="#000000" font-family="sans-serif" font-size="14" lengthAdjust="spacing" textLength="104.9863" x="732.5106" y="336.9951">Worker Node 1</text><text fill="#000000" font-family="sans-serif" font-size="14" lengthAdjust="spacing" textLength="248.2676" x="660.87" y="353.292">kubelet + kube-proxy + containerd</text><line style="stroke:#181818;stroke-width:0.5;" x1="632.87" x2="911.1376" y1="361.5938" y2="361.5938"/><line style="stroke:#181818;stroke-width:0.5;" x1="632.87" x2="911.1376" y1="369.5938" y2="369.5938"/></g><!--class Worker2--><g class="entity" data-qualified-name="Data Plane.Worker2" data-source-line="13" id="ent0010"><rect fill="#F1F1F1" height="58.5938" rx="2.5" ry="2.5" style="stroke:#181818;stroke-width:0.5;" width="280.2676" x="946.87" y="319"/><ellipse cx="961.87" cy="340.2969" fill="#ADD1B2" rx="11" ry="11" style="stroke:#181818;stroke-width:1;"/><path d="M964.8388,345.9375 Q964.2606,346.2344 963.62,346.375 Q962.9794,346.5313 962.2763,346.5313 Q959.7763,346.5313 958.4481,344.8906 Q957.1356,343.2344 957.1356,340.1094 Q957.1356,336.9844 958.4481,335.3281 Q959.7763,333.6719 962.2763,333.6719 Q962.9794,333.6719 963.62,333.8281 Q964.2763,333.9844 964.8388,334.2813 L964.8388,337 Q964.2138,336.4219 963.62,336.1563 Q963.0263,335.875 962.4013,335.875 Q961.0575,335.875 960.37,336.9531 Q959.6825,338.0156 959.6825,340.1094 Q959.6825,342.2031 960.37,343.2813 Q961.0575,344.3438 962.4013,344.3438 Q963.0263,344.3438 963.62,344.0781 Q964.2138,343.7969 964.8388,343.2188 L964.8388,345.9375 Z " fill="#000000"/><text fill="#000000" font-family="sans-serif" font-size="14" lengthAdjust="spacing" textLength="104.9863" x="1047.5106" y="336.9951">Worker Node 2</text><text fill="#000000" font-family="sans-serif" font-size="14" lengthAdjust="spacing" textLength="248.2676" x="975.87" y="353.292">kubelet + kube-proxy + containerd</text><line style="stroke:#181818;stroke-width:0.5;" x1="947.87" x2="1226.1376" y1="361.5938" y2="361.5938"/><line style="stroke:#181818;stroke-width:0.5;" x1="947.87" x2="1226.1376" y1="369.5938" y2="369.5938"/></g><!--class Flannel--><g class="entity" data-qualified-name="Networking.Flannel" data-source-line="20" id="ent0014"><rect fill="#F1F1F1" height="48" rx="2.5" ry="2.5" style="stroke:#181818;stroke-width:0.5;" width="111.5977" x="765.2" y="41"/><ellipse cx="780.2" cy="57" fill="#ADD1B2" rx="11" ry="11" style="stroke:#181818;stroke-width:1;"/><path d="M783.1688,62.6406 Q782.5906,62.9375 781.95,63.0781 Q781.3094,63.2344 780.6063,63.2344 Q778.1063,63.2344 776.7781,61.5938 Q775.4656,59.9375 775.4656,56.8125 Q775.4656,53.6875 776.7781,52.0313 Q778.1063,50.375 780.6063,50.375 Q781.3094,50.375 781.95,50.5313 Q782.6063,50.6875 783.1688,50.9844 L783.1688,53.7031 Q782.5438,53.125 781.95,52.8594 Q781.3563,52.5781 780.7313,52.5781 Q779.3875,52.5781 778.7,53.6563 Q778.0125,54.7188 778.0125,56.8125 Q778.0125,58.9063 778.7,59.9844 Q779.3875,61.0469 780.7313,61.0469 Q781.3563,61.0469 781.95,60.7813 Q782.5438,60.5 783.1688,59.9219 L783.1688,62.6406 Z " fill="#000000"/><text fill="#000000" font-family="sans-serif" font-size="14" lengthAdjust="spacing" textLength="79.5977" x="794.2" y="61.8467">Flannel CNI</text><line style="stroke:#181818;stroke-width:0.5;" x1="766.2" x2="875.7977" y1="73" y2="73"/><line style="stroke:#181818;stroke-width:0.5;" x1="766.2" x2="875.7977" y1="81" y2="81"/></g><!--class MetalLB--><g class="entity" data-qualified-name="Networking.MetalLB" data-source-line="21" id="ent0015"><rect fill="#F1F1F1" height="48" rx="2.5" ry="2.5" style="stroke:#181818;stroke-width:0.5;" width="109.2119" x="911.39" y="41"/><ellipse cx="926.39" cy="57" fill="#ADD1B2" rx="11" ry="11" style="stroke:#181818;stroke-width:1;"/><path d="M929.3588,62.6406 Q928.7806,62.9375 928.14,63.0781 Q927.4994,63.2344 926.7963,63.2344 Q924.2963,63.2344 922.9681,61.5938 Q921.6556,59.9375 921.6556,56.8125 Q921.6556,53.6875 922.9681,52.0313 Q924.2963,50.375 926.7963,50.375 Q927.4994,50.375 928.14,50.5313 Q928.7963,50.6875 929.3588,50.9844 L929.3588,53.7031 Q928.7338,53.125 928.14,52.8594 Q927.5463,52.5781 926.9213,52.5781 Q925.5775,52.5781 924.89,53.6563 Q924.2025,54.7188 924.2025,56.8125 Q924.2025,58.9063 924.89,59.9844 Q925.5775,61.0469 926.9213,61.0469 Q927.5463,61.0469 928.14,60.7813 Q928.7338,60.5 929.3588,59.9219 L929.3588,62.6406 Z " fill="#000000"/><text fill="#000000" font-family="sans-serif" font-size="14" lengthAdjust="spacing" textLength="77.2119" x="940.39" y="61.8467">MetalLB L2</text><line style="stroke:#181818;stroke-width:0.5;" x1="912.39" x2="1019.6019" y1="73" y2="73"/><line style="stroke:#181818;stroke-width:0.5;" x1="912.39" x2="1019.6019" y1="81" y2="81"/></g><!--link APIServer to Etcd--><g class="link" data-entity-1="ent0003" data-entity-2="ent0006" data-link-type="association" data-source-line="8" id="lnk7"><path codeLine="8" d="M91,221.1 C91,271.33 91,390 91,440.35" fill="none" id="APIServer-Etcd" style="stroke:#181818;stroke-width:1;"/></g><!--link APIServer to Worker1--><g class="link" data-entity-1="ent0003" data-entity-2="ent0009" data-link-type="dependency" data-source-line="16" id="lnk11"><path codeLine="16" d="M165.6588,218.6215 C171.4488,219.9915 171.39,219.88 177,221 C359.48,257.33 411.93,229.16 592,276 C632.5,286.53 670.6761,301.2911 704.8661,316.1311" fill="none" id="APIServer-Worker1" style="stroke:#181818;stroke-width:1;"/><polygon fill="#181818" points="159.82,217.24,167.6571,223.2048,164.6856,218.3913,169.4992,215.4198,159.82,217.24" style="stroke:#181818;stroke-width:1;"/><polygon fill="#181818" points="710.37,318.52,703.7068,311.2673,705.7834,316.5292,700.5215,318.6059,710.37,318.52" style="stroke:#181818;stroke-width:1;"/><text fill="#000000" font-family="sans-serif" font-size="13" lengthAdjust="spacing" textLength="23.4355" x="552.1" y="264.0669">TLS</text></g><!--link APIServer to Worker2--><g class="link" data-entity-1="ent0003" data-entity-2="ent0010" data-link-type="dependency" data-source-line="17" id="lnk12"><path codeLine="17" d="M165.6095,218.9009 C171.4195,220.1809 171.36,220.05 177,221 C507.88,276.81 604.84,193.11 930,276 C966.99,285.42 1000.7355,300.4035 1030.6655,315.8135" fill="none" id="APIServer-Worker2" style="stroke:#181818;stroke-width:1;"/><polygon fill="#181818" points="159.75,217.61,167.6786,223.4527,164.6329,218.6858,169.3998,215.64,159.75,217.61" style="stroke:#181818;stroke-width:1;"/><polygon fill="#181818" points="1036,318.56,1029.8293,310.8839,1031.5546,316.2712,1026.1673,317.9965,1036,318.56" style="stroke:#181818;stroke-width:1;"/><text fill="#000000" font-family="sans-serif" font-size="13" lengthAdjust="spacing" textLength="23.4355" x="893.05" y="264.0669">TLS</text></g><!--link Flannel to Worker1--><g class="link" data-entity-1="ent0014" data-entity-2="ent0009" data-link-type="association" data-source-line="24" id="lnk16"><path codeLine="24" d="M816.91,89.5 C807.96,140.86 786.69,262.99 776.98,318.7" fill="none" id="Flannel-Worker1" style="stroke:#181818;stroke-width:1;"/></g><!--link Flannel to Worker2--><g class="link" data-entity-1="ent0014" data-entity-2="ent0010" data-link-type="association" data-source-line="25" id="lnk17"><path codeLine="25" d="M843.22,89.5 C891.79,140.86 1007.28,262.99 1059.96,318.7" fill="none" id="Flannel-Worker2" style="stroke:#181818;stroke-width:1;"/></g><!--link MetalLB to Worker1--><g class="link" data-entity-1="ent0015" data-entity-2="ent0009" data-link-type="association" data-source-line="26" id="lnk18"><path codeLine="26" d="M961.23,89.4 C952.12,129.48 929.12,212.32 885,268 C869,288.19 846.51,305.41 825.8,318.58" fill="none" id="MetalLB-Worker1" style="stroke:#181818;stroke-width:1;"/></g><!--link MetalLB to Worker2--><g class="link" data-entity-1="ent0015" data-entity-2="ent0010" data-link-type="association" data-source-line="27" id="lnk19"><path codeLine="27" d="M981.25,89.47 C988.63,101.35 997.31,116.15 1004,130 C1035.64,195.44 1063.82,276.28 1077.76,318.51" fill="none" id="MetalLB-Worker2" style="stroke:#181818;stroke-width:1;"/></g><?plantuml-src bL3BJiCm4BpxAvPSaG_r4I6a4WAg5AAALEB2PKcM4iNOaUto4EBVSHvkKoKzzERPcTcTyKL9RvKYU4hYpJ9xI1Ce95hBM8D5ZLk2ADRA6IrXBL5H1ByCHkAethqInwQoP3x9H80MbkjLtg4PfItUgTp9GPa7DACi-hEUv1-eV9BU4k_7zjX4hYWxHU8Vdjgd0CvvF_mRjRf3XoSgFMjJUrkcIuB5YshJI79m2LsknkZl7m_QVEX_plHNUzFYz2PntYRHfZrqkERy9jo0AzYa-Jmf1l9GD2FtvQbARIT5xtrzHHBYRDLT7l2nw94SolGMKj5f1jYc2_RsVqFzwKomi66icyu4-mS0?></g></svg>