<?plantuml 1.2026.2?><svg xmlns="http://www.w3.org/2000/svg" xmlns:xlink="http://www.w3.org/1999/xlink" contentStyleType="text/css" data-diagram-type="DESCRIPTION" height="572px" preserveAspectRatio="none" style="width:2047px;height:572px;background:#FFFFFF;" version="1.1" viewBox="0 0 2047 572" width="2047px" zoomAndPan="magnify"><defs/><g><!--cluster Control Plane--><g class="cluster" data-qualified-name="Control Plane" data-source-line="3" id="ent0002"><path d="M8.5,6 L116.2158,6 A3.75,3.75 0 0 1 118.7158,8.5 L125.7158,28.2969 L538.5,28.2969 A2.5,2.5 0 0 1 541,30.7969 L541,288.1 A2.5,2.5 0 0 1 538.5,290.6 L8.5,290.6 A2.5,2.5 0 0 1 6,288.1 L6,8.5 A2.5,2.5 0 0 1 8.5,6" fill="none" style="stroke:#000000;stroke-width:1.5;"/><line style="stroke:#000000;stroke-width:1.5;" x1="6" x2="125.7158" y1="28.2969" y2="28.2969"/><text fill="#000000" font-family="sans-serif" font-size="14" font-weight="bold" lengthAdjust="spacing" textLength="106.7158" x="10" y="20.9951">Control Plane</text></g><!--cluster Data Plane--><g class="cluster" data-qualified-name="Data Plane" data-source-line="10" id="ent0007"><path d="M567.5,150.3 L654.5508,150.3 A3.75,3.75 0 0 1 657.0508,152.8 L664.0508,172.5969 L1420.5,172.5969 A2.5,2.5 0 0 1 1423,175.0969 L1423,563.24 A2.5,2.5 0 0 1 1420.5,565.74 L567.5,565.74 A2.5,2.5 0 0 1 565,563.24 L565,152.8 A2.5,2.5 0 0 1 567.5,150.3" fill="none" style="stroke:#000000;stroke-width:1.5;"/><line style="stroke:#000000;stroke-width:1.5;" x1="565" x2="664.0508" y1="172.5969" y2="172.5969"/><text fill="#000000" font-family="sans-serif" font-size="14" font-weight="bold" lengthAdjust="spacing" textLength="86.0508" x="569" y="165.2951">Data Plane</text></g><!--cluster Worker Node 1--><g class="cluster" data-qualified-name="Data Plane.Worker Node 1" data-source-line="11" id="ent0008"><path d="M591.5,193.3 L710.5156,193.3 A3.75,3.75 0 0 1 713.0156,195.8 L720.0156,215.5969 L979.5,215.5969 A2.5,2.5 0 0 1 982,218.0969 L982,539.24 A2.5,2.5 0 0 1 979.5,541.74 L591.5,541.74 A2.5,2.5 0 0 1 589,539.24 L589,195.8 A2.5,2.5 0 0 1 591.5,193.3" fill="none" style="stroke:#000000;stroke-width:1.5;"/><line style="stroke:#000000;stroke-width:1.5;" x1="589" x2="720.0156" y1="215.5969" y2="215.5969"/><text fill="#000000" font-family="sans-serif" font-size="14" font-weight="bold" lengthAdjust="spacing" textLength="118.0156" x="593" y="208.2951">Worker Node 1</text></g><!--cluster Worker Node 2--><g class="cluster" data-qualified-name="Data Plane.Worker Node 2" data-source-line="19" id="ent0014"><path d="M1008.5,193.3 L1127.5156,193.3 A3.75,3.75 0 0 1 1130.0156,195.8 L1137.0156,215.5969 L1396.5,215.5969 A2.5,2.5 0 0 1 1399,218.0969 L1399,539.24 A2.5,2.5 0 0 1 1396.5,541.74 L1008.5,541.74 A2.5,2.5 0 0 1 1006,539.24 L1006,195.8 A2.5,2.5 0 0 1 1008.5,193.3" fill="none" style="stroke:#000000;stroke-width:1.5;"/><line style="stroke:#000000;stroke-width:1.5;" x1="1006" x2="1137.0156" y1="215.5969" y2="215.5969"/><text fill="#000000" font-family="sans-serif" font-size="14" font-weight="bold" lengthAdjust="spacing" textLength="118.0156" x="1010" y="208.2951">Worker Node 2</text></g><!--entity API--><g class="entity" data-qualified-name="Control Plane.API" data-source-line="4" id="ent0003"><rect fill="#F1F1F1" height="46.2969" rx="2.5" ry="2.5" style="stroke:#181818;stroke-width:0.5;" width="145.2051" x="351.4" y="41"/><rect fill="#F1F1F1" height="10" style="stroke:#181818;stroke-width:0.5;" width="15" x="476.6051" y="46"/><rect fill="#F1F1F1" height="2" style="stroke:#181818;stroke-width:0.5;" width="4" x="474.6051" y="48"/><rect fill="#F1F1F1" height="2" style="stroke:#181818;stroke-width:0.5;" width="4" x="474.6051" y="52"/><text fill="#000000" font-family="sans-serif" font-size="14" lengthAdjust="spacing" textLength="105.2051" x="366.4" y="73.9951">kube-apiserver</text></g><!--entity ETCD--><g class="entity" data-qualified-name="Control Plane.ETCD" data-source-line="5" id="ent0004"><rect fill="#F1F1F1" height="46.2969" rx="2.5" ry="2.5" style="stroke:#181818;stroke-width:0.5;" width="70.6865" x="454.66" y="228.3"/><rect fill="#F1F1F1" height="10" style="stroke:#181818;stroke-width:0.5;" width="15" x="505.3465" y="233.3"/><rect fill="#F1F1F1" height="2" style="stroke:#181818;stroke-width:0.5;" width="4" x="503.3465" y="235.3"/><rect fill="#F1F1F1" height="2" style="stroke:#181818;stroke-width:0.5;" width="4" x="503.3465" y="239.3"/><text fill="#000000" font-family="sans-serif" font-size="14" lengthAdjust="spacing" textLength="30.6865" x="469.66" y="261.2951">etcd</text></g><!--entity SCHED--><g class="entity" data-qualified-name="Control Plane.SCHED" data-source-line="6" id="ent0005"><rect fill="#F1F1F1" height="46.2969" rx="2.5" ry="2.5" style="stroke:#181818;stroke-width:0.5;" width="148.0283" x="21.99" y="228.3"/><rect fill="#F1F1F1" height="10" style="stroke:#181818;stroke-width:0.5;" width="15" x="150.0183" y="233.3"/><rect fill="#F1F1F1" height="2" style="stroke:#181818;stroke-width:0.5;" width="4" x="148.0183" y="235.3"/><rect fill="#F1F1F1" height="2" style="stroke:#181818;stroke-width:0.5;" width="4" x="148.0183" y="239.3"/><text fill="#000000" font-family="sans-serif" font-size="14" lengthAdjust="spacing" textLength="108.0283" x="36.99" y="261.2951">kube-scheduler</text></g><!--entity CTRL--><g class="entity" data-qualified-name="Control Plane.CTRL" data-source-line="7" id="ent0006"><rect fill="#F1F1F1" height="46.2969" rx="2.5" ry="2.5" style="stroke:#181818;stroke-width:0.5;" width="214.6035" x="204.7" y="228.3"/><rect fill="#F1F1F1" height="10" style="stroke:#181818;stroke-width:0.5;" width="15" x="399.3035" y="233.3"/><rect fill="#F1F1F1" height="2" style="stroke:#181818;stroke-width:0.5;" width="4" x="397.3035" y="235.3"/><rect fill="#F1F1F1" height="2" style="stroke:#181818;stroke-width:0.5;" width="4" x="397.3035" y="239.3"/><text fill="#000000" font-family="sans-serif" font-size="14" lengthAdjust="spacing" textLength="174.6035" x="219.7" y="261.2951">kube-controller-manager</text></g><!--entity KL1--><g class="entity" data-qualified-name="Data Plane.Worker Node 1.KL1" data-source-line="12" id="ent0009"><rect fill="#F1F1F1" height="46.2969" rx="2.5" ry="2.5" style="stroke:#181818;stroke-width:0.5;" width="92.4727" x="610.76" y="228.3"/><rect fill="#F1F1F1" height="10" style="stroke:#181818;stroke-width:0.5;" width="15" x="683.2327" y="233.3"/><rect fill="#F1F1F1" height="2" style="stroke:#181818;stroke-width:0.5;" width="4" x="681.2327" y="235.3"/><rect fill="#F1F1F1" height="2" style="stroke:#181818;stroke-width:0.5;" width="4" x="681.2327" y="239.3"/><text fill="#000000" font-family="sans-serif" font-size="14" lengthAdjust="spacing" textLength="52.4727" x="625.76" y="261.2951">kubelet</text></g><!--entity KP1--><g class="entity" data-qualified-name="Data Plane.Worker Node 1.KP1" data-source-line="13" id="ent0010"><rect fill="#F1F1F1" height="46.2969" rx="2.5" ry="2.5" style="stroke:#181818;stroke-width:0.5;" width="119.3105" x="824.34" y="356.15"/><rect fill="#F1F1F1" height="10" style="stroke:#181818;stroke-width:0.5;" width="15" x="923.6505" y="361.15"/><rect fill="#F1F1F1" height="2" style="stroke:#181818;stroke-width:0.5;" width="4" x="921.6505" y="363.15"/><rect fill="#F1F1F1" height="2" style="stroke:#181818;stroke-width:0.5;" width="4" x="921.6505" y="367.15"/><text fill="#000000" font-family="sans-serif" font-size="14" lengthAdjust="spacing" textLength="79.3105" x="839.34" y="389.1451">kube-proxy</text></g><!--entity CR1--><g class="entity" data-qualified-name="Data Plane.Worker Node 1.CR1" data-source-line="14" id="ent0011"><rect fill="#F1F1F1" height="46.2969" rx="2.5" ry="2.5" style="stroke:#181818;stroke-width:0.5;" width="115.2227" x="605.39" y="356.15"/><rect fill="#F1F1F1" height="10" style="stroke:#181818;stroke-width:0.5;" width="15" x="700.6127" y="361.15"/><rect fill="#F1F1F1" height="2" style="stroke:#181818;stroke-width:0.5;" width="4" x="698.6127" y="363.15"/><rect fill="#F1F1F1" height="2" style="stroke:#181818;stroke-width:0.5;" width="4" x="698.6127" y="367.15"/><text fill="#000000" font-family="sans-serif" font-size="14" lengthAdjust="spacing" textLength="75.2227" x="620.39" y="389.1451">containerd</text></g><!--entity P1--><g class="entity" data-qualified-name="Data Plane.Worker Node 1.P1" data-source-line="15" id="ent0012"><rect fill="#F1F1F1" height="46.2969" rx="2.5" ry="2.5" style="stroke:#181818;stroke-width:0.5;" width="79.252" x="688.37" y="479.44"/><rect fill="#F1F1F1" height="10" style="stroke:#181818;stroke-width:0.5;" width="15" x="747.622" y="484.44"/><rect fill="#F1F1F1" height="2" style="stroke:#181818;stroke-width:0.5;" width="4" x="745.622" y="486.44"/><rect fill="#F1F1F1" height="2" style="stroke:#181818;stroke-width:0.5;" width="4" x="745.622" y="490.44"/><text fill="#000000" font-family="sans-serif" font-size="14" lengthAdjust="spacing" textLength="39.252" x="703.37" y="512.4351">Pod 1</text></g><!--entity P2--><g class="entity" data-qualified-name="Data Plane.Worker Node 1.P2" data-source-line="16" id="ent0013"><rect fill="#F1F1F1" height="46.2969" rx="2.5" ry="2.5" style="stroke:#181818;stroke-width:0.5;" width="79.252" x="844.37" y="479.44"/><rect fill="#F1F1F1" height="10" style="stroke:#181818;stroke-width:0.5;" width="15" x="903.622" y="484.44"/><rect fill="#F1F1F1" height="2" style="stroke:#181818;stroke-width:0.5;" width="4" x="901.622" y="486.44"/><rect fill="#F1F1F1" height="2" style="stroke:#181818;stroke-width:0.5;" width="4" x="901.622" y="490.44"/><text fill="#000000" font-family="sans-serif" font-size="14" lengthAdjust="spacing" textLength="39.252" x="859.37" y="512.4351">Pod 2</text></g><!--entity KL2--><g class="entity" data-qualified-name="Data Plane.Worker Node 2.KL2" data-source-line="20" id="ent0015"><rect fill="#F1F1F1" height="46.2969" rx="2.5" ry="2.5" style="stroke:#181818;stroke-width:0.5;" width="92.4727" x="1027.76" y="228.3"/><rect fill="#F1F1F1" height="10" style="stroke:#181818;stroke-width:0.5;" width="15" x="1100.2327" y="233.3"/><rect fill="#F1F1F1" height="2" style="stroke:#181818;stroke-width:0.5;" width="4" x="1098.2327" y="235.3"/><rect fill="#F1F1F1" height="2" style="stroke:#181818;stroke-width:0.5;" width="4" x="1098.2327" y="239.3"/><text fill="#000000" font-family="sans-serif" font-size="14" lengthAdjust="spacing" textLength="52.4727" x="1042.76" y="261.2951">kubelet</text></g><!--entity KP2--><g class="entity" data-qualified-name="Data Plane.Worker Node 2.KP2" data-source-line="21" id="ent0016"><rect fill="#F1F1F1" height="46.2969" rx="2.5" ry="2.5" style="stroke:#181818;stroke-width:0.5;" width="119.3105" x="1241.34" y="356.15"/><rect fill="#F1F1F1" height="10" style="stroke:#181818;stroke-width:0.5;" width="15" x="1340.6505" y="361.15"/><rect fill="#F1F1F1" height="2" style="stroke:#181818;stroke-width:0.5;" width="4" x="1338.6505" y="363.15"/><rect fill="#F1F1F1" height="2" style="stroke:#181818;stroke-width:0.5;" width="4" x="1338.6505" y="367.15"/><text fill="#000000" font-family="sans-serif" font-size="14" lengthAdjust="spacing" textLength="79.3105" x="1256.34" y="389.1451">kube-proxy</text></g><!--entity CR2--><g class="entity" data-qualified-name="Data Plane.Worker Node 2.CR2" data-source-line="22" id="ent0017"><rect fill="#F1F1F1" height="46.2969" rx="2.5" ry="2.5" style="stroke:#181818;stroke-width:0.5;" width="115.2227" x="1022.39" y="356.15"/><rect fill="#F1F1F1" height="10" style="stroke:#181818;stroke-width:0.5;" width="15" x="1117.6127" y="361.15"/><rect fill="#F1F1F1" height="2" style="stroke:#181818;stroke-width:0.5;" width="4" x="1115.6127" y="363.15"/><rect fill="#F1F1F1" height="2" style="stroke:#181818;stroke-width:0.5;" width="4" x="1115.6127" y="367.15"/><text fill="#000000" font-family="sans-serif" font-size="14" lengthAdjust="spacing" textLength="75.2227" x="1037.39" y="389.1451">containerd</text></g><!--entity P3--><g class="entity" data-qualified-name="Data Plane.Worker Node 2.P3" data-source-line="23" id="ent0018"><rect fill="#F1F1F1" height="46.2969" rx="2.5" ry="2.5" style="stroke:#181818;stroke-width:0.5;" width="79.252" x="1105.37" y="479.44"/><rect fill="#F1F1F1" height="10" style="stroke:#181818;stroke-width:0.5;" width="15" x="1164.622" y="484.44"/><rect fill="#F1F1F1" height="2" style="stroke:#181818;stroke-width:0.5;" width="4" x="1162.622" y="486.44"/><rect fill="#F1F1F1" height="2" style="stroke:#181818;stroke-width:0.5;" width="4" x="1162.622" y="490.44"/><text fill="#000000" font-family="sans-serif" font-size="14" lengthAdjust="spacing" textLength="39.252" x="1120.37" y="512.4351">Pod 3</text></g><!--entity P4--><g class="entity" data-qualified-name="Data Plane.Worker Node 2.P4" data-source-line="24" id="ent0019"><rect fill="#F1F1F1" height="46.2969" rx="2.5" ry="2.5" style="stroke:#181818;stroke-width:0.5;" width="79.252" x="1261.37" y="479.44"/><rect fill="#F1F1F1" height="10" style="stroke:#181818;stroke-width:0.5;" width="15" x="1320.622" y="484.44"/><rect fill="#F1F1F1" height="2" style="stroke:#181818;stroke-width:0.5;" width="4" x="1318.622" y="486.44"/><rect fill="#F1F1F1" height="2" style="stroke:#181818;stroke-width:0.5;" width="4" x="1318.622" y="490.44"/><text fill="#000000" font-family="sans-serif" font-size="14" lengthAdjust="spacing" textLength="39.252" x="1276.37" y="512.4351">Pod 4</text></g><g class="entity" data-qualified-name="GMN35" data-source-line="45" id="ent0036"><path d="M557.08,44.02 L557.08,60.15 L496.82,64.15 L557.08,68.15 L557.08,84.2856 A0,0 0 0 0 557.08,84.2856 L768.9286,84.2856 A0,0 0 0 0 768.9286,84.2856 L768.9286,54.02 L758.9286,44.02 L557.08,44.02 A0,0 0 0 0 557.08,44.02" fill="#FEFFDD" style="stroke:#181818;stroke-width:0.5;"/><path d="M758.9286,44.02 L758.9286,54.02 L768.9286,54.02 L758.9286,44.02" fill="#FEFFDD" style="stroke:#181818;stroke-width:0.5;"/><text fill="#000000" font-family="sans-serif" font-size="13" lengthAdjust="spacing" textLength="190.8486" x="563.08" y="61.0869">"&#1045;&#1076;&#1080;&#1085;&#1089;&#1090;&#1074;&#1077;&#1085;&#1085;&#1072;&#1103; &#1090;&#1086;&#1095;&#1082;&#1072; &#1074;&#1093;&#1086;&#1076;&#1072;</text><text fill="#000000" font-family="sans-serif" font-size="13" lengthAdjust="spacing" textLength="136.2778" x="563.08" y="76.2197">&#1076;&#1083;&#1103; &#1074;&#1089;&#1077;&#1093; &#1086;&#1087;&#1077;&#1088;&#1072;&#1094;&#1080;&#1081;"</text></g><g class="entity" data-qualified-name="GMN38" data-source-line="46" id="ent0039"><path d="M1875.73,231.31 L1875.73,271.5756 L2040.2696,271.5756 L2040.2696,241.31 L2030.2696,231.31 L1875.73,231.31" fill="#FEFFDD" style="stroke:#181818;stroke-width:0.5;"/><path d="M2030.2696,231.31 L2030.2696,241.31 L2040.2696,241.31 L2030.2696,231.31" fill="#FEFFDD" style="stroke:#181818;stroke-width:1;"/><text fill="#000000" font-family="sans-serif" font-size="13" lengthAdjust="spacing" textLength="142.9683" x="1881.73" y="248.3769">"&#1056;&#1072;&#1089;&#1087;&#1088;&#1077;&#1076;&#1077;&#1083;&#1077;&#1085;&#1085;&#1072;&#1103; &#1041;&#1044;</text><text fill="#000000" font-family="sans-serif" font-size="13" lengthAdjust="spacing" textLength="143.5396" x="1881.73" y="263.5097">&#1089;&#1086;&#1089;&#1090;&#1086;&#1103;&#1085;&#1080;&#1103; &#1082;&#1083;&#1072;&#1089;&#1090;&#1077;&#1088;&#1072;"</text></g><g class="entity" data-qualified-name="GMN41" data-source-line="47" id="ent0042"><path d="M1439.21,231.31 L1439.21,271.5756 L1606.7901,271.5756 L1606.7901,241.31 L1596.7901,231.31 L1439.21,231.31" fill="#FEFFDD" style="stroke:#181818;stroke-width:0.5;"/><path d="M1596.7901,231.31 L1596.7901,241.31 L1606.7901,241.31 L1596.7901,231.31" fill="#FEFFDD" style="stroke:#181818;stroke-width:1;"/><text fill="#000000" font-family="sans-serif" font-size="13" lengthAdjust="spacing" textLength="146.5801" x="1445.21" y="248.3769">"&#1055;&#1083;&#1072;&#1085;&#1080;&#1088;&#1086;&#1074;&#1097;&#1080;&#1082; &#1087;&#1086;&#1076;&#1086;&#1074;</text><text fill="#000000" font-family="sans-serif" font-size="13" lengthAdjust="spacing" textLength="67.2534" x="1445.21" y="263.5097">&#1087;&#1086; &#1091;&#1079;&#1083;&#1072;&#1084;"</text></g><g class="entity" data-qualified-name="GMN44" data-source-line="48" id="ent0045"><path d="M1641.51,223.75 L1641.51,279.1484 L1840.4856,279.1484 L1840.4856,233.75 L1830.4856,223.75 L1641.51,223.75" fill="#FEFFDD" style="stroke:#181818;stroke-width:0.5;"/><path d="M1830.4856,223.75 L1830.4856,233.75 L1840.4856,233.75 L1830.4856,223.75" fill="#FEFFDD" style="stroke:#181818;stroke-width:1;"/><text fill="#000000" font-family="sans-serif" font-size="13" lengthAdjust="spacing" textLength="127.8228" x="1647.51" y="240.8169">"&#1050;&#1086;&#1085;&#1090;&#1088;&#1086;&#1083;&#1083;&#1077;&#1088;&#1099; &#1076;&#1083;&#1103;</text><text fill="#000000" font-family="sans-serif" font-size="13" lengthAdjust="spacing" textLength="177.9756" x="1647.51" y="255.9497">&#1087;&#1088;&#1080;&#1074;&#1077;&#1076;&#1077;&#1085;&#1080;&#1103; &#1082; &#1078;&#1077;&#1083;&#1072;&#1077;&#1084;&#1086;&#1084;&#1091;</text><text fill="#000000" font-family="sans-serif" font-size="13" lengthAdjust="spacing" textLength="79.4663" x="1647.51" y="271.0825">&#1089;&#1086;&#1089;&#1090;&#1086;&#1103;&#1085;&#1080;&#1102;"</text></g><!--link API to ETCD--><g class="link" data-entity-1="ent0003" data-entity-2="ent0004" data-link-type="dependency" data-source-line="29" id="lnk20"><path d="M429.3157,93.4196 C432.0957,107.0896 434.97,118.96 440,134.3 C451.02,167.88 465.3563,199.7496 476.4063,222.7996" fill="none" id="API-ETCD" style="stroke:#181818;stroke-width:1;"/><polygon fill="#181818" points="428.12,87.54,425.9938,97.1566,429.1164,92.4397,433.8333,95.5623,428.12,87.54" style="stroke:#181818;stroke-width:1;"/><polygon fill="#181818" points="479,228.21,478.7164,218.3652,476.8386,223.7013,471.5025,221.8235,479,228.21" style="stroke:#181818;stroke-width:1;"/><text fill="#000000" font-family="sans-serif" font-size="13" lengthAdjust="spacing" textLength="123.1064" x="441" y="130.3669">&#1093;&#1088;&#1072;&#1085;&#1080;&#1090; &#1089;&#1086;&#1089;&#1090;&#1086;&#1103;&#1085;&#1080;&#1077;</text></g><!--link API to SCHED--><g class="link" data-entity-1="ent0003" data-entity-2="ent0005" data-link-type="dependency" data-source-line="30" id="lnk21"><path d="M345.3425,76.3742 C304.3225,84.0542 258.95,95.95 217,117.3 C167.45,142.52 131.4853,191.949 112.2253,222.829" fill="none" id="API-SCHED" style="stroke:#181818;stroke-width:1;"/><polygon fill="#181818" points="351.24,75.27,341.6576,72.9946,346.3254,76.1901,343.1298,80.8579,351.24,75.27" style="stroke:#181818;stroke-width:1;"/><polygon fill="#181818" points="109.05,227.92,117.2068,222.4004,111.696,223.6775,110.4189,218.1667,109.05,227.92" style="stroke:#181818;stroke-width:1;"/><text fill="#000000" font-family="sans-serif" font-size="13" lengthAdjust="spacing" textLength="98.5029" x="218" y="130.3669">&#1087;&#1083;&#1072;&#1085;&#1080;&#1088;&#1086;&#1074;&#1072;&#1085;&#1080;&#1077;</text></g><!--link API to CTRL--><g class="link" data-entity-1="ent0003" data-entity-2="ent0006" data-link-type="dependency" data-source-line="31" id="lnk22"><path d="M362.294,90.8585 C349.524,98.4585 342.42,105.12 334,117.3 C310.96,150.64 308.7644,193.735 309.9244,222.055" fill="none" id="API-CTRL" style="stroke:#181818;stroke-width:1;"/><polygon fill="#181818" points="367.45,87.79,357.6703,88.9555,363.1534,90.3471,361.7617,95.8301,367.45,87.79" style="stroke:#181818;stroke-width:1;"/><polygon fill="#181818" points="310.17,228.05,313.7983,218.8938,309.9654,223.0542,305.805,219.2212,310.17,228.05" style="stroke:#181818;stroke-width:1;"/><text fill="#000000" font-family="sans-serif" font-size="13" lengthAdjust="spacing" textLength="91.2158" x="335" y="130.3669">&#1082;&#1086;&#1085;&#1090;&#1088;&#1086;&#1083;&#1083;&#1077;&#1088;&#1099;</text></g><!--link API to KL1--><g class="link" data-entity-1="ent0003" data-entity-2="ent0009" data-link-type="dependency" data-source-line="32" id="lnk23"><path d="M502.5599,83.1931 C527.2199,91.1531 548.07,100.85 569,117.3 C607.13,147.26 631.77,193.0165 645.12,222.4265" fill="none" id="API-KL1" style="stroke:#181818;stroke-width:1;"/><polygon fill="#181818" points="496.85,81.35,504.1861,87.9213,501.6083,82.8859,506.6436,80.308,496.85,81.35" style="stroke:#181818;stroke-width:1;"/><polygon fill="#181818" points="647.6,227.89,647.5223,218.0414,645.5333,223.3371,640.2377,221.3481,647.6,227.89" style="stroke:#181818;stroke-width:1;"/><text fill="#000000" font-family="sans-serif" font-size="13" lengthAdjust="spacing" textLength="23.4355" x="586.02" y="130.3669">TLS</text></g><!--link API to KL2--><g class="link" data-entity-1="ent0003" data-entity-2="ent0015" data-link-type="dependency" data-source-line="33" id="lnk24"><path d="M502.7891,80.9155 C517.0591,83.5655 526.03,85.1 540,87.3 C735.55,118.1 807.79,48.29 982,142.3 C1018.44,161.97 1043.6202,197.2388 1058.7202,222.7088" fill="none" id="API-KL2" style="stroke:#181818;stroke-width:1;"/><polygon fill="#181818" points="496.89,79.82,505.0084,85.396,501.806,80.7329,506.469,77.5305,496.89,79.82" style="stroke:#181818;stroke-width:1;"/><polygon fill="#181818" points="1061.78,227.87,1060.631,218.0884,1059.2302,223.569,1053.7495,222.1681,1061.78,227.87" style="stroke:#181818;stroke-width:1;"/><text fill="#000000" font-family="sans-serif" font-size="13" lengthAdjust="spacing" textLength="23.4355" x="962.57" y="130.3669">TLS</text></g><!--link KL1 to CR1--><g class="link" data-entity-1="ent0009" data-entity-2="ent0011" data-link-type="dependency" data-source-line="34" id="lnk25"><path d="M658.3553,280.9432 C659.4453,303.8432 660.564,327.1568 661.654,349.9968" fill="none" id="KL1-CR1" style="stroke:#181818;stroke-width:1;"/><polygon fill="#181818" points="658.07,274.95,654.5024,284.13,658.3077,279.9443,662.4934,283.7496,658.07,274.95" style="stroke:#181818;stroke-width:1;"/><polygon fill="#181818" points="661.94,355.99,665.5064,346.8096,661.7017,350.9957,657.5155,347.1909,661.94,355.99" style="stroke:#181818;stroke-width:1;"/><text fill="#000000" font-family="sans-serif" font-size="13" lengthAdjust="spacing" textLength="71.7729" x="661.36" y="322.2169">&#1091;&#1087;&#1088;&#1072;&#1074;&#1083;&#1103;&#1077;&#1090;</text></g><!--link KL2 to CR2--><g class="link" data-entity-1="ent0015" data-entity-2="ent0017" data-link-type="dependency" data-source-line="35" id="lnk26"><path d="M1075.3553,280.9432 C1076.4453,303.8432 1077.564,327.1568 1078.654,349.9968" fill="none" id="KL2-CR2" style="stroke:#181818;stroke-width:1;"/><polygon fill="#181818" points="1075.07,274.95,1071.5024,284.13,1075.3077,279.9443,1079.4934,283.7496,1075.07,274.95" style="stroke:#181818;stroke-width:1;"/><polygon fill="#181818" points="1078.94,355.99,1082.5064,346.8096,1078.7017,350.9957,1074.5155,347.1909,1078.94,355.99" style="stroke:#181818;stroke-width:1;"/><text fill="#000000" font-family="sans-serif" font-size="13" lengthAdjust="spacing" textLength="71.7729" x="1078.36" y="322.2169">&#1091;&#1087;&#1088;&#1072;&#1074;&#1083;&#1103;&#1077;&#1090;</text></g><!--link CR1 to P1--><g class="link" data-entity-1="ent0011" data-entity-2="ent0012" data-link-type="dependency" data-source-line="36" id="lnk27"><path d="M641.3893,407.9895 C632.4493,421.9195 628.51,434.8 637,449.44 C648.05,468.51 663.4581,478.853 682.4681,486.933" fill="none" id="CR1-P1" style="stroke:#181818;stroke-width:1;"/><polygon fill="#181818" points="644.63,402.94,636.4026,408.3538,641.9294,407.148,643.1353,412.6748,644.63,402.94" style="stroke:#181818;stroke-width:1;"/><polygon fill="#181818" points="687.99,489.28,681.2718,482.0782,683.3884,487.3241,678.1425,489.4407,687.99,489.28" style="stroke:#181818;stroke-width:1;"/><text fill="#000000" font-family="sans-serif" font-size="13" lengthAdjust="spacing" textLength="69.6084" x="638" y="445.5069">&#1079;&#1072;&#1087;&#1091;&#1089;&#1082;&#1072;&#1077;&#1090;</text></g><!--link CR1 to P2--><g class="link" data-entity-1="ent0011" data-entity-2="ent0013" data-link-type="dependency" data-source-line="37" id="lnk28"><path d="M689.4088,407.0547 C704.8288,421.8547 722.16,436.6 744,449.44 C775.64,468.05 809.3277,480.2805 838.2777,489.0505" fill="none" id="CR1-P2" style="stroke:#181818;stroke-width:1;"/><polygon fill="#181818" points="685.08,402.9,688.8033,412.0179,688.6873,406.3623,694.343,406.2462,685.08,402.9" style="stroke:#181818;stroke-width:1;"/><polygon fill="#181818" points="844.02,490.79,836.5663,484.3525,839.2348,489.3404,834.2469,492.0089,844.02,490.79" style="stroke:#181818;stroke-width:1;"/><text fill="#000000" font-family="sans-serif" font-size="13" lengthAdjust="spacing" textLength="69.6084" x="745" y="445.5069">&#1079;&#1072;&#1087;&#1091;&#1089;&#1082;&#1072;&#1077;&#1090;</text></g><!--link CR2 to P3--><g class="link" data-entity-1="ent0017" data-entity-2="ent0018" data-link-type="dependency" data-source-line="38" id="lnk29"><path d="M1058.3893,407.9895 C1049.4493,421.9195 1045.51,434.8 1054,449.44 C1065.05,468.51 1080.4581,478.853 1099.4681,486.933" fill="none" id="CR2-P3" style="stroke:#181818;stroke-width:1;"/><polygon fill="#181818" points="1061.63,402.94,1053.4026,408.3538,1058.9294,407.148,1060.1353,412.6748,1061.63,402.94" style="stroke:#181818;stroke-width:1;"/><polygon fill="#181818" points="1104.99,489.28,1098.2718,482.0782,1100.3884,487.3241,1095.1425,489.4407,1104.99,489.28" style="stroke:#181818;stroke-width:1;"/><text fill="#000000" font-family="sans-serif" font-size="13" lengthAdjust="spacing" textLength="69.6084" x="1055" y="445.5069">&#1079;&#1072;&#1087;&#1091;&#1089;&#1082;&#1072;&#1077;&#1090;</text></g><!--link CR2 to P4--><g class="link" data-entity-1="ent0017" data-entity-2="ent0019" data-link-type="dependency" data-source-line="39" id="lnk30"><path d="M1106.4088,407.0547 C1121.8288,421.8547 1139.16,436.6 1161,449.44 C1192.64,468.05 1226.3277,480.2805 1255.2777,489.0505" fill="none" id="CR2-P4" style="stroke:#181818;stroke-width:1;"/><polygon fill="#181818" points="1102.08,402.9,1105.8033,412.0179,1105.6873,406.3623,1111.343,406.2462,1102.08,402.9" style="stroke:#181818;stroke-width:1;"/><polygon fill="#181818" points="1261.02,490.79,1253.5663,484.3525,1256.2348,489.3404,1251.2469,492.0089,1261.02,490.79" style="stroke:#181818;stroke-width:1;"/><text fill="#000000" font-family="sans-serif" font-size="13" lengthAdjust="spacing" textLength="69.6084" x="1162" y="445.5069">&#1079;&#1072;&#1087;&#1091;&#1089;&#1082;&#1072;&#1077;&#1090;</text></g><!--link KP1 to P1--><g class="link" data-entity-1="ent0010" data-entity-2="ent0012" data-link-type="dependency" data-source-line="40" id="lnk31"><path d="M863.8512,407.3764 C852.4412,421.8864 840,435.84 823,449.44 C806.25,462.85 790.9351,471.9438 773.1651,480.9238" fill="none" id="KP1-P1" style="stroke:#181818;stroke-width:1;"/><polygon fill="#181818" points="867.56,402.66,858.8525,407.2621,864.4693,406.5904,865.1411,412.2072,867.56,402.66" style="stroke:#181818;stroke-width:1;"/><polygon fill="#181818" points="767.81,483.63,777.6467,483.1408,772.2726,481.3749,774.0385,476.0007,767.81,483.63" style="stroke:#181818;stroke-width:1;"/><text fill="#000000" font-family="sans-serif" font-size="13" lengthAdjust="spacing" textLength="30.3799" x="840.84" y="445.5069">&#1089;&#1077;&#1090;&#1100;</text></g><!--link KP1 to P2--><g class="link" data-entity-1="ent0010" data-entity-2="ent0013" data-link-type="dependency" data-source-line="41" id="lnk32"><path d="M891.13,408.5707 C893.21,417.7207 893.97,422.6 895,432.44 C896.64,448.16 895.1721,459.9137 891.9521,473.4137" fill="none" id="KP1-P2" style="stroke:#181818;stroke-width:1;"/><polygon fill="#181818" points="889.8,402.72,887.8945,412.3828,890.9083,407.5956,895.6955,410.6094,889.8,402.72" style="stroke:#181818;stroke-width:1;"/><polygon fill="#181818" points="890.56,479.25,896.5389,471.4236,891.7201,474.3864,888.7572,469.5675,890.56,479.25" style="stroke:#181818;stroke-width:1;"/><text fill="#000000" font-family="sans-serif" font-size="13" lengthAdjust="spacing" textLength="30.3799" x="896.48" y="445.5069">&#1089;&#1077;&#1090;&#1100;</text></g><!--link KP2 to P3--><g class="link" data-entity-1="ent0016" data-entity-2="ent0018" data-link-type="dependency" data-source-line="42" id="lnk33"><path d="M1280.8512,407.3764 C1269.4412,421.8864 1257,435.84 1240,449.44 C1223.25,462.85 1207.9351,471.9438 1190.1651,480.9238" fill="none" id="KP2-P3" style="stroke:#181818;stroke-width:1;"/><polygon fill="#181818" points="1284.56,402.66,1275.8525,407.2621,1281.4693,406.5904,1282.1411,412.2072,1284.56,402.66" style="stroke:#181818;stroke-width:1;"/><polygon fill="#181818" points="1184.81,483.63,1194.6467,483.1408,1189.2726,481.3749,1191.0385,476.0007,1184.81,483.63" style="stroke:#181818;stroke-width:1;"/><text fill="#000000" font-family="sans-serif" font-size="13" lengthAdjust="spacing" textLength="30.3799" x="1257.84" y="445.5069">&#1089;&#1077;&#1090;&#1100;</text></g><!--link KP2 to P4--><g class="link" data-entity-1="ent0016" data-entity-2="ent0019" data-link-type="dependency" data-source-line="43" id="lnk34"><path d="M1308.13,408.5707 C1310.21,417.7207 1310.97,422.6 1312,432.44 C1313.64,448.16 1312.1721,459.9137 1308.9521,473.4137" fill="none" id="KP2-P4" style="stroke:#181818;stroke-width:1;"/><polygon fill="#181818" points="1306.8,402.72,1304.8945,412.3828,1307.9083,407.5956,1312.6955,410.6094,1306.8,402.72" style="stroke:#181818;stroke-width:1;"/><polygon fill="#181818" points="1307.56,479.25,1313.5389,471.4236,1308.7201,474.3864,1305.7572,469.5675,1307.56,479.25" style="stroke:#181818;stroke-width:1;"/><text fill="#000000" font-family="sans-serif" font-size="13" lengthAdjust="spacing" textLength="30.3799" x="1313.48" y="445.5069">&#1089;&#1077;&#1090;&#1100;</text></g><!--link ETCD to GMN38--><g class="link" data-entity-1="ent0004" data-entity-2="ent0039" data-link-type="association" data-source-line="46" id="lnk40"><path d="M501.67,227.87 C519.27,195.35 555.97,138.12 606.5,114.8 C668.75,86.07 1778.19,86.2 1840.5,114.8 C1892.96,138.88 1930.84,199.23 1947.9,231.06" fill="none" id="ETCD-GMN38" style="stroke:#181818;stroke-width:1;stroke-dasharray:7,7;"/></g><!--link SCHED to GMN41--><g class="link" data-entity-1="ent0005" data-entity-2="ent0042" data-link-type="association" data-source-line="47" id="lnk43"><path d="M106.42,227.92 C122.27,195.47 155.81,138.31 204.5,114.8 C263.38,86.36 1320.87,90.3 1381.5,114.8 C1439.92,138.4 1487.63,198.96 1509.72,230.95" fill="none" id="SCHED-GMN41" style="stroke:#181818;stroke-width:1;stroke-dasharray:7,7;"/></g><!--link CTRL to GMN44--><g class="link" data-entity-1="ent0006" data-entity-2="ent0045" data-link-type="association" data-source-line="48" id="lnk46"><path d="M327.47,228.01 C350.59,195.37 397.57,137.68 454.5,114.8 C513.88,90.93 1547.47,90.07 1606.5,114.8 C1659,136.79 1701.38,190.37 1723.73,223.53" fill="none" id="CTRL-GMN44" style="stroke:#181818;stroke-width:1;stroke-dasharray:7,7;"/></g><?plantuml-src XLDDYzDG5DtdLropSTL5NxiI4OPCKR4CeLDmuRY8wPkPqfYK92EA3FI3Ag8u2Bfnep-XbCOP-p7z2-_z8--xBzEaeK5AGthEkVUUzyxjlGu_xVeSMWshVN3qkDa0rtEYo33wZjjppZYOLk37OU21xJa-D-6z0V2YT_6ALvn-D-BX6nw-12U20_kfOdZiTkXtesqTRgMHUyux5rugFRQUD3BErVsHhBnsV1ofHLQxrJGkSpuEdTZ9czWIpuEmnqCu2ZeSgffBUtiyfbxFcjKChFJ3uEqxZTifhZmuU0sXzcwrKjmEEb0boCuXJ2CCaKlybdbX9LvOYHTMueLbasjwSYr3wXgfanUyhlk0UVdSZRk17naO2ZoiL1vH6l00J3cH0p4LQt4ZHo27ubOEvGYVLmeIYPbLK4YgH6p4CYqPY5inq-yxMfKLIHSeMCiH2PVuIUH0Viu9CGYbQpUFTq2s1PL0jsoHKex5XXpFn19D9dAaDEnEmyeqgfmqDhKHrqXlv1XFlC2tWeILIz99Tkt_adgP1BSixmKfXEMNFC6AnCxSVKHzbp3y8EOGTi_EOmXErP-HtFmGSungJI7FH8B1hSLKNW5b_b5P136J4qnhBgOdFZxn1XMa6ay0yOtA46i-O9-_Pc7CtLQ9twWOKWe9zaXKyjjPufluVk8NTqqH2xLO1DACOlTi0t_jRg3yX6OMWDwKRmJGERu3Bi8rALV5Lji5_RblGK6VMtL1uePkQaudq3P1_A4pOPvYXOKhETvpeA_cFm00?></g></svg>