<?plantuml 1.2026.2?><svg xmlns="http://www.w3.org/2000/svg" xmlns:xlink="http://www.w3.org/1999/xlink" contentStyleType="text/css" data-diagram-type="DESCRIPTION" height="593px" preserveAspectRatio="none" style="width:2042px;height:593px;background:#FFFFFF;" version="1.1" viewBox="0 0 2042 593" width="2042px" zoomAndPan="magnify"><defs/><g><!--cluster Kubernetes Cluster--><g class="cluster" data-qualified-name="Kubernetes Cluster" data-source-line="3" id="ent0002"><path d="M8.5,296.6 L162.0576,296.6 A3.75,3.75 0 0 1 164.5576,299.1 L171.5576,318.8969 L805.5,318.8969 A2.5,2.5 0 0 1 808,321.3969 L808,583.69 A2.5,2.5 0 0 1 805.5,586.19 L8.5,586.19 A2.5,2.5 0 0 1 6,583.69 L6,299.1 A2.5,2.5 0 0 1 8.5,296.6" fill="none" style="stroke:#000000;stroke-width:1.5;"/><line style="stroke:#000000;stroke-width:1.5;" x1="6" x2="171.5576" y1="318.8969" y2="318.8969"/><text fill="#000000" font-family="sans-serif" font-size="14" font-weight="bold" lengthAdjust="spacing" textLength="152.5576" x="10" y="311.5951">Kubernetes Cluster</text></g><!--cluster Worker Node 1--><g class="cluster" data-qualified-name="Kubernetes Cluster.Worker Node 1" data-source-line="4" id="ent0003"><path d="M421.5,339.6 L540.5156,339.6 A3.75,3.75 0 0 1 543.0156,342.1 L550.0156,361.8969 L781.5,361.8969 A2.5,2.5 0 0 1 784,364.3969 L784,559.69 A2.5,2.5 0 0 1 781.5,562.19 L421.5,562.19 A2.5,2.5 0 0 1 419,559.69 L419,342.1 A2.5,2.5 0 0 1 421.5,339.6" fill="none" style="stroke:#000000;stroke-width:1.5;"/><line style="stroke:#000000;stroke-width:1.5;" x1="419" x2="550.0156" y1="361.8969" y2="361.8969"/><text fill="#000000" font-family="sans-serif" font-size="14" font-weight="bold" lengthAdjust="spacing" textLength="118.0156" x="423" y="354.5951">Worker Node 1</text></g><!--cluster Worker Node 2--><g class="cluster" data-qualified-name="Kubernetes Cluster.Worker Node 2" data-source-line="10" id="ent0007"><path d="M32.5,339.6 L151.5156,339.6 A3.75,3.75 0 0 1 154.0156,342.1 L161.0156,361.8969 L392.5,361.8969 A2.5,2.5 0 0 1 395,364.3969 L395,559.69 A2.5,2.5 0 0 1 392.5,562.19 L32.5,562.19 A2.5,2.5 0 0 1 30,559.69 L30,342.1 A2.5,2.5 0 0 1 32.5,339.6" fill="none" style="stroke:#000000;stroke-width:1.5;"/><line style="stroke:#000000;stroke-width:1.5;" x1="30" x2="161.0156" y1="361.8969" y2="361.8969"/><text fill="#000000" font-family="sans-serif" font-size="14" font-weight="bold" lengthAdjust="spacing" textLength="118.0156" x="34" y="354.5951">Worker Node 2</text></g><!--cluster Storage Layer--><g class="cluster" data-qualified-name="Storage Layer" data-source-line="17" id="ent0011"><path d="M834.5,152.3 L946.5293,152.3 A3.75,3.75 0 0 1 949.0293,154.8 L956.0293,174.5969 L1260.5,174.5969 A2.5,2.5 0 0 1 1263,177.0969 L1263,434.39 A2.5,2.5 0 0 1 1260.5,436.89 L834.5,436.89 A2.5,2.5 0 0 1 832,434.39 L832,154.8 A2.5,2.5 0 0 1 834.5,152.3" fill="none" style="stroke:#000000;stroke-width:1.5;"/><line style="stroke:#000000;stroke-width:1.5;" x1="832" x2="956.0293" y1="174.5969" y2="174.5969"/><text fill="#000000" font-family="sans-serif" font-size="14" font-weight="bold" lengthAdjust="spacing" textLength="111.0293" x="836" y="167.2951">Storage Layer</text></g><!--cluster API Server--><g class="cluster" data-qualified-name="API Server" data-source-line="24" id="ent0016"><path d="M1631.5,6 L1715.6865,6 A3.75,3.75 0 0 1 1718.1865,8.5 L1725.1865,28.2969 L1804.5,28.2969 A2.5,2.5 0 0 1 1807,30.7969 L1807,100.8 A2.5,2.5 0 0 1 1804.5,103.3 L1631.5,103.3 A2.5,2.5 0 0 1 1629,100.8 L1629,8.5 A2.5,2.5 0 0 1 1631.5,6" fill="none" style="stroke:#000000;stroke-width:1.5;"/><line style="stroke:#000000;stroke-width:1.5;" x1="1629" x2="1725.1865" y1="28.2969" y2="28.2969"/><text fill="#000000" font-family="sans-serif" font-size="14" font-weight="bold" lengthAdjust="spacing" textLength="83.1865" x="1633" y="20.9951">API Server</text></g><!--entity PODA--><g class="entity" data-qualified-name="Kubernetes Cluster.Worker Node 1.PODA" data-source-line="5" id="ent0004"><rect fill="#F1F1F1" height="46.2969" rx="2.5" ry="2.5" style="stroke:#181818;stroke-width:0.5;" width="79.9219" x="435.04" y="374.6"/><rect fill="#F1F1F1" height="10" style="stroke:#181818;stroke-width:0.5;" width="15" x="494.9619" y="379.6"/><rect fill="#F1F1F1" height="2" style="stroke:#181818;stroke-width:0.5;" width="4" x="492.9619" y="381.6"/><rect fill="#F1F1F1" height="2" style="stroke:#181818;stroke-width:0.5;" width="4" x="492.9619" y="385.6"/><text fill="#000000" font-family="sans-serif" font-size="14" lengthAdjust="spacing" textLength="39.9219" x="450.04" y="407.5951">Pod A</text></g><!--entity LOCAL_STORAGE1--><g class="entity" data-qualified-name="Kubernetes Cluster.Worker Node 1.LOCAL_STORAGE1" data-source-line="6" id="ent0005"><rect fill="#F1F1F1" height="46.2969" rx="2.5" ry="2.5" style="stroke:#181818;stroke-width:0.5;" width="135.7578" x="632.12" y="499.89"/><rect fill="#F1F1F1" height="10" style="stroke:#181818;stroke-width:0.5;" width="15" x="747.8778" y="504.89"/><rect fill="#F1F1F1" height="2" style="stroke:#181818;stroke-width:0.5;" width="4" x="745.8778" y="506.89"/><rect fill="#F1F1F1" height="2" style="stroke:#181818;stroke-width:0.5;" width="4" x="745.8778" y="510.89"/><text fill="#000000" font-family="sans-serif" font-size="14" lengthAdjust="spacing" textLength="95.7578" x="647.12" y="532.8851">Local Storage</text></g><!--entity LSP1--><g class="entity" data-qualified-name="Kubernetes Cluster.Worker Node 1.LSP1" data-source-line="7" id="ent0006"><rect fill="#F1F1F1" height="46.2969" rx="2.5" ry="2.5" style="stroke:#181818;stroke-width:0.5;" width="218.1377" x="549.93" y="374.6"/><rect fill="#F1F1F1" height="10" style="stroke:#181818;stroke-width:0.5;" width="15" x="748.0677" y="379.6"/><rect fill="#F1F1F1" height="2" style="stroke:#181818;stroke-width:0.5;" width="4" x="746.0677" y="381.6"/><rect fill="#F1F1F1" height="2" style="stroke:#181818;stroke-width:0.5;" width="4" x="746.0677" y="385.6"/><text fill="#000000" font-family="sans-serif" font-size="14" lengthAdjust="spacing" textLength="178.1377" x="564.93" y="407.5951">Local Storage Provisioner</text></g><!--entity PODB--><g class="entity" data-qualified-name="Kubernetes Cluster.Worker Node 2.PODB" data-source-line="11" id="ent0008"><rect fill="#F1F1F1" height="46.2969" rx="2.5" ry="2.5" style="stroke:#181818;stroke-width:0.5;" width="79.9492" x="46.03" y="374.6"/><rect fill="#F1F1F1" height="10" style="stroke:#181818;stroke-width:0.5;" width="15" x="105.9792" y="379.6"/><rect fill="#F1F1F1" height="2" style="stroke:#181818;stroke-width:0.5;" width="4" x="103.9792" y="381.6"/><rect fill="#F1F1F1" height="2" style="stroke:#181818;stroke-width:0.5;" width="4" x="103.9792" y="385.6"/><text fill="#000000" font-family="sans-serif" font-size="14" lengthAdjust="spacing" textLength="39.9492" x="61.03" y="407.5951">Pod B</text></g><!--entity LOCAL_STORAGE2--><g class="entity" data-qualified-name="Kubernetes Cluster.Worker Node 2.LOCAL_STORAGE2" data-source-line="12" id="ent0009"><rect fill="#F1F1F1" height="46.2969" rx="2.5" ry="2.5" style="stroke:#181818;stroke-width:0.5;" width="135.7578" x="243.12" y="499.89"/><rect fill="#F1F1F1" height="10" style="stroke:#181818;stroke-width:0.5;" width="15" x="358.8778" y="504.89"/><rect fill="#F1F1F1" height="2" style="stroke:#181818;stroke-width:0.5;" width="4" x="356.8778" y="506.89"/><rect fill="#F1F1F1" height="2" style="stroke:#181818;stroke-width:0.5;" width="4" x="356.8778" y="510.89"/><text fill="#000000" font-family="sans-serif" font-size="14" lengthAdjust="spacing" textLength="95.7578" x="258.12" y="532.8851">Local Storage</text></g><!--entity LSP2--><g class="entity" data-qualified-name="Kubernetes Cluster.Worker Node 2.LSP2" data-source-line="13" id="ent0010"><rect fill="#F1F1F1" height="46.2969" rx="2.5" ry="2.5" style="stroke:#181818;stroke-width:0.5;" width="218.1377" x="160.93" y="374.6"/><rect fill="#F1F1F1" height="10" style="stroke:#181818;stroke-width:0.5;" width="15" x="359.0677" y="379.6"/><rect fill="#F1F1F1" height="2" style="stroke:#181818;stroke-width:0.5;" width="4" x="357.0677" y="381.6"/><rect fill="#F1F1F1" height="2" style="stroke:#181818;stroke-width:0.5;" width="4" x="357.0677" y="385.6"/><text fill="#000000" font-family="sans-serif" font-size="14" lengthAdjust="spacing" textLength="178.1377" x="175.93" y="407.5951">Local Storage Provisioner</text></g><!--entity SC--><g class="entity" data-qualified-name="Storage Layer.SC" data-source-line="18" id="ent0012"><rect fill="#F1F1F1" height="46.2969" rx="2.5" ry="2.5" style="stroke:#181818;stroke-width:0.5;" width="131.6084" x="1112.2" y="187.3"/><rect fill="#F1F1F1" height="10" style="stroke:#181818;stroke-width:0.5;" width="15" x="1223.8084" y="192.3"/><rect fill="#F1F1F1" height="2" style="stroke:#181818;stroke-width:0.5;" width="4" x="1221.8084" y="194.3"/><rect fill="#F1F1F1" height="2" style="stroke:#181818;stroke-width:0.5;" width="4" x="1221.8084" y="198.3"/><text fill="#000000" font-family="sans-serif" font-size="14" lengthAdjust="spacing" textLength="91.6084" x="1127.2" y="220.2951">StorageClass</text></g><!--entity PV1--><g class="entity" data-qualified-name="Storage Layer.PV1" data-source-line="19" id="ent0013"><rect fill="#F1F1F1" height="46.2969" rx="2.5" ry="2.5" style="stroke:#181818;stroke-width:0.5;" width="162.9102" x="1082.54" y="374.6"/><rect fill="#F1F1F1" height="10" style="stroke:#181818;stroke-width:0.5;" width="15" x="1225.4502" y="379.6"/><rect fill="#F1F1F1" height="2" style="stroke:#181818;stroke-width:0.5;" width="4" x="1223.4502" y="381.6"/><rect fill="#F1F1F1" height="2" style="stroke:#181818;stroke-width:0.5;" width="4" x="1223.4502" y="385.6"/><text fill="#000000" font-family="sans-serif" font-size="14" lengthAdjust="spacing" textLength="122.9102" x="1097.54" y="407.5951">PersistentVolume</text></g><!--entity PV2--><g class="entity" data-qualified-name="Storage Layer.PV2" data-source-line="20" id="ent0014"><rect fill="#F1F1F1" height="46.2969" rx="2.5" ry="2.5" style="stroke:#181818;stroke-width:0.5;" width="162.9102" x="884.54" y="374.6"/><rect fill="#F1F1F1" height="10" style="stroke:#181818;stroke-width:0.5;" width="15" x="1027.4502" y="379.6"/><rect fill="#F1F1F1" height="2" style="stroke:#181818;stroke-width:0.5;" width="4" x="1025.4502" y="381.6"/><rect fill="#F1F1F1" height="2" style="stroke:#181818;stroke-width:0.5;" width="4" x="1025.4502" y="385.6"/><text fill="#000000" font-family="sans-serif" font-size="14" lengthAdjust="spacing" textLength="122.9102" x="899.54" y="407.5951">PersistentVolume</text></g><!--entity PVC--><g class="entity" data-qualified-name="Storage Layer.PVC" data-source-line="21" id="ent0015"><rect fill="#F1F1F1" height="46.2969" rx="2.5" ry="2.5" style="stroke:#181818;stroke-width:0.5;" width="202.6816" x="861.66" y="187.3"/><rect fill="#F1F1F1" height="10" style="stroke:#181818;stroke-width:0.5;" width="15" x="1044.3416" y="192.3"/><rect fill="#F1F1F1" height="2" style="stroke:#181818;stroke-width:0.5;" width="4" x="1042.3416" y="194.3"/><rect fill="#F1F1F1" height="2" style="stroke:#181818;stroke-width:0.5;" width="4" x="1042.3416" y="198.3"/><text fill="#000000" font-family="sans-serif" font-size="14" lengthAdjust="spacing" textLength="162.6816" x="876.66" y="220.2951">PersistentVolumeClaim</text></g><!--entity API--><g class="entity" data-qualified-name="API Server.API" data-source-line="25" id="ent0017"><rect fill="#F1F1F1" height="46.2969" rx="2.5" ry="2.5" style="stroke:#181818;stroke-width:0.5;" width="145.2051" x="1645.4" y="41"/><rect fill="#F1F1F1" height="10" style="stroke:#181818;stroke-width:0.5;" width="15" x="1770.6051" y="46"/><rect fill="#F1F1F1" height="2" style="stroke:#181818;stroke-width:0.5;" width="4" x="1768.6051" y="48"/><rect fill="#F1F1F1" height="2" style="stroke:#181818;stroke-width:0.5;" width="4" x="1768.6051" y="52"/><text fill="#000000" font-family="sans-serif" font-size="14" lengthAdjust="spacing" textLength="105.2051" x="1660.4" y="73.9951">kube-apiserver</text></g><g class="entity" data-qualified-name="GMN32" data-source-line="46" id="ent0033"><path d="M1556.26,190.32 L1556.26,230.5856 L1851.7327,230.5856 L1851.7327,200.32 L1841.7327,190.32 L1556.26,190.32" fill="#FEFFDD" style="stroke:#181818;stroke-width:0.5;"/><path d="M1841.7327,190.32 L1841.7327,200.32 L1851.7327,200.32 L1841.7327,190.32" fill="#FEFFDD" style="stroke:#181818;stroke-width:1;"/><text fill="#000000" font-family="sans-serif" font-size="13" lengthAdjust="spacing" textLength="183.9233" x="1562.26" y="207.3869">"StorageClass: local-storage</text><text fill="#000000" font-family="sans-serif" font-size="13" lengthAdjust="spacing" textLength="274.4727" x="1562.26" y="222.5197">provisioner: kubernetes.io/no-provisioner"</text></g><g class="entity" data-qualified-name="GMN35" data-source-line="47" id="ent0036"><path d="M1470.53,377.61 L1470.53,417.8756 L1625.4782,417.8756 L1625.4782,387.61 L1615.4782,377.61 L1470.53,377.61" fill="#FEFFDD" style="stroke:#181818;stroke-width:0.5;"/><path d="M1615.4782,377.61 L1615.4782,387.61 L1625.4782,387.61 L1615.4782,377.61" fill="#FEFFDD" style="stroke:#181818;stroke-width:1;"/><text fill="#000000" font-family="sans-serif" font-size="13" lengthAdjust="spacing" textLength="120.1104" x="1476.53" y="394.6769">"PersistentVolume</text><text fill="#000000" font-family="sans-serif" font-size="13" lengthAdjust="spacing" textLength="133.9482" x="1476.53" y="409.8097">nodeAffinity: node1"</text></g><g class="entity" data-qualified-name="GMN38" data-source-line="48" id="ent0039"><path d="M1280.53,377.61 L1280.53,417.8756 L1435.4782,417.8756 L1435.4782,387.61 L1425.4782,377.61 L1280.53,377.61" fill="#FEFFDD" style="stroke:#181818;stroke-width:0.5;"/><path d="M1425.4782,377.61 L1425.4782,387.61 L1435.4782,387.61 L1425.4782,377.61" fill="#FEFFDD" style="stroke:#181818;stroke-width:1;"/><text fill="#000000" font-family="sans-serif" font-size="13" lengthAdjust="spacing" textLength="120.1104" x="1286.53" y="394.6769">"PersistentVolume</text><text fill="#000000" font-family="sans-serif" font-size="13" lengthAdjust="spacing" textLength="133.9482" x="1286.53" y="409.8097">nodeAffinity: node2"</text></g><g class="entity" data-qualified-name="GMN41" data-source-line="49" id="ent0042"><path d="M1279.1,190.32 L1279.1,230.5856 L1520.8969,230.5856 L1520.8969,200.32 L1510.8969,190.32 L1279.1,190.32" fill="#FEFFDD" style="stroke:#181818;stroke-width:0.5;"/><path d="M1510.8969,190.32 L1510.8969,200.32 L1520.8969,200.32 L1510.8969,190.32" fill="#FEFFDD" style="stroke:#181818;stroke-width:1;"/><text fill="#000000" font-family="sans-serif" font-size="13" lengthAdjust="spacing" textLength="157.041" x="1285.1" y="207.3869">"PersistentVolumeClaim</text><text fill="#000000" font-family="sans-serif" font-size="13" lengthAdjust="spacing" textLength="220.7969" x="1285.1" y="222.5197">storageClassName: local-storage"</text></g><g class="entity" data-qualified-name="GMN44" data-source-line="50" id="ent0045"><path d="M985.59,502.91 L985.59,543.1756 L1112.4181,543.1756 L1112.4181,512.91 L1102.4181,502.91 L985.59,502.91" fill="#FEFFDD" style="stroke:#181818;stroke-width:0.5;"/><path d="M1102.4181,502.91 L1102.4181,512.91 L1112.4181,512.91 L1102.4181,502.91" fill="#FEFFDD" style="stroke:#181818;stroke-width:1;"/><text fill="#000000" font-family="sans-serif" font-size="13" lengthAdjust="spacing" textLength="75.1753" x="991.59" y="519.9769">"/mnt/disk1</text><text fill="#000000" font-family="sans-serif" font-size="13" lengthAdjust="spacing" textLength="105.8281" x="991.59" y="535.1097">Node 1 storage"</text></g><g class="entity" data-qualified-name="GMN47" data-source-line="51" id="ent0048"><path d="M823.59,502.91 L823.59,543.1756 L950.4181,543.1756 L950.4181,512.91 L940.4181,502.91 L823.59,502.91" fill="#FEFFDD" style="stroke:#181818;stroke-width:0.5;"/><path d="M940.4181,502.91 L940.4181,512.91 L950.4181,512.91 L940.4181,502.91" fill="#FEFFDD" style="stroke:#181818;stroke-width:1;"/><text fill="#000000" font-family="sans-serif" font-size="13" lengthAdjust="spacing" textLength="75.1753" x="829.59" y="519.9769">"/mnt/disk2</text><text fill="#000000" font-family="sans-serif" font-size="13" lengthAdjust="spacing" textLength="105.8281" x="829.59" y="535.1097">Node 2 storage"</text></g><!--link PODA to PVC--><g class="link" data-entity-1="ent0004" data-entity-2="ent0015" data-link-type="dependency" data-source-line="29" id="lnk18"><path d="M480.5,374.21 C487.85,349.17 503.39,309.52 532,288.6 C583.23,251.13 745.0662,230.2702 855.5462,219.9102" fill="none" id="PODA-to-PVC" style="stroke:#181818;stroke-width:1;"/><polygon fill="#181818" points="861.52,219.35,852.1859,216.2077,856.5418,219.8168,852.9328,224.1728,861.52,219.35" style="stroke:#181818;stroke-width:1;"/><text fill="#000000" font-family="sans-serif" font-size="13" lengthAdjust="spacing" textLength="48.9658" x="589.17" y="276.6669">mounts</text></g><!--link PODB to PVC--><g class="link" data-entity-1="ent0008" data-entity-2="ent0015" data-link-type="dependency" data-source-line="30" id="lnk19"><path d="M91.07,374.22 C98.08,348.81 113.37,308.43 143,288.6 C201.49,249.45 648.996,225.159 855.346,215.899" fill="none" id="PODB-to-PVC" style="stroke:#181818;stroke-width:1;"/><polygon fill="#181818" points="861.34,215.63,852.1697,212.0375,856.345,215.8542,852.5284,220.0294,861.34,215.63" style="stroke:#181818;stroke-width:1;"/><text fill="#000000" font-family="sans-serif" font-size="13" lengthAdjust="spacing" textLength="48.9658" x="226.02" y="276.6669">mounts</text></g><!--link PVC to PV1--><g class="link" data-entity-1="ent0015" data-entity-2="ent0013" data-link-type="dependency" data-source-line="31" id="lnk20"><path d="M1003.86,233.94 C1017.83,242.43 1033.15,252.7 1046,263.6 C1086.52,297.96 1122.2104,341.4876 1143.6604,369.4776" fill="none" id="PVC-to-PV1" style="stroke:#181818;stroke-width:1;"/><polygon fill="#181818" points="1147.31,374.24,1145.0105,364.6634,1144.2686,370.2714,1138.6606,369.5295,1147.31,374.24" style="stroke:#181818;stroke-width:1;"/><text fill="#000000" font-family="sans-serif" font-size="13" lengthAdjust="spacing" textLength="52.311" x="1064.96" y="276.6669">binds to</text></g><!--link PVC to PV2--><g class="link" data-entity-1="ent0015" data-entity-2="ent0014" data-link-type="dependency" data-source-line="32" id="lnk21"><path d="M906.75,234 C888.08,245.34 873.51,260.92 880,280.6 C892.26,317.77 917.3465,348.4593 938.3265,370.1293" fill="none" id="PVC-to-PV2" style="stroke:#181818;stroke-width:1;"/><polygon fill="#181818" points="942.5,374.44,939.1136,365.1916,939.0221,370.8477,933.366,370.7562,942.5,374.44" style="stroke:#181818;stroke-width:1;"/><text fill="#000000" font-family="sans-serif" font-size="13" lengthAdjust="spacing" textLength="52.311" x="881" y="276.6669">binds to</text></g><!--link PV1 to LOCAL_STORAGE1--><g class="link" data-entity-1="ent0013" data-entity-2="ent0005" data-link-type="dependency" data-source-line="33" id="lnk22"><path d="M1121.01,421.39 C1103.93,429.69 1083.89,438.59 1065,444.89 C1061.45,446.08 878.8018,484.4964 774.1318,506.4864" fill="none" id="PV1-to-LOCAL_STORAGE1" style="stroke:#181818;stroke-width:1;"/><polygon fill="#181818" points="768.26,507.72,777.8901,509.7841,773.1532,506.692,776.2453,501.9551,768.26,507.72" style="stroke:#181818;stroke-width:1;"/><text fill="#000000" font-family="sans-serif" font-size="13" lengthAdjust="spacing" textLength="29.7832" x="1026.15" y="465.9569">uses</text></g><!--link PV2 to LOCAL_STORAGE2--><g class="link" data-entity-1="ent0014" data-entity-2="ent0009" data-link-type="dependency" data-source-line="34" id="lnk23"><path d="M919.3,421.36 C883.23,437.75 831.6,458.88 784,469.89 C625.42,506.58 580.13,476.83 419,499.89 C406.12,501.74 398.3481,503.0066 385.2281,505.5766" fill="none" id="PV2-to-LOCAL_STORAGE2" style="stroke:#181818;stroke-width:1;"/><polygon fill="#181818" points="379.34,506.73,388.9411,508.9253,384.2467,505.7688,387.4032,501.0745,379.34,506.73" style="stroke:#181818;stroke-width:1;"/><text fill="#000000" font-family="sans-serif" font-size="13" lengthAdjust="spacing" textLength="29.7832" x="841.53" y="465.9569">uses</text></g><!--link SC to PV1--><g class="link" data-entity-1="ent0012" data-entity-2="ent0013" data-link-type="dependency" data-source-line="36" id="lnk24"><path d="M1176.31,233.8 C1173.62,269.41 1168.843,332.6671 1166.143,368.3271" fill="none" id="SC-to-PV1" style="stroke:#181818;stroke-width:1;"/><polygon fill="#181818" points="1165.69,374.31,1170.3581,365.6377,1166.0675,369.3243,1162.3809,365.0337,1165.69,374.31" style="stroke:#181818;stroke-width:1;"/><text fill="#000000" font-family="sans-serif" font-size="13" lengthAdjust="spacing" textLength="66.2061" x="1174.86" y="276.6669">provisions</text></g><!--link SC to PV2--><g class="link" data-entity-1="ent0012" data-entity-2="ent0014" data-link-type="dependency" data-source-line="37" id="lnk25"><path d="M1111.76,227.06 C1051.74,241.36 972.32,260.72 970,263.6 C944.77,294.95 950.5409,339.3676 957.7509,368.3376" fill="none" id="SC-to-PV2" style="stroke:#181818;stroke-width:1;"/><polygon fill="#181818" points="959.2,374.16,960.908,364.4604,957.9924,369.308,953.1448,366.3925,959.2,374.16" style="stroke:#181818;stroke-width:1;"/><text fill="#000000" font-family="sans-serif" font-size="13" lengthAdjust="spacing" textLength="66.2061" x="971" y="276.6669">provisions</text></g><!--link LSP1 to LOCAL_STORAGE1--><g class="link" data-entity-1="ent0006" data-entity-2="ent0005" data-link-type="dependency" data-source-line="38" id="lnk26"><path d="M666.52,421.36 C673.92,443.61 683.2573,471.6764 690.6373,493.8764" fill="none" id="LSP1-to-LOCAL_STORAGE1" style="stroke:#181818;stroke-width:1;"/><polygon fill="#181818" points="692.53,499.57,693.4866,489.7677,690.9527,494.8253,685.8951,492.2914,692.53,499.57" style="stroke:#181818;stroke-width:1;"/><text fill="#000000" font-family="sans-serif" font-size="13" lengthAdjust="spacing" textLength="59.8584" x="682.95" y="465.9569">manages</text></g><!--link LSP2 to LOCAL_STORAGE2--><g class="link" data-entity-1="ent0010" data-entity-2="ent0009" data-link-type="dependency" data-source-line="39" id="lnk27"><path d="M277.52,421.36 C284.92,443.61 294.2573,471.6764 301.6373,493.8764" fill="none" id="LSP2-to-LOCAL_STORAGE2" style="stroke:#181818;stroke-width:1;"/><polygon fill="#181818" points="303.53,499.57,304.4866,489.7677,301.9527,494.8253,296.8951,492.2914,303.53,499.57" style="stroke:#181818;stroke-width:1;"/><text fill="#000000" font-family="sans-serif" font-size="13" lengthAdjust="spacing" textLength="59.8584" x="293.95" y="465.9569">manages</text></g><!--link API to SC--><g class="link" data-entity-1="ent0017" data-entity-2="ent0012" data-link-type="dependency" data-source-line="41" id="lnk28"><path d="M1644.92,86.18 C1583.97,102.78 1494.57,124.97 1415,136.3 C1381.29,141.1 1293.91,132.43 1262,144.3 C1237.78,153.3 1219.2666,167.7935 1203.5266,182.8435" fill="none" id="API-to-SC" style="stroke:#181818;stroke-width:1;"/><polygon fill="#181818" points="1199.19,186.99,1208.4593,183.6613,1202.8039,183.5346,1202.9306,177.8791,1199.19,186.99" style="stroke:#181818;stroke-width:1;"/><text fill="#000000" font-family="sans-serif" font-size="13" lengthAdjust="spacing" textLength="47.4487" x="1508.53" y="132.3669">defines</text></g><!--link API to PV1--><g class="link" data-entity-1="ent0017" data-entity-2="ent0013" data-link-type="dependency" data-source-line="42" id="lnk29"><path d="M1791.01,71.2 C1838.39,77.72 1900.02,91.24 1948,119.3 C2009.88,155.49 2008.6,242.29 1948,280.6 C1915.83,300.93 1297.74,273.06 1263,288.6 C1223.5,306.27 1195.9542,343.056 1179.7942,369.206" fill="none" id="API-to-PV1" style="stroke:#181818;stroke-width:1;"/><polygon fill="#181818" points="1176.64,374.31,1184.7739,368.7567,1179.2685,370.0566,1177.9685,364.5512,1176.64,374.31" style="stroke:#181818;stroke-width:1;"/><text fill="#000000" font-family="sans-serif" font-size="13" lengthAdjust="spacing" textLength="39.8569" x="1994.93" y="215.0169">tracks</text></g><!--link API to PV2--><g class="link" data-entity-1="ent0017" data-entity-2="ent0014" data-link-type="dependency" data-source-line="43" id="lnk30"><path d="M1790.9,85.02 C1820.52,97.07 1851.77,115.81 1869,144.3 C1889.54,178.26 1895.98,204.49 1869,233.6 C1822.11,284.18 1318.85,276.49 1250,280.6 C1229.46,281.82 1083.65,279.9 1065,288.6 C1025.78,306.89 998.1767,343.4962 981.9167,369.4362" fill="none" id="API-to-PV2" style="stroke:#181818;stroke-width:1;"/><polygon fill="#181818" points="978.73,374.52,986.8992,369.0188,981.3856,370.2835,980.1208,364.7698,978.73,374.52" style="stroke:#181818;stroke-width:1;"/><text fill="#000000" font-family="sans-serif" font-size="13" lengthAdjust="spacing" textLength="39.8569" x="1887.9" y="215.0169">tracks</text></g><!--link API to PVC--><g class="link" data-entity-1="ent0017" data-entity-2="ent0015" data-link-type="dependency" data-source-line="44" id="lnk31"><path d="M1644.91,66.64 C1526.84,70.75 1287.88,86.23 1095,144.3 C1061.47,154.39 1031.2553,169.391 1005.5453,183.901" fill="none" id="API-to-PVC" style="stroke:#181818;stroke-width:1;"/><polygon fill="#181818" points="1000.32,186.85,1010.1239,185.91,1004.6744,184.3925,1006.1919,178.943,1000.32,186.85" style="stroke:#181818;stroke-width:1;"/><text fill="#000000" font-family="sans-serif" font-size="13" lengthAdjust="spacing" textLength="39.8569" x="1178.39" y="132.3669">tracks</text></g><!--link SC to GMN32--><g class="link" data-entity-1="ent0012" data-entity-2="ent0033" data-link-type="association" data-source-line="46" id="lnk34"><path d="M1197.8,187.13 C1216.49,167.05 1246.53,139.53 1279.5,127.8 C1329.96,109.85 1468.14,116.55 1520.5,127.8 C1575.67,139.65 1634.26,169.44 1670,189.82" fill="none" id="SC-GMN32" style="stroke:#181818;stroke-width:1;stroke-dasharray:7,7;"/></g><!--link PV1 to GMN35--><g class="link" data-entity-1="ent0013" data-entity-2="ent0036" data-link-type="association" data-source-line="47" id="lnk37"><path d="M1175.67,374.17 C1193.27,341.65 1229.97,284.42 1280.5,261.1 C1343.05,232.23 1373.2,231.69 1435.5,261.1 C1486.63,285.23 1522.38,345.27 1538.44,377.12" fill="none" id="PV1-GMN35" style="stroke:#181818;stroke-width:1;stroke-dasharray:7,7;"/></g><!--link PV2 to GMN38--><g class="link" data-entity-1="ent0014" data-entity-2="ent0039" data-link-type="association" data-source-line="48" id="lnk40"><path d="M977.67,374.17 C995.27,341.65 1031.97,284.42 1082.5,261.1 C1148.28,230.74 1179.99,230.17 1245.5,261.1 C1296.63,285.23 1332.38,345.27 1348.44,377.12" fill="none" id="PV2-GMN38" style="stroke:#181818;stroke-width:1;stroke-dasharray:7,7;"/></g><!--link PVC to GMN41--><g class="link" data-entity-1="ent0015" data-entity-2="ent0042" data-link-type="association" data-source-line="49" id="lnk43"><path d="M994.23,186.98 C1023.16,166.8 1068.28,139.21 1112.5,127.8 C1169.74,113.03 1188.16,113.43 1245.5,127.8 C1293.15,139.74 1342.17,169.51 1371.86,189.86" fill="none" id="PVC-GMN41" style="stroke:#181818;stroke-width:1;stroke-dasharray:7,7;"/></g><!--link LOCAL_STORAGE1 to GMN44--><g class="link" data-entity-1="ent0005" data-entity-2="ent0045" data-link-type="association" data-source-line="50" id="lnk46"><path d="M745.29,499.5 C768.1,488.95 796.56,477.7 823.5,472.39 C878.88,461.48 895.64,459.11 950.5,472.39 C974.8,478.27 999.82,491.24 1018.56,502.58" fill="none" id="LOCAL_STORAGE1-GMN44" style="stroke:#181818;stroke-width:1;stroke-dasharray:7,7;"/></g><!--link LOCAL_STORAGE2 to GMN47--><g class="link" data-entity-1="ent0009" data-entity-2="ent0048" data-link-type="association" data-source-line="51" id="lnk49"><path d="M357.07,499.5 C380.25,488.95 409.17,477.7 436.5,472.39 C580.48,444.44 622.73,443.41 766.5,472.39 C795.31,478.2 825.81,491.09 848.91,502.42" fill="none" id="LOCAL_STORAGE2-GMN47" style="stroke:#181818;stroke-width:1;stroke-dasharray:7,7;"/></g><?plantuml-src ZLHBRwCm4BxpAwPSUg8HFkQm4l56LLMKe59r3yrgvGQdjG0xiasbQjN_ldu00K9MEUJ0z_1ydXddfg07nYayhV5pihbFrx2lY591S2JxahnJ21-RDoevrLG1hXgbgGpXRm3G2tu9ML896r5GY3q7y9g90fBVG1Hasv-9nrAn9nNaMaXZT5ownKdw9t_UFYNtwtX61PaKdqmnmQdqZZopkc_pknG2ZKAikX2hgqAWAqCW5-9xqAXEd9AlhaUlBOPjJvqpnnREg5JCj9Bh5r4rjO-HlSJ_uT0SPyvbTIl0ep19zW0vbPzzajACCI97fXpeF4PZFRU01UTqhytzL62d1L7qmvu8ImXhqN2jGeklPd7pwU7Omc-C5mgq619eIiIE6C_UQXf5tOded4SdFiX75O_TR0oLZqeE6Ris5whMX9kMUSsbohqci8srcjnrmRyUWtTm6qfBCuWHZEPXF8G3BZG5oTu_D8X3MsAuGakex5v6ocCxVZmjvXBA_gNUCR7W8XgmuUJiDkTqeNQScnUK7CojcFvQWlsApxteMYywz-8vhrla7LU3ksv8JIVtdHvsFij5pVMYOAgCTzp_8S4rNZJoejQBUky_?></g></svg>