<?plantuml 1.2026.2?><svg xmlns="http://www.w3.org/2000/svg" xmlns:xlink="http://www.w3.org/1999/xlink" contentStyleType="text/css" data-diagram-type="ACTIVITY" height="406px" preserveAspectRatio="none" style="width:426px;height:406px;background:#FFFFFF;" version="1.1" viewBox="0 0 426 406" width="426px" zoomAndPan="magnify"><defs/><g><ellipse cx="107.6631" cy="20" fill="#222222" rx="10" ry="10" style="stroke:#222222;stroke-width:1;"/><path d="M177.9844,54.418 L177.9844,62.9844 L157.9844,66.9844 L177.9844,70.9844 L177.9844,79.5508 A0,0 0 0 0 177.9844,79.5508 L406.4258,79.5508 A0,0 0 0 0 406.4258,79.5508 L406.4258,64.418 L396.4258,54.418 L177.9844,54.418 A0,0 0 0 0 177.9844,54.418" fill="#FEFFDD" style="stroke:#181818;stroke-width:0.5;"/><path d="M396.4258,54.418 L396.4258,64.418 L406.4258,64.418 L396.4258,54.418" fill="#FEFFDD" style="stroke:#181818;stroke-width:0.5;"/><text fill="#000000" font-family="sans-serif" font-size="13" lengthAdjust="spacing" textLength="207.4414" x="183.9844" y="71.4849">Node Exporter, NVIDIA Exporter</text><rect fill="#F1F1F1" height="33.9688" rx="12.5" ry="12.5" style="stroke:#181818;stroke-width:0.5;" width="100.6426" x="57.3418" y="50"/><text fill="#000000" font-family="sans-serif" font-size="12" lengthAdjust="spacing" textLength="80.6426" x="67.3418" y="71.1387">&#1057;&#1073;&#1086;&#1088; &#1084;&#1077;&#1090;&#1088;&#1080;&#1082;</text><path d="M211.5439,108.3867 L211.5439,116.9531 L191.5439,120.9531 L211.5439,124.9531 L211.5439,133.5195 A0,0 0 0 0 211.5439,133.5195 L382.2026,133.5195 A0,0 0 0 0 382.2026,133.5195 L382.2026,118.3867 L372.2026,108.3867 L211.5439,108.3867 A0,0 0 0 0 211.5439,108.3867" fill="#FEFFDD" style="stroke:#181818;stroke-width:0.5;"/><path d="M372.2026,108.3867 L372.2026,118.3867 L382.2026,118.3867 L372.2026,108.3867" fill="#FEFFDD" style="stroke:#181818;stroke-width:0.5;"/><text fill="#000000" font-family="sans-serif" font-size="13" lengthAdjust="spacing" textLength="149.6587" x="217.5439" y="125.4536">HTTP scrape endpoints</text><rect fill="#F1F1F1" height="33.9688" rx="12.5" ry="12.5" style="stroke:#181818;stroke-width:0.5;" width="167.7617" x="23.7822" y="103.9688"/><text fill="#000000" font-family="sans-serif" font-size="12" lengthAdjust="spacing" textLength="147.7617" x="33.7822" y="125.1074">&#1054;&#1090;&#1087;&#1088;&#1072;&#1074;&#1082;&#1072; &#1074; Prometheus</text><path d="M191.9473,162.3555 L191.9473,170.9219 L171.9473,174.9219 L191.9473,178.9219 L191.9473,187.4883 A0,0 0 0 0 191.9473,187.4883 L352.7544,187.4883 A0,0 0 0 0 352.7544,187.4883 L352.7544,172.3555 L342.7544,162.3555 L191.9473,162.3555 A0,0 0 0 0 191.9473,162.3555" fill="#FEFFDD" style="stroke:#181818;stroke-width:0.5;"/><path d="M342.7544,162.3555 L342.7544,172.3555 L352.7544,172.3555 L342.7544,162.3555" fill="#FEFFDD" style="stroke:#181818;stroke-width:0.5;"/><text fill="#000000" font-family="sans-serif" font-size="13" lengthAdjust="spacing" textLength="139.8071" x="197.9473" y="179.4224">Time-series database</text><rect fill="#F1F1F1" height="33.9688" rx="12.5" ry="12.5" style="stroke:#181818;stroke-width:0.5;" width="128.5684" x="43.3789" y="157.9375"/><text fill="#000000" font-family="sans-serif" font-size="12" lengthAdjust="spacing" textLength="108.5684" x="53.3789" y="179.0762">&#1061;&#1088;&#1072;&#1085;&#1077;&#1085;&#1080;&#1077; &#1074; TSDB</text><path d="M196.3242,216.3242 L196.3242,224.8906 L176.3242,228.8906 L196.3242,232.8906 L196.3242,241.457 A0,0 0 0 0 196.3242,241.457 L414.6665,241.457 A0,0 0 0 0 414.6665,241.457 L414.6665,226.3242 L404.6665,216.3242 L196.3242,216.3242 A0,0 0 0 0 196.3242,216.3242" fill="#FEFFDD" style="stroke:#181818;stroke-width:0.5;"/><path d="M404.6665,216.3242 L404.6665,226.3242 L414.6665,226.3242 L404.6665,216.3242" fill="#FEFFDD" style="stroke:#181818;stroke-width:0.5;"/><text fill="#000000" font-family="sans-serif" font-size="13" lengthAdjust="spacing" textLength="197.3423" x="202.3242" y="233.3911">Recording rules, Alerting rules</text><rect fill="#F1F1F1" height="33.9688" rx="12.5" ry="12.5" style="stroke:#181818;stroke-width:0.5;" width="137.3223" x="39.002" y="211.9063"/><text fill="#000000" font-family="sans-serif" font-size="12" lengthAdjust="spacing" textLength="117.3223" x="49.002" y="233.0449">&#1054;&#1073;&#1088;&#1072;&#1073;&#1086;&#1090;&#1082;&#1072; &#1087;&#1088;&#1072;&#1074;&#1080;&#1083;</text><path d="M213.7031,270.293 L213.7031,278.8594 L193.7031,282.8594 L213.7031,286.8594 L213.7031,295.4258 A0,0 0 0 0 213.7031,295.4258 L365.3252,295.4258 A0,0 0 0 0 365.3252,295.4258 L365.3252,280.293 L355.3252,270.293 L213.7031,270.293 A0,0 0 0 0 213.7031,270.293" fill="#FEFFDD" style="stroke:#181818;stroke-width:0.5;"/><path d="M355.3252,270.293 L355.3252,280.293 L365.3252,280.293 L355.3252,270.293" fill="#FEFFDD" style="stroke:#181818;stroke-width:0.5;"/><text fill="#000000" font-family="sans-serif" font-size="13" lengthAdjust="spacing" textLength="130.6221" x="219.7031" y="287.3599">Dashboards, graphs</text><rect fill="#F1F1F1" height="33.9688" rx="12.5" ry="12.5" style="stroke:#181818;stroke-width:0.5;" width="172.0801" x="21.623" y="265.875"/><text fill="#000000" font-family="sans-serif" font-size="12" lengthAdjust="spacing" textLength="152.0801" x="31.623" y="287.0137">&#1042;&#1080;&#1079;&#1091;&#1072;&#1083;&#1080;&#1079;&#1072;&#1094;&#1080;&#1103; &#1074; Grafana</text><path d="M224.3262,324.2617 L224.3262,332.8281 L204.3262,336.8281 L224.3262,340.8281 L224.3262,349.3945 A0,0 0 0 0 224.3262,349.3945 L400.8691,349.3945 A0,0 0 0 0 400.8691,349.3945 L400.8691,334.2617 L390.8691,324.2617 L224.3262,324.2617 A0,0 0 0 0 224.3262,324.2617" fill="#FEFFDD" style="stroke:#181818;stroke-width:0.5;"/><path d="M390.8691,324.2617 L390.8691,334.2617 L400.8691,334.2617 L390.8691,324.2617" fill="#FEFFDD" style="stroke:#181818;stroke-width:0.5;"/><text fill="#000000" font-family="sans-serif" font-size="13" lengthAdjust="spacing" textLength="155.543" x="230.3262" y="341.3286">Email, Slack, PagerDuty</text><rect fill="#F1F1F1" height="33.9688" rx="12.5" ry="12.5" style="stroke:#181818;stroke-width:0.5;" width="193.3262" x="11" y="319.8438"/><text fill="#000000" font-family="sans-serif" font-size="12" lengthAdjust="spacing" textLength="173.3262" x="21" y="340.9824">&#1040;&#1083;&#1077;&#1088;&#1090;&#1099; &#1095;&#1077;&#1088;&#1077;&#1079; Alertmanager</text><ellipse cx="107.6631" cy="384.8125" fill="none" rx="11" ry="11" style="stroke:#222222;stroke-width:1;"/><ellipse cx="107.6631" cy="384.8125" fill="#222222" rx="6" ry="6" style="stroke:#222222;stroke-width:1;"/><line style="stroke:#181818;stroke-width:1;" x1="107.6631" x2="107.6631" y1="30" y2="50"/><polygon fill="#181818" points="103.6631,40,107.6631,50,111.6631,40,107.6631,44" style="stroke:#181818;stroke-width:1;"/><line style="stroke:#181818;stroke-width:1;" x1="107.6631" x2="107.6631" y1="83.9688" y2="103.9688"/><polygon fill="#181818" points="103.6631,93.9688,107.6631,103.9688,111.6631,93.9688,107.6631,97.9688" style="stroke:#181818;stroke-width:1;"/><line style="stroke:#181818;stroke-width:1;" x1="107.6631" x2="107.6631" y1="137.9375" y2="157.9375"/><polygon fill="#181818" points="103.6631,147.9375,107.6631,157.9375,111.6631,147.9375,107.6631,151.9375" style="stroke:#181818;stroke-width:1;"/><line style="stroke:#181818;stroke-width:1;" x1="107.6631" x2="107.6631" y1="191.9063" y2="211.9063"/><polygon fill="#181818" points="103.6631,201.9063,107.6631,211.9063,111.6631,201.9063,107.6631,205.9063" style="stroke:#181818;stroke-width:1;"/><line style="stroke:#181818;stroke-width:1;" x1="107.6631" x2="107.6631" y1="245.875" y2="265.875"/><polygon fill="#181818" points="103.6631,255.875,107.6631,265.875,111.6631,255.875,107.6631,259.875" style="stroke:#181818;stroke-width:1;"/><line style="stroke:#181818;stroke-width:1;" x1="107.6631" x2="107.6631" y1="299.8438" y2="319.8438"/><polygon fill="#181818" points="103.6631,309.8438,107.6631,319.8438,111.6631,309.8438,107.6631,313.8438" style="stroke:#181818;stroke-width:1;"/><line style="stroke:#181818;stroke-width:1;" x1="107.6631" x2="107.6631" y1="353.8125" y2="373.8125"/><polygon fill="#181818" points="103.6631,363.8125,107.6631,373.8125,111.6631,363.8125,107.6631,367.8125" style="stroke:#181818;stroke-width:1;"/><?plantuml-src LP6_QiCm48TtFyLrTryWdTBQf8KIGcAwA_R55hKj8odGRY65TkZGqWSeTEYU14nCqZ-lS7gZIWuDU12SXBxlVYUT93ZZ9S8ul8Zwmy5r277EbF8yfPdKdjUZ3rhJZra0VL5jbcP13UtEl59e1CdJJFTWA1A4yAuIKgFqONXp5LprZmVEyMwMz6lH5MreHokW3OoaA51dE5TTsMKKZK35abK8M2QLuALMpl7PyjzKszLGxHpH93ZlqX4ly5IXvAWWOPfDcS8s0ArRt8soF4JupzFGlkiOOonamiiKv3n7vKC_HwcFUwTxizJMF5X-xofQcKTgp8lBD91inahMLGPCPLF1P69jgHqjQoslbgxDmZxgCvWdLzhXjeTsXNMaABkQi60yzs6Ii_ZMXv6x4CprlViiKVq1?></g></svg>