<?plantuml 1.2026.2?><svg xmlns="http://www.w3.org/2000/svg" xmlns:xlink="http://www.w3.org/1999/xlink" contentStyleType="text/css" data-diagram-type="DESCRIPTION" height="672px" preserveAspectRatio="none" style="width:1371px;height:672px;background:#FFFFFF;" version="1.1" viewBox="0 0 1371 672" width="1371px" zoomAndPan="magnify"><defs/><g><!--cluster Ansible Playbook--><g class="cluster" data-qualified-name="Ansible Playbook" data-source-line="3" id="ent0002"><path d="M278.5,6 L414.8242,6 A3.75,3.75 0 0 1 417.3242,8.5 L424.3242,28.2969 L424.5,28.2969 A2.5,2.5 0 0 1 427,30.7969 L427,100.79 A2.5,2.5 0 0 1 424.5,103.29 L278.5,103.29 A2.5,2.5 0 0 1 276,100.79 L276,8.5 A2.5,2.5 0 0 1 278.5,6" fill="none" style="stroke:#000000;stroke-width:1.5;"/><line style="stroke:#000000;stroke-width:1.5;" x1="276" x2="424.3242" y1="28.2969" y2="28.2969"/><text fill="#000000" font-family="sans-serif" font-size="14" font-weight="bold" lengthAdjust="spacing" textLength="135.3242" x="280" y="20.9951">Ansible Playbook</text></g><!--cluster Core Kubernetes--><g class="cluster" data-qualified-name="Core Kubernetes" data-source-line="7" id="ent0004"><path d="M45.5,444.89 L178.8848,444.89 A3.75,3.75 0 0 1 181.3848,447.39 L188.3848,467.1869 L464.5,467.1869 A2.5,2.5 0 0 1 467,469.6869 L467,662.98 A2.5,2.5 0 0 1 464.5,665.48 L45.5,665.48 A2.5,2.5 0 0 1 43,662.98 L43,447.39 A2.5,2.5 0 0 1 45.5,444.89" fill="none" style="stroke:#000000;stroke-width:1.5;"/><line style="stroke:#000000;stroke-width:1.5;" x1="43" x2="188.3848" y1="467.1869" y2="467.1869"/><text fill="#000000" font-family="sans-serif" font-size="14" font-weight="bold" lengthAdjust="spacing" textLength="132.3848" x="47" y="459.8851">Core Kubernetes</text></g><!--cluster Infrastructure--><g class="cluster" data-qualified-name="Infrastructure" data-source-line="13" id="ent0008"><path d="M297.5,298.59 L409.3721,298.59 A3.75,3.75 0 0 1 411.8721,301.09 L418.8721,320.8869 L697.5,320.8869 A2.5,2.5 0 0 1 700,323.3869 L700,393.39 A2.5,2.5 0 0 1 697.5,395.89 L297.5,395.89 A2.5,2.5 0 0 1 295,393.39 L295,301.09 A2.5,2.5 0 0 1 297.5,298.59" fill="none" style="stroke:#000000;stroke-width:1.5;"/><line style="stroke:#000000;stroke-width:1.5;" x1="295" x2="418.8721" y1="320.8869" y2="320.8869"/><text fill="#000000" font-family="sans-serif" font-size="14" font-weight="bold" lengthAdjust="spacing" textLength="110.8721" x="299" y="313.5851">Infrastructure</text></g><!--cluster Applications--><g class="cluster" data-qualified-name="Applications" data-source-line="19" id="ent0012"><path d="M740.5,152.29 L839.1309,152.29 A3.75,3.75 0 0 1 841.6309,154.79 L848.6309,174.5869 L881.5,174.5869 A2.5,2.5 0 0 1 884,177.0869 L884,247.09 A2.5,2.5 0 0 1 881.5,249.59 L740.5,249.59 A2.5,2.5 0 0 1 738,247.09 L738,154.79 A2.5,2.5 0 0 1 740.5,152.29" fill="none" style="stroke:#000000;stroke-width:1.5;"/><line style="stroke:#000000;stroke-width:1.5;" x1="738" x2="848.6309" y1="174.5869" y2="174.5869"/><text fill="#000000" font-family="sans-serif" font-size="14" font-weight="bold" lengthAdjust="spacing" textLength="97.6309" x="742" y="167.2851">Applications</text></g><!--entity SITE--><g class="entity" data-qualified-name="Ansible Playbook.SITE" data-source-line="4" id="ent0003"><rect fill="#F1F1F1" height="46.2969" rx="2.5" ry="2.5" style="stroke:#181818;stroke-width:0.5;" width="95.5488" x="303.23" y="41"/><rect fill="#F1F1F1" height="10" style="stroke:#181818;stroke-width:0.5;" width="15" x="378.7788" y="46"/><rect fill="#F1F1F1" height="2" style="stroke:#181818;stroke-width:0.5;" width="4" x="376.7788" y="48"/><rect fill="#F1F1F1" height="2" style="stroke:#181818;stroke-width:0.5;" width="4" x="376.7788" y="52"/><text fill="#000000" font-family="sans-serif" font-size="14" lengthAdjust="spacing" textLength="55.5488" x="318.23" y="73.9951">site.yml</text></g><!--entity MASTER--><g class="entity" data-qualified-name="Core Kubernetes.MASTER" data-source-line="8" id="ent0005"><rect fill="#F1F1F1" height="46.2969" rx="2.5" ry="2.5" style="stroke:#181818;stroke-width:0.5;" width="175.4883" x="144.26" y="603.18"/><rect fill="#F1F1F1" height="10" style="stroke:#181818;stroke-width:0.5;" width="15" x="299.7483" y="608.18"/><rect fill="#F1F1F1" height="2" style="stroke:#181818;stroke-width:0.5;" width="4" x="297.7483" y="610.18"/><rect fill="#F1F1F1" height="2" style="stroke:#181818;stroke-width:0.5;" width="4" x="297.7483" y="614.18"/><text fill="#000000" font-family="sans-serif" font-size="14" lengthAdjust="spacing" textLength="135.4883" x="159.26" y="636.1751">kubernetes_master</text></g><!--entity WORKER--><g class="entity" data-qualified-name="Core Kubernetes.WORKER" data-source-line="9" id="ent0006"><rect fill="#F1F1F1" height="46.2969" rx="2.5" ry="2.5" style="stroke:#181818;stroke-width:0.5;" width="174.3672" x="276.82" y="479.89"/><rect fill="#F1F1F1" height="10" style="stroke:#181818;stroke-width:0.5;" width="15" x="431.1872" y="484.89"/><rect fill="#F1F1F1" height="2" style="stroke:#181818;stroke-width:0.5;" width="4" x="429.1872" y="486.89"/><rect fill="#F1F1F1" height="2" style="stroke:#181818;stroke-width:0.5;" width="4" x="429.1872" y="490.89"/><text fill="#000000" font-family="sans-serif" font-size="14" lengthAdjust="spacing" textLength="134.3672" x="291.82" y="512.8851">kubernetes_worker</text></g><!--entity NETWORK--><g class="entity" data-qualified-name="Core Kubernetes.NETWORK" data-source-line="10" id="ent0007"><rect fill="#F1F1F1" height="46.2969" rx="2.5" ry="2.5" style="stroke:#181818;stroke-width:0.5;" width="182.9736" x="58.51" y="479.89"/><rect fill="#F1F1F1" height="10" style="stroke:#181818;stroke-width:0.5;" width="15" x="221.4836" y="484.89"/><rect fill="#F1F1F1" height="2" style="stroke:#181818;stroke-width:0.5;" width="4" x="219.4836" y="486.89"/><rect fill="#F1F1F1" height="2" style="stroke:#181818;stroke-width:0.5;" width="4" x="219.4836" y="490.89"/><text fill="#000000" font-family="sans-serif" font-size="14" lengthAdjust="spacing" textLength="142.9736" x="73.51" y="512.8851">kubernetes_network</text></g><!--entity METALLB--><g class="entity" data-qualified-name="Infrastructure.METALLB" data-source-line="14" id="ent0009"><rect fill="#F1F1F1" height="46.2969" rx="2.5" ry="2.5" style="stroke:#181818;stroke-width:0.5;" width="92.9854" x="591.51" y="333.59"/><rect fill="#F1F1F1" height="10" style="stroke:#181818;stroke-width:0.5;" width="15" x="664.4954" y="338.59"/><rect fill="#F1F1F1" height="2" style="stroke:#181818;stroke-width:0.5;" width="4" x="662.4954" y="340.59"/><rect fill="#F1F1F1" height="2" style="stroke:#181818;stroke-width:0.5;" width="4" x="662.4954" y="344.59"/><text fill="#000000" font-family="sans-serif" font-size="14" lengthAdjust="spacing" textLength="52.9854" x="606.51" y="366.5851">metallb</text></g><!--entity STORAGE--><g class="entity" data-qualified-name="Infrastructure.STORAGE" data-source-line="15" id="ent0010"><rect fill="#F1F1F1" height="46.2969" rx="2.5" ry="2.5" style="stroke:#181818;stroke-width:0.5;" width="93.1836" x="311.41" y="333.59"/><rect fill="#F1F1F1" height="10" style="stroke:#181818;stroke-width:0.5;" width="15" x="384.5936" y="338.59"/><rect fill="#F1F1F1" height="2" style="stroke:#181818;stroke-width:0.5;" width="4" x="382.5936" y="340.59"/><rect fill="#F1F1F1" height="2" style="stroke:#181818;stroke-width:0.5;" width="4" x="382.5936" y="344.59"/><text fill="#000000" font-family="sans-serif" font-size="14" lengthAdjust="spacing" textLength="53.1836" x="326.41" y="366.5851">storage</text></g><!--entity MONITORING--><g class="entity" data-qualified-name="Infrastructure.MONITORING" data-source-line="16" id="ent0011"><rect fill="#F1F1F1" height="46.2969" rx="2.5" ry="2.5" style="stroke:#181818;stroke-width:0.5;" width="116.4258" x="439.79" y="333.59"/><rect fill="#F1F1F1" height="10" style="stroke:#181818;stroke-width:0.5;" width="15" x="536.2158" y="338.59"/><rect fill="#F1F1F1" height="2" style="stroke:#181818;stroke-width:0.5;" width="4" x="534.2158" y="340.59"/><rect fill="#F1F1F1" height="2" style="stroke:#181818;stroke-width:0.5;" width="4" x="534.2158" y="344.59"/><text fill="#000000" font-family="sans-serif" font-size="14" lengthAdjust="spacing" textLength="76.4258" x="454.79" y="366.5851">monitoring</text></g><!--entity DEMO--><g class="entity" data-qualified-name="Applications.DEMO" data-source-line="20" id="ent0013"><rect fill="#F1F1F1" height="46.2969" rx="2.5" ry="2.5" style="stroke:#181818;stroke-width:0.5;" width="113.0557" x="754.47" y="187.29"/><rect fill="#F1F1F1" height="10" style="stroke:#181818;stroke-width:0.5;" width="15" x="847.5257" y="192.29"/><rect fill="#F1F1F1" height="2" style="stroke:#181818;stroke-width:0.5;" width="4" x="845.5257" y="194.29"/><rect fill="#F1F1F1" height="2" style="stroke:#181818;stroke-width:0.5;" width="4" x="845.5257" y="198.29"/><text fill="#000000" font-family="sans-serif" font-size="14" lengthAdjust="spacing" textLength="73.0557" x="769.47" y="220.2851">demo_app</text></g><g class="entity" data-qualified-name="GMN25" data-source-line="37" id="ent0026"><path d="M483.05,606.2 L483.05,622.33 L320.02,626.33 L483.05,630.33 L483.05,646.4656 A0,0 0 0 0 483.05,646.4656 L668.9431,646.4656 A0,0 0 0 0 668.9431,646.4656 L668.9431,616.2 L658.9431,606.2 L483.05,606.2 A0,0 0 0 0 483.05,606.2" fill="#FEFFDD" style="stroke:#181818;stroke-width:0.5;"/><path d="M658.9431,606.2 L658.9431,616.2 L668.9431,616.2 L658.9431,606.2" fill="#FEFFDD" style="stroke:#181818;stroke-width:0.5;"/><text fill="#000000" font-family="sans-serif" font-size="13" lengthAdjust="spacing" textLength="164.8931" x="489.05" y="623.2669">"&#1059;&#1089;&#1090;&#1072;&#1085;&#1086;&#1074;&#1082;&#1072; &#1080; &#1085;&#1072;&#1089;&#1090;&#1088;&#1086;&#1081;&#1082;&#1072;</text><text fill="#000000" font-family="sans-serif" font-size="13" lengthAdjust="spacing" textLength="91.5269" x="489.05" y="638.3997">control plane"</text></g><g class="entity" data-qualified-name="GMN28" data-source-line="38" id="ent0029"><path d="M703.18,482.9 L703.18,523.1656 L928.8284,523.1656 L928.8284,492.9 L918.8284,482.9 L703.18,482.9" fill="#FEFFDD" style="stroke:#181818;stroke-width:0.5;"/><path d="M918.8284,482.9 L918.8284,492.9 L928.8284,492.9 L918.8284,482.9" fill="#FEFFDD" style="stroke:#181818;stroke-width:1;"/><text fill="#000000" font-family="sans-serif" font-size="13" lengthAdjust="spacing" textLength="178.0835" x="709.18" y="499.9669">"&#1055;&#1086;&#1076;&#1075;&#1086;&#1090;&#1086;&#1074;&#1082;&#1072; worker &#1091;&#1079;&#1083;&#1086;&#1074;</text><text fill="#000000" font-family="sans-serif" font-size="13" lengthAdjust="spacing" textLength="204.6484" x="709.18" y="515.0997">&#1080; &#1087;&#1088;&#1080;&#1089;&#1086;&#1077;&#1076;&#1080;&#1085;&#1077;&#1085;&#1080;&#1077; &#1082; &#1082;&#1083;&#1072;&#1089;&#1090;&#1077;&#1088;&#1091;"</text></g><g class="entity" data-qualified-name="GMN31" data-source-line="39" id="ent0032"><path d="M486.23,490.47 L486.23,515.6028 L667.7749,515.6028 L667.7749,500.47 L657.7749,490.47 L486.23,490.47" fill="#FEFFDD" style="stroke:#181818;stroke-width:0.5;"/><path d="M657.7749,490.47 L657.7749,500.47 L667.7749,500.47 L657.7749,490.47" fill="#FEFFDD" style="stroke:#181818;stroke-width:1;"/><text fill="#000000" font-family="sans-serif" font-size="13" lengthAdjust="spacing" textLength="160.5449" x="492.23" y="507.5369">"&#1059;&#1089;&#1090;&#1072;&#1085;&#1086;&#1074;&#1082;&#1072; Flannel CNI"</text></g><g class="entity" data-qualified-name="GMN34" data-source-line="40" id="ent0035"><path d="M1161.38,336.61 L1161.38,376.8756 L1364.6149,376.8756 L1364.6149,346.61 L1354.6149,336.61 L1161.38,336.61" fill="#FEFFDD" style="stroke:#181818;stroke-width:0.5;"/><path d="M1354.6149,336.61 L1354.6149,346.61 L1364.6149,346.61 L1354.6149,336.61" fill="#FEFFDD" style="stroke:#181818;stroke-width:1;"/><text fill="#000000" font-family="sans-serif" font-size="13" lengthAdjust="spacing" textLength="182.2349" x="1167.38" y="353.6769">"&#1041;&#1072;&#1083;&#1072;&#1085;&#1089;&#1080;&#1088;&#1086;&#1074;&#1097;&#1080;&#1082; &#1085;&#1072;&#1075;&#1088;&#1091;&#1079;&#1082;&#1080;</text><text fill="#000000" font-family="sans-serif" font-size="13" lengthAdjust="spacing" textLength="106.2598" x="1167.38" y="368.8097">&#1076;&#1083;&#1103; bare metal"</text></g><g class="entity" data-qualified-name="GMN37" data-source-line="41" id="ent0038"><path d="M719.54,344.17 L719.54,369.3028 L908.4609,369.3028 L908.4609,354.17 L898.4609,344.17 L719.54,344.17" fill="#FEFFDD" style="stroke:#181818;stroke-width:0.5;"/><path d="M898.4609,344.17 L898.4609,354.17 L908.4609,354.17 L898.4609,344.17" fill="#FEFFDD" style="stroke:#181818;stroke-width:1;"/><text fill="#000000" font-family="sans-serif" font-size="13" lengthAdjust="spacing" textLength="167.9209" x="725.54" y="361.2369">"&#1051;&#1086;&#1082;&#1072;&#1083;&#1100;&#1085;&#1086;&#1077; &#1093;&#1088;&#1072;&#1085;&#1080;&#1083;&#1080;&#1097;&#1077;"</text></g><g class="entity" data-qualified-name="GMN40" data-source-line="42" id="ent0041"><path d="M943.8,344.17 L943.8,369.3028 L1126.1955,369.3028 L1126.1955,354.17 L1116.1955,344.17 L943.8,344.17" fill="#FEFFDD" style="stroke:#181818;stroke-width:0.5;"/><path d="M1116.1955,344.17 L1116.1955,354.17 L1126.1955,354.17 L1116.1955,344.17" fill="#FEFFDD" style="stroke:#181818;stroke-width:1;"/><text fill="#000000" font-family="sans-serif" font-size="13" lengthAdjust="spacing" textLength="161.3955" x="949.8" y="361.2369">"Prometheus + Grafana"</text></g><g class="entity" data-qualified-name="GMN43" data-source-line="43" id="ent0044"><path d="M902.28,197.87 L902.28,206.44 L867.78,210.44 L902.28,214.44 L902.28,223.0028 A0,0 0 0 0 902.28,223.0028 L1087.716,223.0028 A0,0 0 0 0 1087.716,223.0028 L1087.716,207.87 L1077.716,197.87 L902.28,197.87 A0,0 0 0 0 902.28,197.87" fill="#FEFFDD" style="stroke:#181818;stroke-width:0.5;"/><path d="M1077.716,197.87 L1077.716,207.87 L1087.716,207.87 L1077.716,197.87" fill="#FEFFDD" style="stroke:#181818;stroke-width:0.5;"/><text fill="#000000" font-family="sans-serif" font-size="13" lengthAdjust="spacing" textLength="164.436" x="908.28" y="214.9369">"&#1058;&#1077;&#1089;&#1090;&#1086;&#1074;&#1086;&#1077; &#1087;&#1088;&#1080;&#1083;&#1086;&#1078;&#1077;&#1085;&#1080;&#1077;"</text></g><!--link SITE to MASTER--><g class="link" data-entity-1="ent0003" data-entity-2="ent0005" data-link-type="dependency" data-source-line="24" id="lnk14"><path d="M303.03,64.24 C208.23,65.21 6,82.19 6,209.44 C6,209.44 6,209.44 6,504.03 C6,569.49 74.6593,598.4845 138.1193,612.4045" fill="none" id="SITE-to-MASTER" style="stroke:#181818;stroke-width:1;"/><polygon fill="#181818" points="143.98,613.69,136.046,607.8546,139.0961,612.6187,134.332,615.6688,143.98,613.69" style="stroke:#181818;stroke-width:1;"/><text fill="#000000" font-family="sans-serif" font-size="13" lengthAdjust="spacing" textLength="74.5786" x="7" y="361.3069">&#1074;&#1099;&#1087;&#1086;&#1083;&#1085;&#1103;&#1077;&#1090;</text></g><!--link SITE to WORKER--><g class="link" data-entity-1="ent0003" data-entity-2="ent0006" data-link-type="dependency" data-source-line="25" id="lnk15"><path d="M338.82,87.75 C320.04,124.01 284.84,197.97 272,265.59 C262.74,314.32 216.01,294.11 282,428.89 C292.07,449.45 305.8981,463.2159 322.8681,475.8559" fill="none" id="SITE-to-WORKER" style="stroke:#181818;stroke-width:1;"/><polygon fill="#181818" points="327.68,479.44,322.8516,470.8559,323.6701,476.4532,318.0728,477.2718,327.68,479.44" style="stroke:#181818;stroke-width:1;"/><text fill="#000000" font-family="sans-serif" font-size="13" lengthAdjust="spacing" textLength="74.5786" x="273" y="278.6569">&#1074;&#1099;&#1087;&#1086;&#1083;&#1085;&#1103;&#1077;&#1090;</text></g><!--link SITE to NETWORK--><g class="link" data-entity-1="ent0003" data-entity-2="ent0007" data-link-type="dependency" data-source-line="26" id="lnk16"><path d="M322.66,87.74 C282.75,121.52 211.55,189.42 182,265.59 C153.08,340.12 149.5758,430.66 149.6058,473.67" fill="none" id="SITE-to-NETWORK" style="stroke:#181818;stroke-width:1;"/><polygon fill="#181818" points="149.61,479.67,153.61,470.67,149.61,474.67,145.61,470.67,149.61,479.67" style="stroke:#181818;stroke-width:1;"/><text fill="#000000" font-family="sans-serif" font-size="13" lengthAdjust="spacing" textLength="74.5786" x="183" y="278.6569">&#1074;&#1099;&#1087;&#1086;&#1083;&#1085;&#1103;&#1077;&#1090;</text></g><!--link SITE to METALLB--><g class="link" data-entity-1="ent0003" data-entity-2="ent0009" data-link-type="dependency" data-source-line="27" id="lnk17"><path d="M381.71,87.63 C400.23,102.28 423.37,122.65 440,144.29 C474.34,188.99 455.94,218.97 497,257.59 C524.12,283.1 543.26,269.58 574,290.59 C591.41,302.49 604.0597,315.0851 615.9897,328.7851" fill="none" id="SITE-to-METALLB" style="stroke:#181818;stroke-width:1;"/><polygon fill="#181818" points="619.93,333.31,617.0362,323.8959,616.6464,329.5393,611.003,329.1496,619.93,333.31" style="stroke:#181818;stroke-width:1;"/><text fill="#000000" font-family="sans-serif" font-size="13" lengthAdjust="spacing" textLength="74.5786" x="498" y="215.0069">&#1074;&#1099;&#1087;&#1086;&#1083;&#1085;&#1103;&#1077;&#1090;</text></g><!--link SITE to STORAGE--><g class="link" data-entity-1="ent0003" data-entity-2="ent0010" data-link-type="dependency" data-source-line="28" id="lnk18"><path d="M351.54,87.46 C352.84,141.56 356.0161,273.1717 357.3161,327.3417" fill="none" id="SITE-to-STORAGE" style="stroke:#181818;stroke-width:1;"/><polygon fill="#181818" points="357.46,333.34,361.2429,324.2466,357.34,328.3414,353.2452,324.4386,357.46,333.34" style="stroke:#181818;stroke-width:1;"/><text fill="#000000" font-family="sans-serif" font-size="13" lengthAdjust="spacing" textLength="74.5786" x="356.54" y="215.0069">&#1074;&#1099;&#1087;&#1086;&#1083;&#1085;&#1103;&#1077;&#1090;</text></g><!--link SITE to MONITORING--><g class="link" data-entity-1="ent0003" data-entity-2="ent0011" data-link-type="dependency" data-source-line="29" id="lnk19"><path d="M399.05,65.7 C454.1,69.28 541.78,84.67 581,144.29 C608.68,186.36 598.31,210.31 581,257.59 C569.95,287.76 549.4853,310.9873 529.8253,329.0773" fill="none" id="SITE-to-MONITORING" style="stroke:#181818;stroke-width:1;"/><polygon fill="#181818" points="525.41,333.14,534.7414,329.9895,529.0894,329.7544,529.3245,324.1025,525.41,333.14" style="stroke:#181818;stroke-width:1;"/><text fill="#000000" font-family="sans-serif" font-size="13" lengthAdjust="spacing" textLength="74.5786" x="599.09" y="215.0069">&#1074;&#1099;&#1087;&#1086;&#1083;&#1085;&#1103;&#1077;&#1090;</text></g><!--link SITE to DEMO--><g class="link" data-entity-1="ent0003" data-entity-2="ent0013" data-link-type="dependency" data-source-line="30" id="lnk20"><path d="M399.03,65.62 C474.11,68.38 621.59,82.06 727,144.29 C747.82,156.58 764.731,169.5065 780.771,182.9465" fill="none" id="SITE-to-DEMO" style="stroke:#181818;stroke-width:1;"/><polygon fill="#181818" points="785.37,186.8,781.0405,177.9538,781.5375,183.5887,775.9025,184.0857,785.37,186.8" style="stroke:#181818;stroke-width:1;"/><text fill="#000000" font-family="sans-serif" font-size="13" lengthAdjust="spacing" textLength="74.5786" x="709.98" y="132.3569">&#1074;&#1099;&#1087;&#1086;&#1083;&#1085;&#1103;&#1077;&#1090;</text></g><!--link WORKER to MASTER--><g class="link" data-entity-1="ent0006" data-entity-2="ent0005" data-link-type="dependency" data-source-line="32" id="lnk21"><path d="M339.48,526.57 C315.77,548.35 284.4681,577.1204 260.8081,598.8604" fill="none" id="WORKER-to-MASTER" style="stroke:#181818;stroke-width:1;"/><polygon fill="#181818" points="256.39,602.92,265.7236,599.776,260.0718,599.537,260.3108,593.8852,256.39,602.92" style="stroke:#181818;stroke-width:1;"/><text fill="#000000" font-family="sans-serif" font-size="13" lengthAdjust="spacing" textLength="73.8169" x="306.9" y="569.2469">&#1079;&#1072;&#1074;&#1080;&#1089;&#1080;&#1090; &#1086;&#1090;</text></g><!--link NETWORK to MASTER--><g class="link" data-entity-1="ent0007" data-entity-2="ent0005" data-link-type="dependency" data-source-line="33" id="lnk22"><path d="M165.23,526.57 C179.96,548.35 198.7892,576.2096 213.4892,597.9496" fill="none" id="NETWORK-to-MASTER" style="stroke:#181818;stroke-width:1;"/><polygon fill="#181818" points="216.85,602.92,215.1223,593.2239,214.0493,598.778,208.4951,597.705,216.85,602.92" style="stroke:#181818;stroke-width:1;"/><text fill="#000000" font-family="sans-serif" font-size="13" lengthAdjust="spacing" textLength="73.8169" x="196.91" y="569.2469">&#1079;&#1072;&#1074;&#1080;&#1089;&#1080;&#1090; &#1086;&#1090;</text></g><!--link METALLB to NETWORK--><g class="link" data-entity-1="ent0009" data-entity-2="ent0007" data-link-type="dependency" data-source-line="34" id="lnk23"><path d="M613.34,380.16 C602.12,389.07 588.21,398.47 574,403.89 C442.48,454.07 392.55,392.4 259,436.89 C230.14,446.5 205.6324,461.235 184.6424,475.955" fill="none" id="METALLB-to-NETWORK" style="stroke:#181818;stroke-width:1;"/><polygon fill="#181818" points="179.73,479.4,189.3953,477.5074,183.8237,476.5292,184.802,470.9575,179.73,479.4" style="stroke:#181818;stroke-width:1;"/><text fill="#000000" font-family="sans-serif" font-size="13" lengthAdjust="spacing" textLength="73.8169" x="544.92" y="424.9569">&#1079;&#1072;&#1074;&#1080;&#1089;&#1080;&#1090; &#1086;&#1090;</text></g><!--link DEMO to METALLB--><g class="link" data-entity-1="ent0013" data-entity-2="ent0009" data-link-type="dependency" data-source-line="35" id="lnk24"><path d="M777,233.96 C754.92,249.1 725.92,269.98 702,290.59 C686.62,303.84 674.7203,315.7396 662.5703,328.7196" fill="none" id="DEMO-to-METALLB" style="stroke:#181818;stroke-width:1;"/><polygon fill="#181818" points="658.47,333.1,667.5407,329.2629,661.8869,329.4497,661.7002,323.7959,658.47,333.1" style="stroke:#181818;stroke-width:1;"/><text fill="#000000" font-family="sans-serif" font-size="13" lengthAdjust="spacing" textLength="73.8169" x="731.75" y="278.6569">&#1079;&#1072;&#1074;&#1080;&#1089;&#1080;&#1090; &#1086;&#1090;</text></g><!--link WORKER to GMN28--><g class="link" data-entity-1="ent0006" data-entity-2="ent0029" data-link-type="association" data-source-line="38" id="lnk30"><path d="M388.85,479.63 C412.06,459.5 448.72,431.94 486.5,420.39 C563.43,396.86 589.64,400.18 667.5,420.39 C713.62,432.36 760.65,462.12 789.09,482.46" fill="none" id="WORKER-GMN28" style="stroke:#181818;stroke-width:1;stroke-dasharray:7,7;"/></g><!--link NETWORK to GMN31--><g class="link" data-entity-1="ent0007" data-entity-2="ent0032" data-link-type="association" data-source-line="39" id="lnk33"><path d="M175.8,479.62 C199.87,459.48 237.78,431.91 276.5,420.39 C350.19,398.45 375.77,398.58 449.5,420.39 C495.79,434.08 541.05,470.43 563.1,490.05" fill="none" id="NETWORK-GMN31" style="stroke:#181818;stroke-width:1;stroke-dasharray:7,7;"/></g><!--link METALLB to GMN34--><g class="link" data-entity-1="ent0009" data-entity-2="ent0035" data-link-type="association" data-source-line="40" id="lnk36"><path d="M652.77,333.29 C667.02,313.12 690.66,285.54 719.5,274.09 C761.53,257.4 1082.94,261.93 1126.5,274.09 C1169.73,286.16 1212.91,316.05 1238.79,336.37" fill="none" id="METALLB-GMN34" style="stroke:#181818;stroke-width:1;stroke-dasharray:7,7;"/></g><!--link STORAGE to GMN37--><g class="link" data-entity-1="ent0010" data-entity-2="ent0038" data-link-type="association" data-source-line="41" id="lnk39"><path d="M372.77,333.29 C387.02,313.12 410.66,285.54 439.5,274.09 C489.69,254.16 630.61,259.14 682.5,274.09 C729.92,287.75 776.74,324.12 799.59,343.74" fill="none" id="STORAGE-GMN37" style="stroke:#181818;stroke-width:1;stroke-dasharray:7,7;"/></g><!--link MONITORING to GMN40--><g class="link" data-entity-1="ent0011" data-entity-2="ent0041" data-link-type="association" data-source-line="42" id="lnk42"><path d="M515.84,333.46 C532.8,313.41 560.3,285.9 591.5,274.09 C624.44,261.62 874.74,264.04 908.5,274.09 C954.51,287.79 999.38,324.14 1021.23,343.75" fill="none" id="MONITORING-GMN40" style="stroke:#181818;stroke-width:1;stroke-dasharray:7,7;"/></g><?plantuml-src ZLHDQjj06Dth55-rwQAa1-YYe3ggCN7iu0YwQ4eOosD7M9uH8vaIIY5sw2Aq4BBkej1Um3XHwzh4kSBCZVhDI7PbESK5ow2Pzxxtev6UT6WtO1HQRiLp6jMw2tv8ujYo8kBtIO-2xR0uQ8SKZa9otkQyRyC72-1j72Jq-VaWV0SaXkEQvreV2wGA5nGEXcqg64red7FwwuNJ0OaJAWpvq3dst5Pf_pqN_Np_JRDriBMF_nfY00tNqvWD0pNM5IWXXduo53JN7z24X64xKtKzfrv_PQ8aN20fI-8rMqxLDMZE0jm9M2yZD1irtAmrgXj2JXI5WK-IWBDLp0uTy5CIHOQsxnusDU4fxDE8iWvbVa1ZIpS6Utily_Jm0cmvLP_bWrpAXRnNrp9LO_ilB2jX9oolOYSkJxyJbzUnUzwwd9rGNSY_G5OUirJCBpcHKpbJ8xp689SQkahw7z1Ls791Zs6Dkt93Zm4jnXCA8kYT9S2xHGi_r4YDaN6FsQPoBYSWPu1t4xskBd3rjruzOJvdYU0XH25Xr2uDB3pmRqYvaxTQTpqoUpz0NQAvXLuzOLhb0UThdqkP8cM6gYbUCvc2dECFeSO5jdsXBikInMwsGxn6buo6K6dKoiHYLpT8McYYQKkddQehT30t5SXRBOoUvtA6Zk_aGbr3c-37mhoRvS75u_SLHytrSFN5k4f1VSBv4vDlWLfNCjqojd4iZmH7bJCwZE4PL0Nf4aRAZFNf_8uTZVB2jLXMhUdwvwfK-my0?></g></svg>