<?plantuml 1.2026.2?><svg xmlns="http://www.w3.org/2000/svg" xmlns:xlink="http://www.w3.org/1999/xlink" contentStyleType="text/css" data-diagram-type="DESCRIPTION" height="593px" preserveAspectRatio="none" style="width:1713px;height:593px;background:#FFFFFF;" version="1.1" viewBox="0 0 1713 593" width="1713px" zoomAndPan="magnify"><defs/><g><!--cluster Kubernetes Cluster--><g class="cluster" data-qualified-name="Kubernetes Cluster" data-source-line="3" id="ent0002"><path d="M490.56,421.89 L644.1176,421.89 A3.75,3.75 0 0 1 646.6176,424.39 L653.6176,444.1869 L1013.56,444.1869 A2.5,2.5 0 0 1 1016.06,446.6869 L1016.06,583.69 A2.5,2.5 0 0 1 1013.56,586.19 L490.56,586.19 A2.5,2.5 0 0 1 488.06,583.69 L488.06,424.39 A2.5,2.5 0 0 1 490.56,421.89" fill="none" style="stroke:#000000;stroke-width:1.5;"/><line style="stroke:#000000;stroke-width:1.5;" x1="488.06" x2="653.6176" y1="444.1869" y2="444.1869"/><text fill="#000000" font-family="sans-serif" font-size="14" font-weight="bold" lengthAdjust="spacing" textLength="152.5576" x="492.06" y="436.8851">Kubernetes Cluster</text></g><!--cluster Node 1--><g class="cluster" data-qualified-name="Kubernetes Cluster.Node 1" data-source-line="4" id="ent0003"><path d="M514.56,464.89 L571.0268,464.89 A3.75,3.75 0 0 1 573.5268,467.39 L580.5268,487.1869 L736.56,487.1869 A2.5,2.5 0 0 1 739.06,489.6869 L739.06,559.69 A2.5,2.5 0 0 1 736.56,562.19 L514.56,562.19 A2.5,2.5 0 0 1 512.06,559.69 L512.06,467.39 A2.5,2.5 0 0 1 514.56,464.89" fill="none" style="stroke:#000000;stroke-width:1.5;"/><line style="stroke:#000000;stroke-width:1.5;" x1="512.06" x2="580.5268" y1="487.1869" y2="487.1869"/><text fill="#000000" font-family="sans-serif" font-size="14" font-weight="bold" lengthAdjust="spacing" textLength="55.4668" x="516.06" y="479.8851">Node 1</text></g><!--cluster Node 2--><g class="cluster" data-qualified-name="Kubernetes Cluster.Node 2" data-source-line="9" id="ent0006"><path d="M765.56,464.89 L822.0268,464.89 A3.75,3.75 0 0 1 824.5268,467.39 L831.5268,487.1869 L989.56,487.1869 A2.5,2.5 0 0 1 992.06,489.6869 L992.06,559.69 A2.5,2.5 0 0 1 989.56,562.19 L765.56,562.19 A2.5,2.5 0 0 1 763.06,559.69 L763.06,467.39 A2.5,2.5 0 0 1 765.56,464.89" fill="none" style="stroke:#000000;stroke-width:1.5;"/><line style="stroke:#000000;stroke-width:1.5;" x1="763.06" x2="831.5268" y1="487.1869" y2="487.1869"/><text fill="#000000" font-family="sans-serif" font-size="14" font-weight="bold" lengthAdjust="spacing" textLength="55.4668" x="767.06" y="479.8851">Node 2</text></g><!--cluster Service Layer--><g class="cluster" data-qualified-name="Service Layer" data-source-line="15" id="ent0009"><path d="M435.56,275.6 L543.5288,275.6 A3.75,3.75 0 0 1 546.0288,278.1 L553.0288,297.8969 L1042.56,297.8969 A2.5,2.5 0 0 1 1045.06,300.3969 L1045.06,370.39 A2.5,2.5 0 0 1 1042.56,372.89 L435.56,372.89 A2.5,2.5 0 0 1 433.06,370.39 L433.06,278.1 A2.5,2.5 0 0 1 435.56,275.6" fill="none" style="stroke:#000000;stroke-width:1.5;"/><line style="stroke:#000000;stroke-width:1.5;" x1="433.06" x2="553.0288" y1="297.8969" y2="297.8969"/><text fill="#000000" font-family="sans-serif" font-size="14" font-weight="bold" lengthAdjust="spacing" textLength="106.9688" x="437.06" y="290.5951">Service Layer</text></g><!--cluster External Access--><g class="cluster" data-qualified-name="External Access" data-source-line="21" id="ent0013"><path d="M652.56,6 L777.9262,6 A3.75,3.75 0 0 1 780.4262,8.5 L787.4262,28.2969 L1106.56,28.2969 A2.5,2.5 0 0 1 1109.06,30.7969 L1109.06,224.1 A2.5,2.5 0 0 1 1106.56,226.6 L652.56,226.6 A2.5,2.5 0 0 1 650.06,224.1 L650.06,8.5 A2.5,2.5 0 0 1 652.56,6" fill="none" style="stroke:#000000;stroke-width:1.5;"/><line style="stroke:#000000;stroke-width:1.5;" x1="650.06" x2="787.4262" y1="28.2969" y2="28.2969"/><text fill="#000000" font-family="sans-serif" font-size="14" font-weight="bold" lengthAdjust="spacing" textLength="124.3662" x="654.06" y="20.9951">External Access</text></g><!--entity PODA--><g class="entity" data-qualified-name="Kubernetes Cluster.Node 1.PODA" data-source-line="5" id="ent0004"><rect fill="#F1F1F1" height="46.2969" rx="2.5" ry="2.5" style="stroke:#181818;stroke-width:0.5;" width="79.9219" x="528.1" y="499.89"/><rect fill="#F1F1F1" height="10" style="stroke:#181818;stroke-width:0.5;" width="15" x="588.0219" y="504.89"/><rect fill="#F1F1F1" height="2" style="stroke:#181818;stroke-width:0.5;" width="4" x="586.0219" y="506.89"/><rect fill="#F1F1F1" height="2" style="stroke:#181818;stroke-width:0.5;" width="4" x="586.0219" y="510.89"/><text fill="#000000" font-family="sans-serif" font-size="14" lengthAdjust="spacing" textLength="39.9219" x="543.1" y="532.8851">Pod A</text></g><!--entity PODB--><g class="entity" data-qualified-name="Kubernetes Cluster.Node 1.PODB" data-source-line="6" id="ent0005"><rect fill="#F1F1F1" height="46.2969" rx="2.5" ry="2.5" style="stroke:#181818;stroke-width:0.5;" width="79.9492" x="643.09" y="499.89"/><rect fill="#F1F1F1" height="10" style="stroke:#181818;stroke-width:0.5;" width="15" x="703.0392" y="504.89"/><rect fill="#F1F1F1" height="2" style="stroke:#181818;stroke-width:0.5;" width="4" x="701.0392" y="506.89"/><rect fill="#F1F1F1" height="2" style="stroke:#181818;stroke-width:0.5;" width="4" x="701.0392" y="510.89"/><text fill="#000000" font-family="sans-serif" font-size="14" lengthAdjust="spacing" textLength="39.9492" x="658.09" y="532.8851">Pod B</text></g><!--entity PODC--><g class="entity" data-qualified-name="Kubernetes Cluster.Node 2.PODC" data-source-line="10" id="ent0007"><rect fill="#F1F1F1" height="46.2969" rx="2.5" ry="2.5" style="stroke:#181818;stroke-width:0.5;" width="80.1201" x="779" y="499.89"/><rect fill="#F1F1F1" height="10" style="stroke:#181818;stroke-width:0.5;" width="15" x="839.1201" y="504.89"/><rect fill="#F1F1F1" height="2" style="stroke:#181818;stroke-width:0.5;" width="4" x="837.1201" y="506.89"/><rect fill="#F1F1F1" height="2" style="stroke:#181818;stroke-width:0.5;" width="4" x="837.1201" y="510.89"/><text fill="#000000" font-family="sans-serif" font-size="14" lengthAdjust="spacing" textLength="40.1201" x="794" y="532.8851">Pod C</text></g><!--entity PODD--><g class="entity" data-qualified-name="Kubernetes Cluster.Node 2.PODD" data-source-line="11" id="ent0008"><rect fill="#F1F1F1" height="46.2969" rx="2.5" ry="2.5" style="stroke:#181818;stroke-width:0.5;" width="81.125" x="894.5" y="499.89"/><rect fill="#F1F1F1" height="10" style="stroke:#181818;stroke-width:0.5;" width="15" x="955.625" y="504.89"/><rect fill="#F1F1F1" height="2" style="stroke:#181818;stroke-width:0.5;" width="4" x="953.625" y="506.89"/><rect fill="#F1F1F1" height="2" style="stroke:#181818;stroke-width:0.5;" width="4" x="953.625" y="510.89"/><text fill="#000000" font-family="sans-serif" font-size="14" lengthAdjust="spacing" textLength="41.125" x="909.5" y="532.8851">Pod D</text></g><!--entity CLUSTERIP--><g class="entity" data-qualified-name="Service Layer.CLUSTERIP" data-source-line="16" id="ent0010"><rect fill="#F1F1F1" height="46.2969" rx="2.5" ry="2.5" style="stroke:#181818;stroke-width:0.5;" width="158.4531" x="448.83" y="310.6"/><rect fill="#F1F1F1" height="10" style="stroke:#181818;stroke-width:0.5;" width="15" x="587.2831" y="315.6"/><rect fill="#F1F1F1" height="2" style="stroke:#181818;stroke-width:0.5;" width="4" x="585.2831" y="317.6"/><rect fill="#F1F1F1" height="2" style="stroke:#181818;stroke-width:0.5;" width="4" x="585.2831" y="321.6"/><text fill="#000000" font-family="sans-serif" font-size="14" lengthAdjust="spacing" textLength="118.4531" x="463.83" y="343.5951">ClusterIP Service</text></g><!--entity NODEPORT--><g class="entity" data-qualified-name="Service Layer.NODEPORT" data-source-line="17" id="ent0011"><rect fill="#F1F1F1" height="46.2969" rx="2.5" ry="2.5" style="stroke:#181818;stroke-width:0.5;" width="160.9824" x="868.57" y="310.6"/><rect fill="#F1F1F1" height="10" style="stroke:#181818;stroke-width:0.5;" width="15" x="1009.5524" y="315.6"/><rect fill="#F1F1F1" height="2" style="stroke:#181818;stroke-width:0.5;" width="4" x="1007.5524" y="317.6"/><rect fill="#F1F1F1" height="2" style="stroke:#181818;stroke-width:0.5;" width="4" x="1007.5524" y="321.6"/><text fill="#000000" font-family="sans-serif" font-size="14" lengthAdjust="spacing" textLength="120.9824" x="883.57" y="343.5951">NodePort Service</text></g><!--entity LOADBALANCER--><g class="entity" data-qualified-name="Service Layer.LOADBALANCER" data-source-line="18" id="ent0012"><rect fill="#F1F1F1" height="46.2969" rx="2.5" ry="2.5" style="stroke:#181818;stroke-width:0.5;" width="191.6143" x="642.25" y="310.6"/><rect fill="#F1F1F1" height="10" style="stroke:#181818;stroke-width:0.5;" width="15" x="813.8643" y="315.6"/><rect fill="#F1F1F1" height="2" style="stroke:#181818;stroke-width:0.5;" width="4" x="811.8643" y="317.6"/><rect fill="#F1F1F1" height="2" style="stroke:#181818;stroke-width:0.5;" width="4" x="811.8643" y="321.6"/><text fill="#000000" font-family="sans-serif" font-size="14" lengthAdjust="spacing" textLength="151.6143" x="657.25" y="343.5951">LoadBalancer Service</text></g><!--entity EXT_CLIENT--><g class="entity" data-qualified-name="External Access.EXT_CLIENT" data-source-line="22" id="ent0014"><rect fill="#F1F1F1" height="46.2969" rx="2.5" ry="2.5" style="stroke:#181818;stroke-width:0.5;" width="143.3115" x="666.4" y="41"/><rect fill="#F1F1F1" height="10" style="stroke:#181818;stroke-width:0.5;" width="15" x="789.7115" y="46"/><rect fill="#F1F1F1" height="2" style="stroke:#181818;stroke-width:0.5;" width="4" x="787.7115" y="48"/><rect fill="#F1F1F1" height="2" style="stroke:#181818;stroke-width:0.5;" width="4" x="787.7115" y="52"/><text fill="#000000" font-family="sans-serif" font-size="14" lengthAdjust="spacing" textLength="103.3115" x="681.4" y="73.9951">External Client</text></g><!--entity NODE1_IP--><g class="entity" data-qualified-name="External Access.NODE1_IP" data-source-line="23" id="ent0015"><rect fill="#F1F1F1" height="46.2969" rx="2.5" ry="2.5" style="stroke:#181818;stroke-width:0.5;" width="106.917" x="844.6" y="41"/><rect fill="#F1F1F1" height="10" style="stroke:#181818;stroke-width:0.5;" width="15" x="931.517" y="46"/><rect fill="#F1F1F1" height="2" style="stroke:#181818;stroke-width:0.5;" width="4" x="929.517" y="48"/><rect fill="#F1F1F1" height="2" style="stroke:#181818;stroke-width:0.5;" width="4" x="929.517" y="52"/><text fill="#000000" font-family="sans-serif" font-size="14" lengthAdjust="spacing" textLength="66.917" x="859.6" y="73.9951">Node 1 IP</text></g><!--entity NODE2_IP--><g class="entity" data-qualified-name="External Access.NODE2_IP" data-source-line="24" id="ent0016"><rect fill="#F1F1F1" height="46.2969" rx="2.5" ry="2.5" style="stroke:#181818;stroke-width:0.5;" width="106.917" x="986.6" y="41"/><rect fill="#F1F1F1" height="10" style="stroke:#181818;stroke-width:0.5;" width="15" x="1073.517" y="46"/><rect fill="#F1F1F1" height="2" style="stroke:#181818;stroke-width:0.5;" width="4" x="1071.517" y="48"/><rect fill="#F1F1F1" height="2" style="stroke:#181818;stroke-width:0.5;" width="4" x="1071.517" y="52"/><text fill="#000000" font-family="sans-serif" font-size="14" lengthAdjust="spacing" textLength="66.917" x="1001.6" y="73.9951">Node 2 IP</text></g><!--entity EXT_IP--><g class="entity" data-qualified-name="External Access.EXT_IP" data-source-line="25" id="ent0017"><rect fill="#F1F1F1" height="46.2969" rx="2.5" ry="2.5" style="stroke:#181818;stroke-width:0.5;" width="115.3525" x="680.38" y="164.3"/><rect fill="#F1F1F1" height="10" style="stroke:#181818;stroke-width:0.5;" width="15" x="775.7325" y="169.3"/><rect fill="#F1F1F1" height="2" style="stroke:#181818;stroke-width:0.5;" width="4" x="773.7325" y="171.3"/><rect fill="#F1F1F1" height="2" style="stroke:#181818;stroke-width:0.5;" width="4" x="773.7325" y="175.3"/><text fill="#000000" font-family="sans-serif" font-size="14" lengthAdjust="spacing" textLength="75.3525" x="695.38" y="197.2951">External IP</text></g><g class="entity" data-qualified-name="GMN34" data-source-line="50" id="ent0035"><path d="M1065.01,313.61 L1065.01,353.8756 L1259.1169,353.8756 L1259.1169,323.61 L1249.1169,313.61 L1065.01,313.61" fill="#FEFFDD" style="stroke:#181818;stroke-width:0.5;"/><path d="M1249.1169,313.61 L1249.1169,323.61 L1259.1169,323.61 L1249.1169,313.61" fill="#FEFFDD" style="stroke:#181818;stroke-width:1;"/><text fill="#000000" font-family="sans-serif" font-size="13" lengthAdjust="spacing" textLength="133.1738" x="1071.01" y="330.6769">"ClusterIP: 10.96.x.x</text><text fill="#000000" font-family="sans-serif" font-size="13" lengthAdjust="spacing" textLength="173.1069" x="1071.01" y="345.8097">&#1058;&#1086;&#1083;&#1100;&#1082;&#1086; &#1074;&#1085;&#1091;&#1090;&#1088;&#1080; &#1082;&#1083;&#1072;&#1089;&#1090;&#1077;&#1088;&#1072;"</text></g><g class="entity" data-qualified-name="GMN37" data-source-line="51" id="ent0038"><path d="M1505.15,313.61 L1505.15,353.8756 L1706.9757,353.8756 L1706.9757,323.61 L1696.9757,313.61 L1505.15,313.61" fill="#FEFFDD" style="stroke:#181818;stroke-width:0.5;"/><path d="M1696.9757,313.61 L1696.9757,323.61 L1706.9757,323.61 L1696.9757,313.61" fill="#FEFFDD" style="stroke:#181818;stroke-width:1;"/><text fill="#000000" font-family="sans-serif" font-size="13" lengthAdjust="spacing" textLength="116.0098" x="1511.15" y="330.6769">"NodePort: 30000</text><text fill="#000000" font-family="sans-serif" font-size="13" lengthAdjust="spacing" textLength="180.8257" x="1511.15" y="345.8097">&#1044;&#1086;&#1089;&#1090;&#1091;&#1087; &#1095;&#1077;&#1088;&#1077;&#1079; &#1083;&#1102;&#1073;&#1086;&#1081; &#1091;&#1079;&#1077;&#1083;"</text></g><g class="entity" data-qualified-name="GMN40" data-source-line="52" id="ent0041"><path d="M1294.18,313.61 L1294.18,353.8756 L1469.9359,353.8756 L1469.9359,323.61 L1459.9359,313.61 L1294.18,313.61" fill="#FEFFDD" style="stroke:#181818;stroke-width:0.5;"/><path d="M1459.9359,313.61 L1459.9359,323.61 L1469.9359,323.61 L1459.9359,313.61" fill="#FEFFDD" style="stroke:#181818;stroke-width:1;"/><text fill="#000000" font-family="sans-serif" font-size="13" lengthAdjust="spacing" textLength="154.7559" x="1300.18" y="330.6769">"External IP: 10.0.2.240</text><text fill="#000000" font-family="sans-serif" font-size="13" lengthAdjust="spacing" textLength="98.6553" x="1300.18" y="345.8097">&#1044;&#1086;&#1089;&#1090;&#1091;&#1087; &#1080;&#1079;&#1074;&#1085;&#1077;"</text></g><!--link CLUSTERIP to PODA--><g class="link" data-entity-1="ent0010" data-entity-2="ent0004" data-link-type="dependency" data-source-line="29" id="lnk18"><path d="M448.41,337.33 C310.64,342.64 39.75,357.04 11.06,388.89 C6,394.51 6.29,400.03 11.06,405.89 C76.64,486.56 404.9804,512.7471 521.7504,519.6271" fill="none" id="CLUSTERIP-to-PODA" style="stroke:#181818;stroke-width:1;"/><polygon fill="#181818" points="527.74,519.98,518.9909,515.4576,522.7487,519.6859,518.5203,523.4437,527.74,519.98" style="stroke:#181818;stroke-width:1;"/><text fill="#000000" font-family="sans-serif" font-size="13" lengthAdjust="spacing" textLength="92.5615" x="12.06" y="401.9569">internal traffic</text></g><!--link CLUSTERIP to PODB--><g class="link" data-entity-1="ent0010" data-entity-2="ent0005" data-link-type="dependency" data-source-line="30" id="lnk19"><path d="M448.42,337.71 C323.72,343.76 100.9,360.99 145.06,405.89 C163.76,424.91 602.29,400.01 625.06,413.89 C655.8,432.64 669.6703,467.9763 676.6103,493.7563" fill="none" id="CLUSTERIP-to-PODB" style="stroke:#181818;stroke-width:1;"/><polygon fill="#181818" points="678.17,499.55,679.693,489.8196,676.8703,494.7219,671.968,491.8992,678.17,499.55" style="stroke:#181818;stroke-width:1;"/><text fill="#000000" font-family="sans-serif" font-size="13" lengthAdjust="spacing" textLength="92.5615" x="146.06" y="401.9569">internal traffic</text></g><!--link CLUSTERIP to PODC--><g class="link" data-entity-1="ent0010" data-entity-2="ent0007" data-link-type="dependency" data-source-line="31" id="lnk20"><path d="M448.52,334.86 C356.66,337.5 224.7,350.58 279.06,405.89 C296.98,424.12 716.34,402.19 739.06,413.89 C774.36,432.07 795.5444,468.3482 807.4844,494.3282" fill="none" id="CLUSTERIP-to-PODC" style="stroke:#181818;stroke-width:1;"/><polygon fill="#181818" points="809.99,499.78,809.8662,489.9319,807.902,495.2368,802.5971,493.2727,809.99,499.78" style="stroke:#181818;stroke-width:1;"/><text fill="#000000" font-family="sans-serif" font-size="13" lengthAdjust="spacing" textLength="92.5615" x="280.06" y="401.9569">internal traffic</text></g><!--link CLUSTERIP to PODD--><g class="link" data-entity-1="ent0010" data-entity-2="ent0008" data-link-type="dependency" data-source-line="32" id="lnk21"><path d="M485.58,357.08 C463.96,371.21 445.26,389.78 461.06,405.89 C477.25,422.39 857.34,401.83 877.06,413.89 C907.78,432.68 921.6482,467.9968 928.5982,493.7768" fill="none" id="CLUSTERIP-to-PODD" style="stroke:#181818;stroke-width:1;"/><polygon fill="#181818" points="930.16,499.57,931.6795,489.8391,928.8585,494.7424,923.9552,491.9214,930.16,499.57" style="stroke:#181818;stroke-width:1;"/><text fill="#000000" font-family="sans-serif" font-size="13" lengthAdjust="spacing" textLength="92.5615" x="462.06" y="401.9569">internal traffic</text></g><!--link NODEPORT to PODA--><g class="link" data-entity-1="ent0011" data-entity-2="ent0004" data-link-type="dependency" data-source-line="35" id="lnk22"><path d="M984.19,357.31 C1002.7,371.87 1018.81,390.83 1004.06,405.89 C989.37,420.9 643.97,402.92 626.06,413.89 C595.36,432.71 581.4823,468.017 574.5323,493.787" fill="none" id="NODEPORT-to-PODA" style="stroke:#181818;stroke-width:1;"/><polygon fill="#181818" points="572.97,499.58,579.1755,491.932,574.2719,494.7525,571.4515,489.8489,572.97,499.58" style="stroke:#181818;stroke-width:1;"/><text fill="#000000" font-family="sans-serif" font-size="13" lengthAdjust="spacing" textLength="92.5615" x="1010.81" y="401.9569">internal traffic</text></g><!--link NODEPORT to PODB--><g class="link" data-entity-1="ent0011" data-entity-2="ent0005" data-link-type="dependency" data-source-line="36" id="lnk23"><path d="M987.83,357.18 C1005.34,366.2 1026.65,375.68 1047.06,380.89 C1105.76,395.87 1223.49,362.65 1181.06,405.89 C1164.79,422.47 783.7,403.24 763.06,413.89 C727.78,432.1 706.5881,468.3694 694.6381,494.3394" fill="none" id="NODEPORT-to-PODB" style="stroke:#181818;stroke-width:1;"/><polygon fill="#181818" points="692.13,499.79,699.5259,493.2861,694.2201,495.2478,692.2584,489.942,692.13,499.79" style="stroke:#181818;stroke-width:1;"/><text fill="#000000" font-family="sans-serif" font-size="13" lengthAdjust="spacing" textLength="92.5615" x="1191.06" y="401.9569">internal traffic</text></g><!--link NODEPORT to PODC--><g class="link" data-entity-1="ent0011" data-entity-2="ent0007" data-link-type="dependency" data-source-line="37" id="lnk24"><path d="M987.29,357.23 C1004.88,366.37 1026.39,375.95 1047.06,380.89 C1061.55,384.36 1304.69,378.2 1315.06,388.89 C1320.32,394.31 1320.35,400.5 1315.06,405.89 C1298.01,423.26 897.83,401.21 877.06,413.89 C846.33,432.66 832.4597,467.9863 825.5197,493.7663" fill="none" id="NODEPORT-to-PODC" style="stroke:#181818;stroke-width:1;"/><polygon fill="#181818" points="823.96,499.56,830.162,491.9092,825.2597,494.7319,822.437,489.8296,823.96,499.56" style="stroke:#181818;stroke-width:1;"/><text fill="#000000" font-family="sans-serif" font-size="13" lengthAdjust="spacing" textLength="92.5615" x="1320.02" y="401.9569">internal traffic</text></g><!--link NODEPORT to PODD--><g class="link" data-entity-1="ent0011" data-entity-2="ent0008" data-link-type="dependency" data-source-line="38" id="lnk25"><path d="M987.27,357.32 C1004.85,366.49 1026.37,376.05 1047.06,380.89 C1057.93,383.44 1441.24,380.92 1449.06,388.89 C1518.43,459.66 1114.7121,504.8921 981.7021,517.7621" fill="none" id="NODEPORT-to-PODD" style="stroke:#181818;stroke-width:1;"/><polygon fill="#181818" points="975.73,518.34,985.0734,521.4546,980.7068,517.8585,984.3029,513.4918,975.73,518.34" style="stroke:#181818;stroke-width:1;"/><text fill="#000000" font-family="sans-serif" font-size="13" lengthAdjust="spacing" textLength="92.5615" x="1457.87" y="401.9569">internal traffic</text></g><!--link NODE1_IP to NODEPORT--><g class="link" data-entity-1="ent0015" data-entity-2="ent0011" data-link-type="dependency" data-source-line="39" id="lnk26"><path d="M897.24,87.69 C896.57,120.47 897.21,183.03 909.06,234.6 C915.28,261.67 925.459,285.5627 934.909,305.0227" fill="none" id="NODE1_IP-to-NODEPORT" style="stroke:#181818;stroke-width:1;"/><polygon fill="#181818" points="937.53,310.42,937.1967,300.5768,935.3459,305.9223,930.0004,304.0714,937.53,310.42" style="stroke:#181818;stroke-width:1;"/><text fill="#000000" font-family="sans-serif" font-size="13" lengthAdjust="spacing" textLength="105.6504" x="910.06" y="192.0169">NodePort 30000</text></g><!--link NODE2_IP to NODEPORT--><g class="link" data-entity-1="ent0016" data-entity-2="ent0011" data-link-type="dependency" data-source-line="40" id="lnk27"><path d="M1040.94,87.67 C1041.46,120.98 1039.49,184.78 1020.06,234.6 C1008.83,263.4 991.0482,286.9896 974.5682,305.6796" fill="none" id="NODE2_IP-to-NODEPORT" style="stroke:#181818;stroke-width:1;"/><polygon fill="#181818" points="970.6,310.18,979.5526,306.0749,973.9068,306.4297,973.5521,300.784,970.6,310.18" style="stroke:#181818;stroke-width:1;"/><text fill="#000000" font-family="sans-serif" font-size="13" lengthAdjust="spacing" textLength="105.6504" x="1037.87" y="192.0169">NodePort 30000</text></g><!--link LOADBALANCER to PODA--><g class="link" data-entity-1="ent0012" data-entity-2="ent0004" data-link-type="dependency" data-source-line="43" id="lnk28"><path d="M689.99,357.3 C670.24,365.79 646.91,374.84 625.06,380.89 C613.79,384.01 580.84,380.16 573.06,388.89 C546.13,419.12 552.1968,464.4262 559.6768,493.7462" fill="none" id="LOADBALANCER-to-PODA" style="stroke:#181818;stroke-width:1;"/><polygon fill="#181818" points="561.16,499.56,562.8111,489.8505,559.924,494.7152,555.0594,491.8281,561.16,499.56" style="stroke:#181818;stroke-width:1;"/><text fill="#000000" font-family="sans-serif" font-size="13" lengthAdjust="spacing" textLength="92.5615" x="574.06" y="401.9569">internal traffic</text></g><!--link LOADBALANCER to PODB--><g class="link" data-entity-1="ent0012" data-entity-2="ent0005" data-link-type="dependency" data-source-line="44" id="lnk29"><path d="M705.45,357.38 C695.73,366.01 686.28,376.73 681.06,388.89 C665.46,425.22 670.3573,466.5501 676.1473,493.9001" fill="none" id="LOADBALANCER-to-PODB" style="stroke:#181818;stroke-width:1;"/><polygon fill="#181818" points="677.39,499.77,679.4393,490.1367,676.3544,494.8784,671.6127,491.7936,677.39,499.77" style="stroke:#181818;stroke-width:1;"/><text fill="#000000" font-family="sans-serif" font-size="13" lengthAdjust="spacing" textLength="92.5615" x="682.06" y="401.9569">internal traffic</text></g><!--link LOADBALANCER to PODC--><g class="link" data-entity-1="ent0012" data-entity-2="ent0007" data-link-type="dependency" data-source-line="45" id="lnk30"><path d="M757.96,357.25 C765.4,366.55 773.4,377.75 779.06,388.89 C797.64,425.48 807.9598,466.3154 813.6198,493.5654" fill="none" id="LOADBALANCER-to-PODC" style="stroke:#181818;stroke-width:1;"/><polygon fill="#181818" points="814.84,499.44,816.9261,489.8146,813.8232,494.5445,809.0933,491.4415,814.84,499.44" style="stroke:#181818;stroke-width:1;"/><text fill="#000000" font-family="sans-serif" font-size="13" lengthAdjust="spacing" textLength="92.5615" x="786.47" y="401.9569">internal traffic</text></g><!--link LOADBALANCER to PODD--><g class="link" data-entity-1="ent0012" data-entity-2="ent0008" data-link-type="dependency" data-source-line="46" id="lnk31"><path d="M788.3,357.39 C807.65,365.55 830.13,374.34 851.06,380.89 C866.7,385.79 874.76,378.06 887.06,388.89 C919.52,417.47 929.361,463.7185 932.761,493.5685" fill="none" id="LOADBALANCER-to-PODD" style="stroke:#181818;stroke-width:1;"/><polygon fill="#181818" points="933.44,499.53,936.3958,490.1351,932.8741,494.5621,928.4472,491.0405,933.44,499.53" style="stroke:#181818;stroke-width:1;"/><text fill="#000000" font-family="sans-serif" font-size="13" lengthAdjust="spacing" textLength="92.5615" x="903.13" y="401.9569">internal traffic</text></g><!--link EXT_IP to LOADBALANCER--><g class="link" data-entity-1="ent0017" data-entity-2="ent0012" data-link-type="dependency" data-source-line="47" id="lnk32"><path d="M738.06,210.99 C738.06,238.1 738.06,277.32 738.06,304.36" fill="none" id="EXT_IP-to-LOADBALANCER" style="stroke:#181818;stroke-width:1;"/><polygon fill="#181818" points="738.06,310.36,742.06,301.36,738.06,305.36,734.06,301.36,738.06,310.36" style="stroke:#181818;stroke-width:1;"/><text fill="#000000" font-family="sans-serif" font-size="13" lengthAdjust="spacing" textLength="69.9702" x="739.06" y="255.6669">External IP</text></g><!--link EXT_CLIENT to EXT_IP--><g class="link" data-entity-1="ent0014" data-entity-2="ent0017" data-link-type="dependency" data-source-line="48" id="lnk33"><path d="M738.06,87.68 C738.06,109.47 738.06,136.29 738.06,158.04" fill="none" id="EXT_CLIENT-to-EXT_IP" style="stroke:#181818;stroke-width:1;"/><polygon fill="#181818" points="738.06,164.04,742.06,155.04,738.06,159.04,734.06,155.04,738.06,164.04" style="stroke:#181818;stroke-width:1;"/><text fill="#000000" font-family="sans-serif" font-size="13" lengthAdjust="spacing" textLength="79.625" x="739.06" y="130.3669">HTTP/HTTPS</text></g><!--link CLUSTERIP to GMN34--><g class="link" data-entity-1="ent0010" data-entity-2="ent0035" data-link-type="association" data-source-line="50" id="lnk36"><path d="M551,310.37 C572.5,290.26 606.63,262.71 642.56,251.1 C683.26,237.94 986.4,239.46 1027.56,251.1 C1070.28,263.17 1112.8,293.06 1138.26,313.38" fill="none" id="CLUSTERIP-GMN34" style="stroke:#181818;stroke-width:1;stroke-dasharray:7,7;"/></g><!--link NODEPORT to GMN37--><g class="link" data-entity-1="ent0011" data-entity-2="ent0038" data-link-type="association" data-source-line="51" id="lnk39"><path d="M972.24,310.36 C993.95,290.25 1028.4,262.7 1064.56,251.1 C1107.41,237.35 1426.22,239 1469.56,251.1 C1512.79,263.16 1555.97,293.05 1581.85,313.38" fill="none" id="NODEPORT-GMN37" style="stroke:#181818;stroke-width:1;stroke-dasharray:7,7;"/></g><!--link LOADBALANCER to GMN40--><g class="link" data-entity-1="ent0012" data-entity-2="ent0041" data-link-type="association" data-source-line="52" id="lnk42"><path d="M764.81,310.32 C789.73,290.17 828.9,262.6 868.56,251.1 C910.28,238.99 1218.01,238.39 1259.56,251.1 C1299.3,263.25 1337.8,293.12 1360.72,313.41" fill="none" id="LOADBALANCER-GMN40" style="stroke:#181818;stroke-width:1;stroke-dasharray:7,7;"/></g><?plantuml-src ZPFVRfHG4CRlUOgH6w-AksXCvC843aI9X2Mxc9XKqnpPivMu0GFKh35DR7lXZV6gJz0dg2QRLZUkht1u8uV3duNjra825pE_-UOxSuPxKpOB8mPZY_Yw-yon89ZJD9Ma3pHuJmyPo2-Eth8aOXbBWSoFqembCdoM01h0ZQSCXcKGOD-Bfw2_0Pg2DpBrJSoeOmR6Zl6zeQ5sD4ZDaqtCh6Ecq3XksPomv6COC73efzhXVkNNzg3AYdBYl9purjZs2gHexCL9rY7SaMbvex5V04vCfmQTqoXWIGToHhffw8xk4clSSM8ji6T4vw070KlJoaiJ9VEGHPcGi5xv1yInBTUlhS0GRA_nC3pOc0IrdL6hJADQvGf5pA2T-z2SNcfE37jxJyMrW0Po65MrMK9dip2GRt96JuxqvCpT79gjxq6gPt-7rMtCw8UHVfXvErRSYS2Q6grSNx553mVubA3Q1yIJjnTCQY_L7HFOXHhzKT8VlMKQvQu9g5EbjNu1sokvSii5MvKXzTptlGV5PuA3YEACGH8UliiWdct-qO9h5bc3uK1vybXPA8lN4R_WQxxAl_7VV0ty9_-Jd-Md-HT-3HXPySly93_bImnSoblYkov4Asy4PS_vkYZDp_XVoByAXIM_0cprdV_0bhy0KrSOMsth_cSAmlb0KHNrqNOFVergQ9ylvNy0?></g></svg>