<?plantuml 1.2026.2?><svg xmlns="http://www.w3.org/2000/svg" xmlns:xlink="http://www.w3.org/1999/xlink" contentStyleType="text/css" data-diagram-type="DESCRIPTION" height="520px" preserveAspectRatio="none" style="width:2685px;height:520px;background:#FFFFFF;" version="1.1" viewBox="0 0 2685 520" width="2685px" zoomAndPan="magnify"><defs/><g><!--cluster Security & Access Control--><g class="cluster" data-qualified-name="Security . Access Control" data-source-line="3" id="ent0002"><path d="M8.5,42.1 L213.1631,42.1 A3.75,3.75 0 0 1 215.6631,44.6 L222.6631,64.3969 L239.5,64.3969 A2.5,2.5 0 0 1 242,66.8969 L242,510.79 A2.5,2.5 0 0 1 239.5,513.29 L8.5,513.29 A2.5,2.5 0 0 1 6,510.79 L6,44.6 A2.5,2.5 0 0 1 8.5,42.1" fill="none" style="stroke:#000000;stroke-width:1.5;"/><line style="stroke:#000000;stroke-width:1.5;" x1="6" x2="222.6631" y1="64.3969" y2="64.3969"/><text fill="#000000" font-family="sans-serif" font-size="14" font-weight="bold" lengthAdjust="spacing" textLength="203.6631" x="10" y="57.0951">Security &amp; Access Control</text></g><!--cluster Scaling & Performance--><g class="cluster" data-qualified-name="Scaling . Performance" data-source-line="10" id="ent0007"><path d="M476.5,42.1 L657.9414,42.1 A3.75,3.75 0 0 1 660.4414,44.6 L667.4414,64.3969 L723.5,64.3969 A2.5,2.5 0 0 1 726,66.8969 L726,510.79 A2.5,2.5 0 0 1 723.5,513.29 L476.5,513.29 A2.5,2.5 0 0 1 474,510.79 L474,44.6 A2.5,2.5 0 0 1 476.5,42.1" fill="none" style="stroke:#000000;stroke-width:1.5;"/><line style="stroke:#000000;stroke-width:1.5;" x1="474" x2="667.4414" y1="64.3969" y2="64.3969"/><text fill="#000000" font-family="sans-serif" font-size="14" font-weight="bold" lengthAdjust="spacing" textLength="180.4414" x="478" y="57.0951">Scaling &amp; Performance</text></g><!--cluster Configuration Management--><g class="cluster" data-qualified-name="Configuration Management" data-source-line="17" id="ent0012"><path d="M907.5,42.1 L1124.5908,42.1 A3.75,3.75 0 0 1 1127.0908,44.6 L1134.0908,64.3969 L1134.5,64.3969 A2.5,2.5 0 0 1 1137,66.8969 L1137,510.79 A2.5,2.5 0 0 1 1134.5,513.29 L907.5,513.29 A2.5,2.5 0 0 1 905,510.79 L905,44.6 A2.5,2.5 0 0 1 907.5,42.1" fill="none" style="stroke:#000000;stroke-width:1.5;"/><line style="stroke:#000000;stroke-width:1.5;" x1="905" x2="1134.0908" y1="64.3969" y2="64.3969"/><text fill="#000000" font-family="sans-serif" font-size="14" font-weight="bold" lengthAdjust="spacing" textLength="216.0908" x="909" y="57.0951">Configuration Management</text></g><!--cluster Alternative Solutions--><g class="cluster" data-qualified-name="Alternative Solutions" data-source-line="24" id="ent0017"><path d="M1315.5,42.1 L1483.502,42.1 A3.75,3.75 0 0 1 1486.002,44.6 L1493.002,64.3969 L1665.5,64.3969 A2.5,2.5 0 0 1 1668,66.8969 L1668,385.49 A2.5,2.5 0 0 1 1665.5,387.99 L1315.5,387.99 A2.5,2.5 0 0 1 1313,385.49 L1313,44.6 A2.5,2.5 0 0 1 1315.5,42.1" fill="none" style="stroke:#000000;stroke-width:1.5;"/><line style="stroke:#000000;stroke-width:1.5;" x1="1313" x2="1493.002" y1="64.3969" y2="64.3969"/><text fill="#000000" font-family="sans-serif" font-size="14" font-weight="bold" lengthAdjust="spacing" textLength="167.002" x="1317" y="57.0951">Alternative Solutions</text></g><!--cluster Advanced Networking--><g class="cluster" data-qualified-name="Advanced Networking" data-source-line="32" id="ent0023"><path d="M2265.5,42.1 L2440.0439,42.1 A3.75,3.75 0 0 1 2442.5439,44.6 L2449.5439,64.3969 L2675.5,64.3969 A2.5,2.5 0 0 1 2678,66.8969 L2678,260.2 A2.5,2.5 0 0 1 2675.5,262.7 L2265.5,262.7 A2.5,2.5 0 0 1 2263,260.2 L2263,44.6 A2.5,2.5 0 0 1 2265.5,42.1" fill="none" style="stroke:#000000;stroke-width:1.5;"/><line style="stroke:#000000;stroke-width:1.5;" x1="2263" x2="2449.5439" y1="64.3969" y2="64.3969"/><text fill="#000000" font-family="sans-serif" font-size="14" font-weight="bold" lengthAdjust="spacing" textLength="173.5439" x="2267" y="57.0951">Advanced Networking</text></g><!--cluster Operators & Automation--><g class="cluster" data-qualified-name="Operators . Automation" data-source-line="39" id="ent0028"><path d="M1870.5,42.1 L2064.998,42.1 A3.75,3.75 0 0 1 2067.498,44.6 L2074.498,64.3969 L2074.5,64.3969 A2.5,2.5 0 0 1 2077,66.8969 L2077,510.79 A2.5,2.5 0 0 1 2074.5,513.29 L1870.5,513.29 A2.5,2.5 0 0 1 1868,510.79 L1868,44.6 A2.5,2.5 0 0 1 1870.5,42.1" fill="none" style="stroke:#000000;stroke-width:1.5;"/><line style="stroke:#000000;stroke-width:1.5;" x1="1868" x2="2074.498" y1="64.3969" y2="64.3969"/><text fill="#000000" font-family="sans-serif" font-size="14" font-weight="bold" lengthAdjust="spacing" textLength="193.498" x="1872" y="57.0951">Operators &amp; Automation</text></g><!--entity RBAC--><g class="entity" data-qualified-name="Security . Access Control.RBAC" data-source-line="4" id="ent0003"><rect fill="#F1F1F1" height="46.2969" rx="2.5" ry="2.5" style="stroke:#181818;stroke-width:0.5;" width="78.6846" x="128.66" y="77.1"/><rect fill="#F1F1F1" height="10" style="stroke:#181818;stroke-width:0.5;" width="15" x="187.3446" y="82.1"/><rect fill="#F1F1F1" height="2" style="stroke:#181818;stroke-width:0.5;" width="4" x="185.3446" y="84.1"/><rect fill="#F1F1F1" height="2" style="stroke:#181818;stroke-width:0.5;" width="4" x="185.3446" y="88.1"/><text fill="#000000" font-family="sans-serif" font-size="14" lengthAdjust="spacing" textLength="38.6846" x="143.66" y="110.0951">RBAC</text></g><!--entity PSS--><g class="entity" data-qualified-name="Security . Access Control.PSS" data-source-line="5" id="ent0004"><rect fill="#F1F1F1" height="46.2969" rx="2.5" ry="2.5" style="stroke:#181818;stroke-width:0.5;" width="203.5156" x="22.24" y="200.4"/><rect fill="#F1F1F1" height="10" style="stroke:#181818;stroke-width:0.5;" width="15" x="205.7556" y="205.4"/><rect fill="#F1F1F1" height="2" style="stroke:#181818;stroke-width:0.5;" width="4" x="203.7556" y="207.4"/><rect fill="#F1F1F1" height="2" style="stroke:#181818;stroke-width:0.5;" width="4" x="203.7556" y="211.4"/><text fill="#000000" font-family="sans-serif" font-size="14" lengthAdjust="spacing" textLength="163.5156" x="37.24" y="233.3951">Pod Security Standards</text></g><!--entity NP--><g class="entity" data-qualified-name="Security . Access Control.NP" data-source-line="6" id="ent0005"><rect fill="#F1F1F1" height="46.2969" rx="2.5" ry="2.5" style="stroke:#181818;stroke-width:0.5;" width="155.1855" x="46.41" y="325.7"/><rect fill="#F1F1F1" height="10" style="stroke:#181818;stroke-width:0.5;" width="15" x="181.5955" y="330.7"/><rect fill="#F1F1F1" height="2" style="stroke:#181818;stroke-width:0.5;" width="4" x="179.5955" y="332.7"/><rect fill="#F1F1F1" height="2" style="stroke:#181818;stroke-width:0.5;" width="4" x="179.5955" y="336.7"/><text fill="#000000" font-family="sans-serif" font-size="14" lengthAdjust="spacing" textLength="115.1855" x="61.41" y="358.6951">Network Policies</text></g><!--entity AC--><g class="entity" data-qualified-name="Security . Access Control.AC" data-source-line="7" id="ent0006"><rect fill="#F1F1F1" height="46.2969" rx="2.5" ry="2.5" style="stroke:#181818;stroke-width:0.5;" width="192.8242" x="27.59" y="450.99"/><rect fill="#F1F1F1" height="10" style="stroke:#181818;stroke-width:0.5;" width="15" x="200.4142" y="455.99"/><rect fill="#F1F1F1" height="2" style="stroke:#181818;stroke-width:0.5;" width="4" x="198.4142" y="457.99"/><rect fill="#F1F1F1" height="2" style="stroke:#181818;stroke-width:0.5;" width="4" x="198.4142" y="461.99"/><text fill="#000000" font-family="sans-serif" font-size="14" lengthAdjust="spacing" textLength="152.8242" x="42.59" y="483.9851">Admission Controllers</text></g><!--entity HPA--><g class="entity" data-qualified-name="Scaling . Performance.HPA" data-source-line="11" id="ent0008"><rect fill="#F1F1F1" height="46.2969" rx="2.5" ry="2.5" style="stroke:#181818;stroke-width:0.5;" width="220.6123" x="489.69" y="77.1"/><rect fill="#F1F1F1" height="10" style="stroke:#181818;stroke-width:0.5;" width="15" x="690.3023" y="82.1"/><rect fill="#F1F1F1" height="2" style="stroke:#181818;stroke-width:0.5;" width="4" x="688.3023" y="84.1"/><rect fill="#F1F1F1" height="2" style="stroke:#181818;stroke-width:0.5;" width="4" x="688.3023" y="88.1"/><text fill="#000000" font-family="sans-serif" font-size="14" lengthAdjust="spacing" textLength="180.6123" x="504.69" y="110.0951">Horizontal Pod Autoscaler</text></g><!--entity VPA--><g class="entity" data-qualified-name="Scaling . Performance.VPA" data-source-line="12" id="ent0009"><rect fill="#F1F1F1" height="46.2969" rx="2.5" ry="2.5" style="stroke:#181818;stroke-width:0.5;" width="202.6201" x="498.69" y="200.4"/><rect fill="#F1F1F1" height="10" style="stroke:#181818;stroke-width:0.5;" width="15" x="681.3101" y="205.4"/><rect fill="#F1F1F1" height="2" style="stroke:#181818;stroke-width:0.5;" width="4" x="679.3101" y="207.4"/><rect fill="#F1F1F1" height="2" style="stroke:#181818;stroke-width:0.5;" width="4" x="679.3101" y="211.4"/><text fill="#000000" font-family="sans-serif" font-size="14" lengthAdjust="spacing" textLength="162.6201" x="513.69" y="233.3951">Vertical Pod Autoscaler</text></g><!--entity CA--><g class="entity" data-qualified-name="Scaling . Performance.CA" data-source-line="13" id="ent0010"><rect fill="#F1F1F1" height="46.2969" rx="2.5" ry="2.5" style="stroke:#181818;stroke-width:0.5;" width="168.4746" x="515.76" y="325.7"/><rect fill="#F1F1F1" height="10" style="stroke:#181818;stroke-width:0.5;" width="15" x="664.2346" y="330.7"/><rect fill="#F1F1F1" height="2" style="stroke:#181818;stroke-width:0.5;" width="4" x="662.2346" y="332.7"/><rect fill="#F1F1F1" height="2" style="stroke:#181818;stroke-width:0.5;" width="4" x="662.2346" y="336.7"/><text fill="#000000" font-family="sans-serif" font-size="14" lengthAdjust="spacing" textLength="128.4746" x="530.76" y="358.6951">Cluster Autoscaler</text></g><!--entity RQ--><g class="entity" data-qualified-name="Scaling . Performance.RQ" data-source-line="14" id="ent0011"><rect fill="#F1F1F1" height="46.2969" rx="2.5" ry="2.5" style="stroke:#181818;stroke-width:0.5;" width="159.4102" x="520.29" y="450.99"/><rect fill="#F1F1F1" height="10" style="stroke:#181818;stroke-width:0.5;" width="15" x="659.7002" y="455.99"/><rect fill="#F1F1F1" height="2" style="stroke:#181818;stroke-width:0.5;" width="4" x="657.7002" y="457.99"/><rect fill="#F1F1F1" height="2" style="stroke:#181818;stroke-width:0.5;" width="4" x="657.7002" y="461.99"/><text fill="#000000" font-family="sans-serif" font-size="14" lengthAdjust="spacing" textLength="119.4102" x="535.29" y="483.9851">Resource Quotas</text></g><!--entity HELM--><g class="entity" data-qualified-name="Configuration Management.HELM" data-source-line="18" id="ent0013"><rect fill="#F1F1F1" height="46.2969" rx="2.5" ry="2.5" style="stroke:#181818;stroke-width:0.5;" width="126.8848" x="979.56" y="77.1"/><rect fill="#F1F1F1" height="10" style="stroke:#181818;stroke-width:0.5;" width="15" x="1086.4448" y="82.1"/><rect fill="#F1F1F1" height="2" style="stroke:#181818;stroke-width:0.5;" width="4" x="1084.4448" y="84.1"/><rect fill="#F1F1F1" height="2" style="stroke:#181818;stroke-width:0.5;" width="4" x="1084.4448" y="88.1"/><text fill="#000000" font-family="sans-serif" font-size="14" lengthAdjust="spacing" textLength="86.8848" x="994.56" y="110.0951">Helm Charts</text></g><!--entity KUST--><g class="entity" data-qualified-name="Configuration Management.KUST" data-source-line="19" id="ent0014"><rect fill="#F1F1F1" height="46.2969" rx="2.5" ry="2.5" style="stroke:#181818;stroke-width:0.5;" width="112.8916" x="981.55" y="200.4"/><rect fill="#F1F1F1" height="10" style="stroke:#181818;stroke-width:0.5;" width="15" x="1074.4416" y="205.4"/><rect fill="#F1F1F1" height="2" style="stroke:#181818;stroke-width:0.5;" width="4" x="1072.4416" y="207.4"/><rect fill="#F1F1F1" height="2" style="stroke:#181818;stroke-width:0.5;" width="4" x="1072.4416" y="211.4"/><text fill="#000000" font-family="sans-serif" font-size="14" lengthAdjust="spacing" textLength="72.8916" x="996.55" y="233.3951">Kustomize</text></g><!--entity ARGOCD--><g class="entity" data-qualified-name="Configuration Management.ARGOCD" data-source-line="20" id="ent0015"><rect fill="#F1F1F1" height="46.2969" rx="2.5" ry="2.5" style="stroke:#181818;stroke-width:0.5;" width="154.7207" x="966.64" y="325.7"/><rect fill="#F1F1F1" height="10" style="stroke:#181818;stroke-width:0.5;" width="15" x="1101.3607" y="330.7"/><rect fill="#F1F1F1" height="2" style="stroke:#181818;stroke-width:0.5;" width="4" x="1099.3607" y="332.7"/><rect fill="#F1F1F1" height="2" style="stroke:#181818;stroke-width:0.5;" width="4" x="1099.3607" y="336.7"/><text fill="#000000" font-family="sans-serif" font-size="14" lengthAdjust="spacing" textLength="114.7207" x="981.64" y="358.6951">GitOps - ArgoCD</text></g><!--entity FLUX--><g class="entity" data-qualified-name="Configuration Management.FLUX" data-source-line="21" id="ent0016"><rect fill="#F1F1F1" height="46.2969" rx="2.5" ry="2.5" style="stroke:#181818;stroke-width:0.5;" width="130.4805" x="966.76" y="450.99"/><rect fill="#F1F1F1" height="10" style="stroke:#181818;stroke-width:0.5;" width="15" x="1077.2405" y="455.99"/><rect fill="#F1F1F1" height="2" style="stroke:#181818;stroke-width:0.5;" width="4" x="1075.2405" y="457.99"/><rect fill="#F1F1F1" height="2" style="stroke:#181818;stroke-width:0.5;" width="4" x="1075.2405" y="461.99"/><text fill="#000000" font-family="sans-serif" font-size="14" lengthAdjust="spacing" textLength="90.4805" x="981.76" y="483.9851">GitOps - Flux</text></g><!--entity CALICO--><g class="entity" data-qualified-name="Alternative Solutions.CALICO" data-source-line="25" id="ent0018"><rect fill="#F1F1F1" height="46.2969" rx="2.5" ry="2.5" style="stroke:#181818;stroke-width:0.5;" width="111.2236" x="1333.39" y="77.1"/><rect fill="#F1F1F1" height="10" style="stroke:#181818;stroke-width:0.5;" width="15" x="1424.6136" y="82.1"/><rect fill="#F1F1F1" height="2" style="stroke:#181818;stroke-width:0.5;" width="4" x="1422.6136" y="84.1"/><rect fill="#F1F1F1" height="2" style="stroke:#181818;stroke-width:0.5;" width="4" x="1422.6136" y="88.1"/><text fill="#000000" font-family="sans-serif" font-size="14" lengthAdjust="spacing" textLength="71.2236" x="1348.39" y="110.0951">Calico CNI</text></g><!--entity CILIUM--><g class="entity" data-qualified-name="Alternative Solutions.CILIUM" data-source-line="26" id="ent0019"><rect fill="#F1F1F1" height="46.2969" rx="2.5" ry="2.5" style="stroke:#181818;stroke-width:0.5;" width="112.7822" x="1328.61" y="200.4"/><rect fill="#F1F1F1" height="10" style="stroke:#181818;stroke-width:0.5;" width="15" x="1421.3922" y="205.4"/><rect fill="#F1F1F1" height="2" style="stroke:#181818;stroke-width:0.5;" width="4" x="1419.3922" y="207.4"/><rect fill="#F1F1F1" height="2" style="stroke:#181818;stroke-width:0.5;" width="4" x="1419.3922" y="211.4"/><text fill="#000000" font-family="sans-serif" font-size="14" lengthAdjust="spacing" textLength="72.7822" x="1343.61" y="233.3951">Cilium CNI</text></g><!--entity LONGHORN--><g class="entity" data-qualified-name="Alternative Solutions.LONGHORN" data-source-line="27" id="ent0020"><rect fill="#F1F1F1" height="46.2969" rx="2.5" ry="2.5" style="stroke:#181818;stroke-width:0.5;" width="165.4189" x="1480.29" y="77.1"/><rect fill="#F1F1F1" height="10" style="stroke:#181818;stroke-width:0.5;" width="15" x="1625.7089" y="82.1"/><rect fill="#F1F1F1" height="2" style="stroke:#181818;stroke-width:0.5;" width="4" x="1623.7089" y="84.1"/><rect fill="#F1F1F1" height="2" style="stroke:#181818;stroke-width:0.5;" width="4" x="1623.7089" y="88.1"/><text fill="#000000" font-family="sans-serif" font-size="14" lengthAdjust="spacing" textLength="125.4189" x="1495.29" y="110.0951">Longhorn Storage</text></g><!--entity ROOK--><g class="entity" data-qualified-name="Alternative Solutions.ROOK" data-source-line="28" id="ent0021"><rect fill="#F1F1F1" height="46.2969" rx="2.5" ry="2.5" style="stroke:#181818;stroke-width:0.5;" width="175.3926" x="1476.3" y="200.4"/><rect fill="#F1F1F1" height="10" style="stroke:#181818;stroke-width:0.5;" width="15" x="1631.6926" y="205.4"/><rect fill="#F1F1F1" height="2" style="stroke:#181818;stroke-width:0.5;" width="4" x="1629.6926" y="207.4"/><rect fill="#F1F1F1" height="2" style="stroke:#181818;stroke-width:0.5;" width="4" x="1629.6926" y="211.4"/><text fill="#000000" font-family="sans-serif" font-size="14" lengthAdjust="spacing" textLength="135.3926" x="1491.3" y="233.3951">Rook-Ceph Storage</text></g><!--entity THANOS--><g class="entity" data-qualified-name="Alternative Solutions.THANOS" data-source-line="29" id="ent0022"><rect fill="#F1F1F1" height="46.2969" rx="2.5" ry="2.5" style="stroke:#181818;stroke-width:0.5;" width="170.0537" x="1478.97" y="325.7"/><rect fill="#F1F1F1" height="10" style="stroke:#181818;stroke-width:0.5;" width="15" x="1629.0237" y="330.7"/><rect fill="#F1F1F1" height="2" style="stroke:#181818;stroke-width:0.5;" width="4" x="1627.0237" y="332.7"/><rect fill="#F1F1F1" height="2" style="stroke:#181818;stroke-width:0.5;" width="4" x="1627.0237" y="336.7"/><text fill="#000000" font-family="sans-serif" font-size="14" lengthAdjust="spacing" textLength="130.0537" x="1493.97" y="358.6951">Thanos Monitoring</text></g><!--entity ISTIO--><g class="entity" data-qualified-name="Advanced Networking.ISTIO" data-source-line="33" id="ent0024"><rect fill="#F1F1F1" height="46.2969" rx="2.5" ry="2.5" style="stroke:#181818;stroke-width:0.5;" width="176.3701" x="2278.81" y="77.1"/><rect fill="#F1F1F1" height="10" style="stroke:#181818;stroke-width:0.5;" width="15" x="2435.1801" y="82.1"/><rect fill="#F1F1F1" height="2" style="stroke:#181818;stroke-width:0.5;" width="4" x="2433.1801" y="84.1"/><rect fill="#F1F1F1" height="2" style="stroke:#181818;stroke-width:0.5;" width="4" x="2433.1801" y="88.1"/><text fill="#000000" font-family="sans-serif" font-size="14" lengthAdjust="spacing" textLength="136.3701" x="2293.81" y="110.0951">Service Mesh - Istio</text></g><!--entity LINKERD--><g class="entity" data-qualified-name="Advanced Networking.LINKERD" data-source-line="34" id="ent0025"><rect fill="#F1F1F1" height="46.2969" rx="2.5" ry="2.5" style="stroke:#181818;stroke-width:0.5;" width="198.9287" x="2278.54" y="200.4"/><rect fill="#F1F1F1" height="10" style="stroke:#181818;stroke-width:0.5;" width="15" x="2457.4687" y="205.4"/><rect fill="#F1F1F1" height="2" style="stroke:#181818;stroke-width:0.5;" width="4" x="2455.4687" y="207.4"/><rect fill="#F1F1F1" height="2" style="stroke:#181818;stroke-width:0.5;" width="4" x="2455.4687" y="211.4"/><text fill="#000000" font-family="sans-serif" font-size="14" lengthAdjust="spacing" textLength="158.9287" x="2293.54" y="233.3951">Service Mesh - Linkerd</text></g><!--entity INGRESS--><g class="entity" data-qualified-name="Advanced Networking.INGRESS" data-source-line="35" id="ent0026"><rect fill="#F1F1F1" height="46.2969" rx="2.5" ry="2.5" style="stroke:#181818;stroke-width:0.5;" width="171.7627" x="2490.12" y="77.1"/><rect fill="#F1F1F1" height="10" style="stroke:#181818;stroke-width:0.5;" width="15" x="2641.8827" y="82.1"/><rect fill="#F1F1F1" height="2" style="stroke:#181818;stroke-width:0.5;" width="4" x="2639.8827" y="84.1"/><rect fill="#F1F1F1" height="2" style="stroke:#181818;stroke-width:0.5;" width="4" x="2639.8827" y="88.1"/><text fill="#000000" font-family="sans-serif" font-size="14" lengthAdjust="spacing" textLength="131.7627" x="2505.12" y="110.0951">Ingress Controllers</text></g><!--entity LB--><g class="entity" data-qualified-name="Advanced Networking.LB" data-source-line="36" id="ent0027"><rect fill="#F1F1F1" height="46.2969" rx="2.5" ry="2.5" style="stroke:#181818;stroke-width:0.5;" width="147.1533" x="2512.42" y="200.4"/><rect fill="#F1F1F1" height="10" style="stroke:#181818;stroke-width:0.5;" width="15" x="2639.5733" y="205.4"/><rect fill="#F1F1F1" height="2" style="stroke:#181818;stroke-width:0.5;" width="4" x="2637.5733" y="207.4"/><rect fill="#F1F1F1" height="2" style="stroke:#181818;stroke-width:0.5;" width="4" x="2637.5733" y="211.4"/><text fill="#000000" font-family="sans-serif" font-size="14" lengthAdjust="spacing" textLength="107.1533" x="2527.42" y="233.3951">Load Balancing</text></g><!--entity OPERATORS--><g class="entity" data-qualified-name="Operators . Automation.OPERATORS" data-source-line="40" id="ent0029"><rect fill="#F1F1F1" height="46.2969" rx="2.5" ry="2.5" style="stroke:#181818;stroke-width:0.5;" width="168.0439" x="1890.98" y="77.1"/><rect fill="#F1F1F1" height="10" style="stroke:#181818;stroke-width:0.5;" width="15" x="2039.0239" y="82.1"/><rect fill="#F1F1F1" height="2" style="stroke:#181818;stroke-width:0.5;" width="4" x="2037.0239" y="84.1"/><rect fill="#F1F1F1" height="2" style="stroke:#181818;stroke-width:0.5;" width="4" x="2037.0239" y="88.1"/><text fill="#000000" font-family="sans-serif" font-size="14" lengthAdjust="spacing" textLength="128.0439" x="1905.98" y="110.0951">Custom Operators</text></g><!--entity SDK--><g class="entity" data-qualified-name="Operators . Automation.SDK" data-source-line="41" id="ent0030"><rect fill="#F1F1F1" height="46.2969" rx="2.5" ry="2.5" style="stroke:#181818;stroke-width:0.5;" width="135.9629" x="1907.02" y="200.4"/><rect fill="#F1F1F1" height="10" style="stroke:#181818;stroke-width:0.5;" width="15" x="2022.9829" y="205.4"/><rect fill="#F1F1F1" height="2" style="stroke:#181818;stroke-width:0.5;" width="4" x="2020.9829" y="207.4"/><rect fill="#F1F1F1" height="2" style="stroke:#181818;stroke-width:0.5;" width="4" x="2020.9829" y="211.4"/><text fill="#000000" font-family="sans-serif" font-size="14" lengthAdjust="spacing" textLength="95.9629" x="1922.02" y="233.3951">Operator SDK</text></g><!--entity KB--><g class="entity" data-qualified-name="Operators . Automation.KB" data-source-line="42" id="ent0031"><rect fill="#F1F1F1" height="46.2969" rx="2.5" ry="2.5" style="stroke:#181818;stroke-width:0.5;" width="124.3486" x="1912.83" y="325.7"/><rect fill="#F1F1F1" height="10" style="stroke:#181818;stroke-width:0.5;" width="15" x="2017.1786" y="330.7"/><rect fill="#F1F1F1" height="2" style="stroke:#181818;stroke-width:0.5;" width="4" x="2015.1786" y="332.7"/><rect fill="#F1F1F1" height="2" style="stroke:#181818;stroke-width:0.5;" width="4" x="2015.1786" y="336.7"/><text fill="#000000" font-family="sans-serif" font-size="14" lengthAdjust="spacing" textLength="84.3486" x="1927.83" y="358.6951">Kubebuilder</text></g><!--entity CR--><g class="entity" data-qualified-name="Operators . Automation.CR" data-source-line="43" id="ent0032"><rect fill="#F1F1F1" height="46.2969" rx="2.5" ry="2.5" style="stroke:#181818;stroke-width:0.5;" width="170.5186" x="1889.74" y="450.99"/><rect fill="#F1F1F1" height="10" style="stroke:#181818;stroke-width:0.5;" width="15" x="2040.2586" y="455.99"/><rect fill="#F1F1F1" height="2" style="stroke:#181818;stroke-width:0.5;" width="4" x="2038.2586" y="457.99"/><rect fill="#F1F1F1" height="2" style="stroke:#181818;stroke-width:0.5;" width="4" x="2038.2586" y="461.99"/><text fill="#000000" font-family="sans-serif" font-size="14" lengthAdjust="spacing" textLength="130.5186" x="1904.74" y="483.9851">Custom Resources</text></g><g class="entity" data-qualified-name="GMN50" data-source-line="75" id="ent0051"><path d="M257.54,80.12 L257.54,96.25 L207.66,100.25 L257.54,104.25 L257.54,120.3856 A0,0 0 0 0 257.54,120.3856 L454.4653,120.3856 A0,0 0 0 0 454.4653,120.3856 L454.4653,90.12 L444.4653,80.12 L257.54,80.12 A0,0 0 0 0 257.54,80.12" fill="#FEFFDD" style="stroke:#181818;stroke-width:0.5;"/><path d="M444.4653,80.12 L444.4653,90.12 L454.4653,90.12 L444.4653,80.12" fill="#FEFFDD" style="stroke:#181818;stroke-width:0.5;"/><text fill="#000000" font-family="sans-serif" font-size="13" lengthAdjust="spacing" textLength="175.9253" x="263.54" y="97.1869">"Role-based access control</text><text fill="#000000" font-family="sans-serif" font-size="13" lengthAdjust="spacing" textLength="166.8037" x="263.54" y="112.3197">Service accounts &amp; roles"</text></g><g class="entity" data-qualified-name="GMN53" data-source-line="76" id="ent0054"><path d="M745.31,80.12 L745.31,96.25 L710.62,100.25 L745.31,104.25 L745.31,120.3856 A0,0 0 0 0 745.31,120.3856 L888.6928,120.3856 A0,0 0 0 0 888.6928,120.3856 L888.6928,90.12 L878.6928,80.12 L745.31,80.12 A0,0 0 0 0 745.31,80.12" fill="#FEFFDD" style="stroke:#181818;stroke-width:0.5;"/><path d="M878.6928,80.12 L878.6928,90.12 L888.6928,90.12 L878.6928,80.12" fill="#FEFFDD" style="stroke:#181818;stroke-width:0.5;"/><text fill="#000000" font-family="sans-serif" font-size="13" lengthAdjust="spacing" textLength="122.3828" x="751.31" y="97.1869">"Automatic scaling</text><text fill="#000000" font-family="sans-serif" font-size="13" lengthAdjust="spacing" textLength="118.314" x="751.31" y="112.3197">based on metrics"</text></g><g class="entity" data-qualified-name="GMN56" data-source-line="77" id="ent0057"><path d="M1152.88,80.12 L1152.88,96.25 L1106.63,100.25 L1152.88,104.25 L1152.88,120.3856 A0,0 0 0 0 1152.88,120.3856 L1297.1197,120.3856 A0,0 0 0 0 1297.1197,120.3856 L1297.1197,90.12 L1287.1197,80.12 L1152.88,80.12 A0,0 0 0 0 1152.88,80.12" fill="#FEFFDD" style="stroke:#181818;stroke-width:0.5;"/><path d="M1287.1197,80.12 L1287.1197,90.12 L1297.1197,90.12 L1287.1197,80.12" fill="#FEFFDD" style="stroke:#181818;stroke-width:0.5;"/><text fill="#000000" font-family="sans-serif" font-size="13" lengthAdjust="spacing" textLength="123.2397" x="1158.88" y="97.1869">"Package manager</text><text fill="#000000" font-family="sans-serif" font-size="13" lengthAdjust="spacing" textLength="102.4512" x="1158.88" y="112.3197">for Kubernetes"</text></g><g class="entity" data-qualified-name="GMN59" data-source-line="78" id="ent0060"><path d="M1683.78,80.12 L1683.78,120.3856 L1852.2297,120.3856 L1852.2297,90.12 L1842.2297,80.12 L1683.78,80.12" fill="#FEFFDD" style="stroke:#181818;stroke-width:0.5;"/><path d="M1842.2297,80.12 L1842.2297,90.12 L1852.2297,90.12 L1842.2297,80.12" fill="#FEFFDD" style="stroke:#181818;stroke-width:1;"/><text fill="#000000" font-family="sans-serif" font-size="13" lengthAdjust="spacing" textLength="147.4497" x="1689.78" y="97.1869">"Advanced networking</text><text fill="#000000" font-family="sans-serif" font-size="13" lengthAdjust="spacing" textLength="130.0063" x="1689.78" y="112.3197">with policy support"</text></g><g class="entity" data-qualified-name="GMN62" data-source-line="79" id="ent0063"><path d="M2094,80.12 L2094,96.25 L2059.5,100.25 L2094,104.25 L2094,120.3856 A0,0 0 0 0 2094,120.3856 L2243.9907,120.3856 A0,0 0 0 0 2243.9907,120.3856 L2243.9907,90.12 L2233.9907,80.12 L2094,80.12 A0,0 0 0 0 2094,80.12" fill="#FEFFDD" style="stroke:#181818;stroke-width:0.5;"/><path d="M2233.9907,80.12 L2233.9907,90.12 L2243.9907,90.12 L2233.9907,80.12" fill="#FEFFDD" style="stroke:#181818;stroke-width:0.5;"/><text fill="#000000" font-family="sans-serif" font-size="13" lengthAdjust="spacing" textLength="128.9907" x="2100" y="97.1869">"Custom controllers</text><text fill="#000000" font-family="sans-serif" font-size="13" lengthAdjust="spacing" textLength="106.4692" x="2100" y="112.3197">for applications"</text></g><!--link RBAC to PSS--><g class="link" data-entity-1="ent0003" data-entity-2="ent0004" data-link-type="dependency" data-source-line="47" id="lnk33"><path d="M159.83,123.78 C151.92,145.57 142.0661,172.7497 134.1761,194.4997" fill="none" id="RBAC-to-PSS" style="stroke:#181818;stroke-width:1;"/><polygon fill="#181818" points="132.13,200.14,138.9594,193.0435,133.8351,195.4397,131.4389,190.3154,132.13,200.14" style="stroke:#181818;stroke-width:1;"/><text fill="#000000" font-family="sans-serif" font-size="13" lengthAdjust="spacing" textLength="50.8384" x="149.63" y="166.4669">enables</text></g><!--link PSS to NP--><g class="link" data-entity-1="ent0004" data-entity-2="ent0005" data-link-type="dependency" data-source-line="48" id="lnk34"><path d="M124,247.16 C124,269.41 124,297.18 124,319.37" fill="none" id="PSS-to-NP" style="stroke:#181818;stroke-width:1;"/><polygon fill="#181818" points="124,325.37,128,316.37,124,320.37,120,316.37,124,325.37" style="stroke:#181818;stroke-width:1;"/><text fill="#000000" font-family="sans-serif" font-size="13" lengthAdjust="spacing" textLength="88.3975" x="125" y="291.7669">complements</text></g><!--link NP to AC--><g class="link" data-entity-1="ent0005" data-entity-2="ent0006" data-link-type="dependency" data-source-line="49" id="lnk35"><path d="M124,372.46 C124,394.71 124,422.47 124,444.67" fill="none" id="NP-to-AC" style="stroke:#181818;stroke-width:1;"/><polygon fill="#181818" points="124,450.67,128,441.67,124,445.67,120,441.67,124,450.67" style="stroke:#181818;stroke-width:1;"/><text fill="#000000" font-family="sans-serif" font-size="13" lengthAdjust="spacing" textLength="77.5874" x="125" y="417.0569">enforced by</text></g><!--link HPA to VPA--><g class="link" data-entity-1="ent0008" data-entity-2="ent0009" data-link-type="dependency" data-source-line="52" id="lnk36"><path d="M600,123.78 C600,145.57 600,172.39 600,194.14" fill="none" id="HPA-to-VPA" style="stroke:#181818;stroke-width:1;"/><polygon fill="#181818" points="600,200.14,604,191.14,600,195.14,596,191.14,600,200.14" style="stroke:#181818;stroke-width:1;"/><text fill="#000000" font-family="sans-serif" font-size="13" lengthAdjust="spacing" textLength="88.3975" x="601" y="166.4669">complements</text></g><!--link VPA to CA--><g class="link" data-entity-1="ent0009" data-entity-2="ent0010" data-link-type="dependency" data-source-line="53" id="lnk37"><path d="M600,247.16 C600,269.41 600,297.18 600,319.37" fill="none" id="VPA-to-CA" style="stroke:#181818;stroke-width:1;"/><polygon fill="#181818" points="600,325.37,604,316.37,600,320.37,596,316.37,600,325.37" style="stroke:#181818;stroke-width:1;"/><text fill="#000000" font-family="sans-serif" font-size="13" lengthAdjust="spacing" textLength="50.6733" x="601" y="291.7669">triggers</text></g><!--link CA to RQ--><g class="link" data-entity-1="ent0010" data-entity-2="ent0011" data-link-type="dependency" data-source-line="54" id="lnk38"><path d="M600,372.46 C600,394.71 600,422.47 600,444.67" fill="none" id="CA-to-RQ" style="stroke:#181818;stroke-width:1;"/><polygon fill="#181818" points="600,450.67,604,441.67,600,445.67,596,441.67,600,450.67" style="stroke:#181818;stroke-width:1;"/><text fill="#000000" font-family="sans-serif" font-size="13" lengthAdjust="spacing" textLength="55.3833" x="601" y="417.0569">respects</text></g><!--link HELM to KUST--><g class="link" data-entity-1="ent0013" data-entity-2="ent0014" data-link-type="dependency" data-source-line="57" id="lnk39"><path d="M1042.07,123.78 C1041.17,145.57 1040.0681,172.3951 1039.1681,194.1451" fill="none" id="HELM-to-KUST" style="stroke:#181818;stroke-width:1;"/><polygon fill="#181818" points="1038.92,200.14,1043.2887,191.3131,1039.1267,195.1443,1035.2955,190.9823,1038.92,200.14" style="stroke:#181818;stroke-width:1;"/><text fill="#000000" font-family="sans-serif" font-size="13" lengthAdjust="spacing" textLength="87.8071" x="1041.8" y="166.4669">alternative to</text></g><!--link KUST to ARGOCD--><g class="link" data-entity-1="ent0014" data-entity-2="ent0015" data-link-type="dependency" data-source-line="58" id="lnk40"><path d="M1039.1,247.16 C1040.18,269.41 1041.5383,297.1871 1042.6183,319.3771" fill="none" id="KUST-to-ARGOCD" style="stroke:#181818;stroke-width:1;"/><polygon fill="#181818" points="1042.91,325.37,1046.4678,316.1862,1042.6669,320.3759,1038.4772,316.5751,1042.91,325.37" style="stroke:#181818;stroke-width:1;"/><text fill="#000000" font-family="sans-serif" font-size="13" lengthAdjust="spacing" textLength="51.3398" x="1042.36" y="291.7669">used by</text></g><!--link ARGOCD to FLUX--><g class="link" data-entity-1="ent0015" data-entity-2="ent0016" data-link-type="dependency" data-source-line="59" id="lnk41"><path d="M1041.8,372.46 C1039.63,394.71 1036.931,422.4982 1034.771,444.6982" fill="none" id="ARGOCD-to-FLUX" style="stroke:#181818;stroke-width:1;"/><polygon fill="#181818" points="1034.19,450.67,1039.0428,442.0997,1034.6742,445.6935,1031.0804,441.3249,1034.19,450.67" style="stroke:#181818;stroke-width:1;"/><text fill="#000000" font-family="sans-serif" font-size="13" lengthAdjust="spacing" textLength="87.8071" x="1039.72" y="417.0569">alternative to</text></g><!--link CALICO to CILIUM--><g class="link" data-entity-1="ent0018" data-entity-2="ent0019" data-link-type="dependency" data-source-line="62" id="lnk42"><path d="M1388.26,123.78 C1387.54,145.57 1386.6585,172.3933 1385.9385,194.1433" fill="none" id="CALICO-to-CILIUM" style="stroke:#181818;stroke-width:1;"/><polygon fill="#181818" points="1385.74,200.14,1390.0356,191.2773,1385.9054,195.1427,1382.04,191.0126,1385.74,200.14" style="stroke:#181818;stroke-width:1;"/><text fill="#000000" font-family="sans-serif" font-size="13" lengthAdjust="spacing" textLength="87.8071" x="1388.24" y="166.4669">alternative to</text></g><!--link LONGHORN to ROOK--><g class="link" data-entity-1="ent0020" data-entity-2="ent0021" data-link-type="dependency" data-source-line="63" id="lnk43"><path d="M1563.19,123.78 C1563.37,145.57 1563.5903,172.3902 1563.7703,194.1402" fill="none" id="LONGHORN-to-ROOK" style="stroke:#181818;stroke-width:1;"/><polygon fill="#181818" points="1563.82,200.14,1567.7454,191.1072,1563.7786,195.1402,1559.7457,191.1734,1563.82,200.14" style="stroke:#181818;stroke-width:1;"/><text fill="#000000" font-family="sans-serif" font-size="13" lengthAdjust="spacing" textLength="87.8071" x="1564.56" y="166.4669">alternative to</text></g><!--link ROOK to THANOS--><g class="link" data-entity-1="ent0021" data-entity-2="ent0022" data-link-type="dependency" data-source-line="64" id="lnk44"><path d="M1564,247.16 C1564,269.41 1564,297.18 1564,319.37" fill="none" id="ROOK-to-THANOS" style="stroke:#181818;stroke-width:1;"/><polygon fill="#181818" points="1564,325.37,1568,316.37,1564,320.37,1560,316.37,1564,325.37" style="stroke:#181818;stroke-width:1;"/><text fill="#000000" font-family="sans-serif" font-size="13" lengthAdjust="spacing" textLength="71.3921" x="1565" y="291.7669">storage for</text></g><!--link ISTIO to LINKERD--><g class="link" data-entity-1="ent0024" data-entity-2="ent0025" data-link-type="dependency" data-source-line="67" id="lnk45"><path d="M2369.04,123.78 C2371.02,145.57 2373.4588,172.4145 2375.4288,194.1645" fill="none" id="ISTIO-to-LINKERD" style="stroke:#181818;stroke-width:1;"/><polygon fill="#181818" points="2375.97,200.14,2379.1418,190.8159,2375.519,195.1604,2371.1745,191.5375,2375.97,200.14" style="stroke:#181818;stroke-width:1;"/><text fill="#000000" font-family="sans-serif" font-size="13" lengthAdjust="spacing" textLength="87.8071" x="2374.16" y="166.4669">alternative to</text></g><!--link INGRESS to LB--><g class="link" data-entity-1="ent0026" data-entity-2="ent0027" data-link-type="dependency" data-source-line="68" id="lnk46"><path d="M2577.86,123.78 C2579.65,145.57 2581.8679,172.4102 2583.6579,194.1602" fill="none" id="INGRESS-to-LB" style="stroke:#181818;stroke-width:1;"/><polygon fill="#181818" points="2584.15,200.14,2587.3983,190.8422,2583.7399,195.1568,2579.4253,191.4984,2584.15,200.14" style="stroke:#181818;stroke-width:1;"/><text fill="#000000" font-family="sans-serif" font-size="13" lengthAdjust="spacing" textLength="55.8784" x="2582.6" y="166.4669">provides</text></g><!--link OPERATORS to SDK--><g class="link" data-entity-1="ent0029" data-entity-2="ent0030" data-link-type="dependency" data-source-line="71" id="lnk47"><path d="M1975,123.78 C1975,145.57 1975,172.39 1975,194.14" fill="none" id="OPERATORS-to-SDK" style="stroke:#181818;stroke-width:1;"/><polygon fill="#181818" points="1975,200.14,1979,191.14,1975,195.14,1971,191.14,1975,200.14" style="stroke:#181818;stroke-width:1;"/><text fill="#000000" font-family="sans-serif" font-size="13" lengthAdjust="spacing" textLength="60.5249" x="1976" y="166.4669">built with</text></g><!--link SDK to KB--><g class="link" data-entity-1="ent0030" data-entity-2="ent0031" data-link-type="dependency" data-source-line="72" id="lnk48"><path d="M1975,247.16 C1975,269.41 1975,297.18 1975,319.37" fill="none" id="SDK-to-KB" style="stroke:#181818;stroke-width:1;"/><polygon fill="#181818" points="1975,325.37,1979,316.37,1975,320.37,1971,316.37,1975,325.37" style="stroke:#181818;stroke-width:1;"/><text fill="#000000" font-family="sans-serif" font-size="13" lengthAdjust="spacing" textLength="59.5664" x="1976" y="291.7669">based on</text></g><!--link KB to CR--><g class="link" data-entity-1="ent0031" data-entity-2="ent0032" data-link-type="dependency" data-source-line="73" id="lnk49"><path d="M1975,372.46 C1975,394.71 1975,422.47 1975,444.67" fill="none" id="KB-to-CR" style="stroke:#181818;stroke-width:1;"/><polygon fill="#181818" points="1975,450.67,1979,441.67,1975,445.67,1971,441.67,1975,450.67" style="stroke:#181818;stroke-width:1;"/><text fill="#000000" font-family="sans-serif" font-size="13" lengthAdjust="spacing" textLength="48.3247" x="1976" y="417.0569">creates</text></g><!--link CALICO to GMN59--><g class="link" data-entity-1="ent0018" data-entity-2="ent0060" data-link-type="association" data-source-line="78" id="lnk61"><path d="M1406.72,76.89 C1423.3,57.16 1450.03,30.37 1480.5,19.1 C1515.93,6 1614.43,7.86 1650.5,19.1 C1688.61,30.98 1725.26,60.02 1747.21,79.93" fill="none" id="CALICO-GMN59" style="stroke:#181818;stroke-width:1;stroke-dasharray:7,7;"/></g><?plantuml-src RLN1Sjiu3BtxAr0VsfD_e8VEo8fhQwn8ZkHaEjFqG4kCpOb4QaWgtNHd_tq1KBAjnYTRU03u2BmdVQhbYz8IYbMyZx9rkeAg4SxDPfseNiLHmhoKLM-LVuVF45MLT0vYexqrpHp-dG7yB9PH_0k40_f3WPsfuLnKUg5hOMl7ARkof8nC-j_6liBEDAfICc3PZg2eRfLpokZnb4RQW6Fp_wvfLQ9H-eYiTjA-6DiANSc1qiPOzGVBHGD49kgzSPWkBJVQx29AUfBMg-fsobD8YPlUUMd_HcC62-bCRoi93xtn8d0i7YOSyGelwjXRuUb2zq9Zj9NQZpHbqq9y4jQ7wiqglQVu5ayrhVeZERfzBFSKNIkVTmuM4DcZYU_2J8fr7jzDqEzD_mzZtzF77nCsKODtqSZbJK9fcfv8kO5AZCEi3CHPCjmmJUAS0TMelhq0IPeyCidKwEF9M8qRDXRxCvpcsNgJ5ndFnvZNHIoxqoIZoFCjeVkJqCR1lT4AKLmae_jDbENbb7NzHfkjOH0DfWwSIsdV5Cx_NheJNZnnU27kafJx9B-HaIhzAcqTc2RPTbNmw19zj5UoFWikoTR5AWWsDQA6fMYGoKWrNKvevft4DHlho2OebvPtFawN5mhd76wGxrP5jCyBFc24eBpRCeg_GGe7UUXLKm_Isowl-eqA3FtYWWXzkLYlCbhBYhSy8s_2Ol6D70XVOIwrE3JIpMVqJF5iH-7Aj5t34aK8GuHW8HUWnsWDX_SvdpBOx_eGD1PNe7i-D7iQi9WXRzNnY7EUp-8GBXueZ6lei9dZ4wRccPo3Fk4giWRLYIjbUpEVSPovipyefNS3zo54A3daLZaUVksLwwE3CS9Ds0gtwaSNX9kXu6ybSPmIWkOfnGMV04wQILmKF-70ykRIGSItsW_Y3MbBokYiULEr3CEzoFMwyrcIN8OIf3gIduVVof_cCmhnuBdZGT1GKUKpVEQH5BntAuNdSxJn4d3L9m_cXRyFX1UcaOjGAy87fGhEUzQZOJ5kUjGDcWdZr6lQQXCKDXgj0XVa-An7Jj1A55driPAqWwMxmRWjlvJjCyaRo6rMI__nm67lNw_UH_gydMTDqu6ElcRluFgkCzR_tU4oMsmo6BYwl7420T5rs4E4D_F_?></g></svg>