<?plantuml 1.2026.2?><svg xmlns="http://www.w3.org/2000/svg" xmlns:xlink="http://www.w3.org/1999/xlink" contentStyleType="text/css" data-diagram-type="ACTIVITY" height="836px" preserveAspectRatio="none" style="width:832px;height:836px;background:#FFFFFF;" version="1.1" viewBox="0 0 832 836" width="832px" zoomAndPan="magnify"><defs/><g><ellipse cx="313.134" cy="20" fill="#222222" rx="10" ry="10" style="stroke:#222222;stroke-width:1;"/><path d="M420.926,54.418 L420.926,62.9844 L400.926,66.9844 L420.926,70.9844 L420.926,79.5508 A0,0 0 0 0 420.926,79.5508 L574.2366,79.5508 A0,0 0 0 0 574.2366,79.5508 L574.2366,64.418 L564.2366,54.418 L420.926,54.418 A0,0 0 0 0 420.926,54.418" fill="#FEFFDD" style="stroke:#181818;stroke-width:0.5;"/><path d="M564.2366,54.418 L564.2366,64.418 L574.2366,64.418 L564.2366,54.418" fill="#FEFFDD" style="stroke:#181818;stroke-width:0.5;"/><text fill="#000000" font-family="sans-serif" font-size="13" lengthAdjust="spacing" textLength="132.3105" x="426.926" y="71.4849">&#1057;&#1080;&#1084;&#1087;&#1090;&#1086;&#1084;&#1099;, &#1086;&#1096;&#1080;&#1073;&#1082;&#1080;</text><rect fill="#F1F1F1" height="33.9688" rx="12.5" ry="12.5" style="stroke:#181818;stroke-width:0.5;" width="175.584" x="225.342" y="50"/><text fill="#000000" font-family="sans-serif" font-size="12" lengthAdjust="spacing" textLength="155.584" x="235.342" y="71.1387">&#1054;&#1073;&#1085;&#1072;&#1088;&#1091;&#1078;&#1077;&#1085;&#1080;&#1077; &#1087;&#1088;&#1086;&#1073;&#1083;&#1077;&#1084;&#1099;</text><path d="M438.8586,100.8203 L438.8586,116.9531 L418.8586,120.9531 L438.8586,124.9531 L438.8586,141.0859 A0,0 0 0 0 438.8586,141.0859 L683.7468,141.0859 A0,0 0 0 0 683.7468,141.0859 L683.7468,110.8203 L673.7468,100.8203 L438.8586,100.8203 A0,0 0 0 0 438.8586,100.8203" fill="#FEFFDD" style="stroke:#181818;stroke-width:0.5;"/><path d="M673.7468,100.8203 L673.7468,110.8203 L683.7468,110.8203 L673.7468,100.8203" fill="#FEFFDD" style="stroke:#181818;stroke-width:0.5;"/><text fill="#000000" font-family="sans-serif" font-size="13" lengthAdjust="spacing" textLength="116.7017" x="444.8586" y="117.8872">kubectl get nodes</text><text fill="#000000" font-family="sans-serif" font-size="13" lengthAdjust="spacing" textLength="223.8882" x="444.8586" y="133.02">kubectl get pods --all-namespaces</text><rect fill="#F1F1F1" height="33.9688" rx="12.5" ry="12.5" style="stroke:#181818;stroke-width:0.5;" width="211.4492" x="207.4094" y="103.9688"/><text fill="#000000" font-family="sans-serif" font-size="12" lengthAdjust="spacing" textLength="191.4492" x="217.4094" y="125.1074">&#1055;&#1088;&#1086;&#1074;&#1077;&#1088;&#1082;&#1072; &#1089;&#1086;&#1089;&#1090;&#1086;&#1103;&#1085;&#1080;&#1103; &#1082;&#1083;&#1072;&#1089;&#1090;&#1077;&#1088;&#1072;</text><polygon fill="#F1F1F1" points="268.2827,161.0859,357.9854,161.0859,369.9854,173.0859,357.9854,185.0859,268.2827,185.0859,256.2827,173.0859,268.2827,161.0859" style="stroke:#181818;stroke-width:0.5;"/><text fill="#000000" font-family="sans-serif" font-size="11" lengthAdjust="spacing" textLength="89.7026" x="268.2827" y="176.894">&#1059;&#1079;&#1083;&#1099; &#1085;&#1077; Ready?</text><text fill="#000000" font-family="sans-serif" font-size="11" lengthAdjust="spacing" textLength="14.3462" x="241.9365" y="170.4917">&#1076;&#1072;</text><text fill="#000000" font-family="sans-serif" font-size="11" lengthAdjust="spacing" textLength="20.3672" x="369.9854" y="170.4917">&#1085;&#1077;&#1090;</text><path d="M223.1199,195.0859 L223.1199,211.2188 L203.1199,215.2188 L223.1199,219.2188 L223.1199,235.3516 A0,0 0 0 0 223.1199,235.3516 L391.6521,235.3516 A0,0 0 0 0 391.6521,235.3516 L391.6521,205.0859 L381.6521,195.0859 L223.1199,195.0859 A0,0 0 0 0 223.1199,195.0859" fill="#FEFFDD" style="stroke:#181818;stroke-width:0.5;"/><path d="M381.6521,195.0859 L381.6521,205.0859 L391.6521,205.0859 L381.6521,195.0859" fill="#FEFFDD" style="stroke:#181818;stroke-width:0.5;"/><text fill="#000000" font-family="sans-serif" font-size="13" lengthAdjust="spacing" textLength="130.7427" x="229.1199" y="212.1528">journalctl -u kubelet</text><text fill="#000000" font-family="sans-serif" font-size="13" lengthAdjust="spacing" textLength="147.5322" x="229.1199" y="227.2856">kubeadm token create</text><rect fill="#F1F1F1" height="33.9688" rx="12.5" ry="12.5" style="stroke:#181818;stroke-width:0.5;" width="141.3887" x="61.7312" y="198.2344"/><text fill="#000000" font-family="sans-serif" font-size="12" lengthAdjust="spacing" textLength="121.3887" x="71.7312" y="219.373">&#1044;&#1080;&#1072;&#1075;&#1085;&#1086;&#1089;&#1090;&#1080;&#1082;&#1072; &#1091;&#1079;&#1083;&#1086;&#1074;</text><path d="M596.033,199.5039 L596.033,208.0703 L576.033,212.0703 L596.033,216.0703 L596.033,224.6367 A0,0 0 0 0 596.033,224.6367 L738.3176,224.6367 A0,0 0 0 0 738.3176,224.6367 L738.3176,209.5039 L728.3176,199.5039 L596.033,199.5039 A0,0 0 0 0 596.033,199.5039" fill="#FEFFDD" style="stroke:#181818;stroke-width:0.5;"/><path d="M728.3176,199.5039 L728.3176,209.5039 L738.3176,209.5039 L728.3176,199.5039" fill="#FEFFDD" style="stroke:#181818;stroke-width:0.5;"/><text fill="#000000" font-family="sans-serif" font-size="13" lengthAdjust="spacing" textLength="121.2847" x="602.033" y="216.5708">kubectl get events</text><rect fill="#F1F1F1" height="33.9688" rx="12.5" ry="12.5" style="stroke:#181818;stroke-width:0.5;" width="164.3809" x="411.6521" y="195.0859"/><text fill="#000000" font-family="sans-serif" font-size="12" lengthAdjust="spacing" textLength="144.3809" x="421.6521" y="216.2246">&#1055;&#1088;&#1086;&#1074;&#1077;&#1088;&#1082;&#1072; &#1087;&#1088;&#1080;&#1083;&#1086;&#1078;&#1077;&#1085;&#1080;&#1081;</text><rect fill="#F1F1F1" height="33.9688" rx="12.5" ry="12.5" style="stroke:#181818;stroke-width:0.5;" width="145.5137" x="421.0857" y="255.3516"/><text fill="#000000" font-family="sans-serif" font-size="12" lengthAdjust="spacing" textLength="125.5137" x="431.0857" y="276.4902">kubectl describe pod</text><polygon fill="#F1F1F1" points="313.134,295.3203,325.134,307.3203,313.134,319.3203,301.134,307.3203,313.134,295.3203" style="stroke:#181818;stroke-width:0.5;"/><polygon fill="#F1F1F1" points="259.2888,339.3203,366.9792,339.3203,378.9792,351.3203,366.9792,363.3203,259.2888,363.3203,247.2888,351.3203,259.2888,339.3203" style="stroke:#181818;stroke-width:0.5;"/><text fill="#000000" font-family="sans-serif" font-size="11" lengthAdjust="spacing" textLength="107.6904" x="259.2888" y="355.1284">&#1057;&#1077;&#1090;&#1100; &#1085;&#1077; &#1088;&#1072;&#1073;&#1086;&#1090;&#1072;&#1077;&#1090;?</text><text fill="#000000" font-family="sans-serif" font-size="11" lengthAdjust="spacing" textLength="14.3462" x="232.9426" y="348.7261">&#1076;&#1072;</text><text fill="#000000" font-family="sans-serif" font-size="11" lengthAdjust="spacing" textLength="20.3672" x="378.9792" y="348.7261">&#1085;&#1077;&#1090;</text><path d="M195.1284,373.3203 L195.1284,389.4531 L175.1284,393.4531 L195.1284,397.4531 L195.1284,413.5859 A0,0 0 0 0 195.1284,413.5859 L426.9912,413.5859 A0,0 0 0 0 426.9912,413.5859 L426.9912,383.3203 L416.9912,373.3203 L195.1284,373.3203 A0,0 0 0 0 195.1284,373.3203" fill="#FEFFDD" style="stroke:#181818;stroke-width:0.5;"/><path d="M416.9912,373.3203 L416.9912,383.3203 L426.9912,383.3203 L416.9912,373.3203" fill="#FEFFDD" style="stroke:#181818;stroke-width:0.5;"/><text fill="#000000" font-family="sans-serif" font-size="13" lengthAdjust="spacing" textLength="210.8628" x="201.1284" y="390.3872">kubectl get pods -n kube-flannel</text><text fill="#000000" font-family="sans-serif" font-size="13" lengthAdjust="spacing" textLength="131.9551" x="201.1284" y="405.52">ping &#1084;&#1077;&#1078;&#1076;&#1091; &#1091;&#1079;&#1083;&#1072;&#1084;&#1080;</text><rect fill="#F1F1F1" height="33.9688" rx="12.5" ry="12.5" style="stroke:#181818;stroke-width:0.5;" width="134.5918" x="40.5366" y="376.4688"/><text fill="#000000" font-family="sans-serif" font-size="12" lengthAdjust="spacing" textLength="114.5918" x="50.5366" y="397.6074">&#1044;&#1080;&#1072;&#1075;&#1085;&#1086;&#1089;&#1090;&#1080;&#1082;&#1072; &#1089;&#1077;&#1090;&#1080;</text><path d="M609.4111,377.7383 L609.4111,386.3047 L589.4111,390.3047 L609.4111,394.3047 L609.4111,402.8711 A0,0 0 0 0 609.4111,402.8711 L729.5107,402.8711 A0,0 0 0 0 729.5107,402.8711 L729.5107,387.7383 L719.5107,377.7383 L609.4111,377.7383 A0,0 0 0 0 609.4111,377.7383" fill="#FEFFDD" style="stroke:#181818;stroke-width:0.5;"/><path d="M719.5107,377.7383 L719.5107,387.7383 L729.5107,387.7383 L719.5107,377.7383" fill="#FEFFDD" style="stroke:#181818;stroke-width:0.5;"/><text fill="#000000" font-family="sans-serif" font-size="13" lengthAdjust="spacing" textLength="99.0996" x="615.4111" y="394.8052">kubectl get svc</text><rect fill="#F1F1F1" height="33.9688" rx="12.5" ry="12.5" style="stroke:#181818;stroke-width:0.5;" width="141.9512" x="447.46" y="373.3203"/><text fill="#000000" font-family="sans-serif" font-size="12" lengthAdjust="spacing" textLength="121.9512" x="457.46" y="394.459">&#1055;&#1088;&#1086;&#1074;&#1077;&#1088;&#1082;&#1072; &#1089;&#1077;&#1088;&#1074;&#1080;&#1089;&#1086;&#1074;</text><rect fill="#F1F1F1" height="33.9688" rx="12.5" ry="12.5" style="stroke:#181818;stroke-width:0.5;" width="142.8887" x="446.9912" y="433.5859"/><text fill="#000000" font-family="sans-serif" font-size="12" lengthAdjust="spacing" textLength="122.8887" x="456.9912" y="454.7246">kubectl describe svc</text><polygon fill="#F1F1F1" points="313.134,473.5547,325.134,485.5547,313.134,497.5547,301.134,485.5547,313.134,473.5547" style="stroke:#181818;stroke-width:0.5;"/><polygon fill="#F1F1F1" points="250.9368,517.5547,375.3313,517.5547,387.3313,529.5547,375.3313,541.5547,250.9368,541.5547,238.9368,529.5547,250.9368,517.5547" style="stroke:#181818;stroke-width:0.5;"/><text fill="#000000" font-family="sans-serif" font-size="11" lengthAdjust="spacing" textLength="124.3945" x="250.9368" y="533.3628">MetalLB &#1085;&#1077; &#1088;&#1072;&#1073;&#1086;&#1090;&#1072;&#1077;&#1090;?</text><text fill="#000000" font-family="sans-serif" font-size="11" lengthAdjust="spacing" textLength="14.3462" x="224.5906" y="526.9604">&#1076;&#1072;</text><text fill="#000000" font-family="sans-serif" font-size="11" lengthAdjust="spacing" textLength="20.3672" x="387.3313" y="526.9604">&#1085;&#1077;&#1090;</text><path d="M198.8203,555.9727 L198.8203,564.5391 L178.8203,568.5391 L198.8203,572.5391 L198.8203,581.1055 A0,0 0 0 0 198.8203,581.1055 L420.5015,581.1055 A0,0 0 0 0 420.5015,581.1055 L420.5015,565.9727 L410.5015,555.9727 L198.8203,555.9727 A0,0 0 0 0 198.8203,555.9727" fill="#FEFFDD" style="stroke:#181818;stroke-width:0.5;"/><path d="M410.5015,555.9727 L410.5015,565.9727 L420.5015,565.9727 L410.5015,555.9727" fill="#FEFFDD" style="stroke:#181818;stroke-width:0.5;"/><text fill="#000000" font-family="sans-serif" font-size="13" lengthAdjust="spacing" textLength="200.6812" x="204.8203" y="573.0396">kubectl logs -n metallb-system</text><rect fill="#F1F1F1" height="33.9688" rx="12.5" ry="12.5" style="stroke:#181818;stroke-width:0.5;" width="153.8691" x="24.9512" y="551.5547"/><text fill="#000000" font-family="sans-serif" font-size="12" lengthAdjust="spacing" textLength="133.8691" x="34.9512" y="572.6934">&#1044;&#1080;&#1072;&#1075;&#1085;&#1086;&#1089;&#1090;&#1080;&#1082;&#1072; MetalLB</text><rect fill="#F1F1F1" height="33.9688" rx="12.5" ry="12.5" style="stroke:#181818;stroke-width:0.5;" width="181.7715" x="11" y="605.5234"/><text fill="#000000" font-family="sans-serif" font-size="12" lengthAdjust="spacing" textLength="161.7715" x="21" y="626.6621">kubectl get ipaddresspools</text><path d="M628.2632,555.9727 L628.2632,564.5391 L608.2632,568.5391 L628.2632,572.5391 L628.2632,581.1055 A0,0 0 0 0 628.2632,581.1055 L820.0215,581.1055 A0,0 0 0 0 820.0215,581.1055 L820.0215,565.9727 L810.0215,555.9727 L628.2632,555.9727 A0,0 0 0 0 628.2632,555.9727" fill="#FEFFDD" style="stroke:#181818;stroke-width:0.5;"/><path d="M810.0215,555.9727 L810.0215,565.9727 L820.0215,565.9727 L810.0215,555.9727" fill="#FEFFDD" style="stroke:#181818;stroke-width:0.5;"/><text fill="#000000" font-family="sans-serif" font-size="13" lengthAdjust="spacing" textLength="170.7583" x="634.2632" y="573.0396">kubectl logs -n monitoring</text><rect fill="#F1F1F1" height="33.9688" rx="12.5" ry="12.5" style="stroke:#181818;stroke-width:0.5;" width="167.7617" x="440.5015" y="551.5547"/><text fill="#000000" font-family="sans-serif" font-size="12" lengthAdjust="spacing" textLength="147.7617" x="450.5015" y="572.6934">&#1055;&#1088;&#1086;&#1074;&#1077;&#1088;&#1082;&#1072; &#1084;&#1086;&#1085;&#1080;&#1090;&#1086;&#1088;&#1080;&#1085;&#1075;&#1072;</text><rect fill="#F1F1F1" height="33.9688" rx="12.5" ry="12.5" style="stroke:#181818;stroke-width:0.5;" width="143.1523" x="452.8062" y="605.5234"/><text fill="#000000" font-family="sans-serif" font-size="12" lengthAdjust="spacing" textLength="123.1523" x="462.8062" y="626.6621">kubectl port-forward</text><polygon fill="#F1F1F1" points="313.134,645.4922,325.134,657.4922,313.134,669.4922,301.134,657.4922,313.134,645.4922" style="stroke:#181818;stroke-width:0.5;"/><path d="M412.72,686.3438 L412.72,702.4766 L392.72,706.4766 L412.72,710.4766 L412.72,726.6094 A0,0 0 0 0 412.72,726.6094 L628.7136,726.6094 A0,0 0 0 0 628.7136,726.6094 L628.7136,696.3438 L618.7136,686.3438 L412.72,686.3438 A0,0 0 0 0 412.72,686.3438" fill="#FEFFDD" style="stroke:#181818;stroke-width:0.5;"/><path d="M618.7136,686.3438 L618.7136,696.3438 L628.7136,696.3438 L618.7136,686.3438" fill="#FEFFDD" style="stroke:#181818;stroke-width:0.5;"/><text fill="#000000" font-family="sans-serif" font-size="13" lengthAdjust="spacing" textLength="194.9937" x="418.72" y="703.4106">&#1048;&#1089;&#1087;&#1088;&#1072;&#1074;&#1083;&#1077;&#1085;&#1080;&#1077; &#1082;&#1086;&#1085;&#1092;&#1080;&#1075;&#1091;&#1088;&#1072;&#1094;&#1080;&#1080;</text><text fill="#000000" font-family="sans-serif" font-size="13" lengthAdjust="spacing" textLength="146.4976" x="418.72" y="718.5435">&#1055;&#1077;&#1088;&#1077;&#1079;&#1072;&#1087;&#1091;&#1089;&#1082; &#1089;&#1077;&#1088;&#1074;&#1080;&#1089;&#1086;&#1074;</text><rect fill="#F1F1F1" height="33.9688" rx="12.5" ry="12.5" style="stroke:#181818;stroke-width:0.5;" width="159.1719" x="233.5481" y="689.4922"/><text fill="#000000" font-family="sans-serif" font-size="12" lengthAdjust="spacing" textLength="139.1719" x="243.5481" y="710.6309">&#1055;&#1088;&#1080;&#1084;&#1077;&#1085;&#1077;&#1085;&#1080;&#1077; &#1088;&#1077;&#1096;&#1077;&#1085;&#1080;&#1103;</text><path d="M411.3254,743.4609 L411.3254,759.5938 L391.3254,763.5938 L411.3254,767.5938 L411.3254,783.7266 A0,0 0 0 0 411.3254,783.7266 L644.6418,783.7266 A0,0 0 0 0 644.6418,783.7266 L644.6418,753.4609 L634.6418,743.4609 L411.3254,743.4609 A0,0 0 0 0 411.3254,743.4609" fill="#FEFFDD" style="stroke:#181818;stroke-width:0.5;"/><path d="M634.6418,743.4609 L634.6418,753.4609 L644.6418,753.4609 L634.6418,743.4609" fill="#FEFFDD" style="stroke:#181818;stroke-width:0.5;"/><text fill="#000000" font-family="sans-serif" font-size="13" lengthAdjust="spacing" textLength="142.0225" x="417.3254" y="760.5278">&#1055;&#1086;&#1074;&#1090;&#1086;&#1088;&#1085;&#1072;&#1103; &#1087;&#1088;&#1086;&#1074;&#1077;&#1088;&#1082;&#1072;</text><text fill="#000000" font-family="sans-serif" font-size="13" lengthAdjust="spacing" textLength="212.3164" x="417.3254" y="775.6606">&#1042;&#1072;&#1083;&#1080;&#1076;&#1072;&#1094;&#1080;&#1103; &#1092;&#1091;&#1085;&#1082;&#1094;&#1080;&#1086;&#1085;&#1072;&#1083;&#1100;&#1085;&#1086;&#1089;&#1090;&#1080;</text><rect fill="#F1F1F1" height="33.9688" rx="12.5" ry="12.5" style="stroke:#181818;stroke-width:0.5;" width="156.3828" x="234.9426" y="746.6094"/><text fill="#000000" font-family="sans-serif" font-size="12" lengthAdjust="spacing" textLength="136.3828" x="244.9426" y="767.748">&#1055;&#1088;&#1086;&#1074;&#1077;&#1088;&#1082;&#1072; &#1088;&#1077;&#1079;&#1091;&#1083;&#1100;&#1090;&#1072;&#1090;&#1072;</text><ellipse cx="313.134" cy="814.7266" fill="none" rx="11" ry="11" style="stroke:#222222;stroke-width:1;"/><ellipse cx="313.134" cy="814.7266" fill="#222222" rx="6" ry="6" style="stroke:#222222;stroke-width:1;"/><line style="stroke:#181818;stroke-width:1;" x1="313.134" x2="313.134" y1="30" y2="50"/><polygon fill="#181818" points="309.134,40,313.134,50,317.134,40,313.134,44" style="stroke:#181818;stroke-width:1;"/><line style="stroke:#181818;stroke-width:1;" x1="313.134" x2="313.134" y1="83.9688" y2="103.9688"/><polygon fill="#181818" points="309.134,93.9688,313.134,103.9688,317.134,93.9688,313.134,97.9688" style="stroke:#181818;stroke-width:1;"/><line style="stroke:#181818;stroke-width:1;" x1="493.8425" x2="493.8425" y1="229.0547" y2="255.3516"/><polygon fill="#181818" points="489.8425,245.3516,493.8425,255.3516,497.8425,245.3516,493.8425,249.3516" style="stroke:#181818;stroke-width:1;"/><line style="stroke:#181818;stroke-width:1;" x1="256.2827" x2="132.4255" y1="173.0859" y2="173.0859"/><line style="stroke:#181818;stroke-width:1;" x1="132.4255" x2="132.4255" y1="173.0859" y2="198.2344"/><polygon fill="#181818" points="128.4255,188.2344,132.4255,198.2344,136.4255,188.2344,132.4255,192.2344" style="stroke:#181818;stroke-width:1;"/><line style="stroke:#181818;stroke-width:1;" x1="369.9854" x2="493.8425" y1="173.0859" y2="173.0859"/><line style="stroke:#181818;stroke-width:1;" x1="493.8425" x2="493.8425" y1="173.0859" y2="195.0859"/><polygon fill="#181818" points="489.8425,185.0859,493.8425,195.0859,497.8425,185.0859,493.8425,189.0859" style="stroke:#181818;stroke-width:1;"/><line style="stroke:#181818;stroke-width:1;" x1="132.4255" x2="132.4255" y1="232.2031" y2="307.3203"/><line style="stroke:#181818;stroke-width:1;" x1="132.4255" x2="301.134" y1="307.3203" y2="307.3203"/><polygon fill="#181818" points="291.134,303.3203,301.134,307.3203,291.134,311.3203,295.134,307.3203" style="stroke:#181818;stroke-width:1;"/><line style="stroke:#181818;stroke-width:1;" x1="493.8425" x2="493.8425" y1="289.3203" y2="307.3203"/><line style="stroke:#181818;stroke-width:1;" x1="493.8425" x2="325.134" y1="307.3203" y2="307.3203"/><polygon fill="#181818" points="335.134,303.3203,325.134,307.3203,335.134,311.3203,331.134,307.3203" style="stroke:#181818;stroke-width:1;"/><line style="stroke:#181818;stroke-width:1;" x1="313.134" x2="313.134" y1="137.9375" y2="161.0859"/><polygon fill="#181818" points="309.134,151.0859,313.134,161.0859,317.134,151.0859,313.134,155.0859" style="stroke:#181818;stroke-width:1;"/><line style="stroke:#181818;stroke-width:1;" x1="518.4355" x2="518.4355" y1="407.2891" y2="433.5859"/><polygon fill="#181818" points="514.4355,423.5859,518.4355,433.5859,522.4355,423.5859,518.4355,427.5859" style="stroke:#181818;stroke-width:1;"/><line style="stroke:#181818;stroke-width:1;" x1="247.2888" x2="107.8325" y1="351.3203" y2="351.3203"/><line style="stroke:#181818;stroke-width:1;" x1="107.8325" x2="107.8325" y1="351.3203" y2="376.4688"/><polygon fill="#181818" points="103.8325,366.4688,107.8325,376.4688,111.8325,366.4688,107.8325,370.4688" style="stroke:#181818;stroke-width:1;"/><line style="stroke:#181818;stroke-width:1;" x1="378.9792" x2="518.4355" y1="351.3203" y2="351.3203"/><line style="stroke:#181818;stroke-width:1;" x1="518.4355" x2="518.4355" y1="351.3203" y2="373.3203"/><polygon fill="#181818" points="514.4355,363.3203,518.4355,373.3203,522.4355,363.3203,518.4355,367.3203" style="stroke:#181818;stroke-width:1;"/><line style="stroke:#181818;stroke-width:1;" x1="107.8325" x2="107.8325" y1="410.4375" y2="485.5547"/><line style="stroke:#181818;stroke-width:1;" x1="107.8325" x2="301.134" y1="485.5547" y2="485.5547"/><polygon fill="#181818" points="291.134,481.5547,301.134,485.5547,291.134,489.5547,295.134,485.5547" style="stroke:#181818;stroke-width:1;"/><line style="stroke:#181818;stroke-width:1;" x1="518.4355" x2="518.4355" y1="467.5547" y2="485.5547"/><line style="stroke:#181818;stroke-width:1;" x1="518.4355" x2="325.134" y1="485.5547" y2="485.5547"/><polygon fill="#181818" points="335.134,481.5547,325.134,485.5547,335.134,489.5547,331.134,485.5547" style="stroke:#181818;stroke-width:1;"/><line style="stroke:#181818;stroke-width:1;" x1="313.134" x2="313.134" y1="319.3203" y2="339.3203"/><polygon fill="#181818" points="309.134,329.3203,313.134,339.3203,317.134,329.3203,313.134,333.3203" style="stroke:#181818;stroke-width:1;"/><line style="stroke:#181818;stroke-width:1;" x1="101.8857" x2="101.8857" y1="585.5234" y2="605.5234"/><polygon fill="#181818" points="97.8857,595.5234,101.8857,605.5234,105.8857,595.5234,101.8857,599.5234" style="stroke:#181818;stroke-width:1;"/><line style="stroke:#181818;stroke-width:1;" x1="524.3823" x2="524.3823" y1="585.5234" y2="605.5234"/><polygon fill="#181818" points="520.3823,595.5234,524.3823,605.5234,528.3823,595.5234,524.3823,599.5234" style="stroke:#181818;stroke-width:1;"/><line style="stroke:#181818;stroke-width:1;" x1="238.9368" x2="101.8857" y1="529.5547" y2="529.5547"/><line style="stroke:#181818;stroke-width:1;" x1="101.8857" x2="101.8857" y1="529.5547" y2="551.5547"/><polygon fill="#181818" points="97.8857,541.5547,101.8857,551.5547,105.8857,541.5547,101.8857,545.5547" style="stroke:#181818;stroke-width:1;"/><line style="stroke:#181818;stroke-width:1;" x1="387.3313" x2="524.3823" y1="529.5547" y2="529.5547"/><line style="stroke:#181818;stroke-width:1;" x1="524.3823" x2="524.3823" y1="529.5547" y2="551.5547"/><polygon fill="#181818" points="520.3823,541.5547,524.3823,551.5547,528.3823,541.5547,524.3823,545.5547" style="stroke:#181818;stroke-width:1;"/><line style="stroke:#181818;stroke-width:1;" x1="101.8857" x2="101.8857" y1="639.4922" y2="657.4922"/><line style="stroke:#181818;stroke-width:1;" x1="101.8857" x2="301.134" y1="657.4922" y2="657.4922"/><polygon fill="#181818" points="291.134,653.4922,301.134,657.4922,291.134,661.4922,295.134,657.4922" style="stroke:#181818;stroke-width:1;"/><line style="stroke:#181818;stroke-width:1;" x1="524.3823" x2="524.3823" y1="639.4922" y2="657.4922"/><line style="stroke:#181818;stroke-width:1;" x1="524.3823" x2="325.134" y1="657.4922" y2="657.4922"/><polygon fill="#181818" points="335.134,653.4922,325.134,657.4922,335.134,661.4922,331.134,657.4922" style="stroke:#181818;stroke-width:1;"/><line style="stroke:#181818;stroke-width:1;" x1="313.134" x2="313.134" y1="497.5547" y2="517.5547"/><polygon fill="#181818" points="309.134,507.5547,313.134,517.5547,317.134,507.5547,313.134,511.5547" style="stroke:#181818;stroke-width:1;"/><line style="stroke:#181818;stroke-width:1;" x1="313.134" x2="313.134" y1="669.4922" y2="689.4922"/><polygon fill="#181818" points="309.134,679.4922,313.134,689.4922,317.134,679.4922,313.134,683.4922" style="stroke:#181818;stroke-width:1;"/><line style="stroke:#181818;stroke-width:1;" x1="313.134" x2="313.134" y1="723.4609" y2="746.6094"/><polygon fill="#181818" points="309.134,736.6094,313.134,746.6094,317.134,736.6094,313.134,740.6094" style="stroke:#181818;stroke-width:1;"/><line style="stroke:#181818;stroke-width:1;" x1="313.134" x2="313.134" y1="780.5781" y2="803.7266"/><polygon fill="#181818" points="309.134,793.7266,313.134,803.7266,317.134,793.7266,313.134,797.7266" style="stroke:#181818;stroke-width:1;"/><?plantuml-src fLJBRXCn5DtFLrnsL69-85aWG1MRmgBY1zoCamvrxD7OAUekRIg4r4gL40jML1K_C7qC37dr5wx_Y7izIJjfYoXY4SLpVEnpVEwrdoIocse9c-klthru-tfZ7JfAM1j5redSHL4Bl-4vph3mGp_27rZIkC8IyDeFSKvJ4uAc_gWTQUCav6blsxK0puWq9Su1SMZs6U3SVoBi7CTOyQwdOVa5blG_nWByFZ7scUzFMCAV0E4JqcMGMKLJ8jePRCcEKz2J3hH9f5r1CfDOY6EXLAn5NzfCT8WXTGAyHHIbNNYAt_4dJlmHa5m9cr8aUy_Nm6rBJNDNMAn502tyGgOBl2HERQ-gtOvuBH-WJQo6BO3tPf1heTX9F00sfIJZF1997vpP8OLEBWKP0RZn99ML94nU_44jVJUY47aLP9Tr-BKgtu9c279NQcTvgoLACNNoT4joFcsE8-qkiZXZMNzSPy5XKwNcTDo2ySV7iizqhEw5ShysEc1nLmcjfI9AbkeUKC-KTBWhFrf6N11K_LjEmSMGW8gRwcw9LZEokvq70o9y9Q0tqWcryV8_yrdiyYT3olH2CdscgQtOxbad-qr_R3dDH9BaqjhC66NRZscSANtodUBRnIqq8sV5NrqOdJgJKrcQ3ZAJkxXhyWyYlssXMh8ArPlTF144bNJfo_ewhznU_4gbkGuvNeGNPF6eZDceFwIFIp_YQV-HnbM4f-4m9RL4GUj6j7fyhywD-_r0KuJLr5GJVynruz-gfLFcBoBYz-va-SRTR1BXPvAVaAEhsXbn_27jESDnCCef5wnmM_U6AUjCzXi0?></g></svg>